<svg xmlns="http://www.w3.org/2000/svg" width="333" height="333" viewBox="0 0 333 333">
  <g id="Layer_1" data-name="Layer 1" transform="translate(-6.5 -78.66)">
    <g id="_Group_" data-name="&lt;Group&gt;" transform="translate(6.5 78.66)">
      <g id="_Group_2" data-name="&lt;Group&gt;">
        <path id="_Path_" data-name="&lt;Path&gt;" d="M134.216,79.27a.1.1,0,0,0,.1-.1.1.1,0,0,0-.1-.1.1.1,0,0,0-.1.1A.1.1,0,0,0,134.216,79.27Z" transform="translate(-23.1 -78.713)"/>
        <path id="_Path_2" data-name="&lt;Path&gt;" d="M155.392,79.4a.257.257,0,1,0-.252-.252A.254.254,0,0,0,155.392,79.4Z" transform="translate(-25.834 -78.69)"/>
        <path id="_Path_3" data-name="&lt;Path&gt;" d="M176.579,79.538a.409.409,0,1,0-.409-.409A.408.408,0,0,0,176.579,79.538Z" transform="translate(-28.569 -78.668)"/>
        <path id="_Path_4" data-name="&lt;Path&gt;" d="M197.771,79.573a.457.457,0,1,0-.461-.452A.451.451,0,0,0,197.771,79.573Z" transform="translate(-31.319 -78.66)"/>
        <path id="_Path_5" data-name="&lt;Path&gt;" d="M218.979,79.538a.409.409,0,1,0-.409-.409A.408.408,0,0,0,218.979,79.538Z" transform="translate(-34.084 -78.668)"/>
        <path id="_Path_6" data-name="&lt;Path&gt;" d="M240.194,79.448a.309.309,0,0,0,0-.618.309.309,0,0,0,0,.618Z" transform="translate(-36.857 -78.682)"/>
        <path id="_Path_7" data-name="&lt;Path&gt;" d="M261.417,79.314a.154.154,0,0,0,.157-.148.157.157,0,1,0-.313,0A.154.154,0,0,0,261.417,79.314Z" transform="translate(-39.637 -78.706)"/>
        <path id="_Path_8" data-name="&lt;Path&gt;" d="M91.808,100.514a.154.154,0,0,0,.157-.148.156.156,0,0,0-.157-.157.149.149,0,0,0-.148.157A.147.147,0,0,0,91.808,100.514Z" transform="translate(-17.577 -81.463)"/>
        <path id="_Path_9" data-name="&lt;Path&gt;" d="M112.961,100.782a.464.464,0,0,0,.461-.461.461.461,0,1,0-.922,0A.464.464,0,0,0,112.961,100.782Z" transform="translate(-20.288 -81.417)"/>
        <path id="_Path_10" data-name="&lt;Path&gt;" d="M134.1,101.13a.87.87,0,1,0-.87-.87A.867.867,0,0,0,134.1,101.13Z" transform="translate(-22.984 -81.356)"/>
        <path id="_Path_11" data-name="&lt;Path&gt;" d="M155.262,101.343a1.127,1.127,0,1,0-1.122-1.122A1.127,1.127,0,0,0,155.262,101.343Z" transform="translate(-25.704 -81.317)"/>
        <path id="_Path_12" data-name="&lt;Path&gt;" d="M176.449,101.478a1.279,1.279,0,1,0-1.279-1.279A1.281,1.281,0,0,0,176.449,101.478Z" transform="translate(-28.439 -81.295)"/>
        <path id="_Path_13" data-name="&lt;Path&gt;" d="M197.641,101.522a1.331,1.331,0,1,0-1.331-1.331A1.337,1.337,0,0,0,197.641,101.522Z" transform="translate(-31.189 -81.287)"/>
        <path id="_Path_14" data-name="&lt;Path&gt;" d="M218.849,101.478a1.279,1.279,0,1,0-1.279-1.279A1.281,1.281,0,0,0,218.849,101.478Z" transform="translate(-33.954 -81.295)"/>
        <path id="_Path_15" data-name="&lt;Path&gt;" d="M240.072,101.343a1.127,1.127,0,1,0-1.122-1.122A1.125,1.125,0,0,0,240.072,101.343Z" transform="translate(-36.735 -81.317)"/>
        <path id="_Path_16" data-name="&lt;Path&gt;" d="M261.31,101.13a.87.87,0,1,0-.87-.87A.872.872,0,0,0,261.31,101.13Z" transform="translate(-39.53 -81.356)"/>
        <path id="_Path_17" data-name="&lt;Path&gt;" d="M282.563,100.818a.509.509,0,1,0,0-1.018.509.509,0,1,0,0,1.018Z" transform="translate(-42.341 -81.41)"/>
        <path id="_Path_18" data-name="&lt;Path&gt;" d="M303.818,100.514a.154.154,0,0,0,.157-.148.156.156,0,0,0-.157-.157.149.149,0,0,0-.148.157A.147.147,0,0,0,303.818,100.514Z" transform="translate(-45.153 -81.463)"/>
        <path id="_Path_19" data-name="&lt;Path&gt;" d="M70.592,121.8a.252.252,0,0,0,.252-.252.252.252,0,1,0-.5,0A.252.252,0,0,0,70.592,121.8Z" transform="translate(-14.804 -84.205)"/>
        <path id="_Path_20" data-name="&lt;Path&gt;" d="M91.716,122.241a.766.766,0,1,0-.766-.766A.767.767,0,0,0,91.716,122.241Z" transform="translate(-17.485 -84.129)"/>
        <path id="_Path_21" data-name="&lt;Path&gt;" d="M112.839,122.678a1.279,1.279,0,1,0-1.279-1.279A1.281,1.281,0,0,0,112.839,122.678Z" transform="translate(-20.165 -84.053)"/>
        <path id="_Path_22" data-name="&lt;Path&gt;" d="M133.978,123.025a1.688,1.688,0,1,0-1.688-1.688A1.684,1.684,0,0,0,133.978,123.025Z" transform="translate(-22.862 -83.992)"/>
        <path id="_Path_23" data-name="&lt;Path&gt;" d="M155.132,123.284a1.992,1.992,0,1,0-1.992-1.992A2,2,0,0,0,155.132,123.284Z" transform="translate(-25.574 -83.946)"/>
        <path id="_Path_24" data-name="&lt;Path&gt;" d="M176.311,123.462a2.2,2.2,0,1,0-2.2-2.2A2.2,2.2,0,0,0,176.311,123.462Z" transform="translate(-28.301 -83.915)"/>
        <path id="_Path_25" data-name="&lt;Path&gt;" d="M197.5,123.5a2.249,2.249,0,1,0-2.253-2.244A2.239,2.239,0,0,0,197.5,123.5Z" transform="translate(-31.051 -83.907)"/>
        <path id="_Path_26" data-name="&lt;Path&gt;" d="M218.711,123.462a2.2,2.2,0,1,0-2.2-2.2A2.209,2.209,0,0,0,218.711,123.462Z" transform="translate(-33.816 -83.915)"/>
        <path id="_Path_27" data-name="&lt;Path&gt;" d="M239.942,123.284a1.992,1.992,0,1,0-1.992-1.992A1.992,1.992,0,0,0,239.942,123.284Z" transform="translate(-36.605 -83.946)"/>
        <path id="_Path_28" data-name="&lt;Path&gt;" d="M261.188,123.025a1.688,1.688,0,1,0-1.688-1.688A1.689,1.689,0,0,0,261.188,123.025Z" transform="translate(-39.408 -83.992)"/>
        <path id="_Path_29" data-name="&lt;Path&gt;" d="M282.441,122.722a1.331,1.331,0,1,0-1.331-1.331A1.331,1.331,0,0,0,282.441,122.722Z" transform="translate(-42.219 -84.045)"/>
        <path id="_Path_30" data-name="&lt;Path&gt;" d="M303.718,122.285a.818.818,0,1,0-.818-.818A.817.817,0,0,0,303.718,122.285Z" transform="translate(-45.053 -84.122)"/>
        <path id="_Path_31" data-name="&lt;Path&gt;" d="M324.995,121.848a.309.309,0,1,0-.3-.3A.31.31,0,0,0,324.995,121.848Z" transform="translate(-47.887 -84.197)"/>
        <path id="_Path_32" data-name="&lt;Path&gt;" d="M49.392,143a.252.252,0,0,0,.252-.252.252.252,0,1,0-.5,0A.252.252,0,0,0,49.392,143Z" transform="translate(-12.046 -86.962)"/>
        <path id="_Path_33" data-name="&lt;Path&gt;" d="M70.5,143.53a.87.87,0,1,0-.87-.87A.872.872,0,0,0,70.5,143.53Z" transform="translate(-14.711 -86.871)"/>
        <path id="_Path_34" data-name="&lt;Path&gt;" d="M91.609,144.046a1.483,1.483,0,1,0-1.479-1.479A1.485,1.485,0,0,0,91.609,144.046Z" transform="translate(-17.378 -86.779)"/>
        <path id="_Path_35" data-name="&lt;Path&gt;" d="M112.724,144.529a2.044,2.044,0,1,0-2.044-2.044A2.042,2.042,0,0,0,112.724,144.529Z" transform="translate(-20.051 -86.696)"/>
        <path id="_Path_36" data-name="&lt;Path&gt;" d="M133.855,144.921a2.505,2.505,0,1,0-2.505-2.505A2.506,2.506,0,0,0,133.855,144.921Z" transform="translate(-22.739 -86.627)"/>
        <path id="_Path_37" data-name="&lt;Path&gt;" d="M155,145.224a2.862,2.862,0,1,0-2.862-2.862A2.866,2.866,0,0,0,155,145.224Z" transform="translate(-25.444 -86.574)"/>
        <path id="_Path_38" data-name="&lt;Path&gt;" d="M176.181,145.4a3.071,3.071,0,1,0-3.071-3.071A3.069,3.069,0,0,0,176.181,145.4Z" transform="translate(-28.171 -86.542)"/>
        <path id="_Path_39" data-name="&lt;Path&gt;" d="M197.365,145.482a3.171,3.171,0,1,0-3.175-3.167A3.167,3.167,0,0,0,197.365,145.482Z" transform="translate(-30.913 -86.527)"/>
        <path id="_Path_40" data-name="&lt;Path&gt;" d="M218.581,145.4a3.071,3.071,0,1,0-3.071-3.071A3.07,3.07,0,0,0,218.581,145.4Z" transform="translate(-33.686 -86.542)"/>
        <path id="_Path_41" data-name="&lt;Path&gt;" d="M239.812,145.224a2.862,2.862,0,1,0-2.862-2.862A2.859,2.859,0,0,0,239.812,145.224Z" transform="translate(-36.475 -86.574)"/>
        <path id="_Path_42" data-name="&lt;Path&gt;" d="M261.065,144.921a2.505,2.505,0,1,0-2.505-2.505A2.506,2.506,0,0,0,261.065,144.921Z" transform="translate(-39.286 -86.627)"/>
        <path id="_Path_43" data-name="&lt;Path&gt;" d="M282.327,144.573a2.1,2.1,0,1,0-2.1-2.1A2.1,2.1,0,0,0,282.327,144.573Z" transform="translate(-42.104 -86.688)"/>
        <path id="_Path_44" data-name="&lt;Path&gt;" d="M303.6,144.137a1.583,1.583,0,1,0-1.583-1.583A1.578,1.578,0,0,0,303.6,144.137Z" transform="translate(-44.939 -86.765)"/>
        <path id="_Path_45" data-name="&lt;Path&gt;" d="M324.9,143.619a.974.974,0,1,0-.966-.974A.973.973,0,0,0,324.9,143.619Z" transform="translate(-47.789 -86.856)"/>
        <path id="_Path_46" data-name="&lt;Path&gt;" d="M346.195,143.049a.31.31,0,0,0,.313-.3.309.309,0,0,0-.618,0A.308.308,0,0,0,346.195,143.049Z" transform="translate(-50.645 -86.956)"/>
        <path id="_Path_47" data-name="&lt;Path&gt;" d="M28.207,164.123a.157.157,0,1,0-.157-.157A.156.156,0,0,0,28.207,164.123Z" transform="translate(-9.303 -89.736)"/>
        <path id="_Path_48" data-name="&lt;Path&gt;" d="M49.316,164.641a.766.766,0,1,0-.766-.766A.761.761,0,0,0,49.316,164.641Z" transform="translate(-11.97 -89.645)"/>
        <path id="_Path_49" data-name="&lt;Path&gt;" d="M70.409,165.246a1.483,1.483,0,1,0-1.479-1.479A1.485,1.485,0,0,0,70.409,165.246Z" transform="translate(-14.62 -89.537)"/>
        <path id="_Path_50" data-name="&lt;Path&gt;" d="M91.509,165.817a2.149,2.149,0,1,0-2.149-2.149A2.148,2.148,0,0,0,91.509,165.817Z" transform="translate(-17.278 -89.438)"/>
        <path id="_Path_51" data-name="&lt;Path&gt;" d="M112.618,166.335a2.758,2.758,0,1,0-2.758-2.758A2.76,2.76,0,0,0,112.618,166.335Z" transform="translate(-19.944 -89.347)"/>
        <path id="_Path_52" data-name="&lt;Path&gt;" d="M133.741,166.772a3.271,3.271,0,1,0-3.271-3.271A3.275,3.275,0,0,0,133.741,166.772Z" transform="translate(-22.625 -89.27)"/>
        <path id="_Path_53" data-name="&lt;Path&gt;" d="M154.88,167.12a3.68,3.68,0,1,0-3.68-3.68A3.683,3.683,0,0,0,154.88,167.12Z" transform="translate(-25.321 -89.209)"/>
        <path id="_Path_54" data-name="&lt;Path&gt;" d="M176.051,167.342a3.941,3.941,0,1,0-3.941-3.941A3.935,3.935,0,0,0,176.051,167.342Z" transform="translate(-28.041 -89.17)"/>
        <path id="_Path_55" data-name="&lt;Path&gt;" d="M197.235,167.423a4.036,4.036,0,1,0-4.045-4.036A4.039,4.039,0,0,0,197.235,167.423Z" transform="translate(-30.783 -89.155)"/>
        <path id="_Path_56" data-name="&lt;Path&gt;" d="M218.451,167.342a3.941,3.941,0,1,0-3.941-3.941A3.935,3.935,0,0,0,218.451,167.342Z" transform="translate(-33.556 -89.17)"/>
        <path id="_Path_57" data-name="&lt;Path&gt;" d="M239.682,167.164a3.732,3.732,0,1,0-3.732-3.732A3.731,3.731,0,0,0,239.682,167.164Z" transform="translate(-36.345 -89.201)"/>
        <path id="_Path_58" data-name="&lt;Path&gt;" d="M260.943,166.816a3.323,3.323,0,1,0-3.323-3.323A3.323,3.323,0,0,0,260.943,166.816Z" transform="translate(-39.164 -89.262)"/>
        <path id="_Path_59" data-name="&lt;Path&gt;" d="M282.22,166.38a2.81,2.81,0,1,0-2.81-2.81A2.8,2.8,0,0,0,282.22,166.38Z" transform="translate(-41.998 -89.339)"/>
        <path id="_Path_60" data-name="&lt;Path&gt;" d="M303.5,165.906a2.253,2.253,0,1,0-2.244-2.253A2.254,2.254,0,0,0,303.5,165.906Z" transform="translate(-44.84 -89.422)"/>
        <path id="_Path_61" data-name="&lt;Path&gt;" d="M324.8,165.337a1.583,1.583,0,1,0-1.583-1.583A1.585,1.585,0,0,0,324.8,165.337Z" transform="translate(-47.696 -89.522)"/>
        <path id="_Path_62" data-name="&lt;Path&gt;" d="M346.11,164.73a.87.87,0,1,0-.87-.87A.867.867,0,0,0,346.11,164.73Z" transform="translate(-50.56 -89.629)"/>
        <path id="_Path_63" data-name="&lt;Path&gt;" d="M367.419,164.159a.2.2,0,0,0,.2-.2.2.2,0,1,0-.409,0A.2.2,0,0,0,367.419,164.159Z" transform="translate(-53.418 -89.728)"/>
        <path id="_Path_64" data-name="&lt;Path&gt;" d="M28.161,185.582a.461.461,0,1,0-.461-.461A.464.464,0,0,0,28.161,185.582Z" transform="translate(-9.258 -92.448)"/>
        <path id="_Path_65" data-name="&lt;Path&gt;" d="M49.239,186.278A1.279,1.279,0,1,0,47.96,185,1.281,1.281,0,0,0,49.239,186.278Z" transform="translate(-11.893 -92.325)"/>
        <path id="_Path_66" data-name="&lt;Path&gt;" d="M70.324,186.929a2.044,2.044,0,1,0-2.044-2.044A2.042,2.042,0,0,0,70.324,186.929Z" transform="translate(-14.536 -92.211)"/>
        <path id="_Path_67" data-name="&lt;Path&gt;" d="M91.418,187.544a2.762,2.762,0,1,0-2.758-2.766A2.768,2.768,0,0,0,91.418,187.544Z" transform="translate(-17.187 -92.104)"/>
        <path id="_Path_68" data-name="&lt;Path&gt;" d="M112.518,188.105a3.428,3.428,0,1,0-3.428-3.428A3.423,3.423,0,0,0,112.518,188.105Z" transform="translate(-19.844 -92.004)"/>
        <path id="_Path_69" data-name="&lt;Path&gt;" d="M133.626,188.632a4.041,4.041,0,1,0-4.036-4.045A4.043,4.043,0,0,0,133.626,188.632Z" transform="translate(-22.51 -91.913)"/>
        <path id="_Path_70" data-name="&lt;Path&gt;" d="M154.758,189.015a4.5,4.5,0,1,0-4.5-4.5A4.5,4.5,0,0,0,154.758,189.015Z" transform="translate(-25.199 -91.844)"/>
        <path id="_Path_71" data-name="&lt;Path&gt;" d="M175.921,189.281a4.811,4.811,0,1,0-4.811-4.811A4.808,4.808,0,0,0,175.921,189.281Z" transform="translate(-27.911 -91.797)"/>
        <path id="_Path_72" data-name="&lt;Path&gt;" d="M197.1,189.407a4.959,4.959,0,1,0-4.967-4.959A4.956,4.956,0,0,0,197.1,189.407Z" transform="translate(-30.645 -91.775)"/>
        <path id="_Path_73" data-name="&lt;Path&gt;" d="M218.313,189.327a4.859,4.859,0,1,0-4.863-4.863A4.858,4.858,0,0,0,218.313,189.327Z" transform="translate(-33.418 -91.791)"/>
        <path id="_Path_74" data-name="&lt;Path&gt;" d="M239.56,189.059a4.55,4.55,0,1,0-4.55-4.55A4.548,4.548,0,0,0,239.56,189.059Z" transform="translate(-36.223 -91.836)"/>
        <path id="_Path_75" data-name="&lt;Path&gt;" d="M260.829,188.667a4.089,4.089,0,1,0-4.089-4.089A4.084,4.084,0,0,0,260.829,188.667Z" transform="translate(-39.049 -91.905)"/>
        <path id="_Path_76" data-name="&lt;Path&gt;" d="M282.12,188.149a3.48,3.48,0,1,0-3.48-3.48A3.479,3.479,0,0,0,282.12,188.149Z" transform="translate(-41.898 -91.996)"/>
        <path id="_Path_77" data-name="&lt;Path&gt;" d="M303.42,187.58a2.81,2.81,0,1,0-2.81-2.81A2.81,2.81,0,0,0,303.42,187.58Z" transform="translate(-44.755 -92.096)"/>
        <path id="_Path_78" data-name="&lt;Path&gt;" d="M324.727,186.973a2.1,2.1,0,1,0-2.1-2.1A2.1,2.1,0,0,0,324.727,186.973Z" transform="translate(-47.619 -92.203)"/>
        <path id="_Path_79" data-name="&lt;Path&gt;" d="M346.042,186.322a1.331,1.331,0,1,0-1.322-1.331A1.331,1.331,0,0,0,346.042,186.322Z" transform="translate(-50.493 -92.317)"/>
        <path id="_Path_80" data-name="&lt;Path&gt;" d="M367.365,185.671a.565.565,0,1,0-.565-.565A.563.563,0,0,0,367.365,185.671Z" transform="translate(-53.365 -92.432)"/>
        <path id="_Path_81" data-name="&lt;Path&gt;" d="M388.642,185.234a.053.053,0,0,0,0-.1.052.052,0,0,0,0,.1Z" transform="translate(-56.199 -92.509)"/>
        <path id="_Path_82" data-name="&lt;Path&gt;" d="M7.014,206.479a.106.106,0,0,0,.1-.1.112.112,0,0,0-.1-.1.106.106,0,0,0-.1.1A.1.1,0,0,0,7.014,206.479Z" transform="translate(-6.553 -95.258)"/>
        <path id="_Path_83" data-name="&lt;Path&gt;" d="M28.1,207.13a.87.87,0,1,0-.87-.87A.872.872,0,0,0,28.1,207.13Z" transform="translate(-9.196 -95.144)"/>
        <path id="_Path_84" data-name="&lt;Path&gt;" d="M49.178,207.825a1.688,1.688,0,1,0-1.688-1.688A1.689,1.689,0,0,0,49.178,207.825Z" transform="translate(-11.832 -95.022)"/>
        <path id="_Path_85" data-name="&lt;Path&gt;" d="M70.255,208.521a2.505,2.505,0,1,0-2.505-2.505A2.506,2.506,0,0,0,70.255,208.521Z" transform="translate(-14.467 -94.899)"/>
        <path id="_Path_86" data-name="&lt;Path&gt;" d="M91.341,209.172A3.271,3.271,0,1,0,88.07,205.9,3.267,3.267,0,0,0,91.341,209.172Z" transform="translate(-17.11 -94.785)"/>
        <path id="_Path_87" data-name="&lt;Path&gt;" d="M112.426,209.832a4.041,4.041,0,1,0-4.036-4.045A4.043,4.043,0,0,0,112.426,209.832Z" transform="translate(-19.753 -94.67)"/>
        <path id="_Path_88" data-name="&lt;Path&gt;" d="M133.528,210.393a4.706,4.706,0,1,0-4.7-4.706A4.7,4.7,0,0,0,133.528,210.393Z" transform="translate(-22.412 -94.57)"/>
        <path id="_Path_89" data-name="&lt;Path&gt;" d="M154.643,210.875a5.267,5.267,0,1,0-5.263-5.272A5.268,5.268,0,0,0,154.643,210.875Z" transform="translate(-25.085 -94.487)"/>
        <path id="_Path_90" data-name="&lt;Path&gt;" d="M175.791,211.223a5.676,5.676,0,1,0-5.681-5.681A5.675,5.675,0,0,0,175.791,211.223Z" transform="translate(-27.781 -94.426)"/>
        <path id="_Path_91" data-name="&lt;Path&gt;" d="M196.967,211.347a5.829,5.829,0,1,0-5.837-5.829A5.829,5.829,0,0,0,196.967,211.347Z" transform="translate(-30.515 -94.403)"/>
        <path id="_Path_92" data-name="&lt;Path&gt;" d="M218.183,211.267a5.728,5.728,0,1,0-5.733-5.733A5.73,5.73,0,0,0,218.183,211.267Z" transform="translate(-33.288 -94.418)"/>
        <path id="_Path_93" data-name="&lt;Path&gt;" d="M239.444,210.919a5.32,5.32,0,1,0-5.324-5.324A5.317,5.317,0,0,0,239.444,210.919Z" transform="translate(-36.107 -94.479)"/>
        <path id="_Path_94" data-name="&lt;Path&gt;" d="M260.729,210.437a4.759,4.759,0,1,0-4.759-4.759A4.76,4.76,0,0,0,260.729,210.437Z" transform="translate(-38.949 -94.563)"/>
        <path id="_Path_95" data-name="&lt;Path&gt;" d="M282.029,209.876a4.093,4.093,0,1,0-4.089-4.1A4.091,4.091,0,0,0,282.029,209.876Z" transform="translate(-41.807 -94.663)"/>
        <path id="_Path_96" data-name="&lt;Path&gt;" d="M303.335,209.261a3.375,3.375,0,1,0-3.375-3.375A3.378,3.378,0,0,0,303.335,209.261Z" transform="translate(-44.671 -94.769)"/>
        <path id="_Path_97" data-name="&lt;Path&gt;" d="M324.658,208.565a2.558,2.558,0,1,0-2.558-2.558A2.551,2.551,0,0,0,324.658,208.565Z" transform="translate(-47.55 -94.892)"/>
        <path id="_Path_98" data-name="&lt;Path&gt;" d="M345.981,207.87a1.74,1.74,0,1,0-1.731-1.74A1.734,1.734,0,0,0,345.981,207.87Z" transform="translate(-50.432 -95.014)"/>
        <path id="_Path_99" data-name="&lt;Path&gt;" d="M367.312,207.174a.922.922,0,1,0-.922-.922A.915.915,0,0,0,367.312,207.174Z" transform="translate(-53.311 -95.136)"/>
        <path id="_Path_100" data-name="&lt;Path&gt;" d="M388.627,206.524a.154.154,0,0,0,.148-.157.147.147,0,0,0-.148-.148.149.149,0,0,0-.157.148A.156.156,0,0,0,388.627,206.524Z" transform="translate(-56.183 -95.252)"/>
        <path id="_Path_101" data-name="&lt;Path&gt;" d="M6.991,227.813a.257.257,0,0,0,0-.513.257.257,0,1,0,0,.513Z" transform="translate(-6.53 -97.994)"/>
        <path id="_Path_102" data-name="&lt;Path&gt;" d="M28.062,228.553a1.127,1.127,0,1,0-1.122-1.131A1.127,1.127,0,0,0,28.062,228.553Z" transform="translate(-9.159 -97.864)"/>
        <path id="_Path_103" data-name="&lt;Path&gt;" d="M49.132,229.293a2,2,0,1,0-1.992-2A1.994,1.994,0,0,0,49.132,229.293Z" transform="translate(-11.786 -97.734)"/>
        <path id="_Path_104" data-name="&lt;Path&gt;" d="M70.2,230.033a2.866,2.866,0,1,0-2.862-2.871A2.866,2.866,0,0,0,70.2,230.033Z" transform="translate(-14.414 -97.604)"/>
        <path id="_Path_105" data-name="&lt;Path&gt;" d="M91.28,230.728a3.684,3.684,0,1,0-3.68-3.689A3.683,3.683,0,0,0,91.28,230.728Z" transform="translate(-17.049 -97.481)"/>
        <path id="_Path_106" data-name="&lt;Path&gt;" d="M112.358,231.424a4.5,4.5,0,1,0-4.5-4.506A4.507,4.507,0,0,0,112.358,231.424Z" transform="translate(-19.684 -97.359)"/>
        <path id="_Path_107" data-name="&lt;Path&gt;" d="M133.443,232.075a5.267,5.267,0,1,0-5.263-5.272A5.268,5.268,0,0,0,133.443,232.075Z" transform="translate(-22.327 -97.245)"/>
        <path id="_Path_108" data-name="&lt;Path&gt;" d="M154.536,232.68a5.985,5.985,0,1,0-5.976-5.985A5.985,5.985,0,0,0,154.536,232.68Z" transform="translate(-24.978 -97.137)"/>
        <path id="_Path_109" data-name="&lt;Path&gt;" d="M175.668,233.118a6.494,6.494,0,1,0-6.5-6.5A6.492,6.492,0,0,0,175.668,233.118Z" transform="translate(-27.659 -97.061)"/>
        <path id="_Path_110" data-name="&lt;Path&gt;" d="M196.831,233.331a6.751,6.751,0,1,0-6.751-6.751A6.751,6.751,0,0,0,196.831,233.331Z" transform="translate(-30.379 -97.022)"/>
        <path id="_Path_111" data-name="&lt;Path&gt;" d="M218.061,233.162a6.546,6.546,0,1,0-6.551-6.551A6.547,6.547,0,0,0,218.061,233.162Z" transform="translate(-33.166 -97.053)"/>
        <path id="_Path_112" data-name="&lt;Path&gt;" d="M239.337,232.726a6.033,6.033,0,1,0-6.037-6.037A6.04,6.04,0,0,0,239.337,232.726Z" transform="translate(-36 -97.13)"/>
        <path id="_Path_113" data-name="&lt;Path&gt;" d="M260.637,232.164a5.372,5.372,0,1,0-5.367-5.376A5.372,5.372,0,0,0,260.637,232.164Z" transform="translate(-38.858 -97.229)"/>
        <path id="_Path_114" data-name="&lt;Path&gt;" d="M281.952,231.5a4.6,4.6,0,1,0-4.6-4.6A4.6,4.6,0,0,0,281.952,231.5Z" transform="translate(-41.73 -97.343)"/>
        <path id="_Path_115" data-name="&lt;Path&gt;" d="M303.282,230.764a3.732,3.732,0,1,0-3.732-3.732A3.731,3.731,0,0,0,303.282,230.764Z" transform="translate(-44.617 -97.474)"/>
        <path id="_Path_116" data-name="&lt;Path&gt;" d="M324.6,230.069a2.914,2.914,0,1,0-2.914-2.914A2.914,2.914,0,0,0,324.6,230.069Z" transform="translate(-47.497 -97.596)"/>
        <path id="_Path_117" data-name="&lt;Path&gt;" d="M345.927,229.373a2.1,2.1,0,1,0-2.1-2.1A2.092,2.092,0,0,0,345.927,229.373Z" transform="translate(-50.377 -97.718)"/>
        <path id="_Path_118" data-name="&lt;Path&gt;" d="M367.273,228.6a1.179,1.179,0,1,0-1.183-1.183A1.183,1.183,0,0,0,367.273,228.6Z" transform="translate(-53.272 -97.856)"/>
        <path id="_Path_119" data-name="&lt;Path&gt;" d="M388.6,227.893a.358.358,0,0,0,.357-.357.361.361,0,0,0-.722,0A.36.36,0,0,0,388.6,227.893Z" transform="translate(-56.152 -97.978)"/>
        <path id="_Path_120" data-name="&lt;Path&gt;" d="M6.969,249.138a.409.409,0,1,0-.409-.409A.408.408,0,0,0,6.969,249.138Z" transform="translate(-6.508 -100.728)"/>
        <path id="_Path_121" data-name="&lt;Path&gt;" d="M28.039,249.878A1.279,1.279,0,1,0,26.76,248.6,1.275,1.275,0,0,0,28.039,249.878Z" transform="translate(-9.135 -100.598)"/>
        <path id="_Path_122" data-name="&lt;Path&gt;" d="M49.1,250.663a2.2,2.2,0,1,0-2.2-2.2A2.2,2.2,0,0,0,49.1,250.663Z" transform="translate(-11.755 -100.461)"/>
        <path id="_Path_123" data-name="&lt;Path&gt;" d="M70.171,251.4a3.067,3.067,0,1,0-3.071-3.071A3.07,3.07,0,0,0,70.171,251.4Z" transform="translate(-14.382 -100.331)"/>
        <path id="_Path_124" data-name="&lt;Path&gt;" d="M91.242,252.143A3.936,3.936,0,1,0,87.31,248.2,3.943,3.943,0,0,0,91.242,252.143Z" transform="translate(-17.011 -100.201)"/>
        <path id="_Path_125" data-name="&lt;Path&gt;" d="M112.312,252.883a4.806,4.806,0,1,0-4.8-4.811A4.8,4.8,0,0,0,112.312,252.883Z" transform="translate(-19.638 -100.071)"/>
        <path id="_Path_126" data-name="&lt;Path&gt;" d="M133.382,253.623a5.676,5.676,0,1,0-5.672-5.681A5.677,5.677,0,0,0,133.382,253.623Z" transform="translate(-22.266 -99.941)"/>
        <path id="_Path_127" data-name="&lt;Path&gt;" d="M154.46,254.318a6.494,6.494,0,1,0-6.49-6.5A6.493,6.493,0,0,0,154.46,254.318Z" transform="translate(-24.901 -99.819)"/>
        <path id="_Path_128" data-name="&lt;Path&gt;" d="M175.554,254.969a7.26,7.26,0,1,0-7.264-7.264A7.258,7.258,0,0,0,175.554,254.969Z" transform="translate(-27.544 -99.704)"/>
        <path id="_Path_129" data-name="&lt;Path&gt;" d="M196.7,255.271a7.621,7.621,0,1,0-7.621-7.621A7.624,7.624,0,0,0,196.7,255.271Z" transform="translate(-30.248 -99.65)"/>
        <path id="_Path_130" data-name="&lt;Path&gt;" d="M217.954,254.969a7.26,7.26,0,1,0-7.264-7.264A7.266,7.266,0,0,0,217.954,254.969Z" transform="translate(-33.059 -99.704)"/>
        <path id="_Path_131" data-name="&lt;Path&gt;" d="M239.254,254.407a6.6,6.6,0,1,0-6.594-6.6A6.6,6.6,0,0,0,239.254,254.407Z" transform="translate(-35.917 -99.803)"/>
        <path id="_Path_132" data-name="&lt;Path&gt;" d="M260.576,253.711a5.781,5.781,0,1,0-5.776-5.785A5.781,5.781,0,0,0,260.576,253.711Z" transform="translate(-38.797 -99.925)"/>
        <path id="_Path_133" data-name="&lt;Path&gt;" d="M281.906,252.972A4.911,4.911,0,1,0,277,248.056,4.908,4.908,0,0,0,281.906,252.972Z" transform="translate(-41.684 -100.055)"/>
        <path id="_Path_134" data-name="&lt;Path&gt;" d="M303.236,252.232a4.041,4.041,0,1,0-4.036-4.045A4.043,4.043,0,0,0,303.236,252.232Z" transform="translate(-44.572 -100.185)"/>
        <path id="_Path_135" data-name="&lt;Path&gt;" d="M324.567,251.492a3.171,3.171,0,1,0-3.167-3.175A3.171,3.171,0,0,0,324.567,251.492Z" transform="translate(-47.459 -100.316)"/>
        <path id="_Path_136" data-name="&lt;Path&gt;" d="M345.9,250.708a2.249,2.249,0,1,0-2.244-2.253A2.254,2.254,0,0,0,345.9,250.708Z" transform="translate(-50.355 -100.453)"/>
        <path id="_Path_137" data-name="&lt;Path&gt;" d="M367.243,249.968a1.379,1.379,0,1,0-1.383-1.383A1.379,1.379,0,0,0,367.243,249.968Z" transform="translate(-53.242 -100.583)"/>
        <path id="_Path_138" data-name="&lt;Path&gt;" d="M388.573,249.228a.509.509,0,1,0-.513-.513A.507.507,0,0,0,388.573,249.228Z" transform="translate(-56.13 -100.714)"/>
        <path id="_Path_139" data-name="&lt;Path&gt;" d="M6.961,270.383a.457.457,0,1,0-.461-.461A.459.459,0,0,0,6.961,270.383Z" transform="translate(-6.5 -103.479)"/>
        <path id="_Path_140" data-name="&lt;Path&gt;" d="M28.031,271.123a1.327,1.327,0,1,0-1.331-1.331A1.331,1.331,0,0,0,28.031,271.123Z" transform="translate(-9.127 -103.349)"/>
        <path id="_Path_141" data-name="&lt;Path&gt;" d="M49.093,271.908a2.249,2.249,0,1,0-2.253-2.253A2.254,2.254,0,0,0,49.093,271.908Z" transform="translate(-11.747 -103.211)"/>
        <path id="_Path_142" data-name="&lt;Path&gt;" d="M70.157,272.692a3.171,3.171,0,1,0-3.167-3.175A3.176,3.176,0,0,0,70.157,272.692Z" transform="translate(-14.368 -103.073)"/>
        <path id="_Path_143" data-name="&lt;Path&gt;" d="M91.226,273.432a4.041,4.041,0,1,0-4.036-4.045A4.043,4.043,0,0,0,91.226,273.432Z" transform="translate(-16.995 -102.943)"/>
        <path id="_Path_144" data-name="&lt;Path&gt;" d="M112.289,274.216a4.963,4.963,0,1,0-4.959-4.967A4.971,4.971,0,0,0,112.289,274.216Z" transform="translate(-19.615 -102.805)"/>
        <path id="_Path_145" data-name="&lt;Path&gt;" d="M133.359,274.956a5.833,5.833,0,1,0-5.829-5.837A5.833,5.833,0,0,0,133.359,274.956Z" transform="translate(-22.243 -102.675)"/>
        <path id="_Path_146" data-name="&lt;Path&gt;" d="M154.421,275.74a6.755,6.755,0,1,0-6.751-6.759A6.761,6.761,0,0,0,154.421,275.74Z" transform="translate(-24.862 -102.537)"/>
        <path id="_Path_147" data-name="&lt;Path&gt;" d="M175.5,276.472a7.616,7.616,0,1,0-7.621-7.621A7.624,7.624,0,0,0,175.5,276.472Z" transform="translate(-27.491 -102.408)"/>
        <path id="_Path_148" data-name="&lt;Path&gt;" d="M196.608,277a8.234,8.234,0,1,0-8.238-8.238A8.236,8.236,0,0,0,196.608,277Z" transform="translate(-30.156 -102.316)"/>
        <path id="_Path_149" data-name="&lt;Path&gt;" d="M217.893,276.517a7.668,7.668,0,1,0-7.673-7.673A7.668,7.668,0,0,0,217.893,276.517Z" transform="translate(-32.998 -102.401)"/>
        <path id="_Path_150" data-name="&lt;Path&gt;" d="M239.223,275.777a6.8,6.8,0,1,0-6.8-6.8A6.8,6.8,0,0,0,239.223,275.777Z" transform="translate(-35.886 -102.531)"/>
        <path id="_Path_151" data-name="&lt;Path&gt;" d="M260.553,275.037a5.929,5.929,0,1,0-5.933-5.933A5.929,5.929,0,0,0,260.553,275.037Z" transform="translate(-38.773 -102.661)"/>
        <path id="_Path_152" data-name="&lt;Path&gt;" d="M281.891,274.26a5.015,5.015,0,1,0-5.011-5.019A5.014,5.014,0,0,0,281.891,274.26Z" transform="translate(-41.669 -102.797)"/>
        <path id="_Path_153" data-name="&lt;Path&gt;" d="M303.221,273.52a4.145,4.145,0,1,0-4.141-4.15A4.147,4.147,0,0,0,303.221,273.52Z" transform="translate(-44.556 -102.927)"/>
        <path id="_Path_154" data-name="&lt;Path&gt;" d="M324.559,272.736a3.223,3.223,0,1,0-3.219-3.227A3.226,3.226,0,0,0,324.559,272.736Z" transform="translate(-47.452 -103.065)"/>
        <path id="_Path_155" data-name="&lt;Path&gt;" d="M345.889,272a2.353,2.353,0,1,0-2.349-2.358A2.354,2.354,0,0,0,345.889,272Z" transform="translate(-50.339 -103.195)"/>
        <path id="_Path_156" data-name="&lt;Path&gt;" d="M367.235,271.212a1.431,1.431,0,1,0-1.435-1.435A1.435,1.435,0,0,0,367.235,271.212Z" transform="translate(-53.235 -103.333)"/>
        <path id="_Path_157" data-name="&lt;Path&gt;" d="M388.565,270.472a.561.561,0,1,0-.565-.565A.562.562,0,0,0,388.565,270.472Z" transform="translate(-56.122 -103.463)"/>
        <path id="_Path_158" data-name="&lt;Path&gt;" d="M6.969,291.548a.409.409,0,1,0-.409-.409A.408.408,0,0,0,6.969,291.548Z" transform="translate(-6.508 -106.244)"/>
        <path id="_Path_159" data-name="&lt;Path&gt;" d="M28.039,292.288a1.279,1.279,0,1,0-1.279-1.279A1.281,1.281,0,0,0,28.039,292.288Z" transform="translate(-9.135 -106.114)"/>
        <path id="_Path_160" data-name="&lt;Path&gt;" d="M49.1,293.063a2.2,2.2,0,1,0-2.2-2.192A2.2,2.2,0,0,0,49.1,293.063Z" transform="translate(-11.755 -105.976)"/>
        <path id="_Path_161" data-name="&lt;Path&gt;" d="M70.171,293.8a3.067,3.067,0,1,0-3.071-3.062A3.068,3.068,0,0,0,70.171,293.8Z" transform="translate(-14.382 -105.846)"/>
        <path id="_Path_162" data-name="&lt;Path&gt;" d="M91.242,294.543a3.936,3.936,0,1,0-3.932-3.932A3.935,3.935,0,0,0,91.242,294.543Z" transform="translate(-17.011 -105.716)"/>
        <path id="_Path_163" data-name="&lt;Path&gt;" d="M112.3,295.327a4.859,4.859,0,1,0-4.854-4.854A4.858,4.858,0,0,0,112.3,295.327Z" transform="translate(-19.631 -105.578)"/>
        <path id="_Path_164" data-name="&lt;Path&gt;" d="M133.374,296.067a5.728,5.728,0,1,0-5.724-5.724A5.73,5.73,0,0,0,133.374,296.067Z" transform="translate(-22.258 -105.448)"/>
        <path id="_Path_165" data-name="&lt;Path&gt;" d="M154.452,296.762a6.546,6.546,0,1,0-6.542-6.542A6.547,6.547,0,0,0,154.452,296.762Z" transform="translate(-24.893 -105.326)"/>
        <path id="_Path_166" data-name="&lt;Path&gt;" d="M175.554,297.369a7.26,7.26,0,1,0-7.264-7.255A7.251,7.251,0,0,0,175.554,297.369Z" transform="translate(-27.544 -105.219)"/>
        <path id="_Path_167" data-name="&lt;Path&gt;" d="M196.693,297.717a7.668,7.668,0,1,0-7.673-7.664A7.667,7.667,0,0,0,196.693,297.717Z" transform="translate(-30.241 -105.158)"/>
        <path id="_Path_168" data-name="&lt;Path&gt;" d="M217.938,297.458a7.364,7.364,0,1,0-7.368-7.36A7.362,7.362,0,0,0,217.938,297.458Z" transform="translate(-33.044 -105.204)"/>
        <path id="_Path_169" data-name="&lt;Path&gt;" d="M239.254,296.807a6.6,6.6,0,1,0-6.594-6.594A6.6,6.6,0,0,0,239.254,296.807Z" transform="translate(-35.917 -105.318)"/>
        <path id="_Path_170" data-name="&lt;Path&gt;" d="M260.576,296.111a5.781,5.781,0,1,0-5.776-5.776A5.779,5.779,0,0,0,260.576,296.111Z" transform="translate(-38.797 -105.44)"/>
        <path id="_Path_171" data-name="&lt;Path&gt;" d="M281.906,295.372A4.911,4.911,0,1,0,277,290.465,4.906,4.906,0,0,0,281.906,295.372Z" transform="translate(-41.684 -105.57)"/>
        <path id="_Path_172" data-name="&lt;Path&gt;" d="M303.236,294.632A4.041,4.041,0,1,0,299.2,290.6,4.041,4.041,0,0,0,303.236,294.632Z" transform="translate(-44.572 -105.701)"/>
        <path id="_Path_173" data-name="&lt;Path&gt;" d="M324.567,293.892a3.171,3.171,0,1,0-3.167-3.167A3.169,3.169,0,0,0,324.567,293.892Z" transform="translate(-47.459 -105.831)"/>
        <path id="_Path_174" data-name="&lt;Path&gt;" d="M345.9,293.152a2.3,2.3,0,1,0-2.3-2.3A2.3,2.3,0,0,0,345.9,293.152Z" transform="translate(-50.347 -105.961)"/>
        <path id="_Path_175" data-name="&lt;Path&gt;" d="M367.243,292.368a1.379,1.379,0,1,0-1.383-1.375A1.377,1.377,0,0,0,367.243,292.368Z" transform="translate(-53.242 -106.099)"/>
        <path id="_Path_176" data-name="&lt;Path&gt;" d="M388.573,291.628a.509.509,0,1,0-.513-.5A.5.5,0,0,0,388.573,291.628Z" transform="translate(-56.13 -106.229)"/>
        <path id="_Path_177" data-name="&lt;Path&gt;" d="M6.984,312.658a.309.309,0,0,0,0-.618.309.309,0,0,0,0,.618Z" transform="translate(-6.523 -109.016)"/>
        <path id="_Path_178" data-name="&lt;Path&gt;" d="M28.062,313.353a1.127,1.127,0,1,0-1.122-1.122A1.125,1.125,0,0,0,28.062,313.353Z" transform="translate(-9.159 -108.894)"/>
        <path id="_Path_179" data-name="&lt;Path&gt;" d="M49.132,314.093A2,2,0,1,0,47.14,312.1,1.992,1.992,0,0,0,49.132,314.093Z" transform="translate(-11.786 -108.764)"/>
        <path id="_Path_180" data-name="&lt;Path&gt;" d="M70.2,314.833a2.866,2.866,0,1,0-2.862-2.862A2.859,2.859,0,0,0,70.2,314.833Z" transform="translate(-14.414 -108.634)"/>
        <path id="_Path_181" data-name="&lt;Path&gt;" d="M91.272,315.574a3.732,3.732,0,1,0-3.732-3.732A3.731,3.731,0,0,0,91.272,315.574Z" transform="translate(-17.041 -108.505)"/>
        <path id="_Path_182" data-name="&lt;Path&gt;" d="M112.35,316.268a4.554,4.554,0,1,0-4.55-4.55A4.555,4.555,0,0,0,112.35,316.268Z" transform="translate(-19.676 -108.381)"/>
        <path id="_Path_183" data-name="&lt;Path&gt;" d="M133.435,316.919a5.32,5.32,0,1,0-5.315-5.315A5.322,5.322,0,0,0,133.435,316.919Z" transform="translate(-22.319 -108.267)"/>
        <path id="_Path_184" data-name="&lt;Path&gt;" d="M154.529,317.526A6.033,6.033,0,1,0,148.5,311.5,6.027,6.027,0,0,0,154.529,317.526Z" transform="translate(-24.97 -108.16)"/>
        <path id="_Path_185" data-name="&lt;Path&gt;" d="M175.653,318.007a6.6,6.6,0,1,0-6.6-6.594A6.6,6.6,0,0,0,175.653,318.007Z" transform="translate(-27.643 -108.076)"/>
        <path id="_Path_186" data-name="&lt;Path&gt;" d="M196.823,318.186a6.8,6.8,0,1,0-6.8-6.8A6.8,6.8,0,0,0,196.823,318.186Z" transform="translate(-30.371 -108.046)"/>
        <path id="_Path_187" data-name="&lt;Path&gt;" d="M218.053,318.007a6.6,6.6,0,1,0-6.6-6.594A6.59,6.59,0,0,0,218.053,318.007Z" transform="translate(-33.158 -108.076)"/>
        <path id="_Path_188" data-name="&lt;Path&gt;" d="M239.329,317.57a6.085,6.085,0,1,0-6.09-6.081A6.089,6.089,0,0,0,239.329,317.57Z" transform="translate(-35.992 -108.152)"/>
        <path id="_Path_189" data-name="&lt;Path&gt;" d="M260.637,316.964a5.372,5.372,0,1,0-5.367-5.367A5.365,5.365,0,0,0,260.637,316.964Z" transform="translate(-38.858 -108.259)"/>
        <path id="_Path_190" data-name="&lt;Path&gt;" d="M281.952,316.314a4.6,4.6,0,1,0-4.6-4.6A4.6,4.6,0,0,0,281.952,316.314Z" transform="translate(-41.73 -108.375)"/>
        <path id="_Path_191" data-name="&lt;Path&gt;" d="M303.274,315.618a3.784,3.784,0,1,0-3.784-3.784A3.787,3.787,0,0,0,303.274,315.618Z" transform="translate(-44.61 -108.497)"/>
        <path id="_Path_192" data-name="&lt;Path&gt;" d="M324.6,314.923a2.966,2.966,0,1,0-2.966-2.966A2.965,2.965,0,0,0,324.6,314.923Z" transform="translate(-47.489 -108.619)"/>
        <path id="_Path_193" data-name="&lt;Path&gt;" d="M345.927,314.183a2.1,2.1,0,1,0-2.1-2.1A2.092,2.092,0,0,0,345.927,314.183Z" transform="translate(-50.377 -108.749)"/>
        <path id="_Path_194" data-name="&lt;Path&gt;" d="M367.265,313.443a1.227,1.227,0,1,0-1.235-1.227A1.231,1.231,0,0,0,367.265,313.443Z" transform="translate(-53.265 -108.88)"/>
        <path id="_Path_195" data-name="&lt;Path&gt;" d="M388.6,312.7a.364.364,0,0,0,.357-.357.361.361,0,0,0-.722,0A.366.366,0,0,0,388.6,312.7Z" transform="translate(-56.152 -109.01)"/>
        <path id="_Path_196" data-name="&lt;Path&gt;" d="M7.007,333.724a.142.142,0,0,0,.148-.148.149.149,0,0,0-.148-.157.156.156,0,0,0-.157.157A.149.149,0,0,0,7.007,333.724Z" transform="translate(-6.546 -111.797)"/>
        <path id="_Path_197" data-name="&lt;Path&gt;" d="M28.1,334.34a.87.87,0,1,0-.87-.87A.873.873,0,0,0,28.1,334.34Z" transform="translate(-9.196 -111.69)"/>
        <path id="_Path_198" data-name="&lt;Path&gt;" d="M49.178,335.035a1.688,1.688,0,1,0-1.688-1.688A1.689,1.689,0,0,0,49.178,335.035Z" transform="translate(-11.832 -111.568)"/>
        <path id="_Path_199" data-name="&lt;Path&gt;" d="M70.255,335.731a2.505,2.505,0,1,0-2.505-2.505A2.506,2.506,0,0,0,70.255,335.731Z" transform="translate(-14.467 -111.446)"/>
        <path id="_Path_200" data-name="&lt;Path&gt;" d="M91.333,336.426A3.323,3.323,0,1,0,88.01,333.1,3.323,3.323,0,0,0,91.333,336.426Z" transform="translate(-17.102 -111.324)"/>
        <path id="_Path_201" data-name="&lt;Path&gt;" d="M112.419,337.076a4.093,4.093,0,1,0-4.089-4.089A4.091,4.091,0,0,0,112.419,337.076Z" transform="translate(-19.745 -111.208)"/>
        <path id="_Path_202" data-name="&lt;Path&gt;" d="M133.52,337.647a4.759,4.759,0,1,0-4.75-4.758A4.76,4.76,0,0,0,133.52,337.647Z" transform="translate(-22.404 -111.109)"/>
        <path id="_Path_203" data-name="&lt;Path&gt;" d="M154.627,338.164a5.372,5.372,0,1,0-5.367-5.367A5.372,5.372,0,0,0,154.627,338.164Z" transform="translate(-25.069 -111.017)"/>
        <path id="_Path_204" data-name="&lt;Path&gt;" d="M175.775,338.511a5.781,5.781,0,1,0-5.785-5.776A5.779,5.779,0,0,0,175.775,338.511Z" transform="translate(-27.765 -110.955)"/>
        <path id="_Path_205" data-name="&lt;Path&gt;" d="M196.953,338.646a5.933,5.933,0,1,0-5.933-5.933A5.94,5.94,0,0,0,196.953,338.646Z" transform="translate(-30.501 -110.933)"/>
        <path id="_Path_206" data-name="&lt;Path&gt;" d="M218.175,338.511a5.781,5.781,0,1,0-5.785-5.776A5.773,5.773,0,0,0,218.175,338.511Z" transform="translate(-33.28 -110.955)"/>
        <path id="_Path_207" data-name="&lt;Path&gt;" d="M239.437,338.164a5.372,5.372,0,1,0-5.367-5.367A5.365,5.365,0,0,0,239.437,338.164Z" transform="translate(-36.1 -111.017)"/>
        <path id="_Path_208" data-name="&lt;Path&gt;" d="M260.713,337.727a4.859,4.859,0,1,0-4.863-4.854A4.856,4.856,0,0,0,260.713,337.727Z" transform="translate(-38.933 -111.093)"/>
        <path id="_Path_209" data-name="&lt;Path&gt;" d="M282.021,337.122a4.141,4.141,0,1,0-4.141-4.141A4.14,4.14,0,0,0,282.021,337.122Z" transform="translate(-41.799 -111.201)"/>
        <path id="_Path_210" data-name="&lt;Path&gt;" d="M303.328,336.515a3.428,3.428,0,1,0-3.428-3.428A3.429,3.429,0,0,0,303.328,336.515Z" transform="translate(-44.663 -111.308)"/>
        <path id="_Path_211" data-name="&lt;Path&gt;" d="M324.65,335.82a2.61,2.61,0,1,0-2.61-2.61A2.612,2.612,0,0,0,324.65,335.82Z" transform="translate(-47.543 -111.43)"/>
        <path id="_Path_212" data-name="&lt;Path&gt;" d="M345.973,335.124a1.792,1.792,0,1,0-1.783-1.792A1.8,1.8,0,0,0,345.973,335.124Z" transform="translate(-50.424 -111.552)"/>
        <path id="_Path_213" data-name="&lt;Path&gt;" d="M367.3,334.42a.97.97,0,1,0-.974-.966A.969.969,0,0,0,367.3,334.42Z" transform="translate(-53.304 -111.675)"/>
        <path id="_Path_214" data-name="&lt;Path&gt;" d="M388.627,333.724a.147.147,0,0,0,.148-.148.152.152,0,1,0-.3,0A.149.149,0,0,0,388.627,333.724Z" transform="translate(-56.183 -111.797)"/>
        <path id="_Path_215" data-name="&lt;Path&gt;" d="M28.153,355.237a.52.52,0,0,0,.513-.513.514.514,0,0,0-.513-.513.509.509,0,0,0-.513.513A.514.514,0,0,0,28.153,355.237Z" transform="translate(-9.25 -114.501)"/>
        <path id="_Path_216" data-name="&lt;Path&gt;" d="M49.231,355.932A1.331,1.331,0,1,0,47.9,354.6,1.337,1.337,0,0,0,49.231,355.932Z" transform="translate(-11.885 -114.379)"/>
        <path id="_Path_217" data-name="&lt;Path&gt;" d="M70.317,356.583a2.1,2.1,0,1,0-2.1-2.1A2.1,2.1,0,0,0,70.317,356.583Z" transform="translate(-14.528 -114.264)"/>
        <path id="_Path_218" data-name="&lt;Path&gt;" d="M91.41,357.19a2.81,2.81,0,1,0-2.81-2.81A2.816,2.816,0,0,0,91.41,357.19Z" transform="translate(-17.179 -114.158)"/>
        <path id="_Path_219" data-name="&lt;Path&gt;" d="M112.511,357.759a3.48,3.48,0,1,0-3.471-3.48A3.479,3.479,0,0,0,112.511,357.759Z" transform="translate(-19.838 -114.058)"/>
        <path id="_Path_220" data-name="&lt;Path&gt;" d="M133.619,358.277a4.089,4.089,0,1,0-4.089-4.089A4.091,4.091,0,0,0,133.619,358.277Z" transform="translate(-22.503 -113.967)"/>
        <path id="_Path_221" data-name="&lt;Path&gt;" d="M154.742,358.714a4.6,4.6,0,1,0-4.6-4.6A4.606,4.606,0,0,0,154.742,358.714Z" transform="translate(-25.183 -113.89)"/>
        <path id="_Path_222" data-name="&lt;Path&gt;" d="M175.905,358.973a4.906,4.906,0,1,0-4.915-4.906A4.906,4.906,0,0,0,175.905,358.973Z" transform="translate(-27.895 -113.844)"/>
        <path id="_Path_223" data-name="&lt;Path&gt;" d="M197.091,359.062a5.011,5.011,0,1,0-5.011-5.011A5.012,5.012,0,0,0,197.091,359.062Z" transform="translate(-30.639 -113.829)"/>
        <path id="_Path_224" data-name="&lt;Path&gt;" d="M218.305,358.973a4.906,4.906,0,1,0-4.915-4.906A4.906,4.906,0,0,0,218.305,358.973Z" transform="translate(-33.41 -113.844)"/>
        <path id="_Path_225" data-name="&lt;Path&gt;" d="M239.552,358.714a4.6,4.6,0,1,0-4.6-4.6A4.6,4.6,0,0,0,239.552,358.714Z" transform="translate(-36.215 -113.89)"/>
        <path id="_Path_226" data-name="&lt;Path&gt;" d="M260.821,358.322a4.141,4.141,0,1,0-4.141-4.141A4.14,4.14,0,0,0,260.821,358.322Z" transform="translate(-39.041 -113.959)"/>
        <path id="_Path_227" data-name="&lt;Path&gt;" d="M282.105,357.84a3.58,3.58,0,1,0-3.575-3.575A3.583,3.583,0,0,0,282.105,357.84Z" transform="translate(-41.883 -114.042)"/>
        <path id="_Path_228" data-name="&lt;Path&gt;" d="M303.412,357.234a2.862,2.862,0,1,0-2.862-2.862A2.859,2.859,0,0,0,303.412,357.234Z" transform="translate(-44.747 -114.15)"/>
        <path id="_Path_229" data-name="&lt;Path&gt;" d="M324.719,356.627a2.149,2.149,0,1,0-2.149-2.149A2.148,2.148,0,0,0,324.719,356.627Z" transform="translate(-47.612 -114.257)"/>
        <path id="_Path_230" data-name="&lt;Path&gt;" d="M346.027,356.021a1.435,1.435,0,1,0-1.427-1.435A1.437,1.437,0,0,0,346.027,356.021Z" transform="translate(-50.477 -114.363)"/>
        <path id="_Path_231" data-name="&lt;Path&gt;" d="M367.358,355.317a.611.611,0,0,0,.609-.609.613.613,0,1,0-.609.609Z" transform="translate(-53.357 -114.486)"/>
        <path id="_Path_232" data-name="&lt;Path&gt;" d="M388.642,354.844a.053.053,0,0,0,0-.1.052.052,0,0,0,0,.1Z" transform="translate(-56.199 -114.57)"/>
        <path id="_Path_233" data-name="&lt;Path&gt;" d="M28.207,376.133a.157.157,0,1,0-.157-.157A.156.156,0,0,0,28.207,376.133Z" transform="translate(-9.303 -117.312)"/>
        <path id="_Path_234" data-name="&lt;Path&gt;" d="M49.308,376.7a.818.818,0,1,0-.818-.818A.817.817,0,0,0,49.308,376.7Z" transform="translate(-11.962 -117.213)"/>
        <path id="_Path_235" data-name="&lt;Path&gt;" d="M70.393,377.347a1.583,1.583,0,1,0-1.583-1.583A1.578,1.578,0,0,0,70.393,377.347Z" transform="translate(-14.605 -117.099)"/>
        <path id="_Path_236" data-name="&lt;Path&gt;" d="M91.494,377.916a2.253,2.253,0,1,0-2.244-2.253A2.254,2.254,0,0,0,91.494,377.916Z" transform="translate(-17.263 -116.998)"/>
        <path id="_Path_237" data-name="&lt;Path&gt;" d="M112.61,378.39a2.81,2.81,0,1,0-2.81-2.81A2.811,2.811,0,0,0,112.61,378.39Z" transform="translate(-19.936 -116.915)"/>
        <path id="_Path_238" data-name="&lt;Path&gt;" d="M133.725,378.871a3.375,3.375,0,1,0-3.375-3.375A3.373,3.373,0,0,0,133.725,378.871Z" transform="translate(-22.609 -116.831)"/>
        <path id="_Path_239" data-name="&lt;Path&gt;" d="M154.872,379.174a3.732,3.732,0,1,0-3.732-3.732A3.733,3.733,0,0,0,154.872,379.174Z" transform="translate(-25.314 -116.777)"/>
        <path id="_Path_240" data-name="&lt;Path&gt;" d="M176.035,379.433a4.036,4.036,0,1,0-4.045-4.036A4.039,4.039,0,0,0,176.035,379.433Z" transform="translate(-28.026 -116.732)"/>
        <path id="_Path_241" data-name="&lt;Path&gt;" d="M197.22,379.522a4.141,4.141,0,1,0-4.15-4.141A4.14,4.14,0,0,0,197.22,379.522Z" transform="translate(-30.767 -116.716)"/>
        <path id="_Path_242" data-name="&lt;Path&gt;" d="M218.435,379.433a4.036,4.036,0,1,0-4.045-4.036A4.039,4.039,0,0,0,218.435,379.433Z" transform="translate(-33.541 -116.732)"/>
        <path id="_Path_243" data-name="&lt;Path&gt;" d="M239.674,379.218a3.784,3.784,0,1,0-3.784-3.784A3.787,3.787,0,0,0,239.674,379.218Z" transform="translate(-36.337 -116.77)"/>
        <path id="_Path_244" data-name="&lt;Path&gt;" d="M260.927,378.915a3.428,3.428,0,1,0-3.428-3.428A3.423,3.423,0,0,0,260.927,378.915Z" transform="translate(-39.148 -116.823)"/>
        <path id="_Path_245" data-name="&lt;Path&gt;" d="M282.212,378.434a2.862,2.862,0,1,0-2.862-2.862A2.859,2.859,0,0,0,282.212,378.434Z" transform="translate(-41.99 -116.908)"/>
        <path id="_Path_246" data-name="&lt;Path&gt;" d="M303.5,377.961a2.305,2.305,0,1,0-2.3-2.305A2.309,2.309,0,0,0,303.5,377.961Z" transform="translate(-44.832 -116.991)"/>
        <path id="_Path_247" data-name="&lt;Path&gt;" d="M324.8,377.391a1.635,1.635,0,1,0-1.635-1.635A1.634,1.634,0,0,0,324.8,377.391Z" transform="translate(-47.688 -117.091)"/>
        <path id="_Path_248" data-name="&lt;Path&gt;" d="M346.1,376.784a.922.922,0,1,0-.913-.922A.923.923,0,0,0,346.1,376.784Z" transform="translate(-50.554 -117.198)"/>
        <path id="_Path_249" data-name="&lt;Path&gt;" d="M367.419,376.178a.209.209,0,1,0-.209-.209A.21.21,0,0,0,367.419,376.178Z" transform="translate(-53.418 -117.304)"/>
        <path id="_Path_250" data-name="&lt;Path&gt;" d="M49.384,397.459a.3.3,0,0,0,.3-.3.3.3,0,1,0-.609,0A.3.3,0,0,0,49.384,397.459Z" transform="translate(-12.038 -120.047)"/>
        <path id="_Path_251" data-name="&lt;Path&gt;" d="M70.484,398.029a.974.974,0,1,0-.974-.974A.973.973,0,0,0,70.484,398.029Z" transform="translate(-14.696 -119.947)"/>
        <path id="_Path_252" data-name="&lt;Path&gt;" d="M91.593,398.547a1.583,1.583,0,1,0-1.583-1.583A1.578,1.578,0,0,0,91.593,398.547Z" transform="translate(-17.362 -119.856)"/>
        <path id="_Path_253" data-name="&lt;Path&gt;" d="M112.717,398.983a2.1,2.1,0,1,0-2.1-2.1A2.1,2.1,0,0,0,112.717,398.983Z" transform="translate(-20.043 -119.779)"/>
        <path id="_Path_254" data-name="&lt;Path&gt;" d="M133.848,399.375a2.558,2.558,0,1,0-2.558-2.557A2.556,2.556,0,0,0,133.848,399.375Z" transform="translate(-22.732 -119.71)"/>
        <path id="_Path_255" data-name="&lt;Path&gt;" d="M154.994,399.678a2.914,2.914,0,1,0-2.914-2.914A2.916,2.916,0,0,0,154.994,399.678Z" transform="translate(-25.436 -119.657)"/>
        <path id="_Path_256" data-name="&lt;Path&gt;" d="M176.165,399.9a3.171,3.171,0,1,0-3.175-3.175A3.174,3.174,0,0,0,176.165,399.9Z" transform="translate(-28.156 -119.619)"/>
        <path id="_Path_257" data-name="&lt;Path&gt;" d="M197.357,399.938a3.219,3.219,0,1,0-3.227-3.219A3.217,3.217,0,0,0,197.357,399.938Z" transform="translate(-30.905 -119.612)"/>
        <path id="_Path_258" data-name="&lt;Path&gt;" d="M218.565,399.9a3.171,3.171,0,1,0-3.175-3.175A3.174,3.174,0,0,0,218.565,399.9Z" transform="translate(-33.671 -119.619)"/>
        <path id="_Path_259" data-name="&lt;Path&gt;" d="M239.8,399.723a2.966,2.966,0,1,0-2.966-2.966A2.97,2.97,0,0,0,239.8,399.723Z" transform="translate(-36.459 -119.649)"/>
        <path id="_Path_260" data-name="&lt;Path&gt;" d="M261.05,399.42a2.61,2.61,0,1,0-2.61-2.61A2.606,2.606,0,0,0,261.05,399.42Z" transform="translate(-39.27 -119.703)"/>
        <path id="_Path_261" data-name="&lt;Path&gt;" d="M282.319,399.027a2.149,2.149,0,1,0-2.149-2.149A2.153,2.153,0,0,0,282.319,399.027Z" transform="translate(-42.097 -119.772)"/>
        <path id="_Path_262" data-name="&lt;Path&gt;" d="M303.6,398.591a1.635,1.635,0,1,0-1.636-1.635A1.634,1.634,0,0,0,303.6,398.591Z" transform="translate(-44.931 -119.848)"/>
        <path id="_Path_263" data-name="&lt;Path&gt;" d="M324.888,398.074a1.022,1.022,0,1,0,0-2.044,1.022,1.022,0,0,0,0,2.044Z" transform="translate(-47.781 -119.941)"/>
        <path id="_Path_264" data-name="&lt;Path&gt;" d="M346.187,397.5a.357.357,0,1,0-.357-.357A.36.36,0,0,0,346.187,397.5Z" transform="translate(-50.637 -120.04)"/>
        <path id="_Path_265" data-name="&lt;Path&gt;" d="M70.584,418.659a.3.3,0,0,0,.3-.3.3.3,0,0,0-.3-.3.308.308,0,0,0-.3.3A.3.3,0,0,0,70.584,418.659Z" transform="translate(-14.796 -122.805)"/>
        <path id="_Path_266" data-name="&lt;Path&gt;" d="M91.7,419.14a.87.87,0,1,0-.87-.87A.872.872,0,0,0,91.7,419.14Z" transform="translate(-17.469 -122.72)"/>
        <path id="_Path_267" data-name="&lt;Path&gt;" d="M112.831,419.532A1.331,1.331,0,1,0,111.5,418.2,1.325,1.325,0,0,0,112.831,419.532Z" transform="translate(-20.157 -122.651)"/>
        <path id="_Path_268" data-name="&lt;Path&gt;" d="M133.97,419.88a1.74,1.74,0,1,0-1.74-1.74A1.734,1.734,0,0,0,133.97,419.88Z" transform="translate(-22.854 -122.59)"/>
        <path id="_Path_269" data-name="&lt;Path&gt;" d="M155.116,420.183a2.1,2.1,0,1,0-2.1-2.1A2.1,2.1,0,0,0,155.116,420.183Z" transform="translate(-25.558 -122.537)"/>
        <path id="_Path_270" data-name="&lt;Path&gt;" d="M176.3,420.318a2.249,2.249,0,1,0-2.253-2.253A2.252,2.252,0,0,0,176.3,420.318Z" transform="translate(-28.293 -122.515)"/>
        <path id="_Path_271" data-name="&lt;Path&gt;" d="M197.488,420.406a2.353,2.353,0,1,0-2.357-2.357A2.352,2.352,0,0,0,197.488,420.406Z" transform="translate(-31.035 -122.499)"/>
        <path id="_Path_272" data-name="&lt;Path&gt;" d="M218.7,420.362a2.3,2.3,0,1,0-2.305-2.305A2.3,2.3,0,0,0,218.7,420.362Z" transform="translate(-33.801 -122.507)"/>
        <path id="_Path_273" data-name="&lt;Path&gt;" d="M239.927,420.183a2.1,2.1,0,1,0-2.1-2.1A2.1,2.1,0,0,0,239.927,420.183Z" transform="translate(-36.589 -122.537)"/>
        <path id="_Path_274" data-name="&lt;Path&gt;" d="M261.172,419.924a1.792,1.792,0,1,0-1.792-1.792A1.789,1.789,0,0,0,261.172,419.924Z" transform="translate(-39.392 -122.582)"/>
        <path id="_Path_275" data-name="&lt;Path&gt;" d="M282.425,419.622a1.431,1.431,0,1,0-1.435-1.435A1.437,1.437,0,0,0,282.425,419.622Z" transform="translate(-42.203 -122.637)"/>
        <path id="_Path_276" data-name="&lt;Path&gt;" d="M303.7,419.184a.922.922,0,1,0,0-1.844.922.922,0,1,0,0,1.844Z" transform="translate(-45.038 -122.713)"/>
        <path id="_Path_277" data-name="&lt;Path&gt;" d="M324.987,418.7a.357.357,0,1,0,0-.713.357.357,0,0,0,0,.713Z" transform="translate(-47.88 -122.797)"/>
        <path id="_Path_278" data-name="&lt;Path&gt;" d="M346.233,418.444a.052.052,0,1,0,0-.1.053.053,0,0,0,0,.1Z" transform="translate(-50.684 -122.843)"/>
        <path id="_Path_279" data-name="&lt;Path&gt;" d="M91.8,439.779a.212.212,0,0,0,.209-.209.2.2,0,0,0-.209-.2.2.2,0,0,0-.2.2A.2.2,0,0,0,91.8,439.779Z" transform="translate(-17.569 -125.578)"/>
        <path id="_Path_280" data-name="&lt;Path&gt;" d="M112.947,440.082a.561.561,0,1,0-.557-.565A.564.564,0,0,0,112.947,440.082Z" transform="translate(-20.273 -125.525)"/>
        <path id="_Path_281" data-name="&lt;Path&gt;" d="M134.093,440.384a.922.922,0,1,0-.913-.922A.917.917,0,0,0,134.093,440.384Z" transform="translate(-22.977 -125.47)"/>
        <path id="_Path_282" data-name="&lt;Path&gt;" d="M155.254,440.607a1.179,1.179,0,1,0-1.174-1.183A1.184,1.184,0,0,0,155.254,440.607Z" transform="translate(-25.696 -125.432)"/>
        <path id="_Path_283" data-name="&lt;Path&gt;" d="M176.433,440.778a1.379,1.379,0,1,0-1.383-1.383A1.379,1.379,0,0,0,176.433,440.778Z" transform="translate(-28.424 -125.402)"/>
        <path id="_Path_284" data-name="&lt;Path&gt;" d="M197.625,440.822a1.431,1.431,0,1,0-1.435-1.435A1.429,1.429,0,0,0,197.625,440.822Z" transform="translate(-31.173 -125.395)"/>
        <path id="_Path_285" data-name="&lt;Path&gt;" d="M218.833,440.778a1.379,1.379,0,1,0-1.383-1.383A1.387,1.387,0,0,0,218.833,440.778Z" transform="translate(-33.939 -125.402)"/>
        <path id="_Path_286" data-name="&lt;Path&gt;" d="M240.057,440.643a1.227,1.227,0,1,0-1.227-1.227A1.225,1.225,0,0,0,240.057,440.643Z" transform="translate(-36.719 -125.425)"/>
        <path id="_Path_287" data-name="&lt;Path&gt;" d="M261.294,440.43a.97.97,0,1,0-.974-.974A.973.973,0,0,0,261.294,440.43Z" transform="translate(-39.515 -125.464)"/>
        <path id="_Path_288" data-name="&lt;Path&gt;" d="M282.549,440.127a.62.62,0,0,0,.618-.618.613.613,0,0,0-.618-.609.605.605,0,0,0-.609.609A.613.613,0,0,0,282.549,440.127Z" transform="translate(-42.327 -125.517)"/>
        <path id="_Path_289" data-name="&lt;Path&gt;" d="M303.81,439.779a.212.212,0,0,0,.209-.209.2.2,0,0,0-.209-.2.2.2,0,0,0-.2.2A.2.2,0,0,0,303.81,439.779Z" transform="translate(-45.145 -125.578)"/>
        <path id="_Path_290" data-name="&lt;Path&gt;" d="M113.022,460.846a.046.046,0,0,0,.052-.052c0-.026-.017-.044-.052-.044a.049.049,0,0,0-.052.044A.05.05,0,0,0,113.022,460.846Z" transform="translate(-20.349 -128.359)"/>
        <path id="_Path_291" data-name="&lt;Path&gt;" d="M134.208,460.934a.156.156,0,0,0,.157-.157.154.154,0,0,0-.157-.148.152.152,0,0,0-.148.148A.154.154,0,0,0,134.208,460.934Z" transform="translate(-23.092 -128.343)"/>
        <path id="_Path_292" data-name="&lt;Path&gt;" d="M155.377,461.112a.361.361,0,1,0-.357-.365A.368.368,0,0,0,155.377,461.112Z" transform="translate(-25.818 -128.312)"/>
        <path id="_Path_293" data-name="&lt;Path&gt;" d="M176.563,461.238a.509.509,0,1,0-.513-.513A.507.507,0,0,0,176.563,461.238Z" transform="translate(-28.554 -128.29)"/>
        <path id="_Path_294" data-name="&lt;Path&gt;" d="M197.755,461.282a.561.561,0,1,0-.565-.565A.563.563,0,0,0,197.755,461.282Z" transform="translate(-31.303 -128.282)"/>
        <path id="_Path_295" data-name="&lt;Path&gt;" d="M218.963,461.238a.509.509,0,1,0,0-1.018.509.509,0,1,0,0,1.018Z" transform="translate(-34.069 -128.29)"/>
        <path id="_Path_296" data-name="&lt;Path&gt;" d="M240.187,461.112a.361.361,0,1,0-.357-.365A.36.36,0,0,0,240.187,461.112Z" transform="translate(-36.85 -128.312)"/>
        <path id="_Path_297" data-name="&lt;Path&gt;" d="M261.417,460.934a.156.156,0,0,0,.157-.157.157.157,0,0,0-.313,0A.156.156,0,0,0,261.417,460.934Z" transform="translate(-39.637 -128.343)"/>
        <path id="_Path_298" data-name="&lt;Path&gt;" d="M282.632,460.846a.05.05,0,0,0,.052-.052.053.053,0,0,0-.1,0A.05.05,0,0,0,282.632,460.846Z" transform="translate(-42.41 -128.359)"/>
      </g>
    </g>
  </g>
</svg>
