<svg xmlns="http://www.w3.org/2000/svg" width="218.212" height="218.212" viewBox="0 0 218.212 218.212">
  <g id="Icons" transform="translate(4 7)">
    <g id="Rounded" transform="translate(-4 -7)">
      <g id="Editor" transform="translate(0 0)">
        <g id="_-Round-_-Editor-_-format_quote" data-name="-Round-/-Editor-/-format_quote">
          <g id="Group_353" data-name="Group 353">
            <path id="Path" d="M0,0H218.212V218.212H0Z" fill="none" fill-rule="evenodd"/>
            <path id="_-Icon-Color" data-name="🔹-Icon-Color" d="M32.822,97.922a12.167,12.167,0,0,0,10.911-6.728L56.644,65.372a17.948,17.948,0,0,0,1.909-8.092V16.092A9.119,9.119,0,0,0,49.461,7H13.092A9.119,9.119,0,0,0,4,16.092V52.461a9.119,9.119,0,0,0,9.092,9.092H31.276l-9.365,18.73A12.17,12.17,0,0,0,32.822,97.922Zm90.922,0a12.167,12.167,0,0,0,10.911-6.728l12.911-25.822a17.948,17.948,0,0,0,1.909-8.092V16.092A9.119,9.119,0,0,0,140.382,7H104.014a9.119,9.119,0,0,0-9.092,9.092V52.461a9.119,9.119,0,0,0,9.092,9.092H122.2l-9.365,18.73A12.17,12.17,0,0,0,123.744,97.922Z" transform="translate(32.369 56.645)" fill="#cbc4db" fill-rule="evenodd"/>
          </g>
        </g>
      </g>
    </g>
  </g>
</svg>
