<svg xmlns="http://www.w3.org/2000/svg" width="461" height="453" viewBox="0 0 461 453">
  <g id="Layer_1" data-name="Layer 1" transform="translate(-6.5 -78.66)" opacity="0.25">
    <g id="_Group_" data-name="&lt;Group&gt;" transform="translate(6.5 78.66)">
      <g id="_Group_2" data-name="&lt;Group&gt;">
        <path id="_Path_" data-name="&lt;Path&gt;" d="M134.263,79.37a.148.148,0,0,0,.156-.143.151.151,0,0,0-.156-.156.148.148,0,0,0-.143.156A.145.145,0,0,0,134.263,79.37Z" transform="translate(19.567 -78.536)" fill="#fff"/>
        <path id="_Path_2" data-name="&lt;Path&gt;" d="M155.518,79.659a.385.385,0,1,0-.378-.378A.381.381,0,0,0,155.518,79.659Z" transform="translate(23.847 -78.59)" fill="#fff"/>
        <path id="_Path_3" data-name="&lt;Path&gt;" d="M176.783,79.945a.613.613,0,1,0-.613-.613A.612.612,0,0,0,176.783,79.945Z" transform="translate(28.125 -78.642)" fill="#fff"/>
        <path id="_Path_4" data-name="&lt;Path&gt;" d="M198,80.029a.684.684,0,1,0-.691-.678A.676.676,0,0,0,198,80.029Z" transform="translate(32.433 -78.66)" fill="#fff"/>
        <path id="_Path_5" data-name="&lt;Path&gt;" d="M219.183,79.945a.613.613,0,1,0-.613-.613A.612.612,0,0,0,219.183,79.945Z" transform="translate(36.777 -78.642)" fill="#fff"/>
        <path id="_Path_6" data-name="&lt;Path&gt;" d="M240.346,79.756a.463.463,0,0,0,0-.926.463.463,0,0,0,0,.926Z" transform="translate(41.143 -78.608)" fill="#fff"/>
        <path id="_Path_7" data-name="&lt;Path&gt;" d="M261.495,79.466a.231.231,0,0,0,.235-.222.235.235,0,0,0-.469,0A.231.231,0,0,0,261.495,79.466Z" transform="translate(45.528 -78.554)" fill="#fff"/>
        <path id="_Path_8" data-name="&lt;Path&gt;" d="M91.882,100.666a.231.231,0,0,0,.235-.222.234.234,0,0,0-.235-.235.223.223,0,0,0-.222.235A.22.22,0,0,0,91.882,100.666Z" transform="translate(10.892 -72.118)" fill="#fff"/>
        <path id="_Path_9" data-name="&lt;Path&gt;" d="M113.191,101.242a.7.7,0,0,0,.691-.691.691.691,0,1,0-1.382,0A.7.7,0,0,0,113.191,101.242Z" transform="translate(15.128 -72.224)" fill="#fff"/>
        <path id="_Path_10" data-name="&lt;Path&gt;" d="M134.534,102a1.3,1.3,0,1,0-1.3-1.3A1.3,1.3,0,0,0,134.534,102Z" transform="translate(19.327 -72.367)" fill="#fff"/>
        <path id="_Path_11" data-name="&lt;Path&gt;" d="M155.822,102.466a1.688,1.688,0,1,0-1.682-1.682A1.689,1.689,0,0,0,155.822,102.466Z" transform="translate(23.565 -72.458)" fill="#fff"/>
        <path id="_Path_12" data-name="&lt;Path&gt;" d="M177.086,102.753a1.916,1.916,0,1,0-1.916-1.916A1.919,1.919,0,0,0,177.086,102.753Z" transform="translate(27.832 -72.509)" fill="#fff"/>
        <path id="_Path_13" data-name="&lt;Path&gt;" d="M198.3,102.849a1.994,1.994,0,1,0-1.994-1.994A2,2,0,0,0,198.3,102.849Z" transform="translate(32.129 -72.528)" fill="#fff"/>
        <path id="_Path_14" data-name="&lt;Path&gt;" d="M219.486,102.753a1.916,1.916,0,1,0-1.916-1.916A1.919,1.919,0,0,0,219.486,102.753Z" transform="translate(36.463 -72.509)" fill="#fff"/>
        <path id="_Path_15" data-name="&lt;Path&gt;" d="M240.632,102.466a1.688,1.688,0,1,0-1.682-1.682A1.686,1.686,0,0,0,240.632,102.466Z" transform="translate(40.837 -72.458)" fill="#fff"/>
        <path id="_Path_16" data-name="&lt;Path&gt;" d="M261.744,102a1.3,1.3,0,1,0-1.3-1.3A1.307,1.307,0,0,0,261.744,102Z" transform="translate(45.252 -72.367)" fill="#fff"/>
        <path id="_Path_17" data-name="&lt;Path&gt;" d="M282.819,101.325a.763.763,0,1,0,0-1.525.763.763,0,1,0,0,1.525Z" transform="translate(49.715 -72.242)" fill="#fff"/>
        <path id="_Path_18" data-name="&lt;Path&gt;" d="M303.892,100.666a.231.231,0,0,0,.235-.222.234.234,0,0,0-.235-.235.223.223,0,0,0-.222.235A.22.22,0,0,0,303.892,100.666Z" transform="translate(54.189 -72.118)" fill="#fff"/>
        <path id="_Path_19" data-name="&lt;Path&gt;" d="M70.718,122.059a.378.378,0,0,0,.378-.378.378.378,0,1,0-.756,0A.378.378,0,0,0,70.718,122.059Z" transform="translate(12.881 -65.718)" fill="#fff"/>
        <path id="_Path_20" data-name="&lt;Path&gt;" d="M92.1,123a1.147,1.147,0,1,0-1.147-1.147A1.149,1.149,0,0,0,92.1,123Z" transform="translate(10.716 -65.894)" fill="#fff"/>
        <path id="_Path_21" data-name="&lt;Path&gt;" d="M113.476,123.953a1.916,1.916,0,1,0-1.916-1.916A1.919,1.919,0,0,0,113.476,123.953Z" transform="translate(14.885 -66.073)" fill="#fff"/>
        <path id="_Path_22" data-name="&lt;Path&gt;" d="M134.819,124.708a2.529,2.529,0,1,0-2.529-2.529A2.523,2.523,0,0,0,134.819,124.708Z" transform="translate(19.073 -66.216)" fill="#fff"/>
        <path id="_Path_23" data-name="&lt;Path&gt;" d="M156.125,125.27a2.985,2.985,0,1,0-2.985-2.985A3,3,0,0,0,156.125,125.27Z" transform="translate(23.284 -66.322)" fill="#fff"/>
        <path id="_Path_24" data-name="&lt;Path&gt;" d="M177.408,125.656a3.3,3.3,0,1,0-3.3-3.3A3.3,3.3,0,0,0,177.408,125.656Z" transform="translate(27.523 -66.395)" fill="#fff"/>
        <path id="_Path_25" data-name="&lt;Path&gt;" d="M198.626,125.74a3.37,3.37,0,1,0-3.376-3.363A3.355,3.355,0,0,0,198.626,125.74Z" transform="translate(31.808 -66.413)" fill="#fff"/>
        <path id="_Path_26" data-name="&lt;Path&gt;" d="M219.808,125.656a3.3,3.3,0,1,0-3.3-3.3A3.31,3.31,0,0,0,219.808,125.656Z" transform="translate(36.129 -66.395)" fill="#fff"/>
        <path id="_Path_27" data-name="&lt;Path&gt;" d="M240.935,125.27a2.985,2.985,0,1,0-2.985-2.985A2.985,2.985,0,0,0,240.935,125.27Z" transform="translate(40.511 -66.322)" fill="#fff"/>
        <path id="_Path_28" data-name="&lt;Path&gt;" d="M262.029,124.708a2.529,2.529,0,1,0-2.529-2.529A2.531,2.531,0,0,0,262.029,124.708Z" transform="translate(44.935 -66.216)" fill="#fff"/>
        <path id="_Path_29" data-name="&lt;Path&gt;" d="M283.1,124.049a1.994,1.994,0,1,0-1.995-1.994A1.994,1.994,0,0,0,283.1,124.049Z" transform="translate(49.387 -66.091)" fill="#fff"/>
        <path id="_Path_30" data-name="&lt;Path&gt;" d="M304.125,123.1a1.225,1.225,0,1,0-1.225-1.225A1.224,1.224,0,0,0,304.125,123.1Z" transform="translate(53.914 -65.912)" fill="#fff"/>
        <path id="_Path_31" data-name="&lt;Path&gt;" d="M325.146,122.156a.463.463,0,1,0-.456-.456A.465.465,0,0,0,325.146,122.156Z" transform="translate(52.098 -65.736)" fill="#fff"/>
        <path id="_Path_32" data-name="&lt;Path&gt;" d="M49.518,143.259a.378.378,0,0,0,.378-.378.378.378,0,1,0-.756,0A.378.378,0,0,0,49.518,143.259Z" transform="translate(6.445 -59.282)" fill="#fff"/>
        <path id="_Path_33" data-name="&lt;Path&gt;" d="M70.934,144.4a1.3,1.3,0,1,0-1.3-1.3A1.307,1.307,0,0,0,70.934,144.4Z" transform="translate(12.665 -59.495)" fill="#fff"/>
        <path id="_Path_34" data-name="&lt;Path&gt;" d="M92.346,145.525a2.223,2.223,0,1,0-2.216-2.216A2.225,2.225,0,0,0,92.346,145.525Z" transform="translate(10.512 -59.71)" fill="#fff"/>
        <path id="_Path_35" data-name="&lt;Path&gt;" d="M113.743,146.567a3.063,3.063,0,1,0-3.063-3.063A3.06,3.06,0,0,0,113.743,146.567Z" transform="translate(14.657 -59.904)" fill="#fff"/>
        <path id="_Path_36" data-name="&lt;Path&gt;" d="M135.1,147.419a3.754,3.754,0,1,0-3.754-3.754A3.755,3.755,0,0,0,135.1,147.419Z" transform="translate(18.819 -60.065)" fill="#fff"/>
        <path id="_Path_37" data-name="&lt;Path&gt;" d="M156.429,148.078a4.289,4.289,0,1,0-4.289-4.289A4.295,4.295,0,0,0,156.429,148.078Z" transform="translate(23.003 -60.19)" fill="#fff"/>
        <path id="_Path_38" data-name="&lt;Path&gt;" d="M177.712,148.463a4.6,4.6,0,1,0-4.6-4.6A4.6,4.6,0,0,0,177.712,148.463Z" transform="translate(27.231 -60.263)" fill="#fff"/>
        <path id="_Path_39" data-name="&lt;Path&gt;" d="M198.948,148.643a4.752,4.752,0,1,0-4.758-4.745A4.746,4.746,0,0,0,198.948,148.643Z" transform="translate(31.486 -60.299)" fill="#fff"/>
        <path id="_Path_40" data-name="&lt;Path&gt;" d="M220.112,148.463a4.6,4.6,0,1,0-4.6-4.6A4.6,4.6,0,0,0,220.112,148.463Z" transform="translate(35.814 -60.263)" fill="#fff"/>
        <path id="_Path_41" data-name="&lt;Path&gt;" d="M241.239,148.078a4.289,4.289,0,1,0-4.289-4.289A4.284,4.284,0,0,0,241.239,148.078Z" transform="translate(40.184 -60.19)" fill="#fff"/>
        <path id="_Path_42" data-name="&lt;Path&gt;" d="M262.314,147.419a3.754,3.754,0,1,0-3.754-3.754A3.755,3.755,0,0,0,262.314,147.419Z" transform="translate(44.618 -60.065)" fill="#fff"/>
        <path id="_Path_43" data-name="&lt;Path&gt;" d="M283.372,146.663a3.142,3.142,0,1,0-3.142-3.142A3.143,3.143,0,0,0,283.372,146.663Z" transform="translate(49.081 -59.923)" fill="#fff"/>
        <path id="_Path_44" data-name="&lt;Path&gt;" d="M304.393,145.715a2.373,2.373,0,1,0-2.373-2.373A2.364,2.364,0,0,0,304.393,145.715Z" transform="translate(53.598 -59.743)" fill="#fff"/>
        <path id="_Path_45" data-name="&lt;Path&gt;" d="M325.377,144.59a1.46,1.46,0,1,0-1.447-1.46A1.458,1.458,0,0,0,325.377,144.59Z" transform="translate(51.868 -59.531)" fill="#fff"/>
        <path id="_Path_46" data-name="&lt;Path&gt;" d="M346.346,143.353a.465.465,0,0,0,.469-.456.463.463,0,0,0-.926,0A.462.462,0,0,0,346.346,143.353Z" transform="translate(58.534 -59.297)" fill="#fff"/>
        <path id="_Path_47" data-name="&lt;Path&gt;" d="M28.285,164.279a.235.235,0,1,0-.235-.235A.234.234,0,0,0,28.285,164.279Z" transform="translate(0.042 -63.052)" fill="#fff"/>
        <path id="_Path_48" data-name="&lt;Path&gt;" d="M49.7,165.4a1.147,1.147,0,1,0-1.147-1.147A1.141,1.141,0,0,0,49.7,165.4Z" transform="translate(6.266 -63.217)" fill="#fff"/>
        <path id="_Path_49" data-name="&lt;Path&gt;" d="M71.146,166.725a2.223,2.223,0,1,0-2.216-2.216A2.225,2.225,0,0,0,71.146,166.725Z" transform="translate(12.453 -63.413)" fill="#fff"/>
        <path id="_Path_50" data-name="&lt;Path&gt;" d="M92.58,167.96a3.22,3.22,0,1,0-3.22-3.22A3.218,3.218,0,0,0,92.58,167.96Z" transform="translate(10.322 -63.592)" fill="#fff"/>
        <path id="_Path_51" data-name="&lt;Path&gt;" d="M113.992,169.085a4.132,4.132,0,1,0-4.132-4.132A4.136,4.136,0,0,0,113.992,169.085Z" transform="translate(14.445 -63.757)" fill="#fff"/>
        <path id="_Path_52" data-name="&lt;Path&gt;" d="M135.371,170.033a4.9,4.9,0,1,0-4.9-4.9A4.907,4.907,0,0,0,135.371,170.033Z" transform="translate(18.582 -63.895)" fill="#fff"/>
        <path id="_Path_53" data-name="&lt;Path&gt;" d="M156.714,170.788a5.514,5.514,0,1,0-5.514-5.514A5.519,5.519,0,0,0,156.714,170.788Z" transform="translate(22.739 -64.005)" fill="#fff"/>
        <path id="_Path_54" data-name="&lt;Path&gt;" d="M178.015,171.27a5.905,5.905,0,1,0-5.905-5.905A5.9,5.9,0,0,0,178.015,171.27Z" transform="translate(26.939 -64.075)" fill="#fff"/>
        <path id="_Path_55" data-name="&lt;Path&gt;" d="M199.252,171.447a6.049,6.049,0,1,0-6.062-6.049A6.053,6.053,0,0,0,199.252,171.447Z" transform="translate(31.183 -64.101)" fill="#fff"/>
        <path id="_Path_56" data-name="&lt;Path&gt;" d="M220.415,171.27a5.905,5.905,0,1,0-5.905-5.905A5.9,5.9,0,0,0,220.415,171.27Z" transform="translate(35.5 -64.075)" fill="#fff"/>
        <path id="_Path_57" data-name="&lt;Path&gt;" d="M241.542,170.885a5.592,5.592,0,1,0-5.592-5.592A5.591,5.591,0,0,0,241.542,170.885Z" transform="translate(39.858 -64.019)" fill="#fff"/>
        <path id="_Path_58" data-name="&lt;Path&gt;" d="M262.6,170.129a4.98,4.98,0,1,0-4.98-4.98A4.979,4.979,0,0,0,262.6,170.129Z" transform="translate(44.3 -63.909)" fill="#fff"/>
        <path id="_Path_59" data-name="&lt;Path&gt;" d="M283.621,169.181a4.211,4.211,0,1,0-4.211-4.211A4.2,4.2,0,0,0,283.621,169.181Z" transform="translate(48.795 -63.771)" fill="#fff"/>
        <path id="_Path_60" data-name="&lt;Path&gt;" d="M304.623,168.153a3.376,3.376,0,1,0-3.363-3.376A3.377,3.377,0,0,0,304.623,168.153Z" transform="translate(53.323 -63.621)" fill="#fff"/>
        <path id="_Path_61" data-name="&lt;Path&gt;" d="M325.593,166.915a2.373,2.373,0,1,0-2.373-2.372A2.376,2.376,0,0,0,325.593,166.915Z" transform="translate(51.652 -63.439)" fill="#fff"/>
        <path id="_Path_62" data-name="&lt;Path&gt;" d="M346.544,165.6a1.3,1.3,0,1,0-1.3-1.3A1.3,1.3,0,0,0,346.544,165.6Z" transform="translate(58.337 -63.246)" fill="#fff"/>
        <path id="_Path_63" data-name="&lt;Path&gt;" d="M367.523,164.363a.3.3,0,0,0,.3-.3.306.306,0,1,0-.613,0A.306.306,0,0,0,367.523,164.363Z" transform="translate(65.007 -63.066)" fill="#fff"/>
        <path id="_Path_64" data-name="&lt;Path&gt;" d="M28.391,186.042a.691.691,0,1,0-.691-.691A.7.7,0,0,0,28.391,186.042Z" transform="translate(-0.064 -59.253)" fill="#fff"/>
        <path id="_Path_65" data-name="&lt;Path&gt;" d="M49.876,187.553a1.916,1.916,0,1,0-1.916-1.916A1.919,1.919,0,0,0,49.876,187.553Z" transform="translate(6.087 -59.488)" fill="#fff"/>
        <path id="_Path_66" data-name="&lt;Path&gt;" d="M71.343,188.967A3.063,3.063,0,1,0,68.28,185.9,3.06,3.06,0,0,0,71.343,188.967Z" transform="translate(12.256 -59.707)" fill="#fff"/>
        <path id="_Path_67" data-name="&lt;Path&gt;" d="M92.792,190.3a4.139,4.139,0,1,0-4.132-4.145A4.148,4.148,0,0,0,92.792,190.3Z" transform="translate(10.149 -59.912)" fill="#fff"/>
        <path id="_Path_68" data-name="&lt;Path&gt;" d="M114.226,191.522a5.136,5.136,0,1,0-5.136-5.136A5.129,5.129,0,0,0,114.226,191.522Z" transform="translate(14.247 -60.102)" fill="#fff"/>
        <path id="_Path_69" data-name="&lt;Path&gt;" d="M135.639,192.66a6.055,6.055,0,1,0-6.049-6.062A6.059,6.059,0,0,0,135.639,192.66Z" transform="translate(18.345 -60.276)" fill="#fff"/>
        <path id="_Path_70" data-name="&lt;Path&gt;" d="M157,193.5a6.74,6.74,0,1,0-6.74-6.74A6.743,6.743,0,0,0,157,193.5Z" transform="translate(22.476 -60.407)" fill="#fff"/>
        <path id="_Path_71" data-name="&lt;Path&gt;" d="M178.319,194.078a7.209,7.209,0,1,0-7.209-7.209A7.2,7.2,0,0,0,178.319,194.078Z" transform="translate(26.647 -60.496)" fill="#fff"/>
        <path id="_Path_72" data-name="&lt;Path&gt;" d="M199.573,194.351a7.43,7.43,0,1,0-7.443-7.43A7.427,7.427,0,0,0,199.573,194.351Z" transform="translate(30.861 -60.538)" fill="#fff"/>
        <path id="_Path_73" data-name="&lt;Path&gt;" d="M220.737,194.171a7.281,7.281,0,1,0-7.287-7.287A7.28,7.28,0,0,0,220.737,194.171Z" transform="translate(35.166 -60.509)" fill="#fff"/>
        <path id="_Path_74" data-name="&lt;Path&gt;" d="M241.828,193.6a6.818,6.818,0,1,0-6.818-6.818A6.815,6.815,0,0,0,241.828,193.6Z" transform="translate(39.551 -60.422)" fill="#fff"/>
        <path id="_Path_75" data-name="&lt;Path&gt;" d="M262.867,192.744a6.127,6.127,0,1,0-6.127-6.127A6.12,6.12,0,0,0,262.867,192.744Z" transform="translate(44.003 -60.291)" fill="#fff"/>
        <path id="_Path_76" data-name="&lt;Path&gt;" d="M283.854,191.619a5.214,5.214,0,1,0-5.214-5.214A5.213,5.213,0,0,0,283.854,191.619Z" transform="translate(48.526 -60.117)" fill="#fff"/>
        <path id="_Path_77" data-name="&lt;Path&gt;" d="M304.821,190.381a4.211,4.211,0,1,0-4.211-4.211A4.211,4.211,0,0,0,304.821,190.381Z" transform="translate(53.089 -59.926)" fill="#fff"/>
        <path id="_Path_78" data-name="&lt;Path&gt;" d="M325.772,189.063a3.142,3.142,0,1,0-3.142-3.142A3.143,3.143,0,0,0,325.772,189.063Z" transform="translate(51.473 -59.722)" fill="#fff"/>
        <path id="_Path_79" data-name="&lt;Path&gt;" d="M346.7,187.649a1.995,1.995,0,1,0-1.981-1.994A1.994,1.994,0,0,0,346.7,187.649Z" transform="translate(58.179 -59.503)" fill="#fff"/>
        <path id="_Path_80" data-name="&lt;Path&gt;" d="M367.647,186.235a.847.847,0,1,0-.847-.847A.843.843,0,0,0,367.647,186.235Z" transform="translate(64.882 -59.283)" fill="#fff"/>
        <path id="_Path_81" data-name="&lt;Path&gt;" d="M388.668,185.286a.08.08,0,0,0,0-.156.078.078,0,0,0,0,.156Z" transform="translate(71.497 -59.136)" fill="#fff"/>
        <path id="_Path_82" data-name="&lt;Path&gt;" d="M7.066,206.583a.158.158,0,0,0,.156-.156.168.168,0,0,0-.156-.156.159.159,0,0,0-.156.156A.151.151,0,0,0,7.066,206.583Z" transform="translate(-6.376 -55.264)" fill="#fff"/>
        <path id="_Path_83" data-name="&lt;Path&gt;" d="M28.534,208a1.3,1.3,0,1,0-1.3-1.3A1.307,1.307,0,0,0,28.534,208Z" transform="translate(-0.207 -55.496)" fill="#fff"/>
        <path id="_Path_84" data-name="&lt;Path&gt;" d="M50.019,209.508a2.529,2.529,0,1,0-2.529-2.529A2.531,2.531,0,0,0,50.019,209.508Z" transform="translate(5.944 -55.743)" fill="#fff"/>
        <path id="_Path_85" data-name="&lt;Path&gt;" d="M71.5,211.019a3.754,3.754,0,1,0-3.754-3.754A3.755,3.755,0,0,0,71.5,211.019Z" transform="translate(12.095 -55.99)" fill="#fff"/>
        <path id="_Path_86" data-name="&lt;Path&gt;" d="M92.971,212.433a4.9,4.9,0,1,0-4.9-4.9A4.9,4.9,0,0,0,92.971,212.433Z" transform="translate(10.004 -56.22)" fill="#fff"/>
        <path id="_Path_87" data-name="&lt;Path&gt;" d="M114.439,213.86a6.055,6.055,0,1,0-6.049-6.062A6.059,6.059,0,0,0,114.439,213.86Z" transform="translate(14.066 -56.451)" fill="#fff"/>
        <path id="_Path_88" data-name="&lt;Path&gt;" d="M135.869,215.085a7.052,7.052,0,1,0-7.039-7.052A7.049,7.049,0,0,0,135.869,215.085Z" transform="translate(18.141 -56.652)" fill="#fff"/>
        <path id="_Path_89" data-name="&lt;Path&gt;" d="M157.267,216.126a7.893,7.893,0,1,0-7.887-7.9A7.894,7.894,0,0,0,157.267,216.126Z" transform="translate(22.229 -56.82)" fill="#fff"/>
        <path id="_Path_90" data-name="&lt;Path&gt;" d="M178.622,216.882a8.506,8.506,0,1,0-8.512-8.512A8.5,8.5,0,0,0,178.622,216.882Z" transform="translate(26.355 -56.942)" fill="#fff"/>
        <path id="_Path_91" data-name="&lt;Path&gt;" d="M199.877,217.158a8.734,8.734,0,1,0-8.747-8.734A8.735,8.735,0,0,0,199.877,217.158Z" transform="translate(30.557 -56.989)" fill="#fff"/>
        <path id="_Path_92" data-name="&lt;Path&gt;" d="M221.041,216.978a8.584,8.584,0,1,0-8.591-8.591A8.587,8.587,0,0,0,221.041,216.978Z" transform="translate(34.85 -56.958)" fill="#fff"/>
        <path id="_Path_93" data-name="&lt;Path&gt;" d="M242.1,216.223a7.971,7.971,0,1,0-7.978-7.978A7.967,7.967,0,0,0,242.1,216.223Z" transform="translate(39.261 -56.835)" fill="#fff"/>
        <path id="_Path_94" data-name="&lt;Path&gt;" d="M263.1,215.181a7.131,7.131,0,1,0-7.131-7.131A7.132,7.132,0,0,0,263.1,215.181Z" transform="translate(43.742 -56.668)" fill="#fff"/>
        <path id="_Path_95" data-name="&lt;Path&gt;" d="M284.067,213.957a6.133,6.133,0,1,0-6.127-6.14A6.131,6.131,0,0,0,284.067,213.957Z" transform="translate(48.281 -56.467)" fill="#fff"/>
        <path id="_Path_96" data-name="&lt;Path&gt;" d="M305.018,212.626a5.058,5.058,0,1,0-5.058-5.058A5.063,5.063,0,0,0,305.018,212.626Z" transform="translate(52.856 -56.252)" fill="#fff"/>
        <path id="_Path_97" data-name="&lt;Path&gt;" d="M325.933,211.115a3.833,3.833,0,1,0-3.833-3.833A3.822,3.822,0,0,0,325.933,211.115Z" transform="translate(51.312 -56.005)" fill="#fff"/>
        <path id="_Path_98" data-name="&lt;Path&gt;" d="M346.844,209.6A2.607,2.607,0,1,0,344.25,207,2.6,2.6,0,0,0,346.844,209.6Z" transform="translate(58.036 -55.759)" fill="#fff"/>
        <path id="_Path_99" data-name="&lt;Path&gt;" d="M367.772,208.094a1.382,1.382,0,1,0-1.382-1.382A1.371,1.371,0,0,0,367.772,208.094Z" transform="translate(64.758 -55.511)" fill="#fff"/>
        <path id="_Path_100" data-name="&lt;Path&gt;" d="M388.7,206.676a.231.231,0,0,0,.222-.235.22.22,0,0,0-.222-.222.223.223,0,0,0-.235.222A.234.234,0,0,0,388.7,206.676Z" transform="translate(71.461 -55.277)" fill="#fff"/>
        <path id="_Path_101" data-name="&lt;Path&gt;" d="M7.121,228.069a.385.385,0,0,0,0-.769.385.385,0,1,0,0,.769Z" transform="translate(-6.43 -51.425)" fill="#fff"/>
        <path id="_Path_102" data-name="&lt;Path&gt;" d="M28.622,229.676a1.688,1.688,0,1,0-1.682-1.695A1.688,1.688,0,0,0,28.622,229.676Z" transform="translate(-0.295 -51.701)" fill="#fff"/>
        <path id="_Path_103" data-name="&lt;Path&gt;" d="M50.125,231.283a2.992,2.992,0,1,0-2.985-3A2.988,2.988,0,0,0,50.125,231.283Z" transform="translate(5.838 -51.978)" fill="#fff"/>
        <path id="_Path_104" data-name="&lt;Path&gt;" d="M71.629,232.891a4.3,4.3,0,1,0-4.289-4.3A4.295,4.295,0,0,0,71.629,232.891Z" transform="translate(11.97 -52.254)" fill="#fff"/>
        <path id="_Path_105" data-name="&lt;Path&gt;" d="M93.114,234.4a5.521,5.521,0,1,0-5.514-5.527A5.519,5.519,0,0,0,93.114,234.4Z" transform="translate(9.888 -52.513)" fill="#fff"/>
        <path id="_Path_106" data-name="&lt;Path&gt;" d="M114.6,235.912a6.746,6.746,0,1,0-6.74-6.753A6.754,6.754,0,0,0,114.6,235.912Z" transform="translate(13.93 -52.772)" fill="#fff"/>
        <path id="_Path_107" data-name="&lt;Path&gt;" d="M136.067,237.326a7.893,7.893,0,1,0-7.887-7.9A7.894,7.894,0,0,0,136.067,237.326Z" transform="translate(17.966 -53.014)" fill="#fff"/>
        <path id="_Path_108" data-name="&lt;Path&gt;" d="M157.516,238.647a8.969,8.969,0,1,0-8.956-8.969A8.968,8.968,0,0,0,157.516,238.647Z" transform="translate(22 -53.242)" fill="#fff"/>
        <path id="_Path_109" data-name="&lt;Path&gt;" d="M178.908,239.592a9.731,9.731,0,1,0-9.738-9.738A9.728,9.728,0,0,0,178.908,239.592Z" transform="translate(26.081 -53.402)" fill="#fff"/>
        <path id="_Path_110" data-name="&lt;Path&gt;" d="M200.2,240.062a10.116,10.116,0,1,0-10.116-10.116A10.117,10.117,0,0,0,200.2,240.062Z" transform="translate(30.238 -53.484)" fill="#fff"/>
        <path id="_Path_111" data-name="&lt;Path&gt;" d="M221.326,239.689a9.81,9.81,0,1,0-9.816-9.816A9.811,9.811,0,0,0,221.326,239.689Z" transform="translate(34.554 -53.419)" fill="#fff"/>
        <path id="_Path_112" data-name="&lt;Path&gt;" d="M242.347,238.741a9.04,9.04,0,1,0-9.047-9.047A9.052,9.052,0,0,0,242.347,238.741Z" transform="translate(38.992 -53.256)" fill="#fff"/>
        <path id="_Path_113" data-name="&lt;Path&gt;" d="M263.313,237.519a8.05,8.05,0,1,0-8.043-8.056A8.05,8.05,0,0,0,263.313,237.519Z" transform="translate(43.505 -53.047)" fill="#fff"/>
        <path id="_Path_114" data-name="&lt;Path&gt;" d="M284.246,236.092a6.9,6.9,0,1,0-6.9-6.9A6.9,6.9,0,0,0,284.246,236.092Z" transform="translate(48.075 -52.805)" fill="#fff"/>
        <path id="_Path_115" data-name="&lt;Path&gt;" d="M305.142,234.485a5.592,5.592,0,1,0-5.592-5.592A5.591,5.591,0,0,0,305.142,234.485Z" transform="translate(52.708 -52.529)" fill="#fff"/>
        <path id="_Path_116" data-name="&lt;Path&gt;" d="M326.057,232.974a4.367,4.367,0,1,0-4.367-4.367A4.367,4.367,0,0,0,326.057,232.974Z" transform="translate(51.188 -52.27)" fill="#fff"/>
        <path id="_Path_117" data-name="&lt;Path&gt;" d="M346.972,231.463a3.142,3.142,0,1,0-3.142-3.142A3.135,3.135,0,0,0,346.972,231.463Z" transform="translate(57.909 -52.01)" fill="#fff"/>
        <path id="_Path_118" data-name="&lt;Path&gt;" d="M367.863,229.773A1.766,1.766,0,1,0,366.09,228,1.772,1.772,0,0,0,367.863,229.773Z" transform="translate(64.667 -51.718)" fill="#fff"/>
        <path id="_Path_119" data-name="&lt;Path&gt;" d="M388.777,228.249a.537.537,0,0,0,.534-.534.541.541,0,0,0-1.082,0A.54.54,0,0,0,388.777,228.249Z" transform="translate(71.388 -51.457)" fill="#fff"/>
        <path id="_Path_120" data-name="&lt;Path&gt;" d="M7.173,249.545a.613.613,0,1,0-.613-.613A.612.612,0,0,0,7.173,249.545Z" transform="translate(-6.482 -47.592)" fill="#fff"/>
        <path id="_Path_121" data-name="&lt;Path&gt;" d="M28.676,251.152a1.916,1.916,0,1,0-1.916-1.916A1.911,1.911,0,0,0,28.676,251.152Z" transform="translate(-0.349 -47.882)" fill="#fff"/>
        <path id="_Path_122" data-name="&lt;Path&gt;" d="M50.2,252.853a3.292,3.292,0,1,0-3.3-3.3A3.294,3.294,0,0,0,50.2,252.853Z" transform="translate(5.765 -48.187)" fill="#fff"/>
        <path id="_Path_123" data-name="&lt;Path&gt;" d="M71.7,254.46a4.6,4.6,0,1,0-4.6-4.6A4.6,4.6,0,0,0,71.7,254.46Z" transform="translate(11.897 -48.477)" fill="#fff"/>
        <path id="_Path_124" data-name="&lt;Path&gt;" d="M93.2,256.067a5.9,5.9,0,1,0-5.892-5.905A5.908,5.908,0,0,0,93.2,256.067Z" transform="translate(9.817 -48.766)" fill="#fff"/>
        <path id="_Path_125" data-name="&lt;Path&gt;" d="M114.706,257.675a7.2,7.2,0,1,0-7.2-7.209A7.2,7.2,0,0,0,114.706,257.675Z" transform="translate(13.84 -49.056)" fill="#fff"/>
        <path id="_Path_126" data-name="&lt;Path&gt;" d="M136.209,259.282a8.506,8.506,0,1,0-8.5-8.512A8.506,8.506,0,0,0,136.209,259.282Z" transform="translate(17.84 -49.345)" fill="#fff"/>
        <path id="_Path_127" data-name="&lt;Path&gt;" d="M157.695,260.793a9.731,9.731,0,1,0-9.725-9.738A9.73,9.73,0,0,0,157.695,260.793Z" transform="translate(21.835 -49.617)" fill="#fff"/>
        <path id="_Path_128" data-name="&lt;Path&gt;" d="M179.175,262.207a10.878,10.878,0,1,0-10.885-10.885A10.876,10.876,0,0,0,179.175,262.207Z" transform="translate(25.824 -49.871)" fill="#fff"/>
        <path id="_Path_129" data-name="&lt;Path&gt;" d="M200.5,262.869a11.419,11.419,0,1,0-11.419-11.419A11.424,11.424,0,0,0,200.5,262.869Z" transform="translate(29.935 -49.992)" fill="#fff"/>
        <path id="_Path_130" data-name="&lt;Path&gt;" d="M221.575,262.207a10.878,10.878,0,1,0-10.885-10.885A10.888,10.888,0,0,0,221.575,262.207Z" transform="translate(34.295 -49.871)" fill="#fff"/>
        <path id="_Path_131" data-name="&lt;Path&gt;" d="M242.541,260.985a9.888,9.888,0,1,0-9.881-9.894A9.886,9.886,0,0,0,242.541,260.985Z" transform="translate(38.782 -49.652)" fill="#fff"/>
        <path id="_Path_132" data-name="&lt;Path&gt;" d="M263.456,259.475a8.662,8.662,0,1,0-8.656-8.669A8.662,8.662,0,0,0,263.456,259.475Z" transform="translate(43.346 -49.38)" fill="#fff"/>
        <path id="_Path_133" data-name="&lt;Path&gt;" d="M284.352,257.867A7.359,7.359,0,1,0,277,250.5,7.355,7.355,0,0,0,284.352,257.867Z" transform="translate(47.952 -49.091)" fill="#fff"/>
        <path id="_Path_134" data-name="&lt;Path&gt;" d="M305.249,256.26A6.055,6.055,0,1,0,299.2,250.2,6.059,6.059,0,0,0,305.249,256.26Z" transform="translate(52.58 -48.801)" fill="#fff"/>
        <path id="_Path_135" data-name="&lt;Path&gt;" d="M326.145,254.653A4.752,4.752,0,1,0,321.4,249.9,4.751,4.751,0,0,0,326.145,254.653Z" transform="translate(51.099 -48.511)" fill="#fff"/>
        <path id="_Path_136" data-name="&lt;Path&gt;" d="M347.023,252.95a3.37,3.37,0,1,0-3.363-3.376A3.377,3.377,0,0,0,347.023,252.95Z" transform="translate(57.857 -48.204)" fill="#fff"/>
        <path id="_Path_137" data-name="&lt;Path&gt;" d="M367.933,251.342a2.066,2.066,0,1,0-2.073-2.073A2.067,2.067,0,0,0,367.933,251.342Z" transform="translate(64.597 -47.914)" fill="#fff"/>
        <path id="_Path_138" data-name="&lt;Path&gt;" d="M388.829,249.735a.763.763,0,1,0-.769-.769A.759.759,0,0,0,388.829,249.735Z" transform="translate(71.337 -47.624)" fill="#fff"/>
        <path id="_Path_139" data-name="&lt;Path&gt;" d="M7.191,270.839a.684.684,0,1,0-.691-.691A.687.687,0,0,0,7.191,270.839Z" transform="translate(-6.5 -43.725)" fill="#fff"/>
        <path id="_Path_140" data-name="&lt;Path&gt;" d="M28.694,272.446a1.988,1.988,0,1,0-1.994-1.994A1.994,1.994,0,0,0,28.694,272.446Z" transform="translate(-0.368 -44.029)" fill="#fff"/>
        <path id="_Path_141" data-name="&lt;Path&gt;" d="M50.216,274.149a3.37,3.37,0,1,0-3.376-3.376A3.377,3.377,0,0,0,50.216,274.149Z" transform="translate(5.747 -44.351)" fill="#fff"/>
        <path id="_Path_142" data-name="&lt;Path&gt;" d="M71.735,275.853A4.752,4.752,0,1,0,66.99,271.1,4.76,4.76,0,0,0,71.735,275.853Z" transform="translate(11.864 -44.672)" fill="#fff"/>
        <path id="_Path_143" data-name="&lt;Path&gt;" d="M93.239,277.46A6.055,6.055,0,1,0,87.19,271.4,6.059,6.059,0,0,0,93.239,277.46Z" transform="translate(9.787 -44.976)" fill="#fff"/>
        <path id="_Path_144" data-name="&lt;Path&gt;" d="M114.76,279.164a7.437,7.437,0,1,0-7.43-7.444A7.449,7.449,0,0,0,114.76,279.164Z" transform="translate(13.794 -45.298)" fill="#fff"/>
        <path id="_Path_145" data-name="&lt;Path&gt;" d="M136.264,280.771a8.741,8.741,0,1,0-8.734-8.747A8.74,8.74,0,0,0,136.264,280.771Z" transform="translate(17.792 -45.601)" fill="#fff"/>
        <path id="_Path_146" data-name="&lt;Path&gt;" d="M157.786,282.475a10.122,10.122,0,1,0-10.116-10.129A10.131,10.131,0,0,0,157.786,282.475Z" transform="translate(21.751 -45.923)" fill="#fff"/>
        <path id="_Path_147" data-name="&lt;Path&gt;" d="M179.3,284.066a11.413,11.413,0,1,0-11.419-11.419A11.424,11.424,0,0,0,179.3,284.066Z" transform="translate(25.704 -46.224)" fill="#fff"/>
        <path id="_Path_148" data-name="&lt;Path&gt;" d="M200.715,285.207a12.338,12.338,0,1,0-12.345-12.345A12.342,12.342,0,0,0,200.715,285.207Z" transform="translate(29.72 -46.439)" fill="#fff"/>
        <path id="_Path_149" data-name="&lt;Path&gt;" d="M221.718,284.162a11.491,11.491,0,1,0-11.5-11.5A11.491,11.491,0,0,0,221.718,284.162Z" transform="translate(34.146 -46.242)" fill="#fff"/>
        <path id="_Path_150" data-name="&lt;Path&gt;" d="M242.614,282.555a10.188,10.188,0,1,0-10.194-10.194A10.192,10.192,0,0,0,242.614,282.555Z" transform="translate(38.704 -45.938)" fill="#fff"/>
        <path id="_Path_151" data-name="&lt;Path&gt;" d="M263.51,280.948a8.884,8.884,0,1,0-8.89-8.89A8.885,8.885,0,0,0,263.51,280.948Z" transform="translate(43.285 -45.635)" fill="#fff"/>
        <path id="_Path_152" data-name="&lt;Path&gt;" d="M284.389,279.26a7.515,7.515,0,1,0-7.509-7.522A7.513,7.513,0,0,0,284.389,279.26Z" transform="translate(47.91 -45.316)" fill="#fff"/>
        <path id="_Path_153" data-name="&lt;Path&gt;" d="M305.285,277.653a6.212,6.212,0,1,0-6.205-6.218A6.214,6.214,0,0,0,305.285,277.653Z" transform="translate(52.538 -45.012)" fill="#fff"/>
        <path id="_Path_154" data-name="&lt;Path&gt;" d="M326.163,275.95a4.83,4.83,0,1,0-4.823-4.836A4.835,4.835,0,0,0,326.163,275.95Z" transform="translate(51.081 -44.691)" fill="#fff"/>
        <path id="_Path_155" data-name="&lt;Path&gt;" d="M347.06,274.342a3.526,3.526,0,1,0-3.52-3.533A3.527,3.527,0,0,0,347.06,274.342Z" transform="translate(57.821 -44.387)" fill="#fff"/>
        <path id="_Path_156" data-name="&lt;Path&gt;" d="M367.951,272.639a2.144,2.144,0,1,0-2.151-2.151A2.15,2.15,0,0,0,367.951,272.639Z" transform="translate(64.579 -44.065)" fill="#fff"/>
        <path id="_Path_157" data-name="&lt;Path&gt;" d="M388.847,271.032a.841.841,0,1,0-.847-.847A.843.843,0,0,0,388.847,271.032Z" transform="translate(71.318 -43.762)" fill="#fff"/>
        <path id="_Path_158" data-name="&lt;Path&gt;" d="M7.173,291.955a.613.613,0,1,0-.613-.613A.612.612,0,0,0,7.173,291.955Z" transform="translate(-6.482 -39.826)" fill="#fff"/>
        <path id="_Path_159" data-name="&lt;Path&gt;" d="M28.676,293.563a1.916,1.916,0,1,0-1.916-1.916A1.919,1.919,0,0,0,28.676,293.563Z" transform="translate(-0.349 -40.143)" fill="#fff"/>
        <path id="_Path_160" data-name="&lt;Path&gt;" d="M50.2,295.253a3.292,3.292,0,1,0-3.3-3.285A3.291,3.291,0,0,0,50.2,295.253Z" transform="translate(5.765 -40.478)" fill="#fff"/>
        <path id="_Path_161" data-name="&lt;Path&gt;" d="M71.7,296.86a4.6,4.6,0,1,0-4.6-4.589A4.6,4.6,0,0,0,71.7,296.86Z" transform="translate(11.897 -40.795)" fill="#fff"/>
        <path id="_Path_162" data-name="&lt;Path&gt;" d="M93.2,298.467a5.9,5.9,0,1,0-5.892-5.892A5.9,5.9,0,0,0,93.2,298.467Z" transform="translate(9.817 -41.113)" fill="#fff"/>
        <path id="_Path_163" data-name="&lt;Path&gt;" d="M114.724,300.171a7.281,7.281,0,1,0-7.274-7.274A7.28,7.28,0,0,0,114.724,300.171Z" transform="translate(13.824 -41.449)" fill="#fff"/>
        <path id="_Path_164" data-name="&lt;Path&gt;" d="M136.228,301.778a8.584,8.584,0,1,0-8.578-8.578A8.587,8.587,0,0,0,136.228,301.778Z" transform="translate(17.824 -41.767)" fill="#fff"/>
        <path id="_Path_165" data-name="&lt;Path&gt;" d="M157.713,303.289a9.809,9.809,0,1,0-9.8-9.8A9.811,9.811,0,0,0,157.713,303.289Z" transform="translate(21.818 -42.066)" fill="#fff"/>
        <path id="_Path_166" data-name="&lt;Path&gt;" d="M179.175,304.607a10.878,10.878,0,1,0-10.885-10.872A10.865,10.865,0,0,0,179.175,304.607Z" transform="translate(25.824 -42.327)" fill="#fff"/>
        <path id="_Path_167" data-name="&lt;Path&gt;" d="M200.518,305.362a11.491,11.491,0,1,0-11.5-11.485A11.488,11.488,0,0,0,200.518,305.362Z" transform="translate(29.916 -42.476)" fill="#fff"/>
        <path id="_Path_168" data-name="&lt;Path&gt;" d="M221.611,304.8a11.035,11.035,0,1,0-11.041-11.028A11.032,11.032,0,0,0,221.611,304.8Z" transform="translate(34.257 -42.365)" fill="#fff"/>
        <path id="_Path_169" data-name="&lt;Path&gt;" d="M242.541,303.385a9.888,9.888,0,1,0-9.881-9.881A9.883,9.883,0,0,0,242.541,303.385Z" transform="translate(38.782 -42.085)" fill="#fff"/>
        <path id="_Path_170" data-name="&lt;Path&gt;" d="M263.456,301.875a8.662,8.662,0,1,0-8.656-8.656A8.659,8.659,0,0,0,263.456,301.875Z" transform="translate(43.346 -41.786)" fill="#fff"/>
        <path id="_Path_171" data-name="&lt;Path&gt;" d="M284.352,300.267A7.359,7.359,0,1,0,277,292.915,7.352,7.352,0,0,0,284.352,300.267Z" transform="translate(47.952 -41.469)" fill="#fff"/>
        <path id="_Path_172" data-name="&lt;Path&gt;" d="M305.249,298.66a6.055,6.055,0,1,0-6.049-6.049A6.056,6.056,0,0,0,305.249,298.66Z" transform="translate(52.58 -41.151)" fill="#fff"/>
        <path id="_Path_173" data-name="&lt;Path&gt;" d="M326.145,297.053a4.752,4.752,0,1,0-4.745-4.745A4.748,4.748,0,0,0,326.145,297.053Z" transform="translate(51.099 -40.834)" fill="#fff"/>
        <path id="_Path_174" data-name="&lt;Path&gt;" d="M347.041,295.446A3.448,3.448,0,1,0,343.6,292,3.441,3.441,0,0,0,347.041,295.446Z" transform="translate(57.839 -40.516)" fill="#fff"/>
        <path id="_Path_175" data-name="&lt;Path&gt;" d="M367.933,293.742a2.066,2.066,0,1,0-2.073-2.06A2.064,2.064,0,0,0,367.933,293.742Z" transform="translate(64.597 -40.18)" fill="#fff"/>
        <path id="_Path_176" data-name="&lt;Path&gt;" d="M388.829,292.135a.763.763,0,1,0-.769-.756A.757.757,0,0,0,388.829,292.135Z" transform="translate(71.337 -39.863)" fill="#fff"/>
        <path id="_Path_177" data-name="&lt;Path&gt;" d="M7.136,312.966a.463.463,0,0,0,0-.926.463.463,0,0,0,0,.926Z" transform="translate(-6.445 -35.906)" fill="#fff"/>
        <path id="_Path_178" data-name="&lt;Path&gt;" d="M28.622,314.476a1.688,1.688,0,1,0-1.682-1.682A1.686,1.686,0,0,0,28.622,314.476Z" transform="translate(-0.295 -36.217)" fill="#fff"/>
        <path id="_Path_179" data-name="&lt;Path&gt;" d="M50.125,316.083A2.992,2.992,0,1,0,47.14,313.1,2.985,2.985,0,0,0,50.125,316.083Z" transform="translate(5.838 -36.548)" fill="#fff"/>
        <path id="_Path_180" data-name="&lt;Path&gt;" d="M71.629,317.691A4.3,4.3,0,1,0,67.34,313.4,4.284,4.284,0,0,0,71.629,317.691Z" transform="translate(11.97 -36.879)" fill="#fff"/>
        <path id="_Path_181" data-name="&lt;Path&gt;" d="M93.132,319.295A5.592,5.592,0,1,0,87.54,313.7,5.591,5.591,0,0,0,93.132,319.295Z" transform="translate(9.873 -37.207)" fill="#fff"/>
        <path id="_Path_182" data-name="&lt;Path&gt;" d="M114.618,320.808a6.824,6.824,0,1,0-6.818-6.818A6.826,6.826,0,0,0,114.618,320.808Z" transform="translate(13.914 -37.522)" fill="#fff"/>
        <path id="_Path_183" data-name="&lt;Path&gt;" d="M136.085,322.223a7.971,7.971,0,1,0-7.965-7.965A7.975,7.975,0,0,0,136.085,322.223Z" transform="translate(17.95 -37.814)" fill="#fff"/>
        <path id="_Path_184" data-name="&lt;Path&gt;" d="M157.534,323.541a9.04,9.04,0,1,0-9.034-9.034A9.032,9.032,0,0,0,157.534,323.541Z" transform="translate(21.983 -38.086)" fill="#fff"/>
        <path id="_Path_185" data-name="&lt;Path&gt;" d="M178.944,324.585a9.888,9.888,0,1,0-9.894-9.881A9.883,9.883,0,0,0,178.944,324.585Z" transform="translate(26.046 -38.302)" fill="#fff"/>
        <path id="_Path_186" data-name="&lt;Path&gt;" d="M200.214,324.968a10.194,10.194,0,1,0-10.194-10.194A10.192,10.192,0,0,0,200.214,324.968Z" transform="translate(30.22 -38.379)" fill="#fff"/>
        <path id="_Path_187" data-name="&lt;Path&gt;" d="M221.344,324.585a9.888,9.888,0,1,0-9.894-9.881A9.875,9.875,0,0,0,221.344,324.585Z" transform="translate(34.535 -38.302)" fill="#fff"/>
        <path id="_Path_188" data-name="&lt;Path&gt;" d="M242.365,323.637a9.119,9.119,0,1,0-9.125-9.112A9.124,9.124,0,0,0,242.365,323.637Z" transform="translate(38.972 -38.106)" fill="#fff"/>
        <path id="_Path_189" data-name="&lt;Path&gt;" d="M263.313,322.319a8.05,8.05,0,1,0-8.043-8.043A8.039,8.039,0,0,0,263.313,322.319Z" transform="translate(43.505 -37.833)" fill="#fff"/>
        <path id="_Path_190" data-name="&lt;Path&gt;" d="M284.246,320.9a6.9,6.9,0,1,0-6.9-6.9A6.9,6.9,0,0,0,284.246,320.9Z" transform="translate(48.075 -37.539)" fill="#fff"/>
        <path id="_Path_191" data-name="&lt;Path&gt;" d="M305.161,319.391a5.671,5.671,0,1,0-5.671-5.671A5.675,5.675,0,0,0,305.161,319.391Z" transform="translate(52.686 -37.227)" fill="#fff"/>
        <path id="_Path_192" data-name="&lt;Path&gt;" d="M326.075,317.88a4.445,4.445,0,1,0-4.445-4.445A4.442,4.442,0,0,0,326.075,317.88Z" transform="translate(51.169 -36.916)" fill="#fff"/>
        <path id="_Path_193" data-name="&lt;Path&gt;" d="M346.972,316.273a3.142,3.142,0,1,0-3.142-3.142A3.135,3.135,0,0,0,346.972,316.273Z" transform="translate(57.909 -36.585)" fill="#fff"/>
        <path id="_Path_194" data-name="&lt;Path&gt;" d="M367.881,314.666a1.838,1.838,0,1,0-1.851-1.838A1.844,1.844,0,0,0,367.881,314.666Z" transform="translate(64.649 -36.254)" fill="#fff"/>
        <path id="_Path_195" data-name="&lt;Path&gt;" d="M388.777,313.059a.546.546,0,0,0,.534-.534.541.541,0,0,0-1.082,0A.548.548,0,0,0,388.777,313.059Z" transform="translate(71.388 -35.924)" fill="#fff"/>
        <path id="_Path_196" data-name="&lt;Path&gt;" d="M7.085,333.876a.212.212,0,0,0,.222-.222.223.223,0,0,0-.222-.235.234.234,0,0,0-.235.235A.223.223,0,0,0,7.085,333.876Z" transform="translate(-6.394 -31.961)" fill="#fff"/>
        <path id="_Path_197" data-name="&lt;Path&gt;" d="M28.534,335.207a1.3,1.3,0,1,0-1.3-1.3A1.307,1.307,0,0,0,28.534,335.207Z" transform="translate(-0.207 -32.244)" fill="#fff"/>
        <path id="_Path_198" data-name="&lt;Path&gt;" d="M50.019,336.718a2.529,2.529,0,1,0-2.529-2.529A2.531,2.531,0,0,0,50.019,336.718Z" transform="translate(5.944 -32.567)" fill="#fff"/>
        <path id="_Path_199" data-name="&lt;Path&gt;" d="M71.5,338.229a3.754,3.754,0,1,0-3.754-3.754A3.755,3.755,0,0,0,71.5,338.229Z" transform="translate(12.095 -32.891)" fill="#fff"/>
        <path id="_Path_200" data-name="&lt;Path&gt;" d="M92.99,339.739a4.98,4.98,0,1,0-4.98-4.98A4.979,4.979,0,0,0,92.99,339.739Z" transform="translate(9.989 -33.215)" fill="#fff"/>
        <path id="_Path_201" data-name="&lt;Path&gt;" d="M114.457,341.157a6.133,6.133,0,1,0-6.127-6.127A6.131,6.131,0,0,0,114.457,341.157Z" transform="translate(14.051 -33.522)" fill="#fff"/>
        <path id="_Path_202" data-name="&lt;Path&gt;" d="M135.888,342.391a7.131,7.131,0,1,0-7.118-7.131A7.132,7.132,0,0,0,135.888,342.391Z" transform="translate(18.125 -33.785)" fill="#fff"/>
        <path id="_Path_203" data-name="&lt;Path&gt;" d="M157.3,343.519a8.05,8.05,0,1,0-8.043-8.043A8.05,8.05,0,0,0,157.3,343.519Z" transform="translate(22.196 -34.03)" fill="#fff"/>
        <path id="_Path_204" data-name="&lt;Path&gt;" d="M178.659,344.275a8.662,8.662,0,1,0-8.669-8.656A8.659,8.659,0,0,0,178.659,344.275Z" transform="translate(26.32 -34.193)" fill="#fff"/>
        <path id="_Path_205" data-name="&lt;Path&gt;" d="M199.91,344.561a8.89,8.89,0,1,0-8.89-8.89A8.9,8.9,0,0,0,199.91,344.561Z" transform="translate(30.524 -34.252)" fill="#fff"/>
        <path id="_Path_206" data-name="&lt;Path&gt;" d="M221.059,344.275a8.662,8.662,0,1,0-8.669-8.656A8.651,8.651,0,0,0,221.059,344.275Z" transform="translate(34.831 -34.193)" fill="#fff"/>
        <path id="_Path_207" data-name="&lt;Path&gt;" d="M242.113,343.519a8.05,8.05,0,1,0-8.043-8.043A8.039,8.039,0,0,0,242.113,343.519Z" transform="translate(39.244 -34.03)" fill="#fff"/>
        <path id="_Path_208" data-name="&lt;Path&gt;" d="M263.137,342.571a7.281,7.281,0,1,0-7.287-7.274A7.277,7.277,0,0,0,263.137,342.571Z" transform="translate(43.702 -33.826)" fill="#fff"/>
        <path id="_Path_209" data-name="&lt;Path&gt;" d="M284.085,341.25a6.205,6.205,0,1,0-6.205-6.205A6.2,6.2,0,0,0,284.085,341.25Z" transform="translate(48.26 -33.54)" fill="#fff"/>
        <path id="_Path_210" data-name="&lt;Path&gt;" d="M305.036,339.932A5.136,5.136,0,1,0,299.9,334.8,5.138,5.138,0,0,0,305.036,339.932Z" transform="translate(52.834 -33.257)" fill="#fff"/>
        <path id="_Path_211" data-name="&lt;Path&gt;" d="M325.951,338.421a3.911,3.911,0,1,0-3.911-3.911A3.914,3.914,0,0,0,325.951,338.421Z" transform="translate(51.294 -32.932)" fill="#fff"/>
        <path id="_Path_212" data-name="&lt;Path&gt;" d="M346.862,336.911a2.685,2.685,0,1,0-2.672-2.685A2.69,2.69,0,0,0,346.862,336.911Z" transform="translate(58.018 -32.608)" fill="#fff"/>
        <path id="_Path_213" data-name="&lt;Path&gt;" d="M367.79,335.387a1.453,1.453,0,1,0-1.46-1.447A1.452,1.452,0,0,0,367.79,335.387Z" transform="translate(64.74 -32.284)" fill="#fff"/>
        <path id="_Path_214" data-name="&lt;Path&gt;" d="M388.7,333.876a.22.22,0,0,0,.222-.222.228.228,0,1,0-.456,0A.223.223,0,0,0,388.7,333.876Z" transform="translate(71.461 -31.961)" fill="#fff"/>
        <path id="_Path_215" data-name="&lt;Path&gt;" d="M28.409,355.748a.779.779,0,0,0,.769-.769.771.771,0,0,0-.769-.769.762.762,0,0,0-.769.769A.77.77,0,0,0,28.409,355.748Z" transform="translate(-0.082 -28.222)" fill="#fff"/>
        <path id="_Path_216" data-name="&lt;Path&gt;" d="M49.894,357.259a1.994,1.994,0,1,0-1.994-1.994A2,2,0,0,0,49.894,357.259Z" transform="translate(6.069 -28.558)" fill="#fff"/>
        <path id="_Path_217" data-name="&lt;Path&gt;" d="M71.362,358.673a3.142,3.142,0,1,0-3.142-3.142A3.143,3.143,0,0,0,71.362,358.673Z" transform="translate(12.237 -28.873)" fill="#fff"/>
        <path id="_Path_218" data-name="&lt;Path&gt;" d="M92.811,359.991a4.211,4.211,0,1,0-4.211-4.211A4.22,4.22,0,0,0,92.811,359.991Z" transform="translate(10.134 -29.167)" fill="#fff"/>
        <path id="_Path_219" data-name="&lt;Path&gt;" d="M114.241,361.229a5.214,5.214,0,1,0-5.2-5.214A5.213,5.213,0,0,0,114.241,361.229Z" transform="translate(14.234 -29.443)" fill="#fff"/>
        <path id="_Path_220" data-name="&lt;Path&gt;" d="M135.657,362.354a6.127,6.127,0,1,0-6.127-6.127A6.131,6.131,0,0,0,135.657,362.354Z" transform="translate(18.329 -29.695)" fill="#fff"/>
        <path id="_Path_221" data-name="&lt;Path&gt;" d="M157.036,363.3a6.9,6.9,0,1,0-6.9-6.9A6.9,6.9,0,0,0,157.036,363.3Z" transform="translate(22.442 -29.907)" fill="#fff"/>
        <path id="_Path_222" data-name="&lt;Path&gt;" d="M178.355,363.864a7.352,7.352,0,1,0-7.365-7.352A7.352,7.352,0,0,0,178.355,363.864Z" transform="translate(26.612 -30.033)" fill="#fff"/>
        <path id="_Path_223" data-name="&lt;Path&gt;" d="M199.589,364.057a7.509,7.509,0,1,0-7.509-7.509A7.511,7.511,0,0,0,199.589,364.057Z" transform="translate(30.845 -30.076)" fill="#fff"/>
        <path id="_Path_224" data-name="&lt;Path&gt;" d="M220.755,363.864a7.352,7.352,0,1,0-7.365-7.352A7.352,7.352,0,0,0,220.755,363.864Z" transform="translate(35.147 -30.033)" fill="#fff"/>
        <path id="_Path_225" data-name="&lt;Path&gt;" d="M241.846,363.3a6.9,6.9,0,1,0-6.9-6.9A6.9,6.9,0,0,0,241.846,363.3Z" transform="translate(39.531 -29.907)" fill="#fff"/>
        <path id="_Path_226" data-name="&lt;Path&gt;" d="M262.885,362.45a6.205,6.205,0,1,0-6.205-6.205A6.2,6.2,0,0,0,262.885,362.45Z" transform="translate(43.982 -29.716)" fill="#fff"/>
        <path id="_Path_227" data-name="&lt;Path&gt;" d="M283.888,361.409a5.364,5.364,0,1,0-5.358-5.358A5.369,5.369,0,0,0,283.888,361.409Z" transform="translate(48.487 -29.485)" fill="#fff"/>
        <path id="_Path_228" data-name="&lt;Path&gt;" d="M304.839,360.088a4.289,4.289,0,1,0-4.289-4.289A4.284,4.284,0,0,0,304.839,360.088Z" transform="translate(53.068 -29.188)" fill="#fff"/>
        <path id="_Path_229" data-name="&lt;Path&gt;" d="M325.79,358.77a3.22,3.22,0,1,0-3.22-3.22A3.218,3.218,0,0,0,325.79,358.77Z" transform="translate(51.455 -28.894)" fill="#fff"/>
        <path id="_Path_230" data-name="&lt;Path&gt;" d="M346.738,357.452A2.151,2.151,0,1,0,344.6,355.3,2.153,2.153,0,0,0,346.738,357.452Z" transform="translate(58.143 -28.601)" fill="#fff"/>
        <path id="_Path_231" data-name="&lt;Path&gt;" d="M367.666,355.928a.915.915,0,0,0,.912-.913.919.919,0,1,0-.912.913Z" transform="translate(64.864 -28.264)" fill="#fff"/>
        <path id="_Path_232" data-name="&lt;Path&gt;" d="M388.668,354.9a.08.08,0,0,0,0-.156.078.078,0,0,0,0,.156Z" transform="translate(71.497 -28.033)" fill="#fff"/>
        <path id="_Path_233" data-name="&lt;Path&gt;" d="M28.285,376.289a.235.235,0,1,0-.235-.235A.234.234,0,0,0,28.285,376.289Z" transform="translate(0.042 -24.19)" fill="#fff"/>
        <path id="_Path_234" data-name="&lt;Path&gt;" d="M49.715,377.511a1.225,1.225,0,1,0-1.225-1.225A1.224,1.224,0,0,0,49.715,377.511Z" transform="translate(6.248 -24.471)" fill="#fff"/>
        <path id="_Path_235" data-name="&lt;Path&gt;" d="M71.183,378.925a2.373,2.373,0,1,0-2.373-2.372A2.364,2.364,0,0,0,71.183,378.925Z" transform="translate(12.417 -24.798)" fill="#fff"/>
        <path id="_Path_236" data-name="&lt;Path&gt;" d="M92.613,380.163a3.376,3.376,0,1,0-3.363-3.376A3.377,3.377,0,0,0,92.613,380.163Z" transform="translate(10.295 -25.084)" fill="#fff"/>
        <path id="_Path_237" data-name="&lt;Path&gt;" d="M114.011,381.191a4.211,4.211,0,1,0-4.211-4.211A4.211,4.211,0,0,0,114.011,381.191Z" transform="translate(14.429 -25.322)" fill="#fff"/>
        <path id="_Path_238" data-name="&lt;Path&gt;" d="M135.408,382.236a5.058,5.058,0,1,0-5.058-5.058A5.054,5.054,0,0,0,135.408,382.236Z" transform="translate(18.55 -25.564)" fill="#fff"/>
        <path id="_Path_239" data-name="&lt;Path&gt;" d="M156.732,382.895a5.592,5.592,0,1,0-5.592-5.592A5.594,5.594,0,0,0,156.732,382.895Z" transform="translate(22.723 -25.717)" fill="#fff"/>
        <path id="_Path_240" data-name="&lt;Path&gt;" d="M178.052,383.457a6.049,6.049,0,1,0-6.062-6.049A6.053,6.053,0,0,0,178.052,383.457Z" transform="translate(26.904 -25.848)" fill="#fff"/>
        <path id="_Path_241" data-name="&lt;Path&gt;" d="M199.288,383.65a6.205,6.205,0,1,0-6.218-6.205A6.2,6.2,0,0,0,199.288,383.65Z" transform="translate(31.146 -25.893)" fill="#fff"/>
        <path id="_Path_242" data-name="&lt;Path&gt;" d="M220.452,383.457a6.049,6.049,0,1,0-6.062-6.049A6.053,6.053,0,0,0,220.452,383.457Z" transform="translate(35.462 -25.848)" fill="#fff"/>
        <path id="_Path_243" data-name="&lt;Path&gt;" d="M241.561,382.991a5.671,5.671,0,1,0-5.671-5.671A5.675,5.675,0,0,0,241.561,382.991Z" transform="translate(39.838 -25.74)" fill="#fff"/>
        <path id="_Path_244" data-name="&lt;Path&gt;" d="M262.636,382.332A5.136,5.136,0,1,0,257.5,377.2,5.129,5.129,0,0,0,262.636,382.332Z" transform="translate(44.26 -25.587)" fill="#fff"/>
        <path id="_Path_245" data-name="&lt;Path&gt;" d="M283.639,381.288A4.289,4.289,0,1,0,279.35,377,4.284,4.284,0,0,0,283.639,381.288Z" transform="translate(48.774 -25.345)" fill="#fff"/>
        <path id="_Path_246" data-name="&lt;Path&gt;" d="M304.641,380.259A3.454,3.454,0,1,0,301.2,376.8,3.46,3.46,0,0,0,304.641,380.259Z" transform="translate(53.302 -25.106)" fill="#fff"/>
        <path id="_Path_247" data-name="&lt;Path&gt;" d="M325.611,379.021a2.451,2.451,0,1,0-2.451-2.451A2.448,2.448,0,0,0,325.611,379.021Z" transform="translate(51.634 -24.82)" fill="#fff"/>
        <path id="_Path_248" data-name="&lt;Path&gt;" d="M346.559,377.7a1.382,1.382,0,1,0-1.369-1.382A1.383,1.383,0,0,0,346.559,377.7Z" transform="translate(58.322 -24.516)" fill="#fff"/>
        <path id="_Path_249" data-name="&lt;Path&gt;" d="M367.523,376.386a.313.313,0,1,0-.313-.313A.315.315,0,0,0,367.523,376.386Z" transform="translate(65.007 -24.212)" fill="#fff"/>
        <path id="_Path_250" data-name="&lt;Path&gt;" d="M49.536,397.762a.453.453,0,0,0,.456-.456.456.456,0,1,0-.913,0A.453.453,0,0,0,49.536,397.762Z" transform="translate(6.427 -28.062)" fill="#fff"/>
        <path id="_Path_251" data-name="&lt;Path&gt;" d="M70.97,399a1.46,1.46,0,1,0-1.46-1.46A1.458,1.458,0,0,0,70.97,399Z" transform="translate(12.629 -28.296)" fill="#fff"/>
        <path id="_Path_252" data-name="&lt;Path&gt;" d="M92.383,400.125a2.373,2.373,0,1,0-2.373-2.373A2.365,2.365,0,0,0,92.383,400.125Z" transform="translate(10.483 -28.508)" fill="#fff"/>
        <path id="_Path_253" data-name="&lt;Path&gt;" d="M113.762,401.073a3.142,3.142,0,1,0-3.142-3.142A3.143,3.143,0,0,0,113.762,401.073Z" transform="translate(14.642 -28.687)" fill="#fff"/>
        <path id="_Path_254" data-name="&lt;Path&gt;" d="M135.123,401.925a3.832,3.832,0,1,0-3.833-3.832A3.83,3.83,0,0,0,135.123,401.925Z" transform="translate(18.803 -28.848)" fill="#fff"/>
        <path id="_Path_255" data-name="&lt;Path&gt;" d="M156.447,402.584a4.367,4.367,0,1,0-4.367-4.367A4.37,4.37,0,0,0,156.447,402.584Z" transform="translate(22.986 -28.973)" fill="#fff"/>
        <path id="_Path_256" data-name="&lt;Path&gt;" d="M177.748,403.063a4.752,4.752,0,1,0-4.758-4.758A4.757,4.757,0,0,0,177.748,403.063Z" transform="translate(27.196 -29.061)" fill="#fff"/>
        <path id="_Path_257" data-name="&lt;Path&gt;" d="M198.966,403.147a4.823,4.823,0,1,0-4.836-4.823A4.821,4.821,0,0,0,198.966,403.147Z" transform="translate(31.468 -29.079)" fill="#fff"/>
        <path id="_Path_258" data-name="&lt;Path&gt;" d="M220.148,403.063a4.752,4.752,0,1,0-4.758-4.758A4.757,4.757,0,0,0,220.148,403.063Z" transform="translate(35.777 -29.061)" fill="#fff"/>
        <path id="_Path_259" data-name="&lt;Path&gt;" d="M241.275,402.68a4.445,4.445,0,1,0-4.445-4.445A4.451,4.451,0,0,0,241.275,402.68Z" transform="translate(40.145 -28.991)" fill="#fff"/>
        <path id="_Path_260" data-name="&lt;Path&gt;" d="M262.351,402.021a3.911,3.911,0,1,0-3.911-3.911A3.906,3.906,0,0,0,262.351,402.021Z" transform="translate(44.577 -28.866)" fill="#fff"/>
        <path id="_Path_261" data-name="&lt;Path&gt;" d="M283.39,401.17a3.22,3.22,0,1,0-3.22-3.22A3.227,3.227,0,0,0,283.39,401.17Z" transform="translate(49.06 -28.705)" fill="#fff"/>
        <path id="_Path_262" data-name="&lt;Path&gt;" d="M304.411,400.221a2.451,2.451,0,1,0-2.451-2.451A2.448,2.448,0,0,0,304.411,400.221Z" transform="translate(53.576 -28.526)" fill="#fff"/>
        <path id="_Path_263" data-name="&lt;Path&gt;" d="M325.4,399.093a1.532,1.532,0,1,0,0-3.063,1.532,1.532,0,0,0,0,3.063Z" transform="translate(51.849 -28.311)" fill="#fff"/>
        <path id="_Path_264" data-name="&lt;Path&gt;" d="M346.364,397.859a.534.534,0,1,0-.534-.534A.54.54,0,0,0,346.364,397.859Z" transform="translate(58.516 -28.08)" fill="#fff"/>
        <path id="_Path_265" data-name="&lt;Path&gt;" d="M70.736,418.962a.445.445,0,0,0,.456-.456.453.453,0,0,0-.456-.456.462.462,0,0,0-.456.456A.453.453,0,0,0,70.736,418.962Z" transform="translate(12.863 -21.626)" fill="#fff"/>
        <path id="_Path_266" data-name="&lt;Path&gt;" d="M92.134,420.007a1.3,1.3,0,1,0-1.3-1.3A1.307,1.307,0,0,0,92.134,420.007Z" transform="translate(10.686 -21.823)" fill="#fff"/>
        <path id="_Path_267" data-name="&lt;Path&gt;" d="M113.494,420.859a1.994,1.994,0,1,0-1.994-1.995A1.986,1.986,0,0,0,113.494,420.859Z" transform="translate(14.869 -21.984)" fill="#fff"/>
        <path id="_Path_268" data-name="&lt;Path&gt;" d="M134.837,421.614a2.607,2.607,0,1,0-2.607-2.607A2.6,2.6,0,0,0,134.837,421.614Z" transform="translate(19.057 -22.127)" fill="#fff"/>
        <path id="_Path_269" data-name="&lt;Path&gt;" d="M156.162,422.273a3.142,3.142,0,1,0-3.142-3.142A3.146,3.146,0,0,0,156.162,422.273Z" transform="translate(23.25 -22.251)" fill="#fff"/>
        <path id="_Path_270" data-name="&lt;Path&gt;" d="M177.426,422.56a3.37,3.37,0,1,0-3.376-3.376A3.374,3.374,0,0,0,177.426,422.56Z" transform="translate(27.505 -22.303)" fill="#fff"/>
        <path id="_Path_271" data-name="&lt;Path&gt;" d="M198.663,422.752a3.526,3.526,0,1,0-3.533-3.533A3.524,3.524,0,0,0,198.663,422.752Z" transform="translate(31.772 -22.339)" fill="#fff"/>
        <path id="_Path_272" data-name="&lt;Path&gt;" d="M219.844,422.656a3.448,3.448,0,1,0-3.454-3.454A3.449,3.449,0,0,0,219.844,422.656Z" transform="translate(36.092 -22.321)" fill="#fff"/>
        <path id="_Path_273" data-name="&lt;Path&gt;" d="M240.972,422.273a3.142,3.142,0,1,0-3.142-3.142A3.143,3.143,0,0,0,240.972,422.273Z" transform="translate(40.472 -22.251)" fill="#fff"/>
        <path id="_Path_274" data-name="&lt;Path&gt;" d="M262.065,421.711a2.685,2.685,0,1,0-2.685-2.685A2.682,2.682,0,0,0,262.065,421.711Z" transform="translate(44.894 -22.145)" fill="#fff"/>
        <path id="_Path_275" data-name="&lt;Path&gt;" d="M283.141,421.049a2.144,2.144,0,1,0-2.151-2.151A2.153,2.153,0,0,0,283.141,421.049Z" transform="translate(49.346 -22.017)" fill="#fff"/>
        <path id="_Path_276" data-name="&lt;Path&gt;" d="M304.162,420.1a1.382,1.382,0,1,0,0-2.763,1.382,1.382,0,1,0,0,2.763Z" transform="translate(53.871 -21.841)" fill="#fff"/>
        <path id="_Path_277" data-name="&lt;Path&gt;" d="M325.164,419.059a.534.534,0,0,0,0-1.069.534.534,0,1,0,0,1.069Z" transform="translate(52.08 -21.644)" fill="#fff"/>
        <path id="_Path_278" data-name="&lt;Path&gt;" d="M346.255,418.5a.078.078,0,1,0,0-.156.08.08,0,0,0,0,.156Z" transform="translate(58.625 -21.538)" fill="#fff"/>
        <path id="_Path_279" data-name="&lt;Path&gt;" d="M91.9,439.983a.317.317,0,0,0,.313-.313.306.306,0,0,0-.313-.3.3.3,0,0,0-.3.3A.306.306,0,0,0,91.9,439.983Z" transform="translate(10.877 -15.153)" fill="#fff"/>
        <path id="_Path_280" data-name="&lt;Path&gt;" d="M113.224,440.642a.841.841,0,1,0-.834-.847A.846.846,0,0,0,113.224,440.642Z" transform="translate(15.099 -15.278)" fill="#fff"/>
        <path id="_Path_281" data-name="&lt;Path&gt;" d="M134.549,441.3a1.382,1.382,0,1,0-1.369-1.382A1.374,1.374,0,0,0,134.549,441.3Z" transform="translate(19.313 -15.405)" fill="#fff"/>
        <path id="_Path_282" data-name="&lt;Path&gt;" d="M155.84,441.783a1.766,1.766,0,1,0-1.76-1.773A1.775,1.775,0,0,0,155.84,441.783Z" transform="translate(23.548 -15.493)" fill="#fff"/>
        <path id="_Path_283" data-name="&lt;Path&gt;" d="M177.123,442.152a2.066,2.066,0,1,0-2.073-2.073A2.067,2.067,0,0,0,177.123,442.152Z" transform="translate(27.798 -15.563)" fill="#fff"/>
        <path id="_Path_284" data-name="&lt;Path&gt;" d="M198.341,442.249a2.144,2.144,0,1,0-2.151-2.151A2.142,2.142,0,0,0,198.341,442.249Z" transform="translate(32.093 -15.581)" fill="#fff"/>
        <path id="_Path_285" data-name="&lt;Path&gt;" d="M219.523,442.152a2.066,2.066,0,1,0-2.073-2.073A2.078,2.078,0,0,0,219.523,442.152Z" transform="translate(36.425 -15.563)" fill="#fff"/>
        <path id="_Path_286" data-name="&lt;Path&gt;" d="M240.668,441.866a1.838,1.838,0,1,0-1.838-1.838A1.836,1.836,0,0,0,240.668,441.866Z" transform="translate(40.797 -15.511)" fill="#fff"/>
        <path id="_Path_287" data-name="&lt;Path&gt;" d="M261.78,441.4a1.454,1.454,0,1,0-1.46-1.46A1.458,1.458,0,0,0,261.78,441.4Z" transform="translate(45.211 -15.42)" fill="#fff"/>
        <path id="_Path_288" data-name="&lt;Path&gt;" d="M282.852,440.738a.929.929,0,0,0,.926-.926.918.918,0,0,0-.926-.912.907.907,0,0,0-.912.912A.918.918,0,0,0,282.852,440.738Z" transform="translate(49.676 -15.296)" fill="#fff"/>
        <path id="_Path_289" data-name="&lt;Path&gt;" d="M303.91,439.983a.317.317,0,0,0,.313-.313.306.306,0,0,0-.313-.3.3.3,0,0,0-.3.3A.306.306,0,0,0,303.91,439.983Z" transform="translate(54.168 -15.153)" fill="#fff"/>
        <path id="_Path_290" data-name="&lt;Path&gt;" d="M113.048,460.893a.069.069,0,0,0,.078-.078c0-.039-.026-.065-.078-.065a.073.073,0,0,0-.078.065A.075.075,0,0,0,113.048,460.893Z" transform="translate(15.25 -8.663)" fill="#fff"/>
        <path id="_Path_291" data-name="&lt;Path&gt;" d="M134.282,461.086a.234.234,0,0,0,.235-.235.231.231,0,0,0-.235-.222.228.228,0,0,0-.222.222A.231.231,0,0,0,134.282,461.086Z" transform="translate(19.551 -8.699)" fill="#fff"/>
        <path id="_Path_292" data-name="&lt;Path&gt;" d="M155.554,461.472a.541.541,0,1,0-.534-.547A.551.551,0,0,0,155.554,461.472Z" transform="translate(23.813 -8.772)" fill="#fff"/>
        <path id="_Path_293" data-name="&lt;Path&gt;" d="M176.819,461.745a.763.763,0,1,0-.769-.769A.76.76,0,0,0,176.819,461.745Z" transform="translate(28.09 -8.824)" fill="#fff"/>
        <path id="_Path_294" data-name="&lt;Path&gt;" d="M198.037,461.842a.841.841,0,1,0-.847-.847A.843.843,0,0,0,198.037,461.842Z" transform="translate(32.397 -8.842)" fill="#fff"/>
        <path id="_Path_295" data-name="&lt;Path&gt;" d="M219.219,461.745a.763.763,0,1,0,0-1.525.763.763,0,1,0,0,1.525Z" transform="translate(36.74 -8.824)" fill="#fff"/>
        <path id="_Path_296" data-name="&lt;Path&gt;" d="M240.364,461.472a.541.541,0,1,0-.534-.547A.54.54,0,0,0,240.364,461.472Z" transform="translate(41.123 -8.772)" fill="#fff"/>
        <path id="_Path_297" data-name="&lt;Path&gt;" d="M261.495,461.086a.234.234,0,0,0,.235-.235.235.235,0,0,0-.469,0A.234.234,0,0,0,261.495,461.086Z" transform="translate(45.528 -8.699)" fill="#fff"/>
        <path id="_Path_298" data-name="&lt;Path&gt;" d="M282.658,460.893a.075.075,0,0,0,.078-.078.08.08,0,0,0-.156,0A.075.075,0,0,0,282.658,460.893Z" transform="translate(49.899 -8.663)" fill="#fff"/>
      </g>
    </g>
  </g>
</svg>
