<svg xmlns="http://www.w3.org/2000/svg" width="32" height="32" viewBox="0 0 32 32">
  <path id="_13880855881556105710" data-name="13880855881556105710" d="M16,0A16,16,0,1,0,32,16,16,16,0,0,0,16,0ZM7.681,13.252h3.626V24.146H7.681Zm3.865-3.37A1.884,1.884,0,0,0,9.518,8a1.888,1.888,0,1,0-.047,3.765h.023A1.891,1.891,0,0,0,11.546,9.882ZM20.209,13c2.386,0,4.175,1.557,4.175,4.9v6.247H20.758V18.318c0-1.464-.525-2.463-1.837-2.463a1.984,1.984,0,0,0-1.86,1.324,2.476,2.476,0,0,0-.119.883v6.084H13.314s.048-9.872,0-10.894H16.94V14.8A3.6,3.6,0,0,1,20.209,13Z" fill="#0a0a0a" fill-rule="evenodd"/>
</svg>
