<svg xmlns="http://www.w3.org/2000/svg" width="32" height="32" viewBox="0 0 32 32">
  <path id="_13197462491556105726" data-name="13197462491556105726" d="M16,0A16,16,0,1,0,32,16,16,16,0,0,0,16,0Zm-.446,13.559-.034-.554A3.235,3.235,0,0,1,17.7,9.751a3.823,3.823,0,0,1,1.959-.045,4.554,4.554,0,0,1,.951.5l.548.373.6-.192A6.243,6.243,0,0,0,22.751,10c.19-.1.358-.158.358-.124a3.286,3.286,0,0,1-.761,1.209c-.47.508-.336.554.616.215.571-.192.582-.192.47.023a7.381,7.381,0,0,1-.783.87c-.627.621-.66.689-.66,1.209a11.654,11.654,0,0,1-.761,3.39A9.825,9.825,0,0,1,17.5,21.174a9.453,9.453,0,0,1-7.342.836A8.518,8.518,0,0,1,8,21.016a3.311,3.311,0,0,1,.918-.09,6.3,6.3,0,0,0,3-.836l.6-.362-.694-.237a3.383,3.383,0,0,1-2.093-1.853c-.067-.237-.045-.249.582-.249l.649-.011-.548-.26a3.614,3.614,0,0,1-1.533-1.446,4.048,4.048,0,0,1-.4-1.514,1.32,1.32,0,0,1,.526.124c.772.282.873.215.425-.26a3.261,3.261,0,0,1-.694-3.344l.19-.542.739.734a9.1,9.1,0,0,0,5.327,2.621Z" fill="#0a0a0a" fill-rule="evenodd"/>
</svg>
