<svg id="_2769663821556105731" data-name="2769663821556105731" xmlns="http://www.w3.org/2000/svg" width="32" height="32" viewBox="0 0 32 32">
  <path id="Path_78016" data-name="Path 78016" d="M0,16A16,16,0,1,0,16,0,16,16,0,0,0,0,16Zm26.041-.612A9.529,9.529,0,0,1,16.527,24.9h0a9.506,9.506,0,0,1-4.547-1.158L6.933,25.067l1.35-4.93a9.516,9.516,0,1,1,17.758-4.749Z" fill="#0a0a0a" fill-rule="evenodd"/>
  <path id="Path_78017" data-name="Path 78017" d="M13.527,26.543l2.993-.785.289.171a7.9,7.9,0,0,0,4.025,1.1h0a7.908,7.908,0,1,0-6.7-3.706l.188.3ZM25.3,21.173a.769.769,0,0,1,.326.214,1.989,1.989,0,0,1-.139,1.131,2.448,2.448,0,0,1-1.6,1.13,3.257,3.257,0,0,1-1.5-.094,13.651,13.651,0,0,1-1.355-.5,10.471,10.471,0,0,1-4.019-3.531l-.042-.059,0,0A4.619,4.619,0,0,1,16,17a2.633,2.633,0,0,1,.786-1.933l.047-.05a.873.873,0,0,1,.634-.3c.158,0,.317,0,.456.008h.053c.139,0,.311,0,.482.407.066.158.161.391.263.637.2.5.431,1.048.47,1.128a.438.438,0,0,1,.02.417l-.033.068a1.349,1.349,0,0,1-.2.329c-.04.046-.081.1-.122.146-.082.1-.164.2-.235.27-.119.119-.243.247-.1.485a7.165,7.165,0,0,0,1.323,1.647,6.141,6.141,0,0,0,1.755,1.109c.065.028.118.051.157.071.238.119.376.1.515-.06s.594-.694.753-.932.317-.2.535-.119,1.387.654,1.624.773Z" transform="translate(-4.31 -3.737)" fill="#0a0a0a" fill-rule="evenodd"/>
</svg>
