<svg xmlns="http://www.w3.org/2000/svg" width="29.384" height="29.379" viewBox="0 0 29.384 29.379">
  <g id="Contact_us-01" data-name="Contact us-01" transform="translate(-25.138 -25.201)">
    <path id="Path_927" data-name="Path 927" d="M32.113,173.54c2.048,0,4.094.01,6.142,0a2.427,2.427,0,0,1,1.1.294c.538.257,1.081.5,1.618.758q.666.312,1.333.628a1.448,1.448,0,0,0,.652.172q5.488,0,10.978-.012a.54.54,0,0,1,.58.588c-.028.54,0,1.081,0,1.618a.471.471,0,0,1-.521.521H43.282c-.256,0-.256,0-.255.255V180.6a.441.441,0,1,1-.883,0c0-.765-.019-1.53.009-2.294a.491.491,0,0,0-.353-.533c-.736-.327-1.453-.675-2.179-1.014l-.319-.147c-.122-.056-.179-.01-.182.118V180.6a.478.478,0,0,1-.384.5.459.459,0,0,1-.5-.469v-4.131c0-.216,0-.225-.231-.225H25.689a.706.706,0,0,1-.316-.071.43.43,0,0,1-.232-.421c.007-.565.021-1.131,0-1.695a.537.537,0,0,1,.535-.538C27.818,173.546,29.973,173.54,32.113,173.54Z" transform="translate(0 -126.516)" fill="#afafaf"/>
    <path id="Path_928" data-name="Path 928" d="M59.361,103.575V98.72c0-.147.053-.19.194-.19,1.912,0,3.825.01,5.737,0a1.395,1.395,0,0,1,1.4,1.393c-.009,1.852,0,3.706,0,5.559v2.942c0,.138-.04.185-.178.184H64.146c-.16,0-.194-.057-.194-.207v-7.025a.537.537,0,0,0-.206-.478.463.463,0,0,0-.736.33c-.009.094,0,.188,0,.282v6.936c0,.129-.049.162-.166.16H61.373c-.147,0-.188-.05-.188-.2V101.35a.513.513,0,0,0-.21-.458.465.465,0,0,0-.736.321,1.138,1.138,0,0,0,0,.159v7.042c0,.147-.049.2-.193.19-.175-.009-.353-.009-.53,0-.147,0-.177-.051-.177-.187v-4.855Z" transform="translate(-29.17 -62.541)" fill="#afafaf"/>
    <path id="Path_929" data-name="Path 929" d="M181.908,126.782v3.494c0,.147-.041.184-.179.184h-6.5c-.147,0-.206-.043-.187-.193a1.062,1.062,0,0,0,0-.265c-.022-.162.049-.2.2-.2h3.866a.506.506,0,0,0,.53-.453.493.493,0,0,0-.463-.5h-3.919c-.171,0-.222-.05-.215-.222.015-.3.015-.612,0-.917,0-.169.05-.21.209-.209h3.866a.5.5,0,0,0,.522-.462.491.491,0,0,0-.471-.491h-3.919c-.162,0-.215-.044-.207-.212.015-.31.013-.624,0-.934,0-.159.046-.2.2-.2h3.866a.479.479,0,0,0,.106-.952,2.007,2.007,0,0,0-.21,0h-3.722c-.232,0-.231,0-.231-.231v-1.854c0-.131.038-.177.169-.177h5.365a1.351,1.351,0,0,1,1.324,1.339c.009,1.147,0,2.295,0,3.442Z" transform="translate(-127.851 -82.55)" fill="#afafaf"/>
    <path id="Path_930" data-name="Path 930" d="M46.957,35.764v-10a.777.777,0,0,1,.115-.39.394.394,0,0,1,.453-.147.5.5,0,0,1,.315.406v.318c0,.106.035.169.16.177.469.025.939.056,1.406.09a6.235,6.235,0,0,1,1.765.441,4.253,4.253,0,0,0,.968.247,11.063,11.063,0,0,0,2.78.05c.372-.049.746-.09,1.118-.147a1.1,1.1,0,0,0,.25-.079.5.5,0,0,1,.672.147.452.452,0,0,1,.066.23V32.61a.477.477,0,0,1-.325.456,1.536,1.536,0,0,1-.368.119c-.318.056-.638.091-.956.147a9.258,9.258,0,0,1-2.076.09,19.151,19.151,0,0,1-1.912-.234,5.164,5.164,0,0,1-.827-.294,2.989,2.989,0,0,0-.419-.127c-.328-.059-.659-.113-.99-.147-.356-.04-.715-.06-1.072-.079-.218-.013-.241.021-.241.263V45.9c0,.137-.049.175-.175.171-.182,0-.365-.009-.547,0-.132,0-.168-.047-.168-.177Q46.957,40.829,46.957,35.764Zm9.193-5.757h0V27.959c0-.275-.016-.277-.294-.247-.659.074-1.324.168-1.98.182a15.912,15.912,0,0,1-1.83-.112,3.825,3.825,0,0,1-.752-.175c-.357-.109-.7-.271-1.064-.356A8.316,8.316,0,0,0,48.081,27c-.234.007-.241,0-.241.234v4.237c0,.106.019.177.147.188.688.063,1.381.112,2.06.209a7.369,7.369,0,0,1,1.012.294,8.426,8.426,0,0,0,.911.262,10.973,10.973,0,0,0,2.563.1c.491-.028.978-.115,1.471-.178.122-.015.157-.09.157-.21-.007-.708-.006-1.42-.006-2.132Z" transform="translate(-18.603 0)" fill="#afafaf"/>
    <path id="Path_931" data-name="Path 931" d="M128.78,78.956v7.307c0,.128-.034.184-.168.178q-.282-.012-.565,0c-.127,0-.157-.05-.157-.171V71.849a.588.588,0,0,0-.58-.58c-1.724.016-3.448.009-5.173,0-.232,0-.231,0-.229-.231v-.512c0-.1.031-.147.131-.147h.071c1.742,0,3.484.009,5.226,0a1.414,1.414,0,0,1,1.437,1.433c-.009,2.377,0,4.755,0,7.132Z" transform="translate(-82.534 -38.531)" fill="#afafaf"/>
    <path id="Path_932" data-name="Path 932" d="M30.016,103.566v4.87c0,.135-.047.174-.174.172H28.371c-.129,0-.171-.041-.171-.174V99.982a1.378,1.378,0,0,1,.722-1.281,1.648,1.648,0,0,1,.992-.159c.034,0,.084.1.085.147.009.282,0,.565,0,.847v4.029Z" transform="translate(-2.61 -62.535)" fill="#afafaf"/>
    <path id="Path_933" data-name="Path 933" d="M95.309,86.906h-4.1a.455.455,0,0,1-.48-.469.169.169,0,0,1,.185-.19c.552-.034,1.1-.059,1.652-.115,2.283-.231,4.572-.053,6.857-.107a.441.441,0,0,1,0,.883Z" transform="translate(-55.943 -51.863)" fill="#afafaf"/>
    <path id="Path_934" data-name="Path 934" d="M118.169,101.684h2.4a.441.441,0,1,1,0,.883h-4.794c-.147,0-.209-.043-.2-.2a1.9,1.9,0,0,0-.015-.493c-.028-.162.029-.193.172-.193C116.547,101.687,117.358,101.684,118.169,101.684Z" transform="translate(-77.114 -65.228)" fill="#afafaf"/>
    <path id="Path_935" data-name="Path 935" d="M118.313,117.3h2.38a.443.443,0,1,1,0,.883h-4.778c-.169,0-.216-.054-.2-.215a2.9,2.9,0,0,0,0-.493c-.012-.147.049-.181.181-.179C116.7,117.306,117.507,117.3,118.313,117.3Z" transform="translate(-77.25 -78.55)" fill="#afafaf"/>
    <path id="Path_936" data-name="Path 936" d="M115.917,133.848c-.166,0-.219-.05-.2-.213a2.443,2.443,0,0,0,0-.475c-.016-.162.046-.2.2-.2h4.8a.441.441,0,1,1,0,.883C119.914,133.848,116.716,133.837,115.917,133.848Z" transform="translate(-77.248 -91.906)" fill="#afafaf"/>
    <path id="Path_937" data-name="Path 937" d="M118.315,149.408h-2.4c-.159,0-.227-.038-.207-.209a2.161,2.161,0,0,0,0-.458c-.019-.172.037-.224.21-.222H120.7a.441.441,0,1,1,0,.883Z" transform="translate(-77.243 -105.177)" fill="#afafaf"/>
    <path id="Path_938" data-name="Path 938" d="M118.426,164.18h2.361a.441.441,0,0,1,0,.883h-3.562a1.452,1.452,0,0,1-.477-.147,2.305,2.305,0,0,0-.849-.309c-.025,0-.069-.024-.071-.038a1.288,1.288,0,0,1,0-.328c0-.028.119-.051.184-.051C116.815,164.178,117.62,164.18,118.426,164.18Z" transform="translate(-77.34 -118.533)" fill="#afafaf"/>
    <path id="Path_939" data-name="Path 939" d="M75.051,86.433v-.209c0-.253,0-.256.24-.213.184.032.368.066.547.116a.175.175,0,0,1,.093.137c.012.163,0,.328,0,.491,0,.1-.046.135-.147.134h-.6c-.112,0-.16-.04-.147-.156a2.175,2.175,0,0,0,0-.294Z" transform="translate(-42.557 -51.846)" fill="#afafaf"/>
  </g>
</svg>
