<svg id="Contact_us-04" data-name="Contact us-04" xmlns="http://www.w3.org/2000/svg" width="25.931" height="26.712" viewBox="0 0 25.931 26.712">
  <path id="Path_943" data-name="Path 943" d="M75.043,111.267c-.195-.019-.389-.035-.6-.06-.5-.058-1-.105-1.492-.195s-1.024-.195-1.531-.315c-.315-.076-.625-.181-.933-.28-.389-.125-.779-.238-1.153-.389-.44-.173-.868-.374-1.295-.584-.356-.171-.707-.354-1.048-.553-.409-.238-.812-.481-1.2-.75a12.362,12.362,0,0,1-1.237-.923c-.516-.461-1-.96-1.48-1.457-.306-.314-.6-.643-.874-.974a13.132,13.132,0,0,1-1.273-1.807c-.288-.512-.6-1.011-.868-1.532a12.266,12.266,0,0,1-.528-1.27c-.195-.547-.417-1.1-.571-1.661-.169-.621-.3-1.258-.407-1.895a10.4,10.4,0,0,1-.13-2.4c.029-.448.134-.892.208-1.336a4,4,0,0,1,.5-1.3,3.435,3.435,0,0,1,1.137-1.225,3.6,3.6,0,0,1,1.823-.6,11.143,11.143,0,0,1,1.3,0,1.476,1.476,0,0,1,.909.389.555.555,0,0,1,.154.356c.053.306.086.615.136.921.084.5.179,1.007.259,1.511.076.467.138.939.208,1.408.06.389.125.794.183,1.194.041.28.078.561.113.843a2.889,2.889,0,0,0,.074.584c.084.245-.056.347-.214.456a5.8,5.8,0,0,1-1.346.639c-.195.074-.425.14-.485.389a.29.29,0,0,0,.012.173c.271.584.522,1.168.831,1.725a10.677,10.677,0,0,0,1.494,2.08c.417.448.824.909,1.273,1.322a11.2,11.2,0,0,0,1.219.939,14,14,0,0,0,1.314.835c.491.269,1.007.495,1.517.728.183.084.29.035.366-.148.158-.38.288-.779.465-1.143a3.6,3.6,0,0,1,.463-.707.389.389,0,0,1,.315-.058c.526.086,1.048.195,1.573.282s1.055.158,1.581.243c.489.08.974.177,1.462.253.524.078,1.05.14,1.573.21.243.033.487.06.728.1a.15.15,0,0,1,.092.109,13.587,13.587,0,0,1,.162,1.532,4.4,4.4,0,0,1-.458,2.072,3.963,3.963,0,0,1-1.462,1.558,4.36,4.36,0,0,1-2.111.65,4.888,4.888,0,0,0-.53.056Z" transform="translate(-58.41 -84.565)" fill="#afafaf"/>
  <path id="Path_944" data-name="Path 944" d="M109.425,64.776c-.243,0-.489-.012-.73,0a.814.814,0,0,1-.317-1.564,1.079,1.079,0,0,1,.331-.068c.341-.018.683-.041,1.024-.025.5.021,1,.064,1.505.121.454.051.909.115,1.363.21a12.859,12.859,0,0,1,1.27.349c.419.132.8.275,1.2.428a13.489,13.489,0,0,1,1.753.859,13.328,13.328,0,0,1,1.961,1.351,11.684,11.684,0,0,1,1.649,1.591c.253.314.545.6.779.929.389.559.779,1.129,1.11,1.721a16.907,16.907,0,0,1,.738,1.538,10.34,10.34,0,0,1,.67,2.045,18.549,18.549,0,0,1,.341,1.877q.07.666.092,1.336a4.41,4.41,0,0,1-.053,1.291.814.814,0,0,1-.985.608.874.874,0,0,1-.637-.8c0-.456.035-.909.019-1.363-.01-.284-.029-.567-.056-.849q-.019-.21-.047-.421a2.647,2.647,0,0,1-.056-.345c-.08-.364-.156-.732-.261-1.09a16.651,16.651,0,0,0-.52-1.618,15.126,15.126,0,0,0-.763-1.542,12.548,12.548,0,0,0-.72-1.153,8.1,8.1,0,0,0-.732-.919,16.909,16.909,0,0,0-1.377-1.363,17.309,17.309,0,0,0-1.653-1.2,8.686,8.686,0,0,0-1.246-.682c-.543-.241-1.1-.454-1.667-.641a13.406,13.406,0,0,0-1.429-.374,10.381,10.381,0,0,0-1.149-.169c-.465-.045-.931-.064-1.4-.1Z" transform="translate(-98.247 -63.114)" fill="#afafaf"/>
  <path id="Path_945" data-name="Path 945" d="M117.68,95.02a8.958,8.958,0,0,0-.314-1.314,7.751,7.751,0,0,0-.537-1.231,12.577,12.577,0,0,0-.765-1.209,7.434,7.434,0,0,0-1.634-1.68,12.739,12.739,0,0,0-1.246-.833,6.6,6.6,0,0,0-1.558-.666c-.345-.1-.689-.195-1.04-.273a7.8,7.8,0,0,0-1.022-.127c-.343-.031-.724-.025-1.081-.074a.779.779,0,0,1-.625-.779.771.771,0,0,1,.584-.793,6.712,6.712,0,0,1,.929-.025,2.838,2.838,0,0,1,.426.033c.421.058.837.127,1.258.195a8.628,8.628,0,0,1,1.743.52,8.833,8.833,0,0,1,1.127.545,7.478,7.478,0,0,1,1.067.646,18.82,18.82,0,0,1,1.523,1.316,8.932,8.932,0,0,1,1.381,1.768,8.385,8.385,0,0,1,.919,1.916c.169.553.356,1.1.481,1.665A10.915,10.915,0,0,1,119.47,96a7.188,7.188,0,0,1,.031.939.847.847,0,0,1-.352.717.806.806,0,0,1-1.3-.65v-.364A16.194,16.194,0,0,0,117.68,95.02Z" transform="translate(-98.229 -81.551)" fill="#afafaf"/>
  <path id="Path_946" data-name="Path 946" d="M115.107,115.453c-.035.3-.053.617-.109.923a.8.8,0,0,1-.824.645.824.824,0,0,1-.779-.666,1.507,1.507,0,0,1,.027-.473,4.089,4.089,0,0,0-.056-1.24,3.62,3.62,0,0,0-.493-1.285,3.881,3.881,0,0,0-1.947-1.612,4.313,4.313,0,0,0-1.7-.257,1.254,1.254,0,0,0-.308.035.823.823,0,0,1-1-.882.843.843,0,0,1,.68-.72c.349-.021.7-.1,1.044-.084a5.258,5.258,0,0,1,1.127.166,6.005,6.005,0,0,1,1.242.442,7.135,7.135,0,0,1,1.178.806,4.855,4.855,0,0,1,1.153,1.392,5.257,5.257,0,0,1,.664,1.871C115.049,114.82,115.074,115.124,115.107,115.453Z" transform="translate(-98.275 -100.736)" fill="#afafaf"/>
</svg>
