<svg id="Contact_us-03" data-name="Contact us-03" xmlns="http://www.w3.org/2000/svg" width="26.933" height="24.761" viewBox="0 0 26.933 24.761">
  <path id="Path_942" data-name="Path 942" d="M79.682,72.457c-1.067-.847-2.122-1.714-3.188-2.566-.736-.584-1.482-1.168-2.218-1.753-.919-.732-1.828-1.474-2.746-2.21s-1.885-1.513-2.829-2.267a4.92,4.92,0,0,0-1.3-.892,2.418,2.418,0,0,0-1.277-.121,3.462,3.462,0,0,0-1.762.974c-.372.341-.756.674-1.149.993-.713.584-1.437,1.145-2.158,1.716l-3.482,2.783Q55.934,70.422,54.3,71.74c-.335.269-.666.539-.991.818a.643.643,0,0,0-.24.516c0,.088.041,6.847.041,8.358v2.481a4.82,4.82,0,0,0,.294,2.366,2.169,2.169,0,0,0,1.881,1.094H77.924A2.107,2.107,0,0,0,79.8,86.226a2.555,2.555,0,0,0,.195-1.206V72.977A.8.8,0,0,0,79.682,72.457Zm-1.538.711c-.754.584-1.5,1.178-2.245,1.762-.954.744-1.922,1.472-2.868,2.224-.913.724-1.807,1.472-2.711,2.2-.567.46-1.145.905-1.7,1.363-.436.364-.828.779-1.287,1.118a1.162,1.162,0,0,1-1.536-.035c-.389-.325-.738-.693-1.127-1.015-.726-.6-1.468-1.184-2.206-1.77-.878-.7-1.753-1.388-2.637-2.087s-1.7-1.367-2.561-2.043c-.754-.584-1.519-1.168-2.278-1.753l-.045-.033h-.033l-.1-.08c.559-.442,1.1-.863,1.628-1.289.857-.687,1.71-1.383,2.57-2.068s1.782-1.394,2.666-2.1,1.753-1.416,2.621-2.113c.571-.452,1.135-.913,1.741-1.309a1.081,1.081,0,0,1,.541-.195,1.1,1.1,0,0,1,.794.294q1.922,1.558,3.848,3.116c.956.779,1.922,1.532,2.886,2.294.728.584,1.462,1.145,2.191,1.721.625.5,1.246,1,1.867,1.5.125.1.136.177-.012.29Z" transform="translate(-53.069 -62.612)" fill="#afafaf"/>
  <rect id="Rectangle_40" data-name="Rectangle 40" width="13.136" height="0.608" rx="0.304" transform="translate(7.01 8.381)" fill="#afafaf"/>
  <rect id="Rectangle_41" data-name="Rectangle 41" width="13.136" height="0.608" rx="0.304" transform="translate(7.01 10.086)" fill="#afafaf"/>
  <rect id="Rectangle_42" data-name="Rectangle 42" width="13.136" height="0.608" rx="0.304" transform="translate(7.01 11.79)" fill="#afafaf"/>
</svg>
