<svg id="fix" xmlns="http://www.w3.org/2000/svg" width="28.542" height="27.001" viewBox="0 0 28.542 27.001">
  <path id="Path_788" data-name="Path 788" d="M359.081,20.035V6.967L360.805,4.2a.754.754,0,0,0,0-.8L358.969.4a.863.863,0,0,0-1.143-.288.768.768,0,0,0-.3,1.081l1.595,2.606L357.768,5.96h-2.612l-1.349-2.166L355.4,1.188a.768.768,0,0,0-.3-1.081A.863.863,0,0,0,353.954.4L352.114,3.4a.754.754,0,0,0,0,.8l1.724,2.767V20.035L352.118,22.8a.754.754,0,0,0,0,.8l1.84,3.006a.846.846,0,0,0,.724.395h3.568a.846.846,0,0,0,.724-.395l1.84-3.006a.754.754,0,0,0,0-.8Zm-1.318,5.384h-2.6l-1.353-2.211,1.349-2.166h2.612l1.349,2.166Z" transform="translate(-332.379 -0.001)" fill="#3696db"/>
  <path id="Path_789" data-name="Path 789" d="M204.338,17.232a.823.823,0,0,0-.826-.671h-.5V5.856h.446a.827.827,0,0,0,.818-.629l.948-4.272A.8.8,0,0,0,204.4,0h-4.571a.8.8,0,0,0-.818.954l.948,4.272a.827.827,0,0,0,.818.629h.557V16.561h-.5a.823.823,0,0,0-.826.671c-.953,5.859-.9,5.516-.9,5.6a6.2,6.2,0,0,0,.459,2.73,3.085,3.085,0,0,0,5.214,0,6.2,6.2,0,0,0,.459-2.73C205.24,22.748,205.292,23.094,204.338,17.232Z" transform="translate(-187.903 -0.002)" fill="#3696db"/>
  <path id="Path_790" data-name="Path 790" d="M17.4,141,17,160.831a.836.836,0,0,0,.836.853H22.3a.836.836,0,0,0,.836-.853L22.737,141Z" transform="translate(-16.053 -134.683)" fill="#3696db"/>
  <path id="Path_791" data-name="Path 791" d="M8.861,2.039,7.243.247A.773.773,0,0,0,6.67,0H.737A.7.7,0,0,0,0,.658V4.2a.7.7,0,0,0,.736.656H6.67a.774.774,0,0,0,.567-.238L8.855,2.868a.6.6,0,0,0,.006-.829Z" transform="translate(-0.001 -0.002)" fill="#3696db"/>
</svg>
 