<svg id="work_1_" data-name="work (1)" xmlns="http://www.w3.org/2000/svg" width="31.239" height="27.74" viewBox="0 0 31.239 27.74">
  <path id="Path_792" data-name="Path 792" d="M17.111,7.857a1.3,1.3,0,0,1-1.3-1.3V4.6H10.6V6.556a1.3,1.3,0,1,1-2.6,0V4.6A2.606,2.606,0,0,1,10.6,2H15.81a2.606,2.606,0,0,1,2.6,2.6V6.556A1.3,1.3,0,0,1,17.111,7.857Z" transform="translate(2.413 -2)" fill="#3696db"/>
  <path id="Path_793" data-name="Path 793" d="M16.544,16.514a2.681,2.681,0,0,1-.924.156,2.852,2.852,0,0,1-1-.182L0,11.62v9.931a3.577,3.577,0,0,0,3.579,3.579H27.66a3.577,3.577,0,0,0,3.579-3.579V11.62Z" transform="translate(0 2.609)" fill="#3696db"/>
  <path id="Path_794" data-name="Path 794" d="M31.239,8.579V11.56l-15.307,5.1a.963.963,0,0,1-.625,0L0,11.56V8.579A3.577,3.577,0,0,1,3.579,5H27.66A3.577,3.577,0,0,1,31.239,8.579Z" transform="translate(0 0.372)" fill="#3696db"/>
</svg>
