<svg id="empire-state-building" xmlns="http://www.w3.org/2000/svg" width="34.148" height="28.394" viewBox="0 0 34.148 28.394">
  <path id="Path_785" data-name="Path 785" d="M241,407h4v6.038h-4Z" transform="translate(-225.927 -384.644)" fill="#3696db"/>
  <path id="Path_786" data-name="Path 786" d="M31,92v23.292H43.928v-7.487h6.464v7.487H63.321V92Zm4.309,2.5h6.464v4.991H35.309Zm0,6.655h6.464v4.991H35.309Zm0,6.655h6.464V112.8H35.309ZM52.547,94.5h6.464v4.991H52.547Zm0,6.655h6.464v4.991H52.547Zm0,6.655h6.464V112.8H52.547ZM43.928,94.5h6.464v4.991H43.928Zm0,11.646V101.15h6.464v4.991Z" transform="translate(-30.086 -86.898)" fill="#3696db"/>
  <path id="Path_787" data-name="Path 787" d="M48.668,3.438,46.537,0H16.651L14.52,3.438Z" transform="translate(-14.52)" fill="#3696db"/>
</svg>
