<svg xmlns="http://www.w3.org/2000/svg" width="32.341" height="28.299" viewBox="0 0 32.341 28.299">
  <path id="pickup-car" d="M29.9,10.443,27.635,2.882A4.018,4.018,0,0,0,23.762,0H8.579A4.018,4.018,0,0,0,4.706,2.882L2.438,10.443A4.045,4.045,0,0,0,0,14.149v8.085a2.021,2.021,0,0,0,2.021,2.021h0v2.021A2.021,2.021,0,0,0,4.043,28.3H6.064a2.021,2.021,0,0,0,2.021-2.021V24.256H24.256v2.021A2.021,2.021,0,0,0,26.277,28.3H28.3a2.021,2.021,0,0,0,2.021-2.021V24.256h0a2.021,2.021,0,0,0,2.021-2.021V14.149A4.045,4.045,0,0,0,29.9,10.443ZM8.579,4.043H23.762l1.819,6.064H6.759L8.579,4.043ZM8.085,19.2a2.021,2.021,0,1,1,2.021-2.021A2.021,2.021,0,0,1,8.085,19.2Zm16.171,0a2.021,2.021,0,1,1,2.021-2.021A2.021,2.021,0,0,1,24.256,19.2Z" transform="translate(0)" fill="#3696db"/>
</svg>
