<svg id="Clients-07" xmlns="http://www.w3.org/2000/svg" width="118.689" height="80.531" viewBox="0 0 118.689 80.531">
  <path id="Path_709" data-name="Path 709" d="M150.413,58.566a22.078,22.078,0,0,1-.913,5.305h3.26l.082-.347A25.02,25.02,0,0,0,153.308,54h-3.187A22.161,22.161,0,0,1,150.413,58.566Z" transform="translate(-70.121 -33.042)" fill="#231f20"/>
  <path id="Path_710" data-name="Path 710" d="M103.381,65.542a22.225,22.225,0,0,1-1.452-8.894A21.534,21.534,0,0,1,102.212,54H99.026a25.348,25.348,0,0,0,1.023,11.542Z" transform="translate(-65.713 -33.042)" fill="#231f20"/>
  <path id="Path_711" data-name="Path 711" d="M133.16,70.459c-.584-.74-1.233-1.424-1.826-2.137a1.406,1.406,0,0,0-1.954-.374c-.21.119-.447.2-.667.3a1.205,1.205,0,0,1,0-1.169h-6.958c.064.374.119.758.183,1.242-1.963-.913-2.118-.831-3.388.657a19.028,19.028,0,0,0-1.233,1.488,2.155,2.155,0,0,1-1.762.913,21.135,21.135,0,0,0-2.265.228c.119.183.247.274.374.265,1.041-.1,2.091-.2,3.132-.347a1.16,1.16,0,0,0,.539-.374l2.511-2.739a6.94,6.94,0,0,0,1.068.657c.74.283.776.785.548,1.488-.2-.064-.393-.128-.575-.2-1.324-.539-1.826-.21-1.826,1.251,0,1.224.155,2.438.219,3.652a11.579,11.579,0,0,1,.064,2.8,11.2,11.2,0,0,1-1.826,4.365c-.082.119,0,.347,0,.53h.137a12.19,12.19,0,0,0,2.118-4.94,21.914,21.914,0,0,0,0-3.552V71.089c.457.256.913.484,1.315.749a.639.639,0,0,1,.274.4,25.45,25.45,0,0,0,1.708,8.7l-1.415.52c.6.53,1.169.237,1.6.183.612.475,1.16.913,1.717,1.324h.548a1.36,1.36,0,0,0,.274-.164c.74-.676,1.443-1.406,2.6-1.077.064,0,.173-.155.3-.274L127.507,81c.42-1.826.913-3.543,1.214-5.287a18.363,18.363,0,0,0,.256-3.086.913.913,0,0,1,.584-.913c.365-.164.712-.384,1.151-.63v2.5c0,.813-.146,1.507-.2,2.265A11.177,11.177,0,0,0,132.849,83h.137a1.617,1.617,0,0,0-.055-.475,25.135,25.135,0,0,1-1.178-2.319A10.475,10.475,0,0,1,131,77.3a26.959,26.959,0,0,1,.292-3.287,22.258,22.258,0,0,0,0-3.022c-.055-.776-.6-1.032-1.342-.767-.32.11-.621.247-1.16.466.11-.557.064-1.059.3-1.287a7.588,7.588,0,0,1,1.516-.913c.794.913,1.6,1.762,2.4,2.639.155.164.329.4.511.429,1.087.155,2.182.256,3.278.356.1,0,.21-.128.411-.256-.913-.091-1.653-.183-2.411-.237A2.191,2.191,0,0,1,133.16,70.459Z" transform="translate(-66.975 -34.179)" fill="#231f20" fill-rule="evenodd"/>
  <path id="Path_712" data-name="Path 712" d="M128.433,42.862a20.828,20.828,0,0,1,5.113-3.433c2.429-1.342,4.949-2.52,6.994-4.456l-.274-.283c-1.087.8-2.109,1.68-3.251,2.365-1.781,1.077-3.652,1.981-5.479,3.022-2.3,1.324-4.429,2.858-5.552,5.278h-2.191c-1.543-3.242-4.666-4.821-7.7-6.474a39.8,39.8,0,0,1-6.227-3.744,1.5,1.5,0,0,0-.429-.164v.274a20.435,20.435,0,0,0,1.708,1.251c2.456,1.443,4.931,2.84,7.387,4.255a11.469,11.469,0,0,1,4.693,4.611,1.415,1.415,0,0,1-.365,1.735,1.826,1.826,0,0,0-.74,2.009,1.16,1.16,0,0,1-.055.457,2.548,2.548,0,0,0-2.21-1.516,8.127,8.127,0,0,1-4.018-1.479,1.976,1.976,0,0,0-.4.055,6.949,6.949,0,0,0,3.315,1.634c1.205.228,2.347.457,2.511,1.972,0,.091.091.164.1.256v.1h6.958a4.84,4.84,0,0,0,.4-1c.119-.721.612-.913,1.26-1.1a34.09,34.09,0,0,0,3.47-1.233,3.214,3.214,0,0,0,.73-.566c0-.046-.082-.1-.128-.155l-.329.164c-.913.374-1.826.822-2.739,1.114-1.205.384-2.739.164-3.214,1.826a1.086,1.086,0,0,1-.091-.575,1.918,1.918,0,0,0-.712-1.963,1.306,1.306,0,0,1-.31-1.927,16.008,16.008,0,0,1,1.771-2.319Z" transform="translate(-66.64 -31.365)" fill="#231f20" fill-rule="evenodd"/>
  <path id="Path_713" data-name="Path 713" d="M114.775,36.739a22.1,22.1,0,0,1,18.865-.8c.594.247,1.178.53,1.744.831l1.361-.785a18.59,18.59,0,0,0,1.625-1.132,25.275,25.275,0,0,0-23.12-1.826,24.079,24.079,0,0,0-3.57,1.826,35.43,35.43,0,0,0,3.1,1.89Z" transform="translate(-66.835 -31.048)" fill="#231f20"/>
  <path id="Path_714" data-name="Path 714" d="M102.741,50.861a21.842,21.842,0,0,1,8.894-12.382c-.6-.347-1.2-.685-1.826-1.041a9.552,9.552,0,0,1-1.087-.758A25.184,25.184,0,0,0,99.49,50.861Z" transform="translate(-65.776 -31.538)" fill="#009749"/>
  <path id="Path_715" data-name="Path 715" d="M105.745,71.68a21.914,21.914,0,0,1-2.529-5.04H99.91a24.339,24.339,0,0,0,.913,2.52,25.321,25.321,0,0,0,9.131,11.085,24.654,24.654,0,0,0,5.479,2.8v-.228a1.379,1.379,0,0,1,.192-.913,10.237,10.237,0,0,0,.968-1.762c-.393-.137-.785-.292-1.169-.457A22.089,22.089,0,0,1,105.745,71.68Z" transform="translate(-65.812 -34.141)" fill="#009749"/>
  <path id="Path_716" data-name="Path 716" d="M145.8,44.415a22.2,22.2,0,0,1,2.977,6.447h3.242a25,25,0,0,0-1.288-3.926,25.294,25.294,0,0,0-8-10.245,23.968,23.968,0,0,1-2.794,1.826A22.1,22.1,0,0,1,145.8,44.415Z" transform="translate(-69.29 -31.539)" fill="#009749"/>
  <path id="Path_717" data-name="Path 717" d="M147.864,66.64a11.969,11.969,0,0,1-.493,1.3,22.207,22.207,0,0,1-7.99,9.706,21.971,21.971,0,0,1-4.821,2.447,10.051,10.051,0,0,0,.575,1.123c.146.274.3.557.447.849a1.443,1.443,0,0,1,.146.685V83c.374-.137.749-.283,1.1-.438A25.193,25.193,0,0,0,151.161,66.64Z" transform="translate(-68.823 -34.141)" fill="#009749"/>
  <path id="Path_718" data-name="Path 718" d="M132.6,84.739A17.12,17.12,0,0,1,131.06,82c-.228.064-.466.11-.694.164l.457.174-1.023.977-.073.082a1.1,1.1,0,0,1-.831.447h-.256a1.014,1.014,0,0,0-.31-.055c-.42,0-.776.32-1.324.831l-.11.1a1.643,1.643,0,0,1-.393.256h0l-.21.11h-1.1L123.545,83.9a3.349,3.349,0,0,1-.575.064,2.036,2.036,0,0,1-1.379-.539l-1.123-.986.539-.2-.621-.146a15.149,15.149,0,0,1-1.516,2.648l-.11.155a24.735,24.735,0,0,0,6.912.913,25.074,25.074,0,0,0,7-.913Z" transform="translate(-67.45 -35.475)" fill="#231f20"/>
  <path id="Path_719" data-name="Path 719" d="M124.359,43.449a12.976,12.976,0,0,1,1.47-.082,14.135,14.135,0,0,1,1.534.082,14.93,14.93,0,0,1,3.8-3.187,17.5,17.5,0,0,0-10.6,0,14.51,14.51,0,0,1,3.8,3.187Z" transform="translate(-67.606 -31.777)" fill="#231f20"/>
  <path id="Path_720" data-name="Path 720" d="M138.659,66.639a13.532,13.532,0,0,1-2.849,3.223h0a1.351,1.351,0,0,0,1.059.557,14.937,14.937,0,0,1,1.634.155l.8.082,1.169.11a17.613,17.613,0,0,0,2.648-4.136Z" transform="translate(-68.931 -34.14)" fill="#231f20"/>
  <path id="Path_721" data-name="Path 721" d="M138.022,49.552a13.444,13.444,0,0,1,1,1.726h4.246a9.51,9.51,0,0,0-.365-.913,17.569,17.569,0,0,0-6.392-7.716,17.021,17.021,0,0,0-1.863-1.169,15.194,15.194,0,0,0-3.652,2.593l-.091.1c.4.128.794.274,1.187.438a13.7,13.7,0,0,1,5.935,4.94Z" transform="translate(-68.505 -31.955)" fill="#231f20"/>
  <path id="Path_722" data-name="Path 722" d="M135.236,72.8a1.635,1.635,0,0,1-.977-.63l-.064-.082a1.18,1.18,0,0,1-.146-.155c0,.858,0,1.717-.073,2.529a9.952,9.952,0,0,1-.146,1.324v.2h0a17.714,17.714,0,0,0,4.566-2.84C137.373,73.044,136.3,72.907,135.236,72.8Z" transform="translate(-68.759 -34.6)" fill="#231f20"/>
  <path id="Path_723" data-name="Path 723" d="M118.435,75.739c0-.466-.064-.913-.091-1.406-.055-.74-.11-1.507-.128-2.265a.6.6,0,0,0,0-.128l-.21.228a1.826,1.826,0,0,1-1.05.648c-1.032.137-2.055.237-3.1.338a16.775,16.775,0,0,0,1.58,1.205,17.523,17.523,0,0,0,3.022,1.634A2.412,2.412,0,0,1,118.435,75.739Z" transform="translate(-67.024 -34.601)" fill="#231f20"/>
  <path id="Path_724" data-name="Path 724" d="M112.472,51.278a13.532,13.532,0,0,1,8.218-7.122,13.278,13.278,0,0,0-2.739-2.036l-1.114-.639a17.532,17.532,0,0,0-8.656,9.8Z" transform="translate(-66.531 -31.955)" fill="#231f20"/>
  <path id="Path_725" data-name="Path 725" d="M113.556,66.97c-.073-.1-.137-.21-.21-.32H108.89a17.349,17.349,0,0,0,2.666,4.164l1.269-.137.676-.082c.53-.055,1.077-.119,1.625-.155a1.224,1.224,0,0,0,1.087-.511h0a13.386,13.386,0,0,1-2.657-2.959Z" transform="translate(-66.592 -34.141)" fill="#231f20"/>
  <rect id="Rectangle_34" data-name="Rectangle 34" width="56.595" height="2.036" transform="translate(29.97 18.921)" fill="#009749"/>
  <rect id="Rectangle_35" data-name="Rectangle 35" width="56.595" height="2.036" transform="translate(29.97 30.865)" fill="#009749"/>
  <path id="Path_726" data-name="Path 726" d="M110.453,59.886a.913.913,0,0,1-.721-.42l-.73-.913v3.059a.913.913,0,0,1-.3.73.977.977,0,0,1-.676.256,1.05,1.05,0,0,1-.7-.247.913.913,0,0,1-.3-.74V56.38a1.187,1.187,0,0,1,.091-.447,1.059,1.059,0,0,1,.228-.329.913.913,0,0,1,.329-.2.968.968,0,0,1,.393-.073,1.132,1.132,0,0,1,.53.128,1.352,1.352,0,0,1,.457.365l1.406,1.826,1.415-1.826a1.315,1.315,0,0,1,.447-.365,1.1,1.1,0,0,1,.53-.128,1,1,0,0,1,.393.073,1,1,0,0,1,.566.53,1.187,1.187,0,0,1,.082.447v5.2a.913.913,0,0,1-.292.74,1.05,1.05,0,0,1-.7.247,1.013,1.013,0,0,1-.685-.247.913.913,0,0,1-.292-.74V58.517l-.721.913a1,1,0,0,1-.356.329.8.8,0,0,1-.384.128Z" transform="translate(-66.43 -33.158)" fill="#009749"/>
  <path id="Path_727" data-name="Path 727" d="M121.135,61.14h-2.118l-.31.785a1.15,1.15,0,0,1-.374.484.913.913,0,0,1-.493.155,1.142,1.142,0,0,1-.393-.064,1.243,1.243,0,0,1-.338-.192,1.078,1.078,0,0,1-.247-.292.98.98,0,0,1-.018-.785l2.42-5.287a1.251,1.251,0,0,1,.32-.42,1.137,1.137,0,0,1,1.178,0,1.032,1.032,0,0,1,.31.438l2.21,5.3a.913.913,0,0,1,.073.393.794.794,0,0,1-.091.384,1.041,1.041,0,0,1-.237.292,1.069,1.069,0,0,1-.347.192,1.141,1.141,0,0,1-.384.073.913.913,0,0,1-.913-.639Zm-1.5-1.543h.913l-.438-1.3Z" transform="translate(-67.277 -33.16)" fill="#009749"/>
  <path id="Path_728" data-name="Path 728" d="M130.918,60.507a.913.913,0,0,1,.731.292,1.05,1.05,0,0,1,0,1.4.913.913,0,0,1-.731.292h-3.652a1.16,1.16,0,0,1-.84-.256.822.822,0,0,1-.256-.594,1.288,1.288,0,0,1,.283-.8l2.666-3.506H127.2a.913.913,0,0,1-.731-.3,1.014,1.014,0,0,1-.256-.7,1.041,1.041,0,0,1,.256-.7.913.913,0,0,1,.731-.292h3.716a.958.958,0,0,1,.886,1.278c-.046.082-.1.173-.173.283l-2.612,3.652Z" transform="translate(-68.094 -33.158)" fill="#009749"/>
  <path id="Path_729" data-name="Path 729" d="M136.972,61.576a.913.913,0,0,1-.292.74,1.059,1.059,0,0,1-.694.247,1.023,1.023,0,0,1-.694-.247.913.913,0,0,1-.292-.74V56.307a.913.913,0,0,1,.292-.721.986.986,0,0,1,.694-.256,1.023,1.023,0,0,1,.694.256.913.913,0,0,1,.292.721Z" transform="translate(-68.861 -33.158)" fill="#009749"/>
  <path id="Path_730" data-name="Path 730" d="M143.284,56.261a.849.849,0,0,1,.283-.694,1.05,1.05,0,0,1,1.333,0,.913.913,0,0,1,.274.694v5.314a1.041,1.041,0,0,1-.082.42,1.014,1.014,0,0,1-.2.31.929.929,0,0,1-.648.256,1.1,1.1,0,0,1-.475-.119,1.05,1.05,0,0,1-.411-.393l-1.826-2.739V61.64a.913.913,0,0,1-.274.7,1.059,1.059,0,0,1-.685.237.977.977,0,0,1-.648-.237.913.913,0,0,1-.274-.7V56.307a1.178,1.178,0,0,1,.073-.411,1.243,1.243,0,0,1,.21-.31,1.05,1.05,0,0,1,.3-.192.822.822,0,0,1,.338-.064,1.032,1.032,0,0,1,.493.119,1.059,1.059,0,0,1,.411.374l1.826,2.739Z" transform="translate(-69.265 -33.158)" fill="#009749"/>
  <path id="Path_731" data-name="Path 731" d="M63.48,105.708V97.49h3.652a2.575,2.575,0,1,1,0,5.15H64.941v3.086Zm4.83-5.652a1.3,1.3,0,0,0-1.4-1.315H64.923v2.612h1.991a1.288,1.288,0,0,0,1.4-1.3Z" transform="translate(-62.647 -36.821)" fill="#231f20"/>
  <path id="Path_732" data-name="Path 732" d="M71.72,105.708V97.49h5.643v1.269h-4.2v2.128h4.118v1.269H73.163v2.3h4.2v1.269Z" transform="translate(-63.363 -36.821)" fill="#231f20"/>
  <path id="Path_733" data-name="Path 733" d="M78.94,104.536l.813-1.123a3.561,3.561,0,0,0,2.612,1.151c1.187,0,1.644-.584,1.644-1.141,0-1.726-4.794-.648-4.794-3.652,0-1.37,1.187-2.42,3-2.42a4.282,4.282,0,0,1,3.077,1.16l-.822,1.05a3.351,3.351,0,0,0-2.392-.913c-.84,0-1.388.42-1.388,1.023,0,1.543,4.794.594,4.794,3.652,0,1.379-.977,2.566-3.187,2.566a4.5,4.5,0,0,1-3.36-1.351Z" transform="translate(-63.99 -36.808)" fill="#231f20"/>
  <path id="Path_734" data-name="Path 734" d="M89.333,105.706V98.739H86.84V97.47h6.392v1.269H90.785v6.967Z" transform="translate(-64.677 -36.819)" fill="#231f20"/>
  <path id="Path_735" data-name="Path 735" d="M98.33,101.594a4.146,4.146,0,0,1,4.319-4.264,3.653,3.653,0,0,1,3.3,1.826l-1.224.639a2.42,2.42,0,0,0-2.073-1.2,2.977,2.977,0,1,0,0,5.954,2.466,2.466,0,0,0,2.073-1.2l1.242.612a3.78,3.78,0,0,1-3.315,1.826,4.164,4.164,0,0,1-4.319-4.2Z" transform="translate(-65.675 -36.806)" fill="#231f20"/>
  <path id="Path_736" data-name="Path 736" d="M107.55,101.6a4.219,4.219,0,1,1,4.209,4.264,4.091,4.091,0,0,1-4.209-4.264Zm6.949,0a2.739,2.739,0,1,0-.713,2.092,2.739,2.739,0,0,0,.713-2.092Z" transform="translate(-66.476 -36.816)" fill="#231f20"/>
  <path id="Path_737" data-name="Path 737" d="M124.034,105.706l-4.292-5.89v5.89H118.29V97.488h1.488l4.21,5.707V97.47h1.443v8.218Z" transform="translate(-67.409 -36.819)" fill="#231f20"/>
  <path id="Path_738" data-name="Path 738" d="M129.943,105.706V98.739H127.45V97.47h6.392v1.269h-2.493v6.967Z" transform="translate(-68.205 -36.819)" fill="#231f20"/>
  <path id="Path_739" data-name="Path 739" d="M140.552,105.707l-1.826-3.077h-1.443v3.077H135.84V97.489h3.652a2.5,2.5,0,0,1,2.739,2.584,2.319,2.319,0,0,1-1.963,2.42l2.027,3.232Zm.137-5.67a1.287,1.287,0,0,0-1.406-1.3h-1.991v2.621h1.991a1.306,1.306,0,0,0,1.4-1.324Z" transform="translate(-68.934 -36.82)" fill="#231f20"/>
  <path id="Path_740" data-name="Path 740" d="M144,101.6a4.219,4.219,0,1,1,4.219,4.264A4.091,4.091,0,0,1,144,101.6Zm6.949,0a1.163,1.163,0,1,1-.046,0Z" transform="translate(-69.642 -36.816)" fill="#231f20"/>
  <path id="Path_741" data-name="Path 741" d="M154.59,105.708V97.49h1.443v6.967h3.652v1.269Z" transform="translate(-70.563 -36.821)" fill="#231f20"/>
  <path id="Path_742" data-name="Path 742" d="M170.729,105.708l-.6-1.589h-3.78l-.6,1.589H164.1l3.232-8.218h1.826l3.232,8.218Zm-2.493-6.794-1.479,3.926h2.959Z" transform="translate(-71.389 -36.821)" fill="#231f20"/>
  <path id="Path_743" data-name="Path 743" d="M179.883,105.7l-4.3-5.926v5.89H174.13V97.45h1.488l4.209,5.707V97.468h1.488v8.218Z" transform="translate(-72.26 -36.817)" fill="#231f20"/>
  <path id="Path_744" data-name="Path 744" d="M183.87,105.707V97.489h3.068a4.118,4.118,0,1,1,0,8.218Zm5.9-4.127a2.666,2.666,0,0,0-2.822-2.84h-1.625v5.7h1.616a2.739,2.739,0,0,0,2.831-2.831Z" transform="translate(-73.107 -36.82)" fill="#231f20"/>
  <path id="Path_745" data-name="Path 745" d="M62.57,114.094a4.146,4.146,0,0,1,4.319-4.264,3.7,3.7,0,0,1,3.3,1.826l-1.224.639a2.42,2.42,0,0,0-2.073-1.2,2.977,2.977,0,1,0,0,5.954,2.465,2.465,0,0,0,2.073-1.2l1.242.612a3.762,3.762,0,0,1-3.315,1.826,4.164,4.164,0,0,1-4.319-4.2Z" transform="translate(-62.568 -37.892)" fill="#231f20"/>
  <path id="Path_746" data-name="Path 746" d="M72.08,118.218V110h1.443v6.967h3.652v1.251Z" transform="translate(-63.394 -37.908)" fill="#231f20"/>
  <path id="Path_747" data-name="Path 747" d="M79,118.218V110h5.643v1.269h-4.2V113.4h4.118v1.269H80.47v2.3h4.2v1.251Z" transform="translate(-63.996 -37.908)" fill="#231f20"/>
  <path id="Path_748" data-name="Path 748" d="M92.538,118.218l-.612-1.589h-3.78l-.6,1.589H85.9L89.142,110h1.826l3.242,8.218Zm-2.5-6.794-1.479,3.936h2.968Z" transform="translate(-64.595 -37.908)" fill="#231f20"/>
  <path id="Path_749" data-name="Path 749" d="M101.684,118.218l-4.3-5.89v5.89H95.94V110h1.479l4.219,5.707V110h1.443v8.218Z" transform="translate(-65.467 -37.908)" fill="#231f20"/>
  <path id="Path_750" data-name="Path 750" d="M105.68,118.218V110h1.443v8.218Z" transform="translate(-66.314 -37.908)" fill="#231f20"/>
  <path id="Path_751" data-name="Path 751" d="M114.924,118.218l-4.3-5.89v5.89H109.18V110h1.479l4.219,5.707V110h1.443v8.218Z" transform="translate(-66.618 -37.908)" fill="#231f20"/>
  <path id="Path_752" data-name="Path 752" d="M118.53,114.094a4.146,4.146,0,0,1,4.319-4.264,3.862,3.862,0,0,1,3.315,1.708l-1.169.676a2.685,2.685,0,0,0-2.146-1.1,2.977,2.977,0,1,0,1.954,5.214v-1.278h-2.465v-1.269h3.926v3.077a4.447,4.447,0,0,1-3.388,1.507,4.155,4.155,0,0,1-4.346-4.273Z" transform="translate(-67.43 -37.892)" fill="#231f20"/>
  <path id="Path_753" data-name="Path 753" d="M131.53,117.047l.813-1.123a3.561,3.561,0,0,0,2.612,1.151c1.178,0,1.644-.584,1.644-1.132,0-1.735-4.794-.657-4.794-3.652,0-1.37,1.187-2.42,3-2.42a4.255,4.255,0,0,1,3.077,1.16l-.813,1.077a3.351,3.351,0,0,0-2.392-.913c-.849,0-1.388.42-1.388,1.023,0,1.543,4.794.594,4.794,3.652,0,1.37-.977,2.557-3.187,2.557A4.493,4.493,0,0,1,131.53,117.047Z" transform="translate(-68.559 -37.896)" fill="#231f20"/>
  <path id="Path_754" data-name="Path 754" d="M140.15,118.218V110h5.643v1.269h-4.2V113.4H145.7v1.269h-4.109v2.3h4.2v1.251Z" transform="translate(-69.308 -37.908)" fill="#231f20"/>
  <path id="Path_755" data-name="Path 755" d="M152.666,118.217l-1.826-3.068h-1.452v3.068H148V110h3.652a2.511,2.511,0,0,1,2.739,2.584,2.328,2.328,0,0,1-1.963,2.42l1.963,3.214Zm.128-5.67a1.288,1.288,0,0,0-1.406-1.3H149.4v2.621h1.991a1.3,1.3,0,0,0,1.406-1.324Z" transform="translate(-69.99 -37.907)" fill="#231f20"/>
  <path id="Path_756" data-name="Path 756" d="M158.632,118.218,155.39,110h1.644l2.493,6.657,2.5-6.657h1.644l-3.242,8.218Z" transform="translate(-70.632 -37.908)" fill="#231f20"/>
  <path id="Path_757" data-name="Path 757" d="M165.43,118.218V110h1.434v8.218Z" transform="translate(-71.505 -37.908)" fill="#231f20"/>
  <path id="Path_758" data-name="Path 758" d="M168.54,114.094a4.155,4.155,0,0,1,4.328-4.264,3.7,3.7,0,0,1,3.3,1.826l-1.224.639a2.42,2.42,0,0,0-2.073-1.2,2.977,2.977,0,0,0,0,5.954,2.466,2.466,0,0,0,2.073-1.2l1.233.612a3.753,3.753,0,0,1-3.306,1.826,4.164,4.164,0,0,1-4.328-4.2Z" transform="translate(-71.775 -37.892)" fill="#231f20"/>
  <path id="Path_759" data-name="Path 759" d="M178.16,118.218V110H183.8v1.269h-4.2V113.4h4.118v1.269H179.6v2.3h4.2v1.251Z" transform="translate(-72.611 -37.908)" fill="#231f20"/>
  <path id="Path_760" data-name="Path 760" d="M185.38,117.047l.813-1.123a3.561,3.561,0,0,0,2.612,1.151c1.187,0,1.644-.584,1.644-1.132,0-1.735-4.794-.657-4.794-3.652,0-1.37,1.187-2.42,3-2.42a4.283,4.283,0,0,1,3.077,1.16l-.822,1.077a3.324,3.324,0,0,0-2.392-.913c-.84,0-1.388.42-1.388,1.023,0,1.543,4.794.594,4.794,3.652,0,1.37-.977,2.557-3.187,2.557A4.5,4.5,0,0,1,185.38,117.047Z" transform="translate(-73.238 -37.896)" fill="#231f20"/>
</svg>
