<svg xmlns="http://www.w3.org/2000/svg" width="199.897" height="31.65" viewBox="0 0 199.897 31.65">
  <g id="Clients-11" transform="translate(-30.73 -59.83)">
    <path id="Path_813" data-name="Path 813" d="M47.838,73.623H33.988a2.555,2.555,0,0,1-1.945-.817,2.824,2.824,0,0,1-.734-1.934,2.782,2.782,0,0,1,.734-1.934,2.513,2.513,0,0,1,1.986-.817H55.544a3.475,3.475,0,0,1,2.3.693,2.069,2.069,0,0,1,.827,1.686,3.155,3.155,0,0,1-1.386,2.513L41.591,85.507H56.071a2.606,2.606,0,0,1,2.069.8,2.731,2.731,0,0,1,.734,1.914,2.782,2.782,0,0,1-.734,1.955,2.575,2.575,0,0,1-2.069.8H33.854a3.569,3.569,0,0,1-2.276-.672,2.069,2.069,0,0,1-.848-1.707,3.227,3.227,0,0,1,1.458-2.5Z" transform="translate(0 0.284)" fill="#e32228"/>
    <path id="Path_814" data-name="Path 814" d="M87.572,88.218a2.42,2.42,0,0,1-2.762,2.751H63.089c-1.789,0-2.679-.91-2.679-2.751V70.872c0-1.841.89-2.751,2.679-2.751H84.81a2.42,2.42,0,0,1,2.72,2.751Zm-5.43-2.71V73.623H65.871V85.508Z" transform="translate(1.019 0.284)" fill="#e32228"/>
    <path id="Path_815" data-name="Path 815" d="M117.61,88.218a2.42,2.42,0,0,1-2.72,2.751H93.169c-1.789,0-2.679-.91-2.679-2.751V70.872c0-1.841.89-2.751,2.679-2.751H114.89a2.42,2.42,0,0,1,2.72,2.751Z" transform="translate(2.052 0.284)" fill="#e32228"/>
    <path id="Path_816" data-name="Path 816" d="M142.181,83.343v-12.7A2.462,2.462,0,0,1,143,68.655a2.855,2.855,0,0,1,1.9-.7,2.8,2.8,0,0,1,1.914.7,2.482,2.482,0,0,1,.8,1.986V87.894a4.22,4.22,0,0,1-.228,1.489,3.1,3.1,0,0,1-.652,1.034,2.41,2.41,0,0,1-.921.6,2.968,2.968,0,0,1-1.034.186,3.341,3.341,0,0,1-2.069-.714L125.921,76.144V88.5a2.493,2.493,0,0,1-.817,1.965,2.855,2.855,0,0,1-1.934.714,2.762,2.762,0,0,1-1.893-.714,2.513,2.513,0,0,1-.8-1.965V70.7a2.917,2.917,0,0,1,.652-2.069,2.151,2.151,0,0,1,1.7-.734,3.6,3.6,0,0,1,1.293.279,4.954,4.954,0,0,1,1.458.91Z" transform="translate(3.082 0.277)" fill="#e32228"/>
    <path id="Path_817" data-name="Path 817" d="M162.761,78.108l-2.855,10.7c-.424,1.583-1.293,2.379-2.576,2.379a2.224,2.224,0,0,1-1.6-.59,4.292,4.292,0,0,1-.983-1.789l-5.43-17.356a2.069,2.069,0,0,1-.134-.848,2.545,2.545,0,0,1,.217-1.034,2.586,2.586,0,0,1,.6-.848,2.659,2.659,0,0,1,.879-.559,2.938,2.938,0,0,1,1.086-.207,2.379,2.379,0,0,1,2.544,1.872l2.824,10.7L159.979,70.3a2.772,2.772,0,0,1,2.782-2.3,2.7,2.7,0,0,1,2.782,2.3l2.71,10.219,2.824-10.7a2.338,2.338,0,0,1,2.482-1.872,2.658,2.658,0,0,1,2.069.807,2.7,2.7,0,0,1,.745,1.914c0,.134,0,.269,0,.393a1.822,1.822,0,0,1-.083.383l-5.4,17.356a3.941,3.941,0,0,1-1.034,1.769,2.286,2.286,0,0,1-1.562.61c-1.314,0-2.172-.8-2.576-2.379Z" transform="translate(4.067 0.278)" fill="#2d2d2d"/>
    <path id="Path_818" data-name="Path 818" d="M177.214,91.181a2.8,2.8,0,0,1-1.976-.786,2.462,2.462,0,0,1-.848-1.893,2.855,2.855,0,0,1,.445-1.5L184.92,70.164a6.082,6.082,0,0,1,1.324-1.614,2.834,2.834,0,0,1,1.862-.6,2.9,2.9,0,0,1,1.872.579,6.205,6.205,0,0,1,1.355,1.634l10.126,16.87a7.236,7.236,0,0,1,.321.765,2.534,2.534,0,0,1,.114.734,2.255,2.255,0,0,1-.238,1.034,2.854,2.854,0,0,1-.621.827,3.1,3.1,0,0,1-.9.559,2.855,2.855,0,0,1-1.034.207,2.762,2.762,0,0,1-1.262-.29,2.462,2.462,0,0,1-.983-.972l-3.1-5.017H182.375l-2.989,4.986a2.472,2.472,0,0,1-2.172,1.314Zm10.892-16.26-3.7,6.206,3.61-1.779,3.806,1.779Z" transform="translate(4.933 0.279)" fill="#2d2d2d"/>
    <path id="Path_819" data-name="Path 819" d="M210.454,76.07l9.309-7.468a2.689,2.689,0,0,1,1.7-.652,2.368,2.368,0,0,1,1.034.238,3.041,3.041,0,0,1,.89.652,2.989,2.989,0,0,1,.61.91,2.679,2.679,0,0,1,.217,1.034,2.555,2.555,0,0,1-1.034,2.069l-10.012,7.985v7.644a2.513,2.513,0,0,1-.786,1.945,2.669,2.669,0,0,1-1.893.734,2.741,2.741,0,0,1-1.9-.734,2.472,2.472,0,0,1-.817-1.945V80.859l-9.95-7.985a2.472,2.472,0,0,1-1.034-1.965,2.989,2.989,0,0,1,.786-2.069,2.472,2.472,0,0,1,1.934-.89,2.586,2.586,0,0,1,1.7.652Z" transform="translate(5.702 0.279)" fill="#2d2d2d"/>
    <path id="Path_820" data-name="Path 820" d="M109.48,77.124h-.31a5.865,5.865,0,1,1-11.729,0V66.3a5.865,5.865,0,1,1,11.729,0V77.124h.61V66.3a6.475,6.475,0,0,0-12.95,0V77.124a6.475,6.475,0,1,0,12.95,0Z" transform="translate(2.27)" fill="#e32228"/>
    <path id="Path_821" data-name="Path 821" d="M57.822,68.813a3.475,3.475,0,0,0-2.3-.693H33.97a2.513,2.513,0,0,0-1.986.817,2.782,2.782,0,0,0-.734,1.934,2.824,2.824,0,0,0,.776,1.934,2.555,2.555,0,0,0,1.986.817H47.82l-3.227,2.565q4.458-.31,9.309-.5l3.362-2.679A3.155,3.155,0,0,0,58.65,70.5a2.069,2.069,0,0,0-.827-1.686Z" transform="translate(0.018 0.284)" fill="#eb5a43"/>
    <path id="Path_822" data-name="Path 822" d="M84.81,68.121H63.089c-1.789,0-2.679.91-2.679,2.751V75.5h5.43V73.624h16.3V75.8q2.669.093,5.43.248V70.872a2.42,2.42,0,0,0-2.762-2.751Z" transform="translate(1.019 0.284)" fill="#eb5a43"/>
    <path id="Path_823" data-name="Path 823" d="M114.89,68.4H110V66.335a6.475,6.475,0,1,0-12.95,0V68.4H93.159c-1.789,0-2.679.91-2.679,2.751v5.4q12.609.745,27.131,2.286V71.155a2.42,2.42,0,0,0-2.72-2.751Zm-5.5,0H97.658V66.335a5.865,5.865,0,1,1,11.729,0Z" transform="translate(2.052 0.001)" fill="#eb5a43"/>
    <path id="Path_824" data-name="Path 824" d="M139.978,81.448,125.58,69.14a4.954,4.954,0,0,0-1.458-.91,3.6,3.6,0,0,0-1.293-.279,2.151,2.151,0,0,0-1.7.734,2.917,2.917,0,0,0-.652,2.069v8.275l5.441.631V76.142l4.758,4.075c2.42.31,4.872.631,7.375,1.034Z" transform="translate(3.082 0.279)" fill="#eb5a43"/>
    <path id="Path_825" data-name="Path 825" d="M144.18,68a2.855,2.855,0,0,0-1.9.7,2.462,2.462,0,0,0-.817,1.986V81.736c1.841.228,3.651.445,5.43.631V70.638a2.482,2.482,0,0,0-.8-1.986A2.8,2.8,0,0,0,144.18,68Z" transform="translate(3.802 0.28)" fill="#eb5a43"/>
    <path id="Path_826" data-name="Path 826" d="M173.528,68a2.338,2.338,0,0,0-2.482,1.872l-2.824,10.643L165.543,70.3a2.7,2.7,0,0,0-2.782-2.3,2.772,2.772,0,0,0-2.782,2.348l-2.648,10.219-2.824-10.7A2.379,2.379,0,0,0,151.962,68a2.938,2.938,0,0,0-1.086.207,2.658,2.658,0,0,0-.879.559,2.586,2.586,0,0,0-.6.848,2.545,2.545,0,0,0-.217,1.034,2.069,2.069,0,0,0,.134.848l3.61,11.533q4.292.372,8.378.6l1.458-5.472,1.5,5.616q4.137.186,8.057.217L176.207,71.5a1.821,1.821,0,0,0,.083-.383v-.393a2.7,2.7,0,0,0-.745-1.914A2.658,2.658,0,0,0,173.528,68Z" transform="translate(4.067 0.28)" fill="#646667"/>
    <path id="Path_827" data-name="Path 827" d="M188.03,68a2.834,2.834,0,0,0-1.862.6,6.082,6.082,0,0,0-1.324,1.614L176.57,83.981a171.536,171.536,0,0,0,21.918-1.665l-7.24-12.1a6.206,6.206,0,0,0-1.355-1.634A2.9,2.9,0,0,0,188.03,68Zm3.713,13.136-3.806-1.779-3.61,1.779,3.7-6.206Z" transform="translate(5.008 0.28)" fill="#646667"/>
    <path id="Path_828" data-name="Path 828" d="M223.424,68.84a3.041,3.041,0,0,0-.89-.652,2.369,2.369,0,0,0-1.034-.238,2.689,2.689,0,0,0-1.7.652l-9.35,7.468L201.217,68.6a2.586,2.586,0,0,0-1.7-.652,2.472,2.472,0,0,0-1.934.89,2.989,2.989,0,0,0-.786,2.069,2.472,2.472,0,0,0,1.034,1.965l9.516,7.675c3.248-.7,6.309-1.51,9.2-2.4l6.609-5.275a2.555,2.555,0,0,0,1.034-2.069,2.679,2.679,0,0,0-.217-1.034,2.988,2.988,0,0,0-.548-.931Z" transform="translate(5.703 0.279)" fill="#646667"/>
    <path id="Path_829" data-name="Path 829" d="M98.08,78.463a7.24,7.24,0,0,0,1.7,4.034,4.561,4.561,0,0,0,7.1,0,7.3,7.3,0,0,0,1.707-4.034.579.579,0,0,0-.517-.641.569.569,0,0,0-.631.517,6.206,6.206,0,0,1-1.417,3.382,3.4,3.4,0,0,1-5.368,0,6.051,6.051,0,0,1-1.417-3.382.579.579,0,1,0-1.148.124Z" transform="translate(2.312 0.616)" fill="#fff"/>
    <path id="Path_830" data-name="Path 830" d="M108.12,75.135a.745.745,0,0,1-.745.745.75.75,0,1,1,.745-.745Z" transform="translate(2.606 0.5)" fill="#fff"/>
    <path id="Path_831" data-name="Path 831" d="M99.559,75.135a.745.745,0,1,1-.745-.745.745.745,0,0,1,.745.745Z" transform="translate(2.312 0.5)" fill="#fff"/>
    <text id="TM" transform="translate(227.627 67.043)" fill="#231f20" font-size="2" font-family="ProximaNova-Regular, Proxima Nova"><tspan x="0" y="0">TM</tspan></text>
  </g>
</svg>
