<svg xmlns="http://www.w3.org/2000/svg" width="200" height="57.983" viewBox="0 0 200 57.983">
  <g id="Clients-04" transform="translate(-20.47 -46.247)">
    <path id="Path_494" data-name="Path 494" d="M59.55,56.518a13.268,13.268,0,0,0-2.608-5.731,12.609,12.609,0,0,0-4.117-3.229,13.086,13.086,0,0,0-7.231-1.223,12.112,12.112,0,0,0-6.5,2.436,12.418,12.418,0,0,0-4.107,6.3,14.748,14.748,0,0,0-.153,7.737c.621,2.866,1.786,4.776,3.639,7.689,2.942,4.614,5.731,9.065,7.728,12.036a1.175,1.175,0,0,0,1.013.468,1.137,1.137,0,0,0,.812-.5c.592-.831,5.168-7.642,7.642-12.007.86-1.519,1.6-3.009,1.662-3.124A26.574,26.574,0,0,0,59.3,62.87a13.975,13.975,0,0,0,.248-6.352Zm-12.5,12.475a9.552,9.552,0,1,1,9.4-9.552,9.552,9.552,0,0,1-9.4,9.552Z" transform="translate(-0.623)" fill="#f2b31b"/>
    <path id="Path_495" data-name="Path 495" d="M20.47,75.36l6.6,9.7,16.238,8L37.282,82.658a3.62,3.62,0,0,0-.841-1.089,3.725,3.725,0,0,0-1.4-.821Z" transform="translate(0 -1.304)" fill="#575757"/>
    <path id="Path_496" data-name="Path 496" d="M41.5,78.25,37.85,80.59,41.8,87.229l3.668-3Z" transform="translate(-0.779 -1.434)" fill="#575757"/>
    <path id="Path_497" data-name="Path 497" d="M27.11,86.49l2.866,9.5L47.8,106.033,44.418,94.781Z" transform="translate(-0.297 -1.803)" fill="#575757"/>
    <path id="Path_498" data-name="Path 498" d="M46.45,94.955,69.327,79.71l1.6,10.65L49.468,105.367Z" transform="translate(-1.164 -1.499)" fill="#575757"/>
    <path id="Path_499" data-name="Path 499" d="M42.15,87.924l3.821,6.027,12.284-8.033L50.346,82.9l-2.932,3.668-1.366-1.719Z" transform="translate(-0.971 -1.642)" fill="#575757"/>
    <path id="Path_500" data-name="Path 500" d="M56.348,73.83,51.19,81.815,59.051,85.1l10.039-6.82Z" transform="translate(-1.376 -1.236)" fill="#575757"/>
    <path id="Path_501" data-name="Path 501" d="M61.841,63.35,57.18,72.558,69.445,76.99l4.68-9.733Z" transform="translate(-1.645 -0.766)" fill="#575757"/>
    <path id="Path_502" data-name="Path 502" d="M81.65,67.38H94.478a19.467,19.467,0,0,1,7.078,1.242,16.659,16.659,0,0,1,5.54,3.458,15.36,15.36,0,0,1,3.6,5.187,16.477,16.477,0,0,1,1.27,6.467v.1a16.64,16.64,0,0,1-1.27,6.486,15.283,15.283,0,0,1-3.6,5.215,17.012,17.012,0,0,1-5.54,3.477,19.276,19.276,0,0,1-7.078,1.27H81.65ZM94.478,93.763a11.233,11.233,0,0,0,4.05-.707,8.6,8.6,0,0,0,3.123-2.025,9.476,9.476,0,0,0,2.015-3.095,10.507,10.507,0,0,0,.736-3.993v-.1a10.641,10.641,0,0,0-.736-3.993,9.437,9.437,0,0,0-2.015-3.152,8.922,8.922,0,0,0-3.123-2.044,10.841,10.841,0,0,0-4.05-.726H88.89v19.83Z" transform="translate(-2.741 -0.947)" fill="#575757"/>
    <path id="Path_503" data-name="Path 503" d="M131.224,101.182a14.328,14.328,0,0,1-5.244-.955,12.083,12.083,0,0,1-4.184-2.675,12.36,12.36,0,0,1-2.751-4.117,13.592,13.592,0,0,1-.955-5.282v-.1a14.051,14.051,0,0,1,.955-5.072,12.847,12.847,0,0,1,2.493-4.165A12,12,0,0,1,130.517,75a12.246,12.246,0,0,1,5.454,1.137,10.956,10.956,0,0,1,3.821,3.028,12.589,12.589,0,0,1,2.264,4.365,18.426,18.426,0,0,1,.726,5.149c0,.287,0,.583,0,.9a4.593,4.593,0,0,1-.067.955H125.158a6.037,6.037,0,0,0,2.14,3.687,6.381,6.381,0,0,0,4.012,1.242,8.062,8.062,0,0,0,3.2-.6,11.08,11.08,0,0,0,2.913-1.977l4.088,3.62a12.656,12.656,0,0,1-4.327,3.448,13.373,13.373,0,0,1-5.96,1.232Zm4.6-15.13a6.935,6.935,0,0,0-1.691-3.878,4.68,4.68,0,0,0-3.62-1.442,4.776,4.776,0,0,0-3.639,1.452,7.345,7.345,0,0,0-1.815,3.907Z" transform="translate(-4.373 -1.288)" fill="#575757"/>
    <path id="Path_504" data-name="Path 504" d="M156.594,101.091a11.013,11.013,0,0,1-3.362-.5,7.8,7.8,0,0,1-2.751-1.481,7.021,7.021,0,0,1-1.853-2.417,7.584,7.584,0,0,1-.688-3.315v-.1a7.976,7.976,0,0,1,.755-3.572,6.858,6.858,0,0,1,2.092-2.484,9.323,9.323,0,0,1,3.2-1.481,15.713,15.713,0,0,1,4.107-.5,18.236,18.236,0,0,1,3.362.277,21.6,21.6,0,0,1,2.8.755v-.42a4.279,4.279,0,0,0-1.366-3.429,6.037,6.037,0,0,0-4.04-1.175,16.581,16.581,0,0,0-3.649.353,23.7,23.7,0,0,0-3.305.955l-1.786-5.445a27.978,27.978,0,0,1,4.318-1.461,23.01,23.01,0,0,1,5.454-.564,15.656,15.656,0,0,1,5.053.726,9.075,9.075,0,0,1,3.458,2.092,8.539,8.539,0,0,1,2.063,3.458,14.882,14.882,0,0,1,.659,4.585v14.615h-6.877V97.929a9.963,9.963,0,0,1-3.152,2.331A10.316,10.316,0,0,1,156.594,101.091Zm2.159-4.938a6.3,6.3,0,0,0,4.069-1.223,3.888,3.888,0,0,0,1.519-3.19v-1.27a10.336,10.336,0,0,0-2.092-.678,11.214,11.214,0,0,0-2.464-.258,6.4,6.4,0,0,0-3.62.888,2.923,2.923,0,0,0-1.309,2.589V93.1a2.636,2.636,0,0,0,1.079,2.264,4.671,4.671,0,0,0,2.8.793Z" transform="translate(-5.71 -1.292)" fill="#575757"/>
    <path id="Path_505" data-name="Path 505" d="M179,65.9h7.145v34.311H179Z" transform="translate(-7.102 -0.88)" fill="#575757"/>
    <path id="Path_506" data-name="Path 506" d="M219.954,98a17.575,17.575,0,0,1-4.556,2.082,18.149,18.149,0,0,1-5.215.736,17.881,17.881,0,0,1-7.011-1.347,17.394,17.394,0,0,1-5.521-3.611,16.171,16.171,0,0,1-3.611-5.359,16.745,16.745,0,0,1-1.3-6.6v-.1a16.63,16.63,0,0,1,1.318-6.61,17.126,17.126,0,0,1,3.639-5.426,16.841,16.841,0,0,1,5.55-3.668,19.047,19.047,0,0,1,14.022,0,17.461,17.461,0,0,1,5.531,3.668,16.172,16.172,0,0,1,3.62,5.34,16.745,16.745,0,0,1,1.3,6.6v.1a16.669,16.669,0,0,1-.755,4.977,17.109,17.109,0,0,1-2.159,4.47l3.381,2.866-4.633,5.12Zm-9.686-3.821a10.632,10.632,0,0,0,4.327-.888l-5.368-4.6,4.6-5.168,5.406,4.891a10.88,10.88,0,0,0,.9-4.509v-.1a10.9,10.9,0,0,0-.736-3.993,10.03,10.03,0,0,0-2.054-3.267,10.144,10.144,0,0,0-3.171-2.235,10.3,10.3,0,0,0-8.014,0,9.285,9.285,0,0,0-3.1,2.207,10.411,10.411,0,0,0-2.015,3.267,10.765,10.765,0,0,0-.736,3.974v.1a10.938,10.938,0,0,0,.736,3.993,9.9,9.9,0,0,0,5.215,5.521,9.628,9.628,0,0,0,4.012.774Z" transform="translate(-7.718 -0.919)" fill="#f2b31b"/>
    <path id="Path_507" data-name="Path 507" d="M44.5,55.128a2.044,2.044,0,0,1,.955.22,1.91,1.91,0,0,1,.678.592,2.866,2.866,0,0,1,.392.869,4.146,4.146,0,0,1,.134,1.06,3.725,3.725,0,0,1-.191,1.242,2.866,2.866,0,0,1-.487.888,2.073,2.073,0,0,1-.707.525,2.014,2.014,0,0,1-2.407-.573,2.579,2.579,0,0,1-.449-.869,3.716,3.716,0,0,1-.162-1.118,3.907,3.907,0,0,1,.162-1.118,2.684,2.684,0,0,1,.449-.888,2.206,2.206,0,0,1,.707-.592,1.91,1.91,0,0,1,.927-.239Zm0,.955a.592.592,0,0,0-.458.181,1.309,1.309,0,0,0-.267.468,3.057,3.057,0,0,0-.124.6v.6a2.952,2.952,0,0,0,.21,1.232.716.716,0,0,0,.669.468.688.688,0,0,0,.669-.478,4.279,4.279,0,0,0,0-2.56.688.688,0,0,0-.736-.468Zm.888,8.358h-.955L49.52,55.08h1.013Zm5.043-5.607a1.977,1.977,0,0,1,.955.22,1.91,1.91,0,0,1,.669.583,2.493,2.493,0,0,1,.392.869,4.012,4.012,0,0,1,.067,1.079,4.117,4.117,0,0,1-.181,1.251,2.617,2.617,0,0,1-.487.888,1.91,1.91,0,0,1-.7.535,2.015,2.015,0,0,1-.821.181,1.958,1.958,0,0,1-.888-.2,2.187,2.187,0,0,1-.7-.564,2.77,2.77,0,0,1-.449-.869,3.926,3.926,0,0,1,0-2.235,2.932,2.932,0,0,1,.449-.9,2.178,2.178,0,0,1,.707-.583,1.91,1.91,0,0,1,.946-.21Zm0,.955a.583.583,0,0,0-.411.162,1.175,1.175,0,0,0-.267.411,1.91,1.91,0,0,0-.153.573,3.61,3.61,0,0,0,0,.64,3.3,3.3,0,0,0,.048,1.366.716.716,0,0,0,.669.5.688.688,0,0,0,.659-.478,3.515,3.515,0,0,0,.239-1.27,3.725,3.725,0,0,0-.191-1.261.678.678,0,0,0-.669-.564Z" transform="translate(-0.976 -0.396)" fill="#f2b31b"/>
  </g>
</svg>
