<svg xmlns="http://www.w3.org/2000/svg" xmlns:xlink="http://www.w3.org/1999/xlink" width="200" height="52.409" viewBox="0 0 200 52.409">
  <defs>
    <linearGradient id="linear-gradient" x1="0.871" y1="0.958" x2="0.135" y2="0.042" gradientUnits="objectBoundingBox">
      <stop offset="0" stop-color="#88cdb5"/>
      <stop offset="1" stop-color="#21abce"/>
    </linearGradient>
    <linearGradient id="linear-gradient-2" x1="0.648" y1="1.382" x2="0.296" y2="0.181" xlink:href="#linear-gradient"/>
  </defs>
  <g id="Clients-14" transform="translate(-31.7 -49.965)">
    <path id="Path_912" data-name="Path 912" d="M48.108,68.159a1.345,1.345,0,1,1-1.679-.886,1.345,1.345,0,0,1,1.679.886Z" transform="translate(0.591 0.739)" fill="#28aae1"/>
    <path id="Path_913" data-name="Path 913" d="M57.987,71.529,62.461,75.7l4.474-4.171h-.761V67.087q0-10.856-10.9-10.867H45.733q-10.856,0-10.846,10.773v4.943q0,10.835,11.086,10.846h9.386q3.587,0,3.587,3.567v4.86q0,3.681-3.494,3.671H45.827q-3.713,0-3.713-3.671V86.494h.813l-4.474-4.171L33.98,86.494h.907V91.26q0,10.846,11.086,10.846h9.386q10.856,0,10.867-10.9V86.421q0-10.877-10.9-10.867h-9.49c-2.472,0-3.713-1.231-3.713-3.671v-4.86q0-3.567,3.713-3.567h9.521q3.587,0,3.587,3.567v4.505Z" transform="translate(0.098 0.268)" fill="url(#linear-gradient)"/>
    <path id="Path_914" data-name="Path 914" d="M68.649,64.32h-.615a15.018,15.018,0,0,0-.563-2.492,10.157,10.157,0,0,0-4.39-5.569,14.767,14.767,0,0,0-7.78-1.867h-.751v-.511a.563.563,0,0,0-.563-.563h-3.2v-.772a1.314,1.314,0,1,0-.7,0v.772H46.842a.563.563,0,0,0-.553.563v.511h-.574a17.02,17.02,0,0,0-5.527.824,10.053,10.053,0,0,0-5.527,4.307,12.713,12.713,0,0,0-1.606,4.8h-.6a.751.751,0,0,0-.751.751v3.306a.751.751,0,0,0,.751.751h.772a.761.761,0,0,0,.751-.751V66.6a15,15,0,0,1,.751-4.463,8.875,8.875,0,0,1,3.859-4.9,13.641,13.641,0,0,1,7.164-1.689h9.584a15.81,15.81,0,0,1,5.214.772A8.958,8.958,0,0,1,65.5,60.18a13.432,13.432,0,0,1,1.689,6.737v1.46a.751.751,0,0,0,.751.751h.772a.761.761,0,0,0,.751-.751V65.071a.751.751,0,0,0-.813-.751Z" transform="translate(0 0)" fill="url(#linear-gradient-2)"/>
    <path id="Path_915" data-name="Path 915" d="M53.648,68.159a1.348,1.348,0,1,1-1.679-.886A1.348,1.348,0,0,1,53.648,68.159Z" transform="translate(0.828 0.739)" fill="#28aae1"/>
    <path id="Path_916" data-name="Path 916" d="M86.827,84.636A7.613,7.613,0,0,1,83.761,82.3a6.09,6.09,0,0,1-1.251-3.316h5.725a2.232,2.232,0,0,0,.939,1.616,3.243,3.243,0,0,0,2,.6,2.889,2.889,0,0,0,1.689-.417,1.324,1.324,0,0,0,.584-1.116,1.262,1.262,0,0,0-.845-1.158,16.518,16.518,0,0,0-2.753-.866,26.385,26.385,0,0,1-3.4-1.043,5.788,5.788,0,0,1-2.388-1.689,4.526,4.526,0,0,1-1.043-3.129,5.214,5.214,0,0,1,1.043-2.92,6.007,6.007,0,0,1,2.649-2.086A10.168,10.168,0,0,1,90.884,66a8.343,8.343,0,0,1,5.631,1.773,6.873,6.873,0,0,1,2.357,4.693H93.45a2.357,2.357,0,0,0-.866-1.564,3.014,3.014,0,0,0-1.929-.584,2.67,2.67,0,0,0-1.564.4,1.262,1.262,0,0,0-.542,1.043,1.3,1.3,0,0,0,.866,1.22,14.027,14.027,0,0,0,2.711.813,29.2,29.2,0,0,1,3.431,1.043,6.028,6.028,0,0,1,2.336,1.7,4.818,4.818,0,0,1,1.043,3.129A4.964,4.964,0,0,1,98,82.634a6.122,6.122,0,0,1-2.68,2.086,10.428,10.428,0,0,1-4.067.74A10.961,10.961,0,0,1,86.827,84.636Z" transform="translate(2.178 0.687)" fill="#1c2d30"/>
    <path id="Path_917" data-name="Path 917" d="M101.683,70.547a8.249,8.249,0,0,1,3-3.4A7.884,7.884,0,0,1,108.942,66a7.363,7.363,0,0,1,3.525.813,6.028,6.028,0,0,1,2.326,2.148h0l2.826-2.691,2.993,2.691V85.21h-5.819v-2.68a6.257,6.257,0,0,1-2.367,2.138,7.3,7.3,0,0,1-3.514.813,7.749,7.749,0,0,1-4.171-1.2,8.343,8.343,0,0,1-3-3.441,12.514,12.514,0,0,1,0-10.293Zm11.9,1.71A3.9,3.9,0,0,0,110.642,71a3.952,3.952,0,0,0-2.941,1.262,4.7,4.7,0,0,0-1.21,3.421,4.839,4.839,0,0,0,1.21,3.452,4.057,4.057,0,0,0,5.882,0A5.485,5.485,0,0,0,113.582,72.257Z" transform="translate(2.954 0.687)" fill="#1c2d30"/>
    <path id="Path_918" data-name="Path 918" d="M129.649,62.971V85.455H123.83V62.971l2.91-2.691Z" transform="translate(3.949 0.442)" fill="#1c2d30"/>
    <path id="Path_919" data-name="Path 919" d="M151.3,77.119H138.128a3.932,3.932,0,0,0,1.147,2.7,3.452,3.452,0,0,0,2.461.939,3.056,3.056,0,0,0,3.024-1.835h6.195a8.562,8.562,0,0,1-1.721,3.368,8.76,8.76,0,0,1-3.129,2.346,10.085,10.085,0,0,1-4.171.845,10.2,10.2,0,0,1-4.974-1.189,8.468,8.468,0,0,1-3.4-3.4,11.618,11.618,0,0,1,0-10.345,8.343,8.343,0,0,1,3.379-3.4,10.262,10.262,0,0,1,5.006-1.189,10.116,10.116,0,0,1,4.891,1.158,8.343,8.343,0,0,1,3.358,3.3,10.043,10.043,0,0,1,1.2,5.006,16.209,16.209,0,0,1-.094,1.7Zm-5.85-3.233a2.983,2.983,0,0,0-1.043-2.378,3.754,3.754,0,0,0-2.555-.886,3.671,3.671,0,0,0-2.461.845,3.806,3.806,0,0,0-1.251,2.419Z" transform="translate(4.314 0.685)" fill="#1c2d30"/>
    <path id="Path_920" data-name="Path 920" d="M156.887,84.639a7.509,7.509,0,0,1-3.056-2.336,6.1,6.1,0,0,1-1.262-3.316h5.746a2.263,2.263,0,0,0,.959,1.616,3.3,3.3,0,0,0,2.013.6,2.878,2.878,0,0,0,1.679-.417,1.324,1.324,0,0,0,.594-1.105,1.272,1.272,0,0,0-.845-1.21,17.208,17.208,0,0,0-2.753-.866,26.072,26.072,0,0,1-3.41-1.043,5.788,5.788,0,0,1-2.346-1.669,4.526,4.526,0,0,1-.98-3.129,5.266,5.266,0,0,1,.9-2.972,6.1,6.1,0,0,1,2.659-2.086,10.147,10.147,0,0,1,4.171-.782,8.343,8.343,0,0,1,5.631,1.773,6.883,6.883,0,0,1,2.367,4.693h-5.381a2.273,2.273,0,0,0-.866-1.564,3,3,0,0,0-1.919-.584,2.67,2.67,0,0,0-1.564.4,1.241,1.241,0,0,0-.542,1.043,1.293,1.293,0,0,0,.865,1.22,13.88,13.88,0,0,0,2.7.814,29.5,29.5,0,0,1,3.441,1.043,6,6,0,0,1,2.326,1.7,4.818,4.818,0,0,1,1.043,3.129,4.954,4.954,0,0,1-.928,2.972,6.257,6.257,0,0,1-2.691,2.086,10.429,10.429,0,0,1-4.067.74,11,11,0,0,1-4.484-.751Z" transform="translate(5.181 0.684)" fill="#1c2d30"/>
    <path id="Path_921" data-name="Path 921" d="M178.126,67.559a8.343,8.343,0,0,1,4.171-1.043,8.7,8.7,0,0,1,4.516,1.189,8.489,8.489,0,0,1,3.129,3.358,10.429,10.429,0,0,1,1.158,5.016,10.742,10.742,0,0,1-1.158,5.037,8.51,8.51,0,0,1-7.686,4.662,8.28,8.28,0,0,1-4.244-1.043,7.185,7.185,0,0,1-2.732-2.68v3.431H172.15V60.28h3.129v10A7.436,7.436,0,0,1,178.126,67.559Zm9.021,4.839a5.923,5.923,0,0,0-2.3-2.388,6.351,6.351,0,0,0-3.129-.813,6.257,6.257,0,0,0-3.129.834,5.965,5.965,0,0,0-2.419,2.472,7.519,7.519,0,0,0-.866,3.65,7.6,7.6,0,0,0,.866,3.65,6.09,6.09,0,0,0,2.315,2.419,6.4,6.4,0,0,0,6.32,0,6.069,6.069,0,0,0,2.346-2.419,7.79,7.79,0,0,0,.845-3.723,7.6,7.6,0,0,0-.845-3.681Z" transform="translate(6.02 0.442)" fill="#23acce"/>
    <path id="Path_922" data-name="Path 922" d="M197.727,84.312a8.458,8.458,0,0,1-3.337-3.379,10.429,10.429,0,0,1-1.21-5.089,10.116,10.116,0,0,1,1.241-5.047,8.624,8.624,0,0,1,3.389-3.368,10.356,10.356,0,0,1,9.594,0,8.551,8.551,0,0,1,3.379,3.348,10.887,10.887,0,0,1,0,10.157,8.875,8.875,0,0,1-3.452,3.379,9.813,9.813,0,0,1-4.828,1.2,9.386,9.386,0,0,1-4.776-1.2Zm7.874-2.3a5.924,5.924,0,0,0,2.357-2.346,7.488,7.488,0,0,0,.907-3.817,7.582,7.582,0,0,0-.886-3.806,5.809,5.809,0,0,0-2.315-2.336,6.706,6.706,0,0,0-6.257,0,5.631,5.631,0,0,0-2.242,2.336,7.926,7.926,0,0,0-.855,3.806,8.134,8.134,0,0,0,.834,3.848,5.6,5.6,0,0,0,2.232,2.326,6.257,6.257,0,0,0,3.066.772A6.57,6.57,0,0,0,205.6,82.008Z" transform="translate(6.921 0.698)" fill="#23acce"/>
    <path id="Path_923" data-name="Path 923" d="M219.017,69.3V80.279a2.607,2.607,0,0,0,.574,1.919,2.847,2.847,0,0,0,2.013.563h2.273v2.618h-2.784a5.538,5.538,0,0,1-3.879-1.189,5.089,5.089,0,0,1-1.293-3.911V69.3H213.5V66.743h2.419V62.05h3.129v4.693h4.86V69.3Z" transform="translate(7.792 0.518)" fill="#23acce"/>
    <path id="Path_924" data-name="Path 924" d="M139.5,92.631a4.745,4.745,0,0,1,1.742-1.8,4.87,4.87,0,0,1,2.482-.647,5.068,5.068,0,0,1,2.847.793,4.443,4.443,0,0,1,1.721,2.221H147.13a3.462,3.462,0,0,0-1.3-1.575,4.067,4.067,0,0,0-4.078,0,3.483,3.483,0,0,0-1.377,1.47,4.839,4.839,0,0,0-.49,2.221,4.766,4.766,0,0,0,.49,2.211,3.608,3.608,0,0,0,1.377,1.47,3.911,3.911,0,0,0,1.971.511,3.806,3.806,0,0,0,2.086-.563,3.462,3.462,0,0,0,1.324-1.648h1.158a4.411,4.411,0,0,1-1.731,2.2,5.047,5.047,0,0,1-2.837.782,4.87,4.87,0,0,1-2.482-.647,4.724,4.724,0,0,1-1.742-1.794,5.725,5.725,0,0,1,0-5.214Z" transform="translate(4.593 1.724)" fill="#1c2d30"/>
    <path id="Path_925" data-name="Path 925" d="M155.087,100.229l-2.461-4.171h-1.835v4.171H149.8V90.29h2.983a3.6,3.6,0,0,1,2.524.8,2.68,2.68,0,0,1,.855,2.086,2.826,2.826,0,0,1-.615,1.835,2.93,2.93,0,0,1-1.825,1.043l2.555,4.171Zm-4.3-4.964h2a2.472,2.472,0,0,0,1.762-.563,2.086,2.086,0,0,0,.584-1.523,1.971,1.971,0,0,0-.563-1.512,2.576,2.576,0,0,0-1.794-.532h-1.992Z" transform="translate(5.062 1.728)" fill="#1c2d30"/>
    <path id="Path_926" data-name="Path 926" d="M167.5,90.42v9.8h-.991V92.391l-3.494,7.832h-.73l-3.494-7.8v7.8H157.8v-9.8h1.043l3.8,8.489,3.8-8.489Z" transform="translate(5.405 1.734)" fill="#1c2d30"/>
  </g>
</svg>
