<svg xmlns="http://www.w3.org/2000/svg" width="182.954" height="75" viewBox="0 0 182.954 75">
  <g id="Clients-05" transform="translate(-29.66 -32.99)">
    <path id="Path_508" data-name="Path 508" d="M101.16,45.53s12.527-.336,22.009.445S140.851,51.885,144.36,54a22.145,22.145,0,0,1,5.273,4.236s-21.818.227-32.082.909l-10.309.673s24.673.109,40.954.909,29.418,2.345,29.418,2.345a80.609,80.609,0,0,1,20.264,3.173c10.782,3.173,12.582,6.173,14.336,9.191a25.763,25.763,0,0,1,2.518,6.927s.355-9.255-3.718-12.891-11.236-6.364-20.727-7.918-27.745-3.236-28.564-3.345-17.8-8.918-24.127-11.373-18.964-2.9-25.291-2.455S101.187,45.5,101.187,45.5" transform="translate(-6.5 -1.022)" fill="#708094" fill-rule="evenodd"/>
    <path id="Path_509" data-name="Path 509" d="M32.781,79.058a29.019,29.019,0,0,1,2.727-11.709,25.754,25.754,0,0,1,6.564-8.182l15.573-.109a127.572,127.572,0,0,1,18.182-8.364C85.9,47.058,88.235,46.34,88.235,46.34a108.619,108.619,0,0,0-20.445,5.4c-10.773,4.018-12.182,4.018-12.182,4.018S47.89,54.213,42.271,53.64,35,53.076,35,53.076s1.291,2.118,1.755,3.127a3.636,3.636,0,0,0,1.173,1.445,34,34,0,0,0-4.218,6.364,21.4,21.4,0,0,0-1.873,11.6,12.118,12.118,0,0,0,.909,3.455" transform="translate(-0.184 -1.214)" fill="#708094" fill-rule="evenodd"/>
    <path id="Path_510" data-name="Path 510" d="M198.243,59.628a1.445,1.445,0,1,1-1.436,1.436,1.445,1.445,0,0,1,1.436-1.436m.536-1.818a3.554,3.554,0,1,1-.036.009" transform="translate(-15.138 -2.256)" fill="#06b4e4" fill-rule="evenodd"/>
    <path id="Path_511" data-name="Path 511" d="M169.131,51.864a2.291,2.291,0,1,1-2.291,2.291,2.291,2.291,0,0,1,2.291-2.291m.845-2.855a1.711,1.711,0,1,1,0-.009" transform="translate(-12.38 -1.455)" fill="#06b4e4" fill-rule="evenodd"/>
    <path id="Path_512" data-name="Path 512" d="M181.8,64.628a2.973,2.973,0,1,1-2.936,2.973,2.973,2.973,0,0,1,2.936-2.973m1.1-3.718a5.373,5.373,0,1,1-3.8,1.57,5.382,5.382,0,0,1,3.8-1.57" transform="translate(-13.442 -2.538)" fill="#06b4e4" fill-rule="evenodd"/>
    <path id="Path_513" data-name="Path 513" d="M155.586,49.325a1.359,1.359,0,1,0,0,.027m.5-1.682a2.436,2.436,0,1,1-2.436,2.436,2.436,2.436,0,0,1,2.436-2.436" transform="translate(-11.272 -1.335)" fill="#06b4e4" fill-rule="evenodd"/>
    <path id="Path_514" data-name="Path 514" d="M53.643,86.441H56.87a11.573,11.573,0,0,1-3.155,7.9,10,10,0,0,1-7.464,3.027,10.81,10.81,0,0,1-9.9-6.845A11.745,11.745,0,0,1,35.67,86.5a10.518,10.518,0,0,1,.827-4.155A10.909,10.909,0,0,1,38.925,78.8a10,10,0,0,1,3.409-2.3A11.1,11.1,0,0,1,46.5,75.75a10.209,10.209,0,0,1,5.536,1.482,9.2,9.2,0,0,1,3.636,4.209H51.9a6.736,6.736,0,0,0-2.464-2,7.418,7.418,0,0,0-3.182-.673,7.073,7.073,0,0,0-5.164,2.173A7.973,7.973,0,0,0,39.415,83.5a7.755,7.755,0,0,0-.6,2.973,8.855,8.855,0,0,0,.536,3.082,7.464,7.464,0,0,0,1.564,2.509A7.673,7.673,0,0,0,43.388,93.8a7.355,7.355,0,0,0,7.055-.655,9.2,9.2,0,0,0,2.982-3.736Z" transform="translate(-0.546 -3.887)" fill="#0db04b"/>
    <path id="Path_515" data-name="Path 515" d="M64.767,97.531H61.94V81.8l2.882-.064-.055,7.045Z" transform="translate(-2.935 -4.432)" fill="#0db04b"/>
    <path id="Path_516" data-name="Path 516" d="M74.362,93a5.327,5.327,0,0,0,3.091,1.955,5.054,5.054,0,0,0,3.555-.545,4.991,4.991,0,0,0,1.918-1.818,4.845,4.845,0,0,0,.7-2.545l2.8-1.518a9.027,9.027,0,0,1-.745,4.964A8.112,8.112,0,0,1,76.071,97.5a8.573,8.573,0,0,1-2.8-1.545,8.182,8.182,0,0,1-2.045-2.464,8.446,8.446,0,0,1-.982-2.991,8.182,8.182,0,0,1,.2-3.109,7.673,7.673,0,0,1,3.909-5.073,8.036,8.036,0,0,1,3.845-1,8.182,8.182,0,0,1,3.864.964,8,8,0,0,1,2.018,1.582,11.554,11.554,0,0,1,1.682,2.409l.218.391Zm7.682-7.082A5.673,5.673,0,0,0,79,84.147a4.782,4.782,0,0,0-3.245.545A5.064,5.064,0,0,0,73.443,87.2a5.554,5.554,0,0,0-.227,3.518Z" transform="translate(-3.683 -4.394)" fill="#0db04b"/>
    <path id="Path_517" data-name="Path 517" d="M113.207,97.513H110.38V81.786h2.727V83.6a5.564,5.564,0,0,1,1.955-1.555,5.7,5.7,0,0,1,2.427-.491,6.064,6.064,0,0,1,4.745,1.818,7.482,7.482,0,0,1,1.655,5.209V97.54h-2.855V89.168a6.073,6.073,0,0,0-.909-3.709,4.027,4.027,0,0,0-5.945.209,9.393,9.393,0,0,0-.955,4.7Z" transform="translate(-7.338 -4.414)" fill="#0db04b"/>
    <path id="Path_518" data-name="Path 518" d="M57.694,86.14s.273,3.064-3.809,4.745-11.673-2.473-11.227-2.427c6.127.709,9.591.482,15.036-2.318" transform="translate(-1.18 -4.832)" fill="#75c170" fill-rule="evenodd"/>
    <path id="Path_519" data-name="Path 519" d="M57.654,85.956s-2.727-3.855-6.427-.1c-2.727,2.727-8.736,2.373-8.736,2.373s8.036,3.082,15.164-2.273" transform="translate(-1.166 -4.657)" fill="#bed630" fill-rule="evenodd"/>
    <path id="Path_520" data-name="Path 520" d="M64.43,85.346s1.755,1.727,4.882.055,4.427-8.5,4.227-8.182c-2.727,4.164-4.6,6.191-9.091,8.182" transform="translate(-3.161 -4.02)" fill="#75c170" fill-rule="evenodd"/>
    <path id="Path_521" data-name="Path 521" d="M64.42,85.315s-.982-3.636,3.227-4.045c3.109-.273,5.927-4.209,5.927-4.209a13.524,13.524,0,0,1-9.155,8.255" transform="translate(-3.151 -4.006)" fill="#bed630" fill-rule="evenodd"/>
    <path id="Path_522" data-name="Path 522" d="M94.1,93a5.364,5.364,0,0,0,3.091,1.955,5.045,5.045,0,0,0,3.555-.545,4.9,4.9,0,0,0,2.627-4.364l2.8-1.518a8.945,8.945,0,0,1-.755,4.964,8.092,8.092,0,0,1-9.6,4.009,8.573,8.573,0,0,1-2.8-1.545,8.182,8.182,0,0,1-2.045-2.464,8.655,8.655,0,0,1-.982-2.991,8.4,8.4,0,0,1,.2-3.109,7.764,7.764,0,0,1,1.391-2.964A7.846,7.846,0,0,1,94.1,82.32a7.982,7.982,0,0,1,3.845-1,7.855,7.855,0,0,1,5.891,2.545,11.554,11.554,0,0,1,1.682,2.409l.209.391Zm7.709-7.082a5.691,5.691,0,0,0-3.055-1.773,4.791,4.791,0,0,0-3.245.545A5.1,5.1,0,0,0,93.2,87.2a5.618,5.618,0,0,0-.218,3.518Z" transform="translate(-5.479 -4.394)" fill="#0db04b"/>
    <path id="Path_523" data-name="Path 523" d="M141.808,82.708a1.218,1.218,0,0,1,1.073-.455c.764,0,1.336-.255,1.373-.991s-1.018-1.064-1.818-.473a2.273,2.273,0,0,0-.627,1.918" transform="translate(-10.193 -4.318)" fill="#06b4e4" fill-rule="evenodd"/>
    <path id="Path_524" data-name="Path 524" d="M141.845,82.674a1.273,1.273,0,0,1,1.036-.418c.764,0,1.336-.255,1.373-.991a.7.7,0,0,0-.409-.655.691.691,0,0,1,.136.909c-.164.382-.536.509-1.273.6a.991.991,0,0,0-.909.6" transform="translate(-10.195 -4.329)" fill="#008abf" fill-rule="evenodd"/>
    <path id="Path_525" data-name="Path 525" d="M142.206,82.418a1.418,1.418,0,0,1,.682-.136c.764,0,1.336-.255,1.373-.991a.655.655,0,0,0-.182-.491,1.045,1.045,0,0,1,0,.909c-.245.473-.636.445-1.073.509a2.136,2.136,0,0,0-.782.218m-.355.273.045-.055h0Z" transform="translate(-10.201 -4.346)" fill="#1580ab" fill-rule="evenodd"/>
    <path id="Path_526" data-name="Path 526" d="M143.2,80.681a.773.773,0,0,1,.709,0,.609.609,0,0,1,.191.782.909.909,0,0,0-.227-.582.791.791,0,0,0-.673-.227" transform="translate(-10.322 -4.328)" fill="#fff" fill-rule="evenodd"/>
    <path id="Path_527" data-name="Path 527" d="M142.65,83.454a1.218,1.218,0,0,1,1.109.345c.573.509,1.191.682,1.691.145s-.073-1.473-1.073-1.545-1.727,1.055-1.727,1.055" transform="translate(-10.272 -4.492)" fill="#06b4e4" fill-rule="evenodd"/>
    <path id="Path_528" data-name="Path 528" d="M142.71,83.514a1.245,1.245,0,0,1,1.055.364c.573.509,1.191.673,1.691.136a.718.718,0,0,0,.127-.764.736.736,0,0,1-.464.755c-.373.173-.736,0-1.364-.382a1.009,1.009,0,0,0-1.045-.109" transform="translate(-10.277 -4.569)" fill="#008abf" fill-rule="evenodd"/>
    <path id="Path_529" data-name="Path 529" d="M143.165,83.569a1.445,1.445,0,0,1,.6.336c.573.509,1.191.682,1.691.136a.618.618,0,0,0,.182-.482,1.109,1.109,0,0,1-.591.664c-.5.191-.773-.082-1.155-.318a2.355,2.355,0,0,0-.727-.336m-.455,0Z" transform="translate(-10.277 -4.597)" fill="#1580ab" fill-rule="evenodd"/>
    <path id="Path_530" data-name="Path 530" d="M145.17,82.76a.773.773,0,0,1,.518.482c.145.391-.264.691-.364.718a.909.909,0,0,0,.2-.591.791.791,0,0,0-.355-.609" transform="translate(-10.501 -4.525)" fill="#fff" fill-rule="evenodd"/>
    <path id="Path_531" data-name="Path 531" d="M130.194,93.9a1.227,1.227,0,0,0-1.109-.373c-.764.082-1.355-.145-1.445-.909s.909-1.145,1.764-.618a2.264,2.264,0,0,1,.791,1.818" transform="translate(-8.907 -5.342)" fill="#06b4e4" fill-rule="evenodd"/>
    <path id="Path_532" data-name="Path 532" d="M130.158,93.873a1.264,1.264,0,0,0-1.073-.327c-.755.082-1.355-.145-1.445-.909a.691.691,0,0,1,.327-.636.709.709,0,0,0-.064.909c.2.364.582.455,1.327.491a1,1,0,0,1,.909.527" transform="translate(-8.907 -5.365)" fill="#008abf" fill-rule="evenodd"/>
    <path id="Path_533" data-name="Path 533" d="M129.786,93.641a1.546,1.546,0,0,0-.691-.082c-.755.082-1.355-.145-1.445-.909a.636.636,0,0,1,.136-.5,1.055,1.055,0,0,0,.091.909c.291.445.673.391,1.118.418a2.263,2.263,0,0,1,.791.155m.382.245h-.055Z" transform="translate(-8.908 -5.378)" fill="#1580ab" fill-rule="evenodd"/>
    <path id="Path_534" data-name="Path 534" d="M128.779,92a.782.782,0,0,0-.7.091.609.609,0,0,0-.091.818.909.909,0,0,1,.173-.6.818.818,0,0,1,.645-.291" transform="translate(-8.928 -5.36)" fill="#fff" fill-rule="evenodd"/>
    <path id="Path_535" data-name="Path 535" d="M129.215,94.722a1.218,1.218,0,0,0-1.045.509c-.491.591-1.073.845-1.645.391s-.145-1.464.827-1.682a2.255,2.255,0,0,1,1.818.782" transform="translate(-8.783 -5.541)" fill="#06b4e4" fill-rule="evenodd"/>
    <path id="Path_536" data-name="Path 536" d="M129.16,94.8a1.236,1.236,0,0,0-.991.509c-.491.591-1.073.845-1.645.391a.7.7,0,0,1-.236-.736.709.709,0,0,0,.564.664c.4.127.736-.082,1.291-.573a1,1,0,0,1,1.018-.255" transform="translate(-8.782 -5.615)" fill="#008abf" fill-rule="evenodd"/>
    <path id="Path_537" data-name="Path 537" d="M128.755,94.891a1.454,1.454,0,0,0-.555.418c-.491.591-1.073.845-1.645.391a.664.664,0,0,1-.255-.455,1.073,1.073,0,0,0,.682.564c.527.127.755-.191,1.091-.482a2.391,2.391,0,0,1,.682-.436m.436-.091Z" transform="translate(-8.786 -5.619)" fill="#1580ab" fill-rule="evenodd"/>
    <path id="Path_538" data-name="Path 538" d="M126.855,94.38a.791.791,0,0,0-.436.555c-.091.409.364.645.473.664a.909.909,0,0,1-.291-.564.818.818,0,0,1,.255-.655" transform="translate(-8.795 -5.581)" fill="#fff" fill-rule="evenodd"/>
    <path id="Path_539" data-name="Path 539" d="M135.7,88.323c-1.027-.573-.2-1.709.991-2.045s1.409-.309,2.027-.082a1.709,1.709,0,0,0,2.009-.909c.582-.909.355-3.209-2.473-3.018a8.973,8.973,0,0,0-6.736,4.064c-1.164,2.009-.227,3.991,1.818,5.036s4.027,1.391,3.409,1.927a5.136,5.136,0,0,1-3.718.464c-1.009-.345-1.627-.536-2.555.355a2,2,0,0,0,1.045,3.291c1.664.309,5.073.227,7.273-1.282s2.482-3.982,1.355-5.073a20.827,20.827,0,0,0-4.409-2.727" transform="translate(-9.118 -4.479)" fill="#06b4e4" fill-rule="evenodd"/>
    <path id="Path_540" data-name="Path 540" d="M134.587,92.224c1.627.7,2.918,1.018,2.409,1.464a5.136,5.136,0,0,1-3.718.464h-.118a4.691,4.691,0,0,0,1.764.636c1.9.273,5.073-1.473.273-2.4l-.609-.127m1.364-3.527c-1.036-.573-.209-1.709.991-2.045a3.1,3.1,0,0,1,1.627-.209l-.082-.055a4.909,4.909,0,0,0-3.409.736c-1.464,1.082-.573,1.818.391,2.209s3.982,1.736,4.1,3.445c.109,1.555-1.664,4.173-4.945,5.118a9.091,9.091,0,0,0,4.382-1.382c2.164-1.509,2.473-3.982,1.355-5.073a20.828,20.828,0,0,0-4.409-2.727" transform="translate(-9.409 -4.853)" fill="#008abf" fill-rule="evenodd"/>
    <path id="Path_541" data-name="Path 541" d="M135.1,92.428c1.418.582,2.455.909,1.982,1.291a5.064,5.064,0,0,1-3.073.6,4.373,4.373,0,0,0,2.318.091c1.427-.409,1.818-1.073,0-1.645-.473-.145-.909-.255-1.264-.336m.909-3.7c-1-.564-.245-1.655.909-2.018a1.818,1.818,0,0,0-1.491.736c-.636.909-.145,1.182.727,1.655s4.027,2.145,4.373,3.473-1.1,3.918-3.591,4.845c-.255.091-.5.191-.736.291a7.845,7.845,0,0,0,2.873-1.164c2.173-1.509,2.482-3.991,1.355-5.073a20.6,20.6,0,0,0-4.409-2.727" transform="translate(-9.487 -4.884)" fill="#1580ab" fill-rule="evenodd"/>
    <path id="Path_542" data-name="Path 542" d="M141.176,84.885c-.218.7-.982,1.018-1.2.909s.6-.382.755-1.109a2.236,2.236,0,0,0-.382-1.818c-.345-.191,1.273.618.827,2.009" transform="translate(-10.026 -4.532)" fill="#fff" fill-rule="evenodd"/>
    <path id="Path_543" data-name="Path 543" d="M132.012,87.14a2.582,2.582,0,0,0-.482,1.555,2.645,2.645,0,0,0,.736,1.709,4.073,4.073,0,0,1-.455-1.618,6.1,6.1,0,0,1,.2-1.645" transform="translate(-9.261 -4.923)" fill="#fff" fill-rule="evenodd"/>
    <path id="Path_544" data-name="Path 544" d="M130.692,97.235a1.282,1.282,0,0,0,1.2.909c.218-.1-.6-.382-.764-1.109a2.309,2.309,0,0,1,.382-1.818c.355-.191-1.264.618-.818,2.009" transform="translate(-9.178 -5.655)" fill="#fff" fill-rule="evenodd"/>
    <path id="Path_545" data-name="Path 545" d="M136.581,88.494a1.636,1.636,0,0,1,.755-1.027,4.236,4.236,0,0,1,1.3-.527,3.918,3.918,0,0,0-1.727.327c-.6.373-.691.855-.573,1.073s.245.155.245.155" transform="translate(-9.694 -4.904)" fill="#1580ab" fill-rule="evenodd"/>
    <path id="Path_546" data-name="Path 546" d="M134.183,93.31a6.136,6.136,0,0,1,1.564.618c.491.355-.464.609-1.3.564s-.6-.118-.6-.118,1.818-.1,1.282-.473-.909-.591-.909-.591" transform="translate(-9.469 -5.484)" fill="#1580ab" fill-rule="evenodd"/>
    <path id="Path_547" data-name="Path 547" d="M149.81,83.793s.691-2.236.836-3.036a2.164,2.164,0,0,1,1.464-2.018,1.909,1.909,0,0,1,2.545,1.564,9.136,9.136,0,0,1-.809,3.136s2.027,0,2.727-.1,1.536-.173,1.818.455a2.082,2.082,0,0,1-1.318,2.891,14.546,14.546,0,0,1-4.082.627s-.1-.809-.309-.736a6.34,6.34,0,0,0-1.818,5.964c.909,3.182,3.436.845,3.736.3s.627-1.282,1.564-1.136,1.255,1.109.7,2.509-4.455,3.755-6.791,2.809-2.636-3.282-2.236-5.573a26.618,26.618,0,0,1,.909-3.882,2.355,2.355,0,0,1-2.727-1.291c-1-1.818.645-2.536,1.818-2.491s1.955,0,1.955,0" transform="translate(-10.55 -4.149)" fill="#06b4e4" fill-rule="evenodd"/>
    <path id="Path_548" data-name="Path 548" d="M149.81,83.793s.691-2.236.836-3.036a2.164,2.164,0,0,1,1.464-2.018,1.909,1.909,0,0,1,2.545,1.564,9.136,9.136,0,0,1-.809,3.136s2.027,0,2.727-.1,1.536-.173,1.818.455a2.082,2.082,0,0,1-1.318,2.891,14.546,14.546,0,0,1-4.082.627s-.1-.809-.309-.736a6.34,6.34,0,0,0-1.818,5.964c.909,3.182,3.436.845,3.736.3s.627-1.282,1.564-1.136,1.255,1.109.7,2.509-4.455,3.755-6.791,2.809-2.636-3.282-2.236-5.573a26.618,26.618,0,0,1,.909-3.882,2.355,2.355,0,0,1-2.727-1.291c-1-1.818.645-2.536,1.818-2.491S149.81,83.793,149.81,83.793Z" transform="translate(-10.55 -4.149)" fill="none" stroke="#06b4e4" stroke-miterlimit="10" stroke-width="0.22"/>
    <path id="Path_549" data-name="Path 549" d="M155.387,92.82a1.273,1.273,0,0,1,.382-.382,3,3,0,0,0-.382.382m3.636-8.064a2.055,2.055,0,0,1-1.455,2.5,14.545,14.545,0,0,1-4.082.627s-.1-.8-.309-.727a6.34,6.34,0,0,0-1.818,5.964c.909,3.182,3.436.845,3.736.3l.2-.373a3.546,3.546,0,0,1-1.955,2.082c-1.264.655-3.264.173-2.827-3.009a10.455,10.455,0,0,1,2.655-5.4l.609.827a9.5,9.5,0,0,0,3.873-.909,2.591,2.591,0,0,0,1.409-1.918" transform="translate(-10.981 -4.703)" fill="#008abf" fill-rule="evenodd"/>
    <path id="Path_550" data-name="Path 550" d="M155.387,92.824a1.273,1.273,0,0,1,.382-.382A3,3,0,0,0,155.387,92.824Zm3.636-8.064a2.055,2.055,0,0,1-1.455,2.5,14.545,14.545,0,0,1-4.082.627s-.1-.8-.309-.727a6.34,6.34,0,0,0-1.818,5.964c.909,3.182,3.436.845,3.736.3l.2-.373a3.545,3.545,0,0,1-1.955,2.082c-1.264.655-3.264.173-2.827-3.009a10.455,10.455,0,0,1,2.655-5.4l.609.827a9.5,9.5,0,0,0,3.873-.909A2.591,2.591,0,0,0,159,84.76Z" transform="translate(-10.981 -4.706)" fill="none" stroke="#06b4e4" stroke-miterlimit="10" stroke-width="0.22"/>
    <path id="Path_551" data-name="Path 551" d="M155.445,92.995a1.245,1.245,0,0,1,.227-.264l-.1.118-.127.145m-3.691-3.636a5.618,5.618,0,0,0-.4,3.9c.682,2.418,2.309,1.655,3.182.909-.064.082-.109.164-.155.227-.436.7-3.045,1.609-3.436-.909a6.836,6.836,0,0,1,.809-4.118m4.136-1.464a16.311,16.311,0,0,1-2.373.209s-.1-.809-.309-.736a4.382,4.382,0,0,0-.991,1.209l.418-1.036a7.672,7.672,0,0,1,.527-.609l.418.573a.8.8,0,0,1,.064.255c0,.391,2.045,0,2.045,0Z" transform="translate(-11.022 -4.905)" fill="#1580ab" fill-rule="evenodd"/>
    <path id="Path_552" data-name="Path 552" d="M152.12,79.74a1.591,1.591,0,0,1,1.373-.6c.909.073,1.245,1.255,1.245,1.255a2.391,2.391,0,0,0-1.327-.909,2.582,2.582,0,0,0-1.291.218" transform="translate(-11.133 -4.195)" fill="#fff" fill-rule="evenodd"/>
    <path id="Path_553" data-name="Path 553" d="M146.53,86.89a2.4,2.4,0,0,0,.909,1.073,2.727,2.727,0,0,0,1.336.091,2.209,2.209,0,0,1-1.336-.436,8.181,8.181,0,0,1-.909-.727" transform="translate(-10.625 -4.9)" fill="#fff" fill-rule="evenodd"/>
    <path id="Path_554" data-name="Path 554" d="M157.81,84.053a1.718,1.718,0,0,1,1.209.082c.482.309.182,1.182.182,1.182a1.418,1.418,0,0,0-.373-.909,2.627,2.627,0,0,0-1.018-.336" transform="translate(-11.65 -4.635)" fill="#fff" fill-rule="evenodd"/>
    <path id="Path_555" data-name="Path 555" d="M156.28,93.611a.909.909,0,0,1,1.064-.2c.745.245.545,1.136.545,1.136a.991.991,0,0,0-.627-.909,1.509,1.509,0,0,0-.982,0" transform="translate(-11.511 -5.485)" fill="#fff" fill-rule="evenodd"/>
    <path id="Path_556" data-name="Path 556" d="M148.39,95.89a3.564,3.564,0,0,0,1.391,2.018c1.155.8,3.264.318,3.264.318a5.364,5.364,0,0,1-3.073-.636,5.3,5.3,0,0,1-1.582-1.7" transform="translate(-10.794 -5.718)" fill="#fff" fill-rule="evenodd"/>
    <path id="Path_557" data-name="Path 557" d="M157.92,92.326a1.209,1.209,0,0,1,1.1-.364c.764.082,1.364-.145,1.455-.909s-.909-1.145-1.773-.618a2.145,2.145,0,0,0-.782,1.818" transform="translate(-11.66 -5.2)" fill="#06b4e4" fill-rule="evenodd"/>
    <path id="Path_558" data-name="Path 558" d="M158,92.3a1.245,1.245,0,0,1,1.064-.318c.764.073,1.364-.145,1.455-.909a.691.691,0,0,0-.345-.682.709.709,0,0,1,.064.909c-.2.364-.582.455-1.327.491a1.009,1.009,0,0,0-.909.518" transform="translate(-11.667 -5.218)" fill="#008abf" fill-rule="evenodd"/>
    <path id="Path_559" data-name="Path 559" d="M158.342,92.08a1.309,1.309,0,0,1,.682-.082c.764.082,1.364-.145,1.455-.909a.664.664,0,0,0-.136-.509,1.109,1.109,0,0,1-.091.909c-.291.445-.673.391-1.118.418a2.264,2.264,0,0,0-.791.155m-.382.245.055-.055h-.045Z" transform="translate(-11.664 -5.236)" fill="#1580ab" fill-rule="evenodd"/>
    <path id="Path_560" data-name="Path 560" d="M159.5,90.416a.764.764,0,0,1,.691.091.609.609,0,0,1,.127.8.909.909,0,0,0-.182-.609.8.8,0,0,0-.636-.282" transform="translate(-11.804 -5.217)" fill="#fff" fill-rule="evenodd"/>
    <path id="Path_561" data-name="Path 561" d="M158.92,93.068a1.109,1.109,0,0,1,.964.464c.445.545.982.773,1.509.355s.127-1.345-.764-1.536a2.082,2.082,0,0,0-1.709.718" transform="translate(-11.751 -5.396)" fill="#06b4e4" fill-rule="evenodd"/>
    <path id="Path_562" data-name="Path 562" d="M159,93.126a1.164,1.164,0,0,1,.909.473c.445.536.982.773,1.509.355a.636.636,0,0,0,.218-.682.645.645,0,0,1-.518.618c-.364.109-.673-.073-1.191-.527a.909.909,0,0,0-.909-.236" transform="translate(-11.758 -5.464)" fill="#008abf" fill-rule="evenodd"/>
    <path id="Path_563" data-name="Path 563" d="M159.38,93.221a1.282,1.282,0,0,1,.509.382c.445.545.982.773,1.509.355a.6.6,0,0,0,.236-.418,1.018,1.018,0,0,1-.627.527c-.482.109-.7-.173-1.009-.445a1.882,1.882,0,0,0-.618-.4m-.4-.082a.073.073,0,0,1,.064,0H159Z" transform="translate(-11.757 -5.468)" fill="#1580ab" fill-rule="evenodd"/>
    <path id="Path_564" data-name="Path 564" d="M161.317,92.75a.727.727,0,0,1,.4.509c.082.373-.327.591-.427.6a.8.8,0,0,0,.264-.509.736.736,0,0,0-.236-.6" transform="translate(-11.967 -5.433)" fill="#fff" fill-rule="evenodd"/>
    <path id="Path_565" data-name="Path 565" d="M158.86,94a.855.855,0,0,1,.118.818c-.155.518-.073.964.436,1.127s.909-.509.655-1.164S158.86,94,158.86,94" transform="translate(-11.746 -5.546)" fill="#06b4e4" fill-rule="evenodd"/>
    <path id="Path_566" data-name="Path 566" d="M158.89,94a.909.909,0,0,1,.091.791c-.145.518-.064.964.436,1.127a.491.491,0,0,0,.527-.164.509.509,0,0,1-.627-.064c-.227-.182-.245-.464-.173-.991a.718.718,0,0,0-.255-.7" transform="translate(-11.748 -5.546)" fill="#008abf" fill-rule="evenodd"/>
    <path id="Path_567" data-name="Path 567" d="M158.992,94.325a1.073,1.073,0,0,1,0,.5c-.155.518-.064.964.436,1.127a.5.5,0,0,0,.364,0,.764.764,0,0,1-.609-.173c-.282-.264-.191-.527-.155-.836a1.546,1.546,0,0,0,0-.582m-.118-.291Z" transform="translate(-11.75 -5.553)" fill="#1580ab" fill-rule="evenodd"/>
    <path id="Path_568" data-name="Path 568" d="M160.077,95.36a.555.555,0,0,1-.145.482.445.445,0,0,1-.582,0,.645.645,0,0,0,.445-.055.545.545,0,0,0,.282-.418" transform="translate(-11.79 -5.67)" fill="#fff" fill-rule="evenodd"/>
    <path id="Path_569" data-name="Path 569" d="M151.889,91.08a7.073,7.073,0,0,0,0,2.536c.3.909.973,1.3,1.673,1.018a2.864,2.864,0,0,0,1-.627s-1.291.573-1.955-.136-.764-2.791-.764-2.791" transform="translate(-11.101 -5.281)" fill="#1580ab" fill-rule="evenodd"/>
    <path id="Path_570" data-name="Path 570" d="M173.631,84.357s-.518-1.709-3.518-1.391-5.282,3.664-6.191,5.673-1.509,5.9,1.018,7.945,5.882.609,7.536-.391,2.727-2.527,2.727-3.745a1.464,1.464,0,0,0-2.727-.827,5.145,5.145,0,0,1-3.745,2.282,2.027,2.027,0,0,1-1.818-.7,9.427,9.427,0,0,0,4.309-2c1.7-1.564,2.836-2.873,3.009-4.091s-.127-2.727-1.609-1.918-.964,1.918-1.091,2.964a3.336,3.336,0,0,1-2.609,2.436,2.218,2.218,0,0,1-2.136-2.264,4.018,4.018,0,0,1,2.591-3.418,9.027,9.027,0,0,1,4.291-.555" transform="translate(-12.134 -4.54)" fill="#06b4e4" fill-rule="evenodd"/>
    <path id="Path_571" data-name="Path 571" d="M171.58,89.059a3.373,3.373,0,0,1-2.345,1.7A2.218,2.218,0,0,1,167.1,88.5a3.636,3.636,0,0,1,1.209-2.555,4.6,4.6,0,0,0-1.991,2.945c-.436,2.264,3.436,3.573,4.918.909a5.807,5.807,0,0,0,.345-.745m2.336-4.545a.291.291,0,0,1,0-.055h.018" transform="translate(-12.42 -4.678)" fill="#008abf" fill-rule="evenodd"/>
    <path id="Path_572" data-name="Path 572" d="M171.152,89.645a2.991,2.991,0,0,1-1.882,1.073,2.218,2.218,0,0,1-2.136-2.264,3.473,3.473,0,0,1,.445-1.582,3.345,3.345,0,0,0-.909,2.282c.045,1.609,2.609,2.827,4.182.909.1-.136.191-.255.273-.382m2.8-5.191h.018" transform="translate(-12.456 -4.682)" fill="#1580ab" fill-rule="evenodd"/>
    <path id="Path_573" data-name="Path 573" d="M164.21,95.07a3.773,3.773,0,0,0,1.918,2.664c1.818.909,4.455-.1,4.455-.1a9.264,9.264,0,0,1-4.109-.373,5.745,5.745,0,0,1-2.264-2.145" transform="translate(-12.232 -5.644)" fill="#fff" fill-rule="evenodd"/>
    <path id="Path_574" data-name="Path 574" d="M176.23,86.72a1.309,1.309,0,0,1,0,1.236c-.327.745-.3,1.418.409,1.745s1.455-.555,1.2-1.582-1.618-1.4-1.618-1.4" transform="translate(-13.306 -4.885)" fill="#06b4e4" fill-rule="evenodd"/>
    <path id="Path_575" data-name="Path 575" d="M176.26,86.78a1.3,1.3,0,0,1,0,1.182c-.327.745-.291,1.418.409,1.745a.718.718,0,0,0,.809-.127.736.736,0,0,1-.909-.218c-.3-.318-.273-.736-.064-1.491a1.055,1.055,0,0,0-.236-1.091" transform="translate(-13.309 -4.89)" fill="#008abf" fill-rule="evenodd"/>
    <path id="Path_576" data-name="Path 576" d="M176.385,87.241a1.546,1.546,0,0,1-.145.718c-.327.745-.3,1.418.409,1.745a.7.7,0,0,0,.555,0,1.145,1.145,0,0,1-.864-.382c-.364-.436-.182-.809-.064-1.264a2.663,2.663,0,0,0,.109-.845m-.127-.464v.064Z" transform="translate(-13.307 -4.887)" fill="#1580ab" fill-rule="evenodd"/>
    <path id="Path_577" data-name="Path 577" d="M177.764,89a.909.909,0,0,1-.318.682.655.655,0,0,1-.845-.136.909.909,0,0,0,.664,0,.836.836,0,0,0,.5-.555" transform="translate(-13.358 -5.091)" fill="#fff" fill-rule="evenodd"/>
    <path id="Path_578" data-name="Path 578" d="M177,85.576a1.091,1.091,0,0,1,.609.827c.145.664.5,1.1,1.145.973s.7-1.091,0-1.655a1.973,1.973,0,0,0-1.773-.145" transform="translate(-13.393 -4.767)" fill="#06b4e4" fill-rule="evenodd"/>
    <path id="Path_579" data-name="Path 579" d="M177.07,85.61a1.155,1.155,0,0,1,.573.809c.145.655.5,1.091,1.136.973a.636.636,0,0,0,.482-.491.627.627,0,0,1-.718.3c-.355-.064-.545-.364-.782-.973a.909.909,0,0,0-.691-.618" transform="translate(-13.401 -4.784)" fill="#008abf" fill-rule="evenodd"/>
    <path id="Path_580" data-name="Path 580" d="M177.379,85.865a1.318,1.318,0,0,1,.255.555c.145.655.509,1.1,1.145.973a.627.627,0,0,0,.382-.255.991.991,0,0,1-.764.173c-.464-.118-.518-.464-.664-.827a2.21,2.21,0,0,0-.355-.618m-.309-.255h.055Z" transform="translate(-13.401 -4.784)" fill="#1580ab" fill-rule="evenodd"/>
    <path id="Path_581" data-name="Path 581" d="M179.188,86.32a.691.691,0,0,1,.118.609.536.536,0,0,1-.636.327.755.755,0,0,0,.455-.318.709.709,0,0,0,.064-.618" transform="translate(-13.547 -4.848)" fill="#fff" fill-rule="evenodd"/>
    <path id="Path_582" data-name="Path 582" d="M175.993,84.1a1.036,1.036,0,0,1,.909.336c.482.455,1.009.618,1.455.173s0-1.264-.909-1.364a1.847,1.847,0,0,0-1.527.855" transform="translate(-13.297 -4.568)" fill="#06b4e4" fill-rule="evenodd"/>
    <path id="Path_583" data-name="Path 583" d="M176,84.166a1.064,1.064,0,0,1,.909.336c.482.464,1.009.627,1.455.182a.609.609,0,0,0,.136-.655.618.618,0,0,1-.427.627c-.327.145-.636,0-1.164-.373a.855.855,0,0,0-.909-.118" transform="translate(-13.304 -4.64)" fill="#008abf" fill-rule="evenodd"/>
    <path id="Path_584" data-name="Path 584" d="M176.391,84.22a1.109,1.109,0,0,1,.509.309c.482.455,1.009.618,1.455.173a.573.573,0,0,0,.173-.418.909.909,0,0,1-.527.555c-.436.155-.673-.091-.982-.309a2.109,2.109,0,0,0-.627-.309m-.391,0Z" transform="translate(-13.304 -4.657)" fill="#1580ab" fill-rule="evenodd"/>
    <path id="Path_585" data-name="Path 585" d="M178.15,83.58a.682.682,0,0,1,.436.427.527.527,0,0,1-.345.609.736.736,0,0,0,.2-.5.673.673,0,0,0-.291-.536" transform="translate(-13.499 -4.599)" fill="#fff" fill-rule="evenodd"/>
    <path id="Path_586" data-name="Path 586" d="M167.875,88a2.655,2.655,0,0,0,.3,1.818,1.709,1.709,0,0,0,1.718.609,2.1,2.1,0,0,0,.909-.455,2.627,2.627,0,0,1-1.918-.227c-.645-.473-.655-.909-.973-1.755" transform="translate(-12.561 -5)" fill="#1580ab" fill-rule="evenodd"/>
    <path id="Path_587" data-name="Path 587" d="M185.158,83.863a11.237,11.237,0,0,0-4.218,3.836c-2.091,2.936-2.791,5.955-1.973,7.973s3.518,2.091,5.109,1.2a15.745,15.745,0,0,0,3.018-2.364s-.082,2.164,1.118,2.827,3.173.309,3.755-.7.118-1.473-.073-1.664a2.6,2.6,0,0,1-1.318-2.209,29.09,29.09,0,0,1,.545-5.145c.155-1.273.155-1.664,0-2.009a1.482,1.482,0,0,0-.855-.818,2.4,2.4,0,0,0-.545-.109,2.3,2.3,0,0,0-1.582-1.282,6.982,6.982,0,0,0-2.591.355,8.309,8.309,0,0,1,1.891,3.745,7.109,7.109,0,0,1-1.2,5.345,3.4,3.4,0,0,1-4.027.809c-1.582-.845-1.464-3.173-.191-4.373a7.327,7.327,0,0,1,3.564-1.473,3.636,3.636,0,0,0,.5-2.045,3.791,3.791,0,0,0-.909-1.9" transform="translate(-13.543 -4.582)" fill="#06b4e4" fill-rule="evenodd"/>
    <path id="Path_588" data-name="Path 588" d="M186.883,92.747a4.754,4.754,0,0,1-.418.664,3.4,3.4,0,0,1-4.027.809c-1.436-.773-1.473-2.727-.527-4A2.955,2.955,0,0,0,181,93.856c1.1,2.209,4.991,1.691,5.745-.691l.109-.373" transform="translate(-13.733 -5.203)" fill="#008abf" fill-rule="evenodd"/>
    <path id="Path_589" data-name="Path 589" d="M186.878,92.966a5.374,5.374,0,0,1-.418.664,3.4,3.4,0,0,1-4.027.809,2.482,2.482,0,0,1-1.027-3.009,2.573,2.573,0,0,0,.318,3.009c1.455,1.518,4.064.473,5.018-1.009v-.091a1.35,1.35,0,0,1,.109-.373" transform="translate(-13.764 -5.313)" fill="#1580ab" fill-rule="evenodd"/>
    <path id="Path_590" data-name="Path 590" d="M179.486,95a2.473,2.473,0,0,0,1.009,2.482c1.391.909,3.436-.3,3.436-.3a4.482,4.482,0,0,1-3.045-.218,2.8,2.8,0,0,1-1.4-1.964" transform="translate(-13.617 -5.637)" fill="#fff" fill-rule="evenodd"/>
    <path id="Path_591" data-name="Path 591" d="M192.055,95.913a1.5,1.5,0,0,1,.682.909,1.273,1.273,0,0,1-.536,1.191,2.291,2.291,0,0,1-.791.218s.691-.273.845-.8A1.146,1.146,0,0,0,192.2,96.4c-.145-.245-.464-.664-.464-.664Z" transform="translate(-14.705 -5.705)" fill="#fff" fill-rule="evenodd"/>
    <path id="Path_592" data-name="Path 592" d="M193.5,84.857a1.091,1.091,0,0,1,1.009-.336c.7.073,1.245-.136,1.336-.809s-.845-1.045-1.627-.564a2.064,2.064,0,0,0-.718,1.709" transform="translate(-14.894 -4.54)" fill="#06b4e4" fill-rule="evenodd"/>
    <path id="Path_593" data-name="Path 593" d="M193.53,84.826a1.2,1.2,0,0,1,.982-.3c.7.073,1.245-.127,1.336-.8a.655.655,0,0,0-.318-.636.664.664,0,0,1,.055.809c-.182.327-.536.418-1.218.445a.909.909,0,0,0-.836.482" transform="translate(-14.898 -4.555)" fill="#008abf" fill-rule="evenodd"/>
    <path id="Path_594" data-name="Path 594" d="M193.885,84.625a1.191,1.191,0,0,1,.627-.073c.7.073,1.245-.136,1.336-.809a.636.636,0,0,0-.127-.464,1.036,1.036,0,0,1-.082.818c-.273.409-.618.355-1.027.382a2.155,2.155,0,0,0-.727.145m-.355.227.055-.045h-.045Z" transform="translate(-14.898 -4.572)" fill="#1580ab" fill-rule="evenodd"/>
    <path id="Path_595" data-name="Path 595" d="M194.94,83.1a.736.736,0,0,1,.645.073.573.573,0,0,1,.118.736.827.827,0,0,0-.173-.555.727.727,0,0,0-.591-.255" transform="translate(-15.026 -4.551)" fill="#fff" fill-rule="evenodd"/>
    <path id="Path_596" data-name="Path 596" d="M194.7,85.4a1.182,1.182,0,0,1,1,.527c.464.591,1.018.855,1.6.427s.173-1.427-.764-1.664a2.218,2.218,0,0,0-1.818.709" transform="translate(-15.004 -4.699)" fill="#06b4e4" fill-rule="evenodd"/>
    <path id="Path_597" data-name="Path 597" d="M194.756,85.465a1.2,1.2,0,0,1,.909.518c.464.591,1.027.855,1.6.427a.682.682,0,0,0,.245-.709.682.682,0,0,1-.573.636c-.382.109-.709-.1-1.236-.591a.909.909,0,0,0-.982-.282" transform="translate(-15.006 -4.766)" fill="#008abf" fill-rule="evenodd"/>
    <path id="Path_598" data-name="Path 598" d="M195.187,85.57a1.327,1.327,0,0,1,.518.427c.464.582,1.018.855,1.6.418a.627.627,0,0,0,.255-.427,1.064,1.064,0,0,1-.682.527c-.509.109-.727-.2-1.045-.5a2.291,2.291,0,0,0-.645-.445m-.427-.1Z" transform="translate(-15.009 -4.771)" fill="#1580ab" fill-rule="evenodd"/>
    <path id="Path_599" data-name="Path 599" d="M197.244,85.14a.764.764,0,0,1,.418.545c.073.4-.373.618-.482.627a.836.836,0,0,0,.3-.527.773.773,0,0,0-.236-.645" transform="translate(-15.229 -4.741)" fill="#fff" fill-rule="evenodd"/>
    <path id="Path_600" data-name="Path 600" d="M193.91,86.647a1.336,1.336,0,0,1,.718,1.064c.127.827.545,1.4,1.345,1.282s.909-1.309.145-2.055a2.518,2.518,0,0,0-2.209-.291" transform="translate(-14.932 -4.866)" fill="#06b4e4" fill-rule="evenodd"/>
    <path id="Path_601" data-name="Path 601" d="M194,86.69a1.373,1.373,0,0,1,.655,1.027c.136.836.545,1.4,1.345,1.291a.773.773,0,0,0,.636-.573.782.782,0,0,1-.909.327c-.436-.109-.645-.491-.909-1.264A1.1,1.1,0,0,0,194,86.69" transform="translate(-14.94 -4.882)" fill="#008abf" fill-rule="evenodd"/>
    <path id="Path_602" data-name="Path 602" d="M194.344,87.017a1.564,1.564,0,0,1,.291.709c.127.827.545,1.391,1.345,1.282a.727.727,0,0,0,.491-.291,1.2,1.2,0,0,1-.964.164c-.564-.182-.609-.6-.764-1.064a2.537,2.537,0,0,0-.4-.8m-.364-.327h.064Z" transform="translate(-14.938 -4.882)" fill="#1580ab" fill-rule="evenodd"/>
    <path id="Path_603" data-name="Path 603" d="M196.55,87.71a.845.845,0,0,1,.109.773.682.682,0,0,1-.809.364,1.027,1.027,0,0,0,.591-.373.909.909,0,0,0,.109-.764" transform="translate(-15.108 -4.975)" fill="#fff" fill-rule="evenodd"/>
    <path id="Path_604" data-name="Path 604" d="M182.048,91.73a2.318,2.318,0,0,0,.691,1.936,2.782,2.782,0,0,0,2.273.382,3.527,3.527,0,0,1-1.973-.718,4.2,4.2,0,0,1-.991-1.6" transform="translate(-13.852 -5.34)" fill="#1580ab" fill-rule="evenodd"/>
    <path id="Path_605" data-name="Path 605" d="M198.765,86.14V84.549a1.818,1.818,0,0,1,2.5-1.364,1.964,1.964,0,0,1,1.591,2.173c0,.582-.118,2.118-.118,2.118s1.6-2.518,3.073-3.127a2.727,2.727,0,0,1,3.336.518c.909.909.909,2.491,1.045,3.364s.2,1.627.2,1.627,1.536-4.036,3.191-5.136,3.455-1.1,4.382.318A7.7,7.7,0,0,1,219,89.213c0,.909,0,3.336.727,3.864a3.036,3.036,0,0,1,1.364,1.736A2.418,2.418,0,0,1,218.8,97.04c-1.709.182-2.291-.573-2.082-1.209a5.227,5.227,0,0,0,.318-2.209c-.091-.909-1.164-2.345-1.427-2.982a4.545,4.545,0,0,1-.109-2.464,4.547,4.547,0,0,0,.227-.645,8.327,8.327,0,0,0-2.491,2.064,6.682,6.682,0,0,0-1.709,3.855c0,1.309,0,2.091-1.191,2.664s-2.209.182-2.318-.545.636-1.773.227-2.845-1.445-2.173-1.655-2.927a3.109,3.109,0,0,1,.118-2,3.637,3.637,0,0,1,.491-.809,10,10,0,0,0-2.955,2.436,5,5,0,0,0-1.418,3.445,9.245,9.245,0,0,1-.809,3.636,2.173,2.173,0,0,1-2.464,1.045c-1.191-.291-1.364-1.682-1.336-3.164s.464-6.955.491-7.273.055-.964.055-.964" transform="translate(-15.324 -4.55)" fill="#06b4e4" fill-rule="evenodd"/>
    <path id="Path_606" data-name="Path 606" d="M207.06,87.548a9.654,9.654,0,0,0-2.673,2.282,5,5,0,0,0-1.418,3.445,9.228,9.228,0,0,1-.818,3.636,2.164,2.164,0,0,1-2.464,1.045,1.4,1.4,0,0,1-.727-.427,1.882,1.882,0,0,0,2.2-.336c.909-.845,1.145-2.582,1.3-3.727a7.164,7.164,0,0,1,1.518-3.945,7.054,7.054,0,0,1,3.082-1.991m8.518.555a8.381,8.381,0,0,0-2.209,1.9,6.8,6.8,0,0,0-1.709,3.855c0,1.309,0,2.091-1.182,2.664a2.355,2.355,0,0,1-1.282.273,1.682,1.682,0,0,0,1.464-.818,3.064,3.064,0,0,0,.545-2.145,6.745,6.745,0,0,1,1.655-3.727,6.264,6.264,0,0,1,2.727-2" transform="translate(-15.391 -4.958)" fill="#1580ab" fill-rule="evenodd"/>
    <path id="Path_607" data-name="Path 607" d="M198.65,96.2a2.927,2.927,0,0,0,.391,1.564,1.436,1.436,0,0,0,1.355.527,2.49,2.49,0,0,0,.7-.209,1.982,1.982,0,0,1-1.636-.455,3.345,3.345,0,0,1-.809-1.427" transform="translate(-15.363 -5.746)" fill="#fff" fill-rule="evenodd"/>
    <path id="Path_608" data-name="Path 608" d="M209.726,95.457a1.164,1.164,0,0,0,0,1.1c.509.636,1.445,0,1.445,0a1.382,1.382,0,0,1-1.2-.218,1.445,1.445,0,0,1-.291-.909" transform="translate(-16.357 -5.676)" fill="#fff" fill-rule="evenodd"/>
    <path id="Path_609" data-name="Path 609" d="M222.332,95.87a2.109,2.109,0,0,1-1,1.527,2.318,2.318,0,0,1-1.882-.191,2.864,2.864,0,0,0,1.691-.173,4.009,4.009,0,0,0,1.191-1.164" transform="translate(-17.254 -5.716)" fill="#fff" fill-rule="evenodd"/>
    <path id="Path_610" data-name="Path 610" d="M201.079,83.719a1.946,1.946,0,0,0-1.3.318,1.518,1.518,0,0,0-.373,1.364,4.864,4.864,0,0,0,.173.845c0-.791,0-1.873.909-2.209a2.909,2.909,0,0,1,1.136-.091Z" transform="translate(-15.429 -4.611)" fill="#fff" fill-rule="evenodd"/>
    <path id="Path_611" data-name="Path 611" d="M220.86,83.617a1.082,1.082,0,0,1,.964-.327c.664.073,1.182-.118,1.264-.755s-.8-1-1.536-.545-.691,1.627-.691,1.627" transform="translate(-17.382 -4.436)" fill="#06b4e4" fill-rule="evenodd"/>
    <path id="Path_612" data-name="Path 612" d="M220.9,83.585a1.118,1.118,0,0,1,.909-.282c.664.073,1.182-.127,1.264-.764a.618.618,0,0,0-.3-.6.627.627,0,0,1,.055.764c-.173.318-.509.4-1.155.427a.909.909,0,0,0-.791.455" transform="translate(-17.384 -4.45)" fill="#008abf" fill-rule="evenodd"/>
    <path id="Path_613" data-name="Path 613" d="M221.227,83.393a1.309,1.309,0,0,1,.6-.073c.664.073,1.182-.127,1.264-.764a.618.618,0,0,0-.118-.436.909.909,0,0,1-.082.773c-.255.391-.582.345-.973.364a2.218,2.218,0,0,0-.691.136m-.327.209Z" transform="translate(-17.386 -4.466)" fill="#1580ab" fill-rule="evenodd"/>
    <path id="Path_614" data-name="Path 614" d="M222.23,82a.654.654,0,0,1,.609.073.518.518,0,0,1,.109.691.718.718,0,0,0-.155-.518A.673.673,0,0,0,222.23,82" transform="translate(-17.507 -4.451)" fill="#fff" fill-rule="evenodd"/>
    <path id="Path_615" data-name="Path 615" d="M221.5,84.494a1.155,1.155,0,0,1,.982.555c.436.6.991.909,1.573.473s.236-1.4-.7-1.673a2.209,2.209,0,0,0-1.818.645" transform="translate(-17.44 -4.622)" fill="#06b4e4" fill-rule="evenodd"/>
    <path id="Path_616" data-name="Path 616" d="M221.568,84.547a1.255,1.255,0,0,1,.909.555c.436.609.982.909,1.573.482a.682.682,0,0,0,.273-.7.7.7,0,0,1-.591.618c-.391.091-.709-.127-1.218-.636a.964.964,0,0,0-.964-.318" transform="translate(-17.445 -4.685)" fill="#008abf" fill-rule="evenodd"/>
    <path id="Path_617" data-name="Path 617" d="M221.957,84.668a1.382,1.382,0,0,1,.5.445c.445.6.991.909,1.573.473a.645.645,0,0,0,.282-.427,1.073,1.073,0,0,1-.7.518c-.509.082-.718-.236-1.027-.536a2.364,2.364,0,0,0-.627-.473m-.427-.118Z" transform="translate(-17.443 -4.687)" fill="#1580ab" fill-rule="evenodd"/>
    <path id="Path_618" data-name="Path 618" d="M224.049,84.31a.745.745,0,0,1,.391.564c.055.4-.391.6-.5.609a.909.909,0,0,0,.318-.527.782.782,0,0,0-.209-.645" transform="translate(-17.662 -4.666)" fill="#fff" fill-rule="evenodd"/>
    <path id="Path_619" data-name="Path 619" d="M221.506,86.07a1.264,1.264,0,0,1,.418,1.127c-.064.791.191,1.4.909,1.473s1.155-.991.582-1.818a2.364,2.364,0,0,0-1.945-.755" transform="translate(-17.438 -4.826)" fill="#06b4e4" fill-rule="evenodd"/>
    <path id="Path_620" data-name="Path 620" d="M221.555,86.11a1.291,1.291,0,0,1,.373,1.091c-.055.791.191,1.4.909,1.473a.709.709,0,0,0,.7-.382.736.736,0,0,1-.909.091c-.373-.191-.482-.582-.545-1.345a1.036,1.036,0,0,0-.573-.909" transform="translate(-17.441 -4.829)" fill="#008abf" fill-rule="evenodd"/>
    <path id="Path_621" data-name="Path 621" d="M221.821,86.492a1.591,1.591,0,0,1,.109.709c-.064.791.191,1.4.909,1.473a.7.7,0,0,0,.518-.164,1.109,1.109,0,0,1-.909-.064c-.473-.282-.427-.682-.464-1.136a2.636,2.636,0,0,0-.191-.818m-.264-.382.055.055h0Z" transform="translate(-17.443 -4.829)" fill="#1580ab" fill-rule="evenodd"/>
    <path id="Path_622" data-name="Path 622" d="M223.662,87.63a.818.818,0,0,1-.064.727.645.645,0,0,1-.818.155.964.964,0,0,0,.609-.209.818.818,0,0,0,.273-.673" transform="translate(-17.557 -4.967)" fill="#fff" fill-rule="evenodd"/>
    <path id="Path_623" data-name="Path 623" d="M214.611,91.53a3.118,3.118,0,0,0-.973,1.955c-.082,1.182.173,1.491.173,1.491a8.336,8.336,0,0,1,.155-1.745,6.89,6.89,0,0,1,.609-1.7" transform="translate(-16.724 -5.322)" fill="#1580ab" fill-rule="evenodd"/>
    <path id="Path_624" data-name="Path 624" d="M204.9,91a3.246,3.246,0,0,0-1.027,2.055c-.082,1.245.173,1.573.173,1.573a10,10,0,0,1,.209-1.818,6.918,6.918,0,0,1,.645-1.818" transform="translate(-15.836 -5.273)" fill="#1580ab" fill-rule="evenodd"/>
    <path id="Path_625" data-name="Path 625" d="M150.414,33.945l-4.436,5.264,4.664,6.036L144.914,40.2l-5.536,4.091,4.436-5.264L139.15,32.99l5.718,5.036Z" transform="translate(-9.954)" fill="#06b4e4"/>
    <path id="Path_626" data-name="Path 626" d="M227.654,61.015,224.635,64.6l3.173,4.109-3.891-3.427-3.773,2.782,3.018-3.582L219.99,60.37l3.891,3.427Z" transform="translate(-17.303 -2.489)" fill="#06b4e4"/>
    <path id="Path_627" data-name="Path 627" d="M42.005,39.855l-4.864,5.773,5.118,6.609-6.273-5.518L29.915,51.2l4.855-5.773L29.66,38.81l6.273,5.527Z" transform="translate(0 -0.529)" fill="#06b4e4"/>
    <path id="Path_628" data-name="Path 628" d="M78.83,104.26h1.818c1.818,0,1.955.6,1.955,2.945v2.4c0,2.064-.373,2.727-2.136,2.727H78.83Zm1.118,7.127h.536c.818,0,.982-.436.982-1.818v-2.727c0-1.191-.127-1.591-1.073-1.591h-.445Z" transform="translate(-4.47 -6.479)" fill="#708094"/>
    <path id="Path_629" data-name="Path 629" d="M83.739,108.389a1.373,1.373,0,0,1,1.518-1.5c.845,0,1.536.355,1.536,1.391V110.1h-2v1.2c0,.518.173.664.509.664s.509-.273.509-.718v-.518h.982v.809c0,.573-.409,1.118-1.564,1.118a1.309,1.309,0,0,1-1.491-1.391Zm1.055.964h1v-1.091c0-.509-.145-.709-.509-.709s-.509.218-.509.618Z" transform="translate(-4.916 -6.717)" fill="#708094"/>
    <path id="Path_630" data-name="Path 630" d="M88.057,107.557H87.53v-.7h.527v-1.064l1.045-.364v1.427h.673v.736H89.13v3.636c0,.427.191.509.5.509a.982.982,0,0,0,.273,0v.736h-.682c-.836,0-1.136-.245-1.136-.755Z" transform="translate(-5.261 -6.586)" fill="#708094"/>
    <path id="Path_631" data-name="Path 631" d="M90.362,108.1c0-.818.5-1.209,1.491-1.209s1.491.373,1.491,1.355v4.318h-.982v-.582c-.127.118-.191.236-.309.345a1.064,1.064,0,0,1-.745.3c-.627,0-1.027-.191-1.027-1.527,0-1.127.091-1.391.382-1.691s.427-.345,1.627-.345v-.909c0-.327-.073-.536-.436-.536s-.445.118-.445.464v.518H90.362Zm1.591,1.7c-.491,0-.618.273-.618,1.155s.073.909.409.909.545-.264.545-.645v-1.445Z" transform="translate(-5.511 -6.718)" fill="#708094"/>
    <path id="Path_632" data-name="Path 632" d="M94.52,104.26h1.055v1.109H94.52Zm0,2.455h1.055v5.609H94.52Z" transform="translate(-5.896 -6.479)" fill="#708094"/>
    <path id="Path_633" data-name="Path 633" d="M96.59,104.26h1.045v8.064H96.59Z" transform="translate(-6.085 -6.479)" fill="#708094"/>
    <path id="Path_634" data-name="Path 634" d="M98.65,104.26H99.7v1.109H98.65Zm0,2.455H99.7v5.609H98.65Z" transform="translate(-6.272 -6.479)" fill="#708094"/>
    <path id="Path_635" data-name="Path 635" d="M100.678,106.994h.982v.464h0a1.1,1.1,0,0,1,.973-.527c.527,0,.982.273.982,1.1v4.545h-1.045V108.2c0-.291-.082-.5-.4-.5s-.464.155-.464.591v4.282H100.66Z" transform="translate(-6.455 -6.722)" fill="#708094"/>
    <path id="Path_636" data-name="Path 636" d="M104.862,113.072h1.027v.436c0,.327.1.482.391.482s.391-.164.391-.636v-1.4h0a1,1,0,0,1-.909.473c-.618,0-.982-.473-.982-1.3v-2.945c0-.827.364-1.291.982-1.291a1.045,1.045,0,0,1,.991.564h0v-.464h.955v6.155A1.364,1.364,0,0,1,106.2,114.7c-.764,0-1.373-.291-1.373-1.118Zm.909-2.191c0,.655.182.809.464.809s.418-.182.418-.591v-2.882c0-.391-.164-.591-.464-.591s-.418.109-.418.582Z" transform="translate(-6.829 -6.718)" fill="#708094"/>
    <path id="Path_637" data-name="Path 637" d="M116.152,109.933h0v-1.691h.909v1.618a2.782,2.782,0,0,1-.255,1.391l.491,1.073h-1.118l-.1-.236a2.2,2.2,0,0,1-1.127.3c-1.291,0-1.582-.745-1.582-2.064,0-.964.064-1.964.909-2.382a4.109,4.109,0,0,1-.6-2c0-1.109.573-1.682,1.418-1.682,1.009,0,1.427.591,1.427,1.527a2.955,2.955,0,0,1-1.164,2.3Zm-1.473-1.155a2.827,2.827,0,0,0-.2,1.464c0,.909.136,1.345.6,1.345a.791.791,0,0,0,.682-.291Zm0-2.891a3.173,3.173,0,0,0,.364,1.473,2.155,2.155,0,0,0,.609-1.527c0-.491-.164-.773-.482-.773s-.5.3-.5.827Z" transform="translate(-7.61 -6.479)" fill="#708094"/>
    <path id="Path_638" data-name="Path 638" d="M120.618,109.985h1.118v.655c0,.536.2.909.645.909.6,0,.745-.4.745-.909,0-.682,0-.909-1.2-2.055a3.327,3.327,0,0,1-1.309-2.455c0-1.318.618-1.891,1.818-1.891a1.918,1.918,0,0,1,1.309.445,1.309,1.309,0,0,1,.318,1.027v.764h-1.045v-.636c0-.464-.191-.727-.627-.727s-.673.255-.673.909.109.909,1.145,1.955,1.291,1.527,1.291,2.5c0,1.264-.491,1.991-1.818,1.991-1.027,0-1.736-.436-1.736-1.436Z" transform="translate(-8.267 -6.477)" fill="#708094"/>
    <path id="Path_639" data-name="Path 639" d="M125.437,107.557h-.527v-.7h.527v-1.064l1.045-.364v1.427h.655v.736h-.655v3.636c0,.427.191.509.509.509a.909.909,0,0,0,.264,0v.736h-.682c-.836,0-1.136-.245-1.136-.755Z" transform="translate(-8.659 -6.586)" fill="#708094"/>
    <path id="Path_640" data-name="Path 640" d="M127.729,108.389a1.373,1.373,0,0,1,1.518-1.5c.836,0,1.527.355,1.527,1.391V110.1h-2v1.2c0,.518.182.664.518.664s.5-.273.5-.718v-.518h.982v.809c0,.573-.4,1.118-1.564,1.118a1.3,1.3,0,0,1-1.482-1.391Zm1.045.964h1.018v-1.091c0-.509-.145-.709-.5-.709s-.518.218-.518.618Z" transform="translate(-8.915 -6.717)" fill="#708094"/>
    <path id="Path_641" data-name="Path 641" d="M131.868,106.994H132.9v.582h0c.245-.527.427-.645.909-.645v.973c-.527,0-.909.145-.909.727v3.9H131.85Z" transform="translate(-9.29 -6.722)" fill="#708094"/>
    <path id="Path_642" data-name="Path 642" d="M134.41,104.26h1.055v1.109H134.41Zm0,2.455h1.055v5.609H134.41Z" transform="translate(-9.523 -6.479)" fill="#708094"/>
    <path id="Path_643" data-name="Path 643" d="M136.48,104.26h1.045v8.064H136.48Z" transform="translate(-9.711 -6.479)" fill="#708094"/>
    <path id="Path_644" data-name="Path 644" d="M138.54,104.26h1.055v1.109H138.54Zm0,2.455h1.055v5.609H138.54Z" transform="translate(-9.898 -6.479)" fill="#708094"/>
    <path id="Path_645" data-name="Path 645" d="M140.29,111.545l1.464-3.791H140.29V107h2.464v.909l-1.509,3.882h1.509v.809h-2.445Z" transform="translate(-10.057 -6.728)" fill="#708094"/>
    <path id="Path_646" data-name="Path 646" d="M143.5,108.1c0-.818.5-1.209,1.491-1.209s1.491.373,1.491,1.355v4.318H145.5v-.582c-.127.118-.191.236-.309.345a1.073,1.073,0,0,1-.745.3c-.627,0-1.027-.191-1.027-1.527,0-1.127.091-1.391.382-1.691s.418-.345,1.627-.345v-.909c0-.327-.073-.536-.436-.536s-.445.118-.445.464v.518H143.5Zm1.591,1.7c-.491,0-.627.273-.627,1.155s.082.909.418.909.545-.264.545-.645v-1.445Z" transform="translate(-10.342 -6.718)" fill="#708094"/>
    <path id="Path_647" data-name="Path 647" d="M147.788,107.557h-.518v-.7h.518v-1.064l1.055-.364v1.427h.645v.736h-.645v3.636c0,.427.191.509.5.509a.982.982,0,0,0,.273,0v.736h-.682c-.836,0-1.145-.245-1.145-.755Z" transform="translate(-10.692 -6.586)" fill="#708094"/>
    <path id="Path_648" data-name="Path 648" d="M150.17,104.26h1.045v1.109H150.17Zm0,2.455h1.045v5.609H150.17Z" transform="translate(-10.956 -6.479)" fill="#708094"/>
    <path id="Path_649" data-name="Path 649" d="M152.179,108.389a1.364,1.364,0,0,1,1.491-1.5,1.309,1.309,0,0,1,1.491,1.391v2.836a1.364,1.364,0,0,1-1.482,1.509c-.809,0-1.5-.355-1.5-1.391Zm1.055,2.8c0,.445.109.7.445.7s.436-.255.436-.7v-2.864c0-.445-.109-.7-.436-.7s-.445.255-.445.7Z" transform="translate(-11.138 -6.717)" fill="#708094"/>
    <path id="Path_650" data-name="Path 650" d="M156.288,106.994h.982v.464h0a1.1,1.1,0,0,1,.973-.527c.527,0,.982.273.982,1.1v4.545h-1.045V108.2c0-.291-.082-.5-.4-.5s-.464.155-.464.591v4.282H156.27Z" transform="translate(-11.51 -6.722)" fill="#708094"/>
    <path id="Path_651" data-name="Path 651" d="M162.7,104.26h3v.909h-1.918v2.518H165.6v.909h-1.818v2.727H165.7v.909h-3Z" transform="translate(-12.095 -6.479)" fill="#708094"/>
    <path id="Path_652" data-name="Path 652" d="M167.3,109.609,166.218,107h1.164l.545,1.718h0l.636-1.718h.991l-1.091,2.727,1.191,2.827h-1.145l-.682-1.918h0l-.673,1.982H166.1Z" transform="translate(-12.404 -6.728)" fill="#708094"/>
    <path id="Path_653" data-name="Path 653" d="M170.39,106.994h.991v.627h0a.991.991,0,0,1,.991-.691c.618,0,.991.464.991,1.291v3.155c0,.827-.373,1.291-.991,1.291a1.327,1.327,0,0,1-.909-.382v2.345h-1.055Zm1.055,4.345c0,.409.209.591.427.591s.455-.155.455-.8v-2.636c0-.609-.164-.764-.4-.764s-.482.227-.482.909Z" transform="translate(-12.794 -6.722)" fill="#708094"/>
    <path id="Path_654" data-name="Path 654" d="M174.449,108.389a1.373,1.373,0,0,1,1.518-1.5c.836,0,1.536.355,1.536,1.391V110.1h-2v1.2c0,.518.173.664.509.664s.5-.273.5-.718v-.518h.991v.809c0,.573-.409,1.118-1.573,1.118a1.3,1.3,0,0,1-1.482-1.391Zm1.055.964h1.009v-1.091c0-.509-.145-.709-.5-.709s-.509.218-.509.618Z" transform="translate(-13.162 -6.717)" fill="#708094"/>
    <path id="Path_655" data-name="Path 655" d="M178.583,106.994h.982v.582h0c.245-.527.418-.645.909-.645v.973c-.527,0-.909.145-.909.727v3.9H178.51Z" transform="translate(-13.532 -6.722)" fill="#708094"/>
    <path id="Path_656" data-name="Path 656" d="M181.267,107.557h-.527v-.7h.527v-1.064l1.055-.364v1.427h.645v.736h-.645v3.636c0,.427.182.509.5.509a.909.909,0,0,0,.264,0v.736H182.4c-.836,0-1.136-.245-1.136-.755Z" transform="translate(-13.735 -6.586)" fill="#708094"/>
    <path id="Path_657" data-name="Path 657" d="M226,87.33h1.727v.427h-.609v3.255h-.509V87.757H226Z" transform="translate(-17.849 -4.94)" fill="#708094"/>
    <path id="Path_658" data-name="Path 658" d="M228.12,87.33h.8l.473,2.8h0l.473-2.8h.791v3.636h-.482V87.7h0l-.518,3.309h-.509l-.573-3.309h0v3.309h-.455Z" transform="translate(-18.042 -4.94)" fill="#708094"/>
  </g>
</svg>
