<svg id="Clients-12" xmlns="http://www.w3.org/2000/svg" width="54.203" height="86" viewBox="0 0 54.203 86">
  <path id="Path_832" data-name="Path 832" d="M142.709,36.542l-.331,1.338-3.558,14.69h-32.71L102.684,38.4l-.464-1.9s.559.543,1.449,1.33c2.511,2.228,7.644,6.393,10.234,5.723s6.109-7.085,7.7-10.313c.527-1.063.842-1.763.842-1.763s.323.7.85,1.763c1.575,3.149,5.086,9.644,7.691,10.313,2.74.7,8.227-3.889,10.589-6.023h0c.685-.622,1.11-1.031,1.11-1.031" transform="translate(-95.08 -22.844)" fill="#fcd600"/>
  <rect id="Rectangle_36" data-name="Rectangle 36" width="32.451" height="1.464" transform="translate(11.179 31.545)" fill="#fcd600"/>
  <rect id="Rectangle_37" data-name="Rectangle 37" width="32.451" height="1.464" transform="translate(11.179 55.706)" fill="#fcd600"/>
  <path id="Path_833" data-name="Path 833" d="M129.384,31a1.992,1.992,0,1,1-1.992-1.952A1.968,1.968,0,0,1,129.384,31" transform="translate(-100.011 -22.327)" fill="#fcd600"/>
  <path id="Path_834" data-name="Path 834" d="M155.094,36.632A1.992,1.992,0,1,1,153.1,34.68a1.992,1.992,0,0,1,1.992,1.952" transform="translate(-105.481 -23.525)" fill="#fcd600"/>
  <path id="Path_835" data-name="Path 835" d="M103.674,37.38a1.992,1.992,0,1,1-1.992-1.96,1.968,1.968,0,0,1,1.992,1.96" transform="translate(-94.541 -23.682)" fill="#fcd600"/>
  <path id="Path_836" data-name="Path 836" d="M125.852,106.822v.165h0v.394a.678.678,0,0,1,0,.126v.512a.742.742,0,0,1,0,.126.975.975,0,0,1,0,.126v.118a.591.591,0,0,0-.039.126l-.047.118-.047.118-.047.118-.047.118a.48.48,0,0,0-.055.11.137.137,0,0,1-.055.11.857.857,0,0,0-.063.118l-.063.1-.071.11a.786.786,0,0,1-.063.11l-.071.1a1.159,1.159,0,0,1-.079.1l-.071.1-.087.1-.079.094-.087.094-.087.094-.087.094-.094.094-.087.087-.1.087-.094.079-.1.087h0l-.1.079-.1.079-.11.071h0l-.11.071-.11.071-.11.071-.11.063-.118.063h0l-.118.063-.118.055-.126.055-.118.055-.126.055-.126.047h-.386l-.134.039h-3.062l-.134-.039h-.386l-.126-.047-.126-.055-.118-.055-.126-.055-.118-.055-.118-.063-.118-.063-.11-.063-.118-.071-.11-.071-.1-.071-.11-.071-.1-.079-.1-.079-.1-.087h0l-.094-.079-.1-.087-.094-.087-.087-.094-.087-.094-.087-.094-.087-.094-.087-.094a.889.889,0,0,0-.079-.1l-.071-.1a.5.5,0,0,1-.079-.1l-.071-.1-.071-.11-.063-.11-.063-.1-.063-.118a.146.146,0,0,0-.055-.11l-.055-.11-.047-.118-.055-.118v-.118l-.047-.118a.589.589,0,0,0-.039-.126v-.118a.98.98,0,0,1,0-.126.741.741,0,0,1,0-.126v-.126a.692.692,0,0,1,0-.126v-.386a.79.79,0,0,0,0-.134v-.126a.787.787,0,0,1,0-.134.6.6,0,0,1,0-.118v-.142a.56.56,0,0,0,0-.11h0a.387.387,0,0,1,0-.094h0v-.11h0v-.094h0a.536.536,0,0,1,0-.11h0a.282.282,0,0,1,0-.087h0v-.11h0v-.094h0a.447.447,0,0,1,0-.11h0v-.1h0l.079-.213h0l.094-.213h0l.047-.094h0l.055-.1h0l.055-.1h0l.063-.1h0l.063-.094h0l.134-.2h0l.142-.2h0l.157-.189h0l.165-.181h0l.173-.173h0a5.606,5.606,0,0,1,1.33-.953,5.912,5.912,0,0,1,2.669-.653,3.709,3.709,0,0,1,.929-.213h1.575l.2.079h.26l.087.047h0l.087.055h0l.087.055h0a.323.323,0,0,0,.087.055h0l.079.055h0l.079.055h0l.079.055h0l.079.063h0l.165.142h0l.079.071h0l.071.071h0l.055.047h0l.071.071h0l.063.079h0l.071.079h0l.063.079h0a.6.6,0,0,1,.063.087h0l.063.079h0a.678.678,0,0,1,.055.079h0a.479.479,0,0,1,.055.079h0l.055.087h0l.055.087h0l.047.087h0l.047.094h0l.047.094h0l.039.094h0l.047.094h0a.291.291,0,0,0,.039.087h0v.094h0v.094h0a.885.885,0,0,1,.039.1h0v.094h0a.4.4,0,0,1,0,.1h0v.1h0v.1h0v.1h0v.1h0v.11h0v.118h0v.118h0v.11h0v.11h0v.11h0v.236h0v.126h0a1.167,1.167,0,0,0,0,.165" transform="translate(-97.825 -37.851)" fill="#eb2027" fill-rule="evenodd"/>
  <path id="Path_837" data-name="Path 837" d="M123.5,107.1a2.055,2.055,0,1,0-1.866-2.039A1.96,1.96,0,0,0,123.5,107.1" transform="translate(-99.208 -38.059)" fill="#ed6a50" fill-rule="evenodd"/>
  <path id="Path_838" data-name="Path 838" d="M138.734,104.709a2.251,2.251,0,0,0-.787-1.645,2.362,2.362,0,0,0-1.512-.268,3.606,3.606,0,0,0-.6-.622,2.189,2.189,0,0,0-2.614.26,2.2,2.2,0,0,0-2.622-.26,3.607,3.607,0,0,0-.6.622,2.362,2.362,0,0,0-1.512.268,2.251,2.251,0,0,0-.787,1.645,13.871,13.871,0,0,0,1.086,6.148,1.354,1.354,0,0,0,1.929.724,1.378,1.378,0,0,0,.787.929,5.291,5.291,0,0,0,1.669,0h0a5.292,5.292,0,0,0,1.669,0,1.378,1.378,0,0,0,.787-.929,1.354,1.354,0,0,0,1.929-.724,13.872,13.872,0,0,0,1.086-6.148" transform="translate(-100.497 -37.816)" fill="#e7c01f"/>
  <path id="Path_839" data-name="Path 839" d="M130.754,111.821c-.677-3.4-.693-6.589-.142-7.495a1.055,1.055,0,0,0,.157-1.008v-.15l-.7-.189-.055.063a2.362,2.362,0,0,0-1.512.276,2.236,2.236,0,0,0-.787,1.637A13.855,13.855,0,0,0,128.8,111.1a1.354,1.354,0,0,0,1.929.724" transform="translate(-100.499 -38.055)" fill="#d5b22b"/>
  <path id="Path_840" data-name="Path 840" d="M138.162,103.083a2.362,2.362,0,0,0-1.512-.276,3.393,3.393,0,0,0-.6-.614,2.2,2.2,0,0,0-2.622.252,2.189,2.189,0,0,0-2.614-.252,3.392,3.392,0,0,0-.6.614,2.362,2.362,0,0,0-1.512.276l-.087.079a2.944,2.944,0,0,1,2.189.929s.575-.842,2.008-.37a2.3,2.3,0,0,0,1.22.063,1.708,1.708,0,0,1,2.189.89c.315.622.307,4.212-.307,6.912a1.354,1.354,0,0,0,1.929-.724,13.856,13.856,0,0,0,1.086-6.141,2.236,2.236,0,0,0-.787-1.637" transform="translate(-100.696 -37.82)" fill="#bc912e"/>
  <path id="Path_841" data-name="Path 841" d="M133.783,106.264a.882.882,0,1,1-.882-.874.882.882,0,0,1,.882.874" transform="translate(-101.419 -38.568)" fill="#fdf28a"/>
  <path id="Path_842" data-name="Path 842" d="M133.987,101.469a2.456,2.456,0,0,1-.567,1.5,3.211,3.211,0,0,1,.417.1,2.3,2.3,0,0,0,1.22.063,3.146,3.146,0,0,1,.417-.079,9.181,9.181,0,0,1-.417-1.2,3.656,3.656,0,0,1-.087-.4,1.96,1.96,0,0,1,.677-1.811,1.055,1.055,0,0,0-1.5-.732,5.29,5.29,0,0,0-.157,2.031,3.936,3.936,0,0,1,0,.527" transform="translate(-101.717 -37.166)" fill="#088744"/>
  <path id="Path_843" data-name="Path 843" d="M135.81,99.6h0v-.079h0v-.063h0l-.047-.063h0l-.063-.071h0l-.055-.047h-.055l-.142-.063h-.189a.961.961,0,0,0-.213,0h0c.685.2.276.787.094,1.889a5.258,5.258,0,0,0-.055.913,1.866,1.866,0,0,1-.646,1.48,2.362,2.362,0,0,0,1.142,0,3.148,3.148,0,0,1,.417-.079h0v-.063h0a.388.388,0,0,0,0-.087v-.2a.161.161,0,0,0-.039-.1v-.252a.854.854,0,0,1-.039-.134v-.063a.311.311,0,0,0-.055-.213,3.663,3.663,0,0,1-.087-.4,2.071,2.071,0,0,1,.079-.929.956.956,0,0,1,0-.11,1.772,1.772,0,0,1,.181-.339l.079-.11a2.74,2.74,0,0,1,.3-.323l-.055-.126" transform="translate(-101.934 -37.253)" fill="#047d3f"/>
  <path id="Path_844" data-name="Path 844" d="M147.513,100.3a.472.472,0,0,0,.551-.551.394.394,0,0,0,.354-.63.37.37,0,0,0,.22-.669.465.465,0,0,0,0-.575c-.252-.339-.63-.055-.63-.055a.457.457,0,0,0-.882.157c-.59-.22-.866.5-.575.693-.677.126-.543.677-.307.85-.6.2-.173.646-.071.89a1.031,1.031,0,0,1,.047.425c0,.354.3.4.48.134s.787-.2.787-.669" transform="translate(-104.379 -36.896)" fill="#088744"/>
  <path id="Path_845" data-name="Path 845" d="M147.806,98.66s-.929.614-2.275,4.1c-.094.236,0,.3-.063.48s.2.291.236.213c.165-.472.6-1.811.905-2.417.787-1.574,1.2-2.362,1.2-2.362" transform="translate(-104.278 -37.136)" fill="#047d3f"/>
  <path id="Path_846" data-name="Path 846" d="M148.164,102.3a.433.433,0,0,0,.669-.244.37.37,0,0,0,.551-.394c.181.15.669-.11.449-.472a.425.425,0,0,0,.252-.464c-.079-.386-.5-.291-.5-.291a.425.425,0,0,0-.787-.213c-.4-.417-.913.079-.787.354-.614-.157-.708.354-.583.59-.583-.063-.4.472-.409.716a.842.842,0,0,1-.126.37c-.142.291.094.449.346.3s.74.15.905-.252" transform="translate(-104.573 -37.426)" fill="#34a348"/>
  <path id="Path_847" data-name="Path 847" d="M149.074,101.11a9.021,9.021,0,0,0-3.149,2.189c-.165.173-.15.331-.268.464a.071.071,0,0,0,.1.094c.323-.339.559-.551,1.039-.976a18.761,18.761,0,0,1,2.283-1.771" transform="translate(-104.318 -37.657)" fill="#088744"/>
  <path id="Path_848" data-name="Path 848" d="M144.564,100.728a.409.409,0,0,1-.244-.646.354.354,0,0,1-.055-.646.331.331,0,0,1,.063-.63.425.425,0,0,1,.181-.488.4.4,0,0,1,.535.189.409.409,0,0,1,.661.457c.567,0,.52.724.213.787.5.354.189.787-.063.787.409.394-.1.59-.276.787a.787.787,0,0,0-.2.323c-.126.291-.394.213-.441-.071s-.575-.449-.378-.787" transform="translate(-103.981 -37.055)" fill="#34a348"/>
  <path id="Path_849" data-name="Path 849" d="M145.106,99.19a8.07,8.07,0,0,1,.346,3.566,4.735,4.735,0,0,1-.071.653c-.024.165-.386,0-.362-.047a5.646,5.646,0,0,0,.189-1.456,19.762,19.762,0,0,0-.1-2.716" transform="translate(-104.185 -37.249)" fill="#088744"/>
  <path id="Path_850" data-name="Path 850" d="M143.6,103.308c-2.527-.787-5.2-.15-5.944,3.2-.378,1.677.614,2.929,1.37,4.291.331.606.724,1.519,1.393,1.819s1.575-.079,2.252-.244A8.289,8.289,0,0,0,146.1,110.8a4.251,4.251,0,0,0,1.362-4.133c-.433-1.842-2.165-2.881-3.865-3.393" transform="translate(-102.601 -38.06)" fill="#9c2063"/>
  <path id="Path_851" data-name="Path 851" d="M144.445,111.219c-.394-.236-.252-1.094-.6-1.33s-1.3.315-1.748.48a1.183,1.183,0,0,1-1.33-.882c-.236-.669-.409-.874-.921-.787s-.646.5-1.118.417-.622-.614-1.071-.787h-.079a7.488,7.488,0,0,0,1.449,3.6c.331.606.724,1.519,1.393,1.819s1.575-.079,2.252-.244a8.746,8.746,0,0,0,3.212-1.37c0-.236.165-.5.134-.74-.087-.638-1.181,0-1.575-.2" transform="translate(-102.602 -39.193)" fill="#dda2bd"/>
  <path id="Path_852" data-name="Path 852" d="M145.844,109.626l-.173.2a.559.559,0,0,0,.213.268c.394.236,1.488-.433,1.574.2,0,.244-.15.5-.134.74a6.739,6.739,0,0,1-1.126.669,6.055,6.055,0,0,0,1.346-.842,4.251,4.251,0,0,0,1.362-4.133c-.433-1.842-2.165-2.881-3.865-3.393a7,7,0,0,0-.7-.173,4.174,4.174,0,0,1,1.5,6.455" transform="translate(-104.04 -38.095)" fill="#60164c"/>
  <path id="Path_853" data-name="Path 853" d="M146.046,114.26c-.126.047-.252.1-.386.142a1.205,1.205,0,0,0,.386-.142" transform="translate(-104.321 -40.455)" fill="#ab3f76"/>
  <path id="Path_854" data-name="Path 854" d="M144.86,114.68l-.26.071.26-.071" transform="translate(-104.096 -40.544)" fill="#ab3f76"/>
  <path id="Path_855" data-name="Path 855" d="M145.476,114.47l-.346.118.346-.118" transform="translate(-104.208 -40.499)" fill="#ab3f76"/>
  <path id="Path_856" data-name="Path 856" d="M146.581,114c-.134.063-.268.126-.4.173.134-.047.268-.11.4-.173" transform="translate(-104.432 -40.399)" fill="#ab3f76"/>
  <path id="Path_857" data-name="Path 857" d="M145.641,114.44h0" transform="translate(-104.302 -40.493)" fill="#e29fba"/>
  <path id="Path_858" data-name="Path 858" d="M146.69,114.028l.008-.008-.008.008" transform="translate(-104.54 -40.404)" fill="#e29fba"/>
  <path id="Path_859" data-name="Path 859" d="M146.181,114.24l-.031.016.031-.016" transform="translate(-104.425 -40.45)" fill="#e29fba"/>
  <path id="Path_860" data-name="Path 860" d="M139.358,112.8c-.079-.134-.15-.268-.228-.394.079.126.15.26.228.394" transform="translate(-102.932 -40.061)" fill="#e29fba"/>
  <path id="Path_861" data-name="Path 861" d="M144.483,114.77l-.433.11.433-.11" transform="translate(-103.979 -40.563)" fill="#e29fba"/>
  <path id="Path_862" data-name="Path 862" d="M145.087,114.62l-.157.047.157-.047" transform="translate(-104.166 -40.531)" fill="#e29fba"/>
  <path id="Path_863" data-name="Path 863" d="M146.277,112.842c0-.236.165-.5.134-.74-.087-.638-1.181,0-1.574-.2a.606.606,0,0,1-.213-.268c-1.866,2.244-3.393,2.511-5.2,1.008.331.606.724,1.519,1.393,1.819s1.575-.079,2.252-.244l.433-.11.26-.071.157-.047.346-.118h.071l.386-.142h0c.134-.047.268-.11.4-.173h0a6.738,6.738,0,0,0,1.126-.669" transform="translate(-102.994 -39.895)" fill="#c994ad"/>
  <path id="Path_864" data-name="Path 864" d="M141.807,105.941a.945.945,0,1,1-.52-1.22.945.945,0,0,1,.52,1.22" transform="translate(-103.114 -38.41)" fill="#bd4e87"/>
  <path id="Path_865" data-name="Path 865" d="M116.66,102.261a4.246,4.246,0,0,1,3.2-1.669c0-.638.362-1.275,0-1.913l.992-.189c.2.646-.339,1.283-.512,1.929a3.464,3.464,0,0,1,3.566.716l-.087-.047h0l-.087-.047h0l-.094-.047h0l-.087-.039h-.087l-.2-.079H121.62a4.219,4.219,0,0,0-.945.213,6.2,6.2,0,0,0-2.74.677,5.7,5.7,0,0,0-1.142.787" transform="translate(-98.152 -37.1)" fill="#00a54f" fill-rule="evenodd"/>
  <path id="Path_866" data-name="Path 866" d="M117.212,113.344c0-.48-.464-3.936-.457-3.936l-.606.488.512-.96h0a16.133,16.133,0,0,0-.583-2.063h0l-.968.787.228-.346h.079l.535-.787a12.32,12.32,0,0,0-.96-1.905L113.284,106l1.441-1.779a6.393,6.393,0,0,0-1.8-1.74l-1.748,1.409,1.22-1.693.26.134a4.723,4.723,0,0,0-1.157-.472.5.5,0,0,0-.409.11l-2.047,1.575a.653.653,0,0,0-.213.394,6.755,6.755,0,0,0,.417,2.677l2.307-1.149-2.086,1.677a6.685,6.685,0,0,0,.535.953c.157.22.315.441.48.653h0v.3l.157-.063h0l.071.079,1.039-.512.646-.236-1.37,1.1a13.06,13.06,0,0,0,1.464,1.323l1.33-.52-.976.787a17.707,17.707,0,0,0,1.748,1.094l.866-.15-.457.37c.693.362,1.417.693,2.181,1M112.7,102.354h-.039Zm-.039,0h0" transform="translate(-96.484 -37.815)" fill="#f48120" fill-rule="evenodd"/>
  <path id="Path_867" data-name="Path 867" d="M107.513,101.916l-3.543-1.756L104.088,99l2.488.976-2.385-2.008.417-.937,3.031,2.543-1.338-3.9.953-.165,1.055,3.086-.126-2.889,1.055.22.5,4.212-1.11.89Z" transform="translate(-95.452 -36.464)" fill="#00a54f" fill-rule="evenodd"/>
  <path id="Path_868" data-name="Path 868" d="M105.07,109.18l.6,7.29H109.5v-1.079h28.16v1.079h4.2l.606-7.29Z" transform="translate(-95.686 -39.374)" fill="#02ac5d"/>
  <path id="Path_869" data-name="Path 869" d="M117.1,111.828l-.905,2.275h-.677l-.9-2.275h.638l.551,1.575a1.046,1.046,0,0,1,.055.228h0a1.778,1.778,0,0,1,.063-.236l.543-1.575Z" transform="translate(-97.718 -39.936)" fill="#fff"/>
  <path id="Path_870" data-name="Path 870" d="M119.752,114.105H118.17V111.83H119.7v.417h-.929v.5h.858v.417h-.858v.52h.984Z" transform="translate(-98.473 -39.938)" fill="#fff"/>
  <path id="Path_871" data-name="Path 871" d="M122.84,113.944a2.172,2.172,0,0,1-.96.189,1.5,1.5,0,0,1-1-.307,1.023,1.023,0,0,1-.37-.835,1.086,1.086,0,0,1,.4-.874,1.574,1.574,0,0,1,1.063-.339,2.361,2.361,0,0,1,.74.1v.48a1.574,1.574,0,0,0-.74-.157.866.866,0,0,0-.606.213.739.739,0,0,0,.567,1.283,1,1,0,0,0,.339-.047V113.2h-.527v-.409h1.118Z" transform="translate(-98.97 -39.926)" fill="#fff"/>
  <path id="Path_872" data-name="Path 872" d="M125.7,114.105H124.12V111.83h1.527v.417h-.929v.5h.858v.417h-.858v.52h.984Z" transform="translate(-99.739 -39.938)" fill="#fff"/>
  <path id="Path_873" data-name="Path 873" d="M128.454,112.247h-.748v1.858h-.6v-1.858h-.748v-.417h2.094Z" transform="translate(-100.215 -39.938)" fill="#fff"/>
  <path id="Path_874" data-name="Path 874" d="M131.716,114.105h-.646l-.189-.5h-.937l-.189.5h-.646l.96-2.275h.709Zm-.968-.9-.283-.787a.718.718,0,0,1-.047-.2h0a.962.962,0,0,1-.047.2l-.283.787Z" transform="translate(-100.8 -39.938)" fill="#fff"/>
  <path id="Path_875" data-name="Path 875" d="M132.84,114.1V111.83h.96a1.433,1.433,0,0,1,.677.134.441.441,0,0,1,.236.4.417.417,0,0,1-.142.315.787.787,0,0,1-.37.2h0a.787.787,0,0,1,.449.173.5.5,0,0,1,.173.37.583.583,0,0,1-.26.5,1.244,1.244,0,0,1-.708.181Zm.59-1.9v.543h.268a.5.5,0,0,0,.283-.071.26.26,0,0,0,.11-.213c0-.173-.15-.252-.433-.252Zm0,.921v.6h.323a.543.543,0,0,0,.323-.079.268.268,0,0,0,.118-.228.244.244,0,0,0-.11-.213.559.559,0,0,0-.323-.079Z" transform="translate(-101.594 -39.937)" fill="#fff"/>
  <path id="Path_876" data-name="Path 876" d="M137.477,114.105H135.91V111.83h.59v1.858h.976Z" transform="translate(-102.247 -39.938)" fill="#fff"/>
  <path id="Path_877" data-name="Path 877" d="M139.932,114.105H138.35V111.83h1.527v.417h-.929v.5h.866v.417h-.866v.52h.984Z" transform="translate(-102.766 -39.938)" fill="#fff"/>
  <path id="Path_878" data-name="Path 878" d="M140.737,114.029v-.48a.961.961,0,0,0,.346.173,1.268,1.268,0,0,0,.378.063h.2a.59.59,0,0,0,.142-.055.173.173,0,0,0,.079-.071.118.118,0,0,0,0-.087.2.2,0,0,0-.047-.126l-.118-.094-.181-.087-.228-.079a1.134,1.134,0,0,1-.457-.276.551.551,0,0,1-.157-.386.559.559,0,0,1,.087-.307.638.638,0,0,1,.22-.213,1.181,1.181,0,0,1,.331-.118,2.172,2.172,0,0,1,.4,0,2.46,2.46,0,0,1,.362,0,1.188,1.188,0,0,1,.3.063v.472l-.15-.071-.157-.047h-.5l-.142.047a.276.276,0,0,0-.087.071.149.149,0,0,0,0,.094.142.142,0,0,0,0,.1.283.283,0,0,0,.1.087.59.59,0,0,0,.157.079,1.778,1.778,0,0,0,.2.087,1.921,1.921,0,0,1,.283.118,1.181,1.181,0,0,1,.22.142.638.638,0,0,1,.134.189.591.591,0,0,1,.047.244.567.567,0,0,1-.079.315.661.661,0,0,1-.228.213,1.071,1.071,0,0,1-.339.118,2.192,2.192,0,0,1-.4,0,2.281,2.281,0,0,1-.409,0A1.576,1.576,0,0,1,140.737,114.029Z" transform="translate(-103.264 -39.948)" fill="#fff"/>
  <path id="Path_879" data-name="Path 879" d="M135.827,105.471v-1.031H104.652A9.447,9.447,0,0,1,95.2,94.992V32.012a9.445,9.445,0,0,1,9.439-9.439h31.175a9.447,9.447,0,0,1,9.447,9.447V95a9.447,9.447,0,0,1-9.447,9.447v2.063A11.486,11.486,0,0,0,147.353,95V32.02a11.5,11.5,0,0,0-11.5-11.51H104.675A11.5,11.5,0,0,0,93.15,32h0v62.98h0a11.489,11.489,0,0,0,11.5,11.5h31.175Z" transform="translate(-93.15 -20.51)" fill="#00a54f"/>
  <path id="Path_880" data-name="Path 880" d="M115.1,67.08l.11,5.164h-.417a5.566,5.566,0,0,0-1.441-3.149,3.424,3.424,0,0,0-2.488-1.181,2.157,2.157,0,0,0-1.622.677,2.007,2.007,0,0,0-.606,1.433,1.882,1.882,0,0,0,.213.913,3.74,3.74,0,0,0,.945,1.071,20.9,20.9,0,0,0,2.2,1.338,9.888,9.888,0,0,1,3.251,2.527,4.865,4.865,0,0,1-.512,6.062,4.511,4.511,0,0,1-3.409,1.4,4.772,4.772,0,0,1-1.228-.15,8.093,8.093,0,0,1-1.449-.559,2.031,2.031,0,0,0-.787-.228.953.953,0,0,0-.559.228,1.575,1.575,0,0,0-.472.7h-.378V77.44h.378a6.991,6.991,0,0,0,1.7,3.747,3.779,3.779,0,0,0,2.732,1.3,2.409,2.409,0,0,0,1.811-.7,2.267,2.267,0,0,0,.677-1.622,2.306,2.306,0,0,0-.26-1.063,3.307,3.307,0,0,0-.787-.984,11.328,11.328,0,0,0-1.882-1.181,16.124,16.124,0,0,1-2.692-1.771,5.408,5.408,0,0,1-1.26-1.638,4.723,4.723,0,0,1,.787-5.149,3.936,3.936,0,0,1,3.039-1.3,4.723,4.723,0,0,1,1.3.181,6.093,6.093,0,0,1,1.189.543,2.551,2.551,0,0,0,.96.37.512.512,0,0,0,.409-.181,2.275,2.275,0,0,0,.283-.882Z" transform="translate(-95.975 -30.417)" fill="#d73a3a"/>
  <path id="Path_881" data-name="Path 881" d="M124.59,68.417v6.3h.276a2.055,2.055,0,0,0,1.889-.929,6.1,6.1,0,0,0,.748-2.732h.386V79.2H127.5a6.6,6.6,0,0,0-.5-2.173,2.409,2.409,0,0,0-.913-1.142,3.047,3.047,0,0,0-1.5-.291v4.369a7.18,7.18,0,0,0,.094,1.575.961.961,0,0,0,.362.472,1.575,1.575,0,0,0,.85.181h.787a4.55,4.55,0,0,0,3.086-1.008,5.755,5.755,0,0,0,1.708-3.047h.378l-.622,4.928H119.37v-.425h.5a1.732,1.732,0,0,0,.96-.236,1.015,1.015,0,0,0,.409-.551,5.447,5.447,0,0,0,.11-1.441V70.173a8.045,8.045,0,0,0-.055-1.291,1.11,1.11,0,0,0-.37-.622,1.574,1.574,0,0,0-1.055-.315h-.457V67.52h11.478V72.1H130.5a6.03,6.03,0,0,0-.787-2.409,3.031,3.031,0,0,0-1.5-1.079,7.376,7.376,0,0,0-2.126-.2Z" transform="translate(-98.728 -30.511)" fill="#d73a3a"/>
  <path id="Path_882" data-name="Path 882" d="M145.6,67.073l.11,5.164h-.417a5.511,5.511,0,0,0-1.441-3.149,3.425,3.425,0,0,0-2.488-1.181,2.157,2.157,0,0,0-1.63.622,2.008,2.008,0,0,0-.606,1.433,1.881,1.881,0,0,0,.213.913,3.74,3.74,0,0,0,.945,1.071,20.9,20.9,0,0,0,2.212,1.362,9.809,9.809,0,0,1,3.251,2.527,4.865,4.865,0,0,1-.512,6.062,4.511,4.511,0,0,1-3.409,1.4,4.771,4.771,0,0,1-1.228-.15,8.054,8.054,0,0,1-1.441-.559,2.062,2.062,0,0,0-.787-.228.953.953,0,0,0-.559.228,1.574,1.574,0,0,0-.472.7h-.378V77.434h.378a6.991,6.991,0,0,0,1.685,3.747,3.779,3.779,0,0,0,2.74,1.3,2.362,2.362,0,0,0,1.8-.7,2.267,2.267,0,0,0,.677-1.622,2.307,2.307,0,0,0-.26-1.063,3.307,3.307,0,0,0-.787-.984,11.537,11.537,0,0,0-1.858-1.2,15.471,15.471,0,0,1-2.692-1.771,5.314,5.314,0,0,1-1.267-1.638,4.724,4.724,0,0,1,.787-5.149,3.936,3.936,0,0,1,3.031-1.3,4.723,4.723,0,0,1,1.3.181,6.092,6.092,0,0,1,1.157.512,2.6,2.6,0,0,0,.96.37.5.5,0,0,0,.409-.181,2.275,2.275,0,0,0,.283-.882Z" transform="translate(-102.468 -30.411)" fill="#d73a3a"/>
</svg>
