<svg id="Clients-02" xmlns="http://www.w3.org/2000/svg" width="79.205" height="76" viewBox="0 0 79.205 76">
  <path id="Path_465" data-name="Path 465" d="M126.441,40.033l.286-13.878L100.745,15.83,86.238,29.988,87.3,37.363l-15.882-2.3L60.38,43.406,71.115,67.752h.51l59.029.243,8.931-21.564Zm3.174,26.393L72.136,66.2,62.3,43.9,71.837,36.7l15.689,2.265,3.112,21.6,2.539-.056,3.28-21.832-7.53-1.089-1.008-7.045,13.212-12.9,24.041,9.553-.249,12.073-5.831-2.931-.84.759,2.969,10.766,5.1-2.054.087-4.033,11.2,5.464ZM89.163,39.205l5.526.8-2.807,18.44ZM124.867,41l-.075,3.734-2.527,1.014-1.9-6.939Z" transform="translate(-60.38 -15.83)" fill="#f6921e"/>
  <path id="Path_466" data-name="Path 466" d="M77.52,48.08v30.3h1.556V48.08" transform="translate(-66.853 -28.01)" fill="#f6921e"/>
  <path id="Path_467" data-name="Path 467" d="M87.616,113.838a1.108,1.108,0,0,0-.685-.187h-.622l-4.524-11.992H76.856a1.151,1.151,0,0,0-.685.187.784.784,0,0,0-.3.622.8.8,0,0,0,.3.647,1.1,1.1,0,0,0,.691.2h2.228l-3.84,10.312h-.454a1.108,1.108,0,0,0-.685.187.772.772,0,0,0-.3.622.8.8,0,0,0,.3.622,1.1,1.1,0,0,0,.691.2h3.491a1.1,1.1,0,0,0,.691-.2.8.8,0,0,0,.3-.622.772.772,0,0,0-.3-.622,1.108,1.108,0,0,0-.685-.187H76.974l.971-2.639h5.6l1,2.639H83.334a1.1,1.1,0,0,0-.685.187.772.772,0,0,0-.3.622.8.8,0,0,0,.3.622,1.083,1.083,0,0,0,.691.2h3.585a1.083,1.083,0,0,0,.691-.2.8.8,0,0,0,.3-.622A.772.772,0,0,0,87.616,113.838Zm-6.908-10.275,2.2,5.775H78.555Z" transform="translate(-65.448 -48.244)" fill="#f6921e"/>
  <path id="Path_468" data-name="Path 468" d="M107,108.288a9.248,9.248,0,0,0-3.236-.977,6.585,6.585,0,0,1-2.489-.741,1.593,1.593,0,0,1-.734-1.444,1.967,1.967,0,0,1,.8-1.593,3.23,3.23,0,0,1,2.116-.678,3.417,3.417,0,0,1,2.06.622,1.867,1.867,0,0,1,.859,1.444,1.108,1.108,0,0,0,.218.622.784.784,0,0,0,.622.268.8.8,0,0,0,.653-.293,1.1,1.1,0,0,0,.2-.7v-2.365a1.1,1.1,0,0,0-.2-.691.8.8,0,0,0-.653-.3.778.778,0,0,0-.622.3.884.884,0,0,0-.156.361,4.979,4.979,0,0,0-3.018-.965,4.916,4.916,0,0,0-3.261,1.108,3.591,3.591,0,0,0-1.332,2.825,3.112,3.112,0,0,0,1.35,2.689,8.2,8.2,0,0,0,3.274,1.12,8.09,8.09,0,0,1,2.527.728,1.792,1.792,0,0,1,.865,1.618,2.2,2.2,0,0,1-.921,1.811,3.846,3.846,0,0,1-2.452.759,4.263,4.263,0,0,1-2.489-.716,2.041,2.041,0,0,1-1.014-1.618,1.052,1.052,0,0,0-.212-.622.778.778,0,0,0-.622-.274.8.8,0,0,0-.622.3,1.1,1.1,0,0,0-.2.691v2.545a1.108,1.108,0,0,0,.187.685.778.778,0,0,0,.622.3.8.8,0,0,0,.653-.3.946.946,0,0,0,.187-.5,5.464,5.464,0,0,0,3.522,1.17,5.6,5.6,0,0,0,3.634-1.164,3.734,3.734,0,0,0,1.469-3.043A3.361,3.361,0,0,0,107,108.288Z" transform="translate(-74.704 -48.058)" fill="#f6921e"/>
  <path id="Path_469" data-name="Path 469" d="M117.342,104.647a1.182,1.182,0,0,0,.187.685.759.759,0,0,0,.622.3.8.8,0,0,0,.622-.293,1.189,1.189,0,0,0,.2-.7V103.34h3.112v10.306h-2.041a1.1,1.1,0,0,0-.685.187.772.772,0,0,0-.3.622.8.8,0,0,0,.3.622,1.077,1.077,0,0,0,.691.2h5.775a1.077,1.077,0,0,0,.691-.2.8.8,0,0,0,.3-.622.753.753,0,0,0-.3-.622,1.1,1.1,0,0,0-.685-.187h-2.041V103.34h3.074v1.307a1.1,1.1,0,0,0,.2.7.8.8,0,0,0,.622.292.753.753,0,0,0,.622-.3,1.139,1.139,0,0,0,.187-.685V101.66h-11.2Z" transform="translate(-81.869 -48.245)" fill="#f6921e"/>
  <path id="Path_470" data-name="Path 470" d="M150.7,113.838a1.114,1.114,0,0,0-.691-.187h-.5a31.331,31.331,0,0,0-2.054-3.261,8.321,8.321,0,0,0-1.344-1.344c1.786-.753,2.8-1.911,2.8-3.435a3.634,3.634,0,0,0-1.357-2.794,4.7,4.7,0,0,0-3.149-1.158h-5.694a1.139,1.139,0,0,0-.685.187.772.772,0,0,0-.3.622.8.8,0,0,0,.3.653,1.077,1.077,0,0,0,.691.2h.871v10.306h-.871a1.1,1.1,0,0,0-.685.187.753.753,0,0,0-.3.622.8.8,0,0,0,.3.622,1.077,1.077,0,0,0,.691.2h3.9a1.077,1.077,0,0,0,.691-.2.8.8,0,0,0,.3-.622.772.772,0,0,0-.3-.622,1.1,1.1,0,0,0-.685-.187h-1.35v-4.089h2.57a6.142,6.142,0,0,1,2.091,1.668,26.648,26.648,0,0,1,2.452,3.927l.106.193H150a1.1,1.1,0,0,0,.7-.2.821.821,0,0,0,.3-.622A.772.772,0,0,0,150.7,113.838Zm-9.435-10.5H144.4a3.112,3.112,0,0,1,1.985.709,1.948,1.948,0,0,1,.84,1.556,1.867,1.867,0,0,1-1.027,1.568,4.761,4.761,0,0,1-2.689.722h-2.247Z" transform="translate(-89.588 -48.244)" fill="#f6921e"/>
  <path id="Path_471" data-name="Path 471" d="M173.887,113.838a1.108,1.108,0,0,0-.685-.187h-.622l-4.524-11.992h-4.91a1.151,1.151,0,0,0-.685.187.784.784,0,0,0-.3.622.8.8,0,0,0,.3.653,1.1,1.1,0,0,0,.691.2h2.222l-3.834,10.312h-.454a1.1,1.1,0,0,0-.685.187.772.772,0,0,0-.3.622.8.8,0,0,0,.3.622,1.083,1.083,0,0,0,.691.2h3.466a1.1,1.1,0,0,0,.7-.2.8.8,0,0,0,.292-.622.753.753,0,0,0-.3-.622,1.1,1.1,0,0,0-.685-.187h-1.282l.971-2.639h5.6l1,2.639h-1.22a1.1,1.1,0,0,0-.685.187.772.772,0,0,0-.3.622.8.8,0,0,0,.3.622,1.077,1.077,0,0,0,.691.2H173.2a1.1,1.1,0,0,0,.691-.2.8.8,0,0,0,.3-.622A.772.772,0,0,0,173.887,113.838Zm-6.9-10.275,2.2,5.769h-4.356Z" transform="translate(-98.037 -48.244)" fill="#f6921e"/>
  <path id="Path_472" data-name="Path 472" d="M125.14,18.84V72.759H126.7V18.84" transform="translate(-84.837 -16.967)" fill="#f6921e"/>
  <path id="Path_473" data-name="Path 473" d="M77.963,126.241v5.172h.5c.168,0,.249.062.249.187s-.081.193-.249.193H77.59v-.821a1.954,1.954,0,0,1-1.674.971,1.867,1.867,0,0,1-1.4-.622,2.091,2.091,0,0,1,0-2.9,1.867,1.867,0,0,1,1.406-.622,1.991,1.991,0,0,1,1.668.958v-2.172h-.5c-.168,0-.249-.062-.249-.193s.081-.18.249-.18Zm-2.023,1.967a1.562,1.562,0,0,0-1.158.485,1.724,1.724,0,0,0,0,2.384,1.581,1.581,0,0,0,1.17.485,1.562,1.562,0,0,0,1.133-.5,1.643,1.643,0,0,0,.479-1.176,1.68,1.68,0,0,0-.473-1.207A1.581,1.581,0,0,0,75.94,128.208Z" transform="translate(-65.498 -57.516)" fill="#f6921e"/>
  <path id="Path_474" data-name="Path 474" d="M87.1,130.948H83.272a1.792,1.792,0,0,0,1.867,1.6,2.533,2.533,0,0,0,1.606-.5.249.249,0,0,1,.149-.062c.118,0,.174.062.174.18s-.218.33-.66.5a3.447,3.447,0,0,1-1.282.261,2.184,2.184,0,0,1-1.575-.622,2.035,2.035,0,0,1-.622-1.519,1.867,1.867,0,0,1,.622-1.4,2.122,2.122,0,0,1,1.494-.566,2.16,2.16,0,0,1,1.176.33,2.017,2.017,0,0,1,.772.9A2.371,2.371,0,0,1,87.1,130.948Zm-3.827-.38h3.435a1.618,1.618,0,0,0-.579-1,1.792,1.792,0,0,0-1.139-.373,1.736,1.736,0,0,0-1.133.373A1.686,1.686,0,0,0,83.272,130.568Z" transform="translate(-68.896 -58.502)" fill="#f6921e"/>
  <path id="Path_475" data-name="Path 475" d="M95.035,129.217v-.037c0-.168.062-.255.193-.255s.18.087.18.255v.622c0,.168-.062.249-.18.249s-.18-.068-.193-.212a.66.66,0,0,0-.373-.5,1.786,1.786,0,0,0-.853-.18,1.618,1.618,0,0,0-.853.2.566.566,0,0,0-.342.492.5.5,0,0,0,.292.411,1.146,1.146,0,0,0,.317.131c.112,0,.361.056.753.1a2.688,2.688,0,0,1,1.195.361.934.934,0,0,1,.454.828,1.021,1.021,0,0,1-.5.865,2.265,2.265,0,0,1-1.294.348,2.11,2.11,0,0,1-1.444-.5v.1c0,.168-.062.249-.18.249s-.193-.081-.193-.249v-.765c0-.162.062-.243.193-.243s.18.062.18.2v.062c0,.212.137.392.417.541a2.072,2.072,0,0,0,1,.224,1.979,1.979,0,0,0,1.008-.237.716.716,0,0,0,.4-.622.666.666,0,0,0-.4-.579,2.788,2.788,0,0,0-.99-.249,3.025,3.025,0,0,1-1.195-.293.821.821,0,0,1-.423-.728.853.853,0,0,1,.442-.741,1.986,1.986,0,0,1,1.126-.3,1.867,1.867,0,0,1,1.263.448Z" transform="translate(-72.325 -58.482)" fill="#f6921e"/>
  <path id="Path_476" data-name="Path 476" d="M102.8,127.844V131.3h1.475c.168,0,.255.062.255.187s-.087.193-.255.193h-3.323c-.162,0-.249-.062-.249-.193s.087-.187.249-.187h1.475v-3.074h-1.089c-.162,0-.249-.068-.249-.193s.087-.187.249-.187Zm0-1.9v.958h-.541v-.921Z" transform="translate(-75.607 -57.414)" fill="#f6921e"/>
  <path id="Path_477" data-name="Path 477" d="M111.688,129.722v-.778h.871c.162,0,.249.062.249.187s-.087.193-.249.193h-.5v3.734a1.375,1.375,0,0,1-.392.958,1.512,1.512,0,0,1-1.126.5H109.5c-.168,0-.249-.068-.249-.193s.081-.187.249-.187h1.083a1.083,1.083,0,0,0,.8-.33,1.1,1.1,0,0,0,.33-.8v-1.182a1.867,1.867,0,0,1-1.575.89,1.8,1.8,0,0,1-1.338-.566,1.923,1.923,0,0,1-.554-1.375,1.875,1.875,0,0,1,3.466-1.033Zm-1.55-.517a1.481,1.481,0,0,0-1.089.448,1.568,1.568,0,0,0,0,2.209,1.469,1.469,0,0,0,1.089.461,1.571,1.571,0,0,0,1.1-2.67A1.5,1.5,0,0,0,110.138,129.205Z" transform="translate(-78.455 -58.514)" fill="#f6921e"/>
  <path id="Path_478" data-name="Path 478" d="M117.977,128.9v.622a2.8,2.8,0,0,1,.7-.622,1.562,1.562,0,0,1,.734-.162,1.519,1.519,0,0,1,1.027.361,1.114,1.114,0,0,1,.417.89v2.334h.311c.168,0,.249.062.249.187s-.081.193-.249.193h-1c-.168,0-.249-.062-.249-.193s.081-.187.249-.187h.311v-2.265a.89.89,0,0,0-.461-.784,1.108,1.108,0,0,0-.622-.156,1.351,1.351,0,0,0-.871.3A3.5,3.5,0,0,0,118,130v2.321h.417c.168,0,.249.062.249.187s-.081.193-.249.193h-1.207c-.168,0-.255-.062-.255-.193s.087-.187.255-.187h.4V129.25h-.311c-.168,0-.249-.068-.249-.193s.081-.187.249-.187Z" transform="translate(-81.744 -58.471)" fill="#f6921e"/>
  <path id="Path_479" data-name="Path 479" d="M135.165,129.217v-.037c0-.168.068-.255.193-.255s.187.087.187.255v.622c0,.168-.062.249-.187.249s-.174-.068-.193-.212a.622.622,0,0,0-.367-.5,1.786,1.786,0,0,0-.853-.18,1.655,1.655,0,0,0-.859.2.566.566,0,0,0-.336.492.492.492,0,0,0,.292.411,1.145,1.145,0,0,0,.317.131c.106,0,.355.056.747.1a2.632,2.632,0,0,1,1.195.361.927.927,0,0,1,.461.828,1.014,1.014,0,0,1-.51.865,2.247,2.247,0,0,1-1.288.349,2.1,2.1,0,0,1-1.444-.5v.1c0,.168-.062.249-.187.249s-.193-.081-.193-.249v-.765c0-.162.068-.243.193-.243s.187.062.187.2v.062q0,.317.411.541a2.091,2.091,0,0,0,1,.224,2.022,2.022,0,0,0,1.014-.236.716.716,0,0,0,.4-.622.666.666,0,0,0-.4-.579,2.832,2.832,0,0,0-1-.249,3.111,3.111,0,0,1-1.195-.292.834.834,0,0,1-.423-.728.859.859,0,0,1,.448-.741,1.985,1.985,0,0,1,1.126-.3A1.83,1.83,0,0,1,135.165,129.217Z" transform="translate(-87.481 -58.482)" fill="#f6921e"/>
  <path id="Path_480" data-name="Path 480" d="M141.2,128.173h2.023c.162,0,.249.062.249.187s-.087.193-.249.193H141.2V131a.685.685,0,0,0,.274.56,1.2,1.2,0,0,0,.753.212,2.944,2.944,0,0,0,1.525-.367.317.317,0,0,1,.149-.056c.118,0,.174.062.174.187s-.205.268-.622.4a3.828,3.828,0,0,1-1.207.212,1.631,1.631,0,0,1-1.039-.311,1,1,0,0,1-.386-.822v-2.489h-.678c-.174,0-.255-.068-.255-.193s.081-.187.255-.187h.678v-1.1c0-.162.068-.249.193-.249s.187.087.187.249Z" transform="translate(-90.408 -57.743)" fill="#f6921e"/>
  <path id="Path_481" data-name="Path 481" d="M152.421,132.846v-.622a2.371,2.371,0,0,1-1.674.759,1.207,1.207,0,0,1-.89-.336,1.164,1.164,0,0,1-.336-.871v-2.4h-.492c-.168,0-.249-.068-.249-.193s.081-.187.249-.187h.871v2.776a.809.809,0,0,0,.243.622.828.828,0,0,0,.591.236,2.241,2.241,0,0,0,1.687-.828v-2.4h-.685c-.168,0-.255-.068-.255-.193s.087-.187.255-.187h1.058v3.454h.311c.168,0,.249.062.249.187s-.081.193-.249.193Z" transform="translate(-93.765 -58.57)" fill="#f6921e"/>
  <path id="Path_482" data-name="Path 482" d="M161.893,126.241v5.172h.5c.168,0,.249.062.249.187s-.081.193-.249.193h-.871v-.821a1.954,1.954,0,0,1-1.674.971,1.867,1.867,0,0,1-1.4-.622,2.091,2.091,0,0,1,0-2.9,1.9,1.9,0,0,1,1.413-.622,1.992,1.992,0,0,1,1.662.958v-2.172h-.5c-.162,0-.249-.062-.249-.193s.087-.18.249-.18Zm-2.016,1.967a1.587,1.587,0,0,0-1.164.485,1.736,1.736,0,0,0,0,2.384,1.587,1.587,0,0,0,1.17.485,1.562,1.562,0,0,0,1.176-.5,1.643,1.643,0,0,0,.479-1.176,1.68,1.68,0,0,0-.473-1.207A1.581,1.581,0,0,0,159.877,128.208Z" transform="translate(-97.195 -57.516)" fill="#f6921e"/>
  <path id="Path_483" data-name="Path 483" d="M169.247,127.844V131.3h1.469c.174,0,.255.062.255.187s-.081.193-.255.193H167.4c-.168,0-.249-.062-.249-.193s.081-.187.249-.187h1.469v-3.074h-1.083c-.168,0-.249-.068-.249-.193s.081-.187.249-.187Zm0-1.9v.958h-.541v-.921Z" transform="translate(-100.703 -57.414)" fill="#f6921e"/>
  <path id="Path_484" data-name="Path 484" d="M177.054,128.81a2.048,2.048,0,0,1,1.487.622,2,2,0,0,1,.622,1.475,1.911,1.911,0,0,1-.622,1.438,2.135,2.135,0,0,1-2.962,0,2.079,2.079,0,0,1,1.475-3.535Zm0,.38a1.68,1.68,0,0,0-1.245.485,1.587,1.587,0,0,0-.5,1.189,1.612,1.612,0,0,0,.5,1.189,1.662,1.662,0,0,0,1.245.492,1.68,1.68,0,0,0,1.207-.485,1.562,1.562,0,0,0,.51-1.17,1.631,1.631,0,0,0-.5-1.245,1.68,1.68,0,0,0-1.22-.454Z" transform="translate(-103.656 -58.498)" fill="#f6921e"/>
</svg>
