<svg id="Clients-10" xmlns="http://www.w3.org/2000/svg" width="125.656" height="63.432" viewBox="0 0 125.656 63.432">
  <path id="Path_802" data-name="Path 802" d="M120.413,26.7l1.876.109a61.9,61.9,0,0,1,8.65.825,10.629,10.629,0,0,1,8.255,8.3,14.681,14.681,0,0,1-.587,8.255,10.377,10.377,0,0,1-4.85,5.376l-.682.4,7.068,11.079H127.051V56.264h-1.678v-9.81c0-.307.048-.457.4-.553a6.379,6.379,0,0,0-.682-12.512,6.563,6.563,0,0,0-7.6,5.349A6.42,6.42,0,0,0,122.2,45.9c.28.075.416.164.416.491V60.63a2.964,2.964,0,0,1,0,.307H111.49V57.779c0-1.317.041-2.626.048-3.936q0-6.263.068-12.525.041-6.713.1-13.426c0-.409.048-.812.075-1.221Z" transform="translate(-59.54 -26.67)" fill="#4297d3"/>
  <path id="Path_803" data-name="Path 803" d="M161.38,111.881a1.822,1.822,0,0,1-.13-.484V95.931c0-.389.123-.525.518-.512h2.511c.423,0,.58.13.532.539a4.943,4.943,0,0,0,0,.559,1.263,1.263,0,0,0,.218-.082,6.017,6.017,0,0,1,9.626,4.093,6.822,6.822,0,0,1-1.112,4.926c-2.047,2.961-6.549,3.015-8.35,1.3a1.654,1.654,0,0,0-.191-.1c0,.2-.034.355-.034.518v4.093a5.385,5.385,0,0,1-.061.559Zm3.507-9.994a7.041,7.041,0,0,0,.546,1.583,3.015,3.015,0,0,0,4.714.4c1.3-1.433.989-4.237-.607-5.164a3.036,3.036,0,0,0-3.165,0C165.275,99.315,164.948,100.372,164.886,101.887Z" transform="translate(-75.353 -48.449)" fill="#4297d3"/>
  <path id="Path_804" data-name="Path 804" d="M215.029,105.934a6.345,6.345,0,0,1-4.025.682,3.827,3.827,0,0,1-3.582-3.957c-.041-1.583,0-3.165,0-4.775v-.607h-1.494c-.293,0-.4-.1-.389-.382V94.759c0-.266.1-.375.362-.362h1.092c.362,0,.45-.1.437-.43V91.88c0-.314.068-.457.416-.45h2.845c.368,0,.457.143.45.478v2.483h2.395c.614,0,.614,0,.614.628v1.8c0,.368-.123.464-.464.457h-2.524v4.653c0,1.521,1.03,2.163,2.408,1.514l.471-.225c.355.873.682,1.712,1.044,2.551Z" transform="translate(-89.428 -47.25)" fill="#4297d3"/>
  <path id="Path_805" data-name="Path 805" d="M46.023,100.974l3.507,5.048a4.5,4.5,0,0,1-.45.055H45.805a.812.812,0,0,1-.566-.293c-.887-1.235-1.746-2.483-2.6-3.738a.682.682,0,0,0-.682-.355h-2.8v3.9c0,.4-.136.512-.518.5-.921,0-1.835-.034-2.729,0-.478,0-.566-.164-.566-.6V90.578c0-.368.1-.5.484-.5h6.74a7.982,7.982,0,0,1,3.752.873,5.192,5.192,0,0,1,2.9,4.864,5.123,5.123,0,0,1-2.845,4.932A3.123,3.123,0,0,1,46.023,100.974ZM39.2,98.587h3.145a4.9,4.9,0,0,0,.894-.1,2.422,2.422,0,0,0,2.1-2.558,2.313,2.313,0,0,0-2.108-2.545,31.827,31.827,0,0,0-3.786-.123c-.089,0-.259.177-.266.273C39.16,95.2,39.2,96.847,39.2,98.587Z" transform="translate(-35.34 -46.821)"/>
  <path id="Path_806" data-name="Path 806" d="M125.69,110.88a10.7,10.7,0,0,0-3.9-3.732,6.637,6.637,0,0,1-.682-10.37,7.46,7.46,0,0,1,9.551.375,6.592,6.592,0,0,1-.628,9.551c-.573.471-1.2.873-1.781,1.364a10.4,10.4,0,0,0-2.558,2.811Zm-3.009-8.91a3.009,3.009,0,0,0,4.23,2.626,2.858,2.858,0,0,0,1.767-2.79,3.051,3.051,0,0,0-1.6-3.186C125.322,97.741,122.682,98.594,122.682,101.971Z" transform="translate(-61.904 -48.458)"/>
  <path id="Path_807" data-name="Path 807" d="M69.006,103.7l2.047,2.2a9.456,9.456,0,0,1-1.515,1.126,7.763,7.763,0,0,1-8.268-.539A6.248,6.248,0,0,1,63.487,95.5a6.455,6.455,0,0,1,6.665,1.63,6.3,6.3,0,0,1,1.6,5.458H62.566a2.654,2.654,0,0,0,1.637,1.951,4.209,4.209,0,0,0,4.352-.5Zm-.785-3.35a2.729,2.729,0,0,0-2.988-2.272,2.59,2.59,0,0,0-2.654,2.272Z" transform="translate(-42.802 -48.446)"/>
  <path id="Path_808" data-name="Path 808" d="M190.717,107.925c-2.688-.068-4.775-.88-6.106-3.043a6.276,6.276,0,0,1,4.7-9.551,7.307,7.307,0,0,1,4.98.928,6.276,6.276,0,0,1-2.047,11.461C191.686,107.836,191.085,107.877,190.717,107.925Zm-3.24-6.338v.43a2.92,2.92,0,0,0,2.729,2.811,2.831,2.831,0,0,0,3.138-2.156,5.075,5.075,0,0,0,.109-1.637,2.8,2.8,0,0,0-1.583-2.422,3.006,3.006,0,0,0-4.393,2.974Z" transform="translate(-82.478 -48.457)" fill="#4297d3"/>
  <path id="Path_809" data-name="Path 809" d="M85.2,96.671a5.6,5.6,0,0,1,3.507-1.426,4.787,4.787,0,0,1,5.485,4.8c.048,2.435,0,4.871.034,7.306,0,.3-.123.368-.4.368H90.939c-.355,0-.423-.136-.423-.45v-5.928a5.458,5.458,0,0,0-.191-1.446,1.842,1.842,0,0,0-1.617-1.412A2.642,2.642,0,0,0,85.4,101c-.116,1.364-.055,2.688-.061,4.032v2.224c0,.314-.068.457-.416.45H82.07c-.334,0-.43-.123-.43-.443V95.873c0-.348.109-.471.464-.464h2.558c.423,0,.58.123.532.539C85.181,96.153,85.2,96.337,85.2,96.671Z" transform="translate(-50.054 -48.46)"/>
  <path id="Path_810" data-name="Path 810" d="M142.25,104.011a29.978,29.978,0,0,0,3.241.948,9.667,9.667,0,0,0,2.306,0,1.365,1.365,0,0,0,.641-.273.682.682,0,0,0-.116-1.221,9.747,9.747,0,0,0-1.549-.409c-1-.218-2.047-.355-3.009-.641a2.981,2.981,0,0,1-2.313-2.49,3.322,3.322,0,0,1,1.439-3.513,6.263,6.263,0,0,1,1.972-.887,10.3,10.3,0,0,1,6.461.532,5.769,5.769,0,0,1,.607.314c-.382.805-.757,1.569-1.112,2.34-.13.28-.293.211-.5.109a6.938,6.938,0,0,0-3.916-.682,2.845,2.845,0,0,0-1.071.334.682.682,0,0,0,.068,1.248,17.457,17.457,0,0,0,2.047.5c.846.2,1.712.321,2.531.587a3.009,3.009,0,0,1,2.258,2.49,3.411,3.411,0,0,1-1.439,3.472,6.46,6.46,0,0,1-3.472,1.105,11.249,11.249,0,0,1-5.812-1.044c-.389-.191-.443-.382-.246-.764C141.65,105.369,141.957,104.625,142.25,104.011Z" transform="translate(-68.967 -48.459)" fill="#4297d3"/>
  <path id="Path_811" data-name="Path 811" d="M108.919,97.273v4.775a1.494,1.494,0,0,0,2.251,1.528c.2-.075.4-.177.682-.3.314.832.634,1.637.907,2.449a.705.705,0,0,1-.3.389,6.024,6.024,0,0,1-4.25.382,3.541,3.541,0,0,1-2.79-2.783,7.429,7.429,0,0,1-.171-1.549V97.273h-1.364c-.457,0-.573-.089-.546-.525V94.9c0-.382.1-.546.5-.518s.88,0,1.364,0V91.972c0-.457.143-.566.566-.553h2.606c.464,0,.566.15.546.573v1.992c0,.314.109.409.416.4h2.176c.321,0,.457.082.45.423v2.047c0,.348-.123.437-.443.43C110.672,97.273,109.84,97.273,108.919,97.273Z" transform="translate(-56.948 -47.247)"/>
  <path id="Path_812" data-name="Path 812" d="M131.454,44.461a3.329,3.329,0,0,1-3.363,3.268,3.411,3.411,0,0,1-3.411-3.322,3.336,3.336,0,0,1,3.411-3.247,3.288,3.288,0,0,1,3.363,3.3Z" transform="translate(-63.732 -31.274)" fill="#4297d3"/>
</svg>
