<svg id="Clients-08" xmlns="http://www.w3.org/2000/svg" width="115.997" height="69" viewBox="0 0 115.997 69">
  <path id="Path_761" data-name="Path 761" d="M132.878,63.671v-2.82h7.348V33.445L98.4,33.064c-.1,9.242-.2,18.418-.306,27.75h5.58c1.984,0,1.984,0,1.969,1.954v.962H95.416c-1.4,0-1.716-.343-1.716-1.768V52.728q.112-10.5.254-20.991c0-2.864,0-2.872,2.984-2.857l11.025.075,24.012.194,11.227.1c1.208,0,1.574.4,1.567,1.716q-.075,13.427-.164,26.937v4.379c0,.9-.351,1.537-1.283,1.544H133.139A1.348,1.348,0,0,1,132.878,63.671Z" transform="translate(-60.96 -28.878)" fill="#173a65" fill-rule="evenodd"/>
  <path id="Path_762" data-name="Path 762" d="M148.008,78.6a6.206,6.206,0,0,1-2.469,4.1,8.75,8.75,0,0,1-5.446,1.663H101.93c-3.073,0-6.154.082-9.213-.172a6.758,6.758,0,0,1-6.109-4.476c-.433-1.111-.351-1.231.843-1.231l57.939.127Zm-30.734,4.61a1.492,1.492,0,0,0,1.641-1.656,1.626,1.626,0,0,0-1.671-1.581,1.738,1.738,0,0,0-1.686,1.708A1.649,1.649,0,0,0,117.275,83.209Zm-4.267-.433a1.1,1.1,0,0,0,.977-1.208,1.175,1.175,0,0,0-1.194-1.216,1.343,1.343,0,0,0-1.335,1.253C111.494,82.329,112.031,82.8,113.008,82.777Zm9.7-1.126a1.223,1.223,0,0,0-1.194-1.268,1.35,1.35,0,0,0-1.291,1.238,1.291,1.291,0,0,0,1.328,1.186,1.1,1.1,0,0,0,1.156-1.156Z" transform="translate(-59.097 -41.478)" fill="#173a65" fill-rule="evenodd"/>
  <path id="Path_763" data-name="Path 763" d="M128.684,43.917c1.887,0,3.685.045,5.475,0,.977,0,1.231.321,1.223,1.261-.037,6.594,0,13.2-.037,19.79,0,1.082-.209,1.305-1.268,1.305h-19.79c-1.246,0-1.373-.134-1.358-1.358q.1-10.033.194-20.074c0-.746.239-1.082,1.044-1.052,1.589.052,3.178-.045,4.759.045.85.052,1.074-.179,1.067-1.029,0-2.574,1.179-4.177,3.409-4.685a4.386,4.386,0,0,1,5.244,4.155A16.141,16.141,0,0,1,128.684,43.917Zm-2.775,2.947H122.6c-.067,1.149.313,2.738-1.395,2.715s-1.134-1.686-1.343-2.745h-3.439V63.17h15.546V46.908h-3.32c0,2.081-.3,2.656-1.268,2.73S126.148,49.2,125.909,46.864Zm.052-3.1c0-1.089.418-2.275-.746-2.924a2.186,2.186,0,0,0-1.82,0c-1.171.642-.679,1.85-.791,2.924Z" transform="translate(-65.845 -31.204)" fill="#e4a724" fill-rule="evenodd"/>
  <path id="Path_764" data-name="Path 764" d="M125.963,64.217,122.74,56.25l8.206,3.178-2.35.791,3.044,3.208-1.7,1.828-2.842-3.5-.328.231C126.544,62.65,126.3,63.314,125.963,64.217Z" transform="translate(-68.337 -35.831)" fill="#173a65" fill-rule="evenodd"/>
  <path id="Path_765" data-name="Path 765" d="M52.272,103.39v5.639H49.81V99.19h1.738l3.178,3.178,3.185-3.178h1.738v9.839H57.188V103.39l-2.462,2.462Z" transform="translate(-49.81 -46.74)" fill="#183a65"/>
  <path id="Path_766" data-name="Path 766" d="M67.162,109.029H64.7V99.19h2.462Z" transform="translate(-53.593 -46.74)" fill="#183a65"/>
  <path id="Path_767" data-name="Path 767" d="M76.873,99.19l2.566,2.566v4.752l-2.566,2.559H69.6V99.19Zm.1,3.588-1.111-1.126h-3.8v4.923h3.8l1.126-1.126Z" transform="translate(-54.837 -46.74)" fill="#183a65"/>
  <path id="Path_768" data-name="Path 768" d="M86.9,106.575h7.378v2.454H84.44V99.19H86.9Z" transform="translate(-58.607 -46.74)" fill="#183a65"/>
  <path id="Path_769" data-name="Path 769" d="M99.27,101.756l2.566-2.566h4.685l2.566,2.566v7.273h-2.462v-2.454H101.7v2.454H99.24Zm3.588-.1-1.126,1.126v1.335h4.923v-1.335l-1.126-1.126Z" transform="translate(-62.367 -46.74)" fill="#183a65"/>
  <path id="Path_770" data-name="Path 770" d="M116.584,103.39v5.639H114.13V99.19h1.738l5.639,5.639V99.19h2.462v9.839h-1.731Z" transform="translate(-66.15 -46.74)" fill="#183a65"/>
  <path id="Path_771" data-name="Path 771" d="M136.251,99.19l2.566,2.566v4.752l-2.566,2.559H129V99.19Zm.1,3.588-1.119-1.126h-3.8v4.923h3.8l1.119-1.126Z" transform="translate(-69.927 -46.74)" fill="#183a65"/>
  <path id="Path_772" data-name="Path 772" d="M155.281,99.19l2.559,2.566v1.768H156.1l-1.843-1.843h-2.671l-1.126,1.1v2.671l1.126,1.126h2.671l1.843-1.85h1.738v1.783l-2.559,2.559h-4.714L148,106.508v-4.714l2.566-2.566Z" transform="translate(-74.754 -46.74)" fill="#183a65"/>
  <path id="Path_773" data-name="Path 773" d="M162.84,101.756l2.566-2.566h4.714l2.566,2.566v7.273h-2.462v-2.454H165.3v2.454H162.84Zm3.588-.1-1.126,1.126v1.335h4.923v-1.335l-1.126-1.126Z" transform="translate(-78.524 -46.74)" fill="#183a65"/>
  <path id="Path_774" data-name="Path 774" d="M182.1,105.344h-1.94v3.685H177.7V99.19h7.892l1.947,1.954v2.238l-1.947,1.954,1.947,1.947v1.738H185.8Zm3.073-3.081-.612-.612h-4.4v1.231h4.409Z" transform="translate(-82.299 -46.74)" fill="#183a65"/>
  <path id="Path_775" data-name="Path 775" d="M201.959,99.19v2.462h-3.692v7.378h-2.462v-7.378H192.12V99.19Z" transform="translate(-85.962 -46.74)" fill="#183a65"/>
  <path id="Path_776" data-name="Path 776" d="M50.87,115.52h3.081v.448h-2.6V117.5h2.32v.433h-2.32v1.872H50.87Z" transform="translate(-50.079 -50.888)" fill="#183a65"/>
  <path id="Path_777" data-name="Path 777" d="M59.006,119.851a2.111,2.111,0,0,1-1.581-.664,2.089,2.089,0,0,1-.448-.7,2.312,2.312,0,0,1-.157-.843h0a2.178,2.178,0,0,1,.164-.843,2.118,2.118,0,0,1,.448-.746,2.036,2.036,0,0,1,.694-.485,2.312,2.312,0,0,1,1.783,0,2.059,2.059,0,0,1,.694.477,2.48,2.48,0,0,1,.6,1.589h0a2.357,2.357,0,0,1-.157.85,2.484,2.484,0,0,1-.448.746,2.171,2.171,0,0,1-.694.477,2.066,2.066,0,0,1-.9.142Zm0-.448a1.552,1.552,0,0,0,.671-.142,1.492,1.492,0,0,0,.53-.373,1.82,1.82,0,0,0,.351-.559,1.9,1.9,0,0,0,.127-.686h0a1.9,1.9,0,0,0-.127-.686,1.656,1.656,0,0,0-.351-.559,1.679,1.679,0,0,0-.537-.38,1.581,1.581,0,0,0-.679-.142,1.693,1.693,0,0,0-.679.134,1.6,1.6,0,0,0-.53.38,1.641,1.641,0,0,0-.343.559,1.731,1.731,0,0,0-.127.686h0a1.79,1.79,0,0,0,.127.694,1.82,1.82,0,0,0,.351.559,1.753,1.753,0,0,0,.537.38,1.671,1.671,0,0,0,.694.134Z" transform="translate(-51.591 -50.855)" fill="#183a65"/>
  <path id="Path_778" data-name="Path 778" d="M64.88,115.52h1.85a2.111,2.111,0,0,1,.746.112,1.4,1.4,0,0,1,.507.313.962.962,0,0,1,.246.373,1.239,1.239,0,0,1,.09.477h0a1.246,1.246,0,0,1-.09.485,1,1,0,0,1-.239.366,1.32,1.32,0,0,1-.373.254,1.6,1.6,0,0,1-.462.149l1.313,1.753h-.589L66.6,118.116H65.365v1.671H64.88Zm1.813,2.186a1.649,1.649,0,0,0,.44-.06,1.193,1.193,0,0,0,.351-.179.835.835,0,0,0,.231-.276.821.821,0,0,0,.082-.366h0a.746.746,0,0,0-.291-.619,1.3,1.3,0,0,0-.813-.224H65.365v1.738Z" transform="translate(-53.638 -50.888)" fill="#183a65"/>
  <path id="Path_779" data-name="Path 779" d="M74.93,115.52h3.1v.433H75.415v1.492h2.342v.433H75.415v1.492h2.648v.44H74.93Z" transform="translate(-56.191 -50.888)" fill="#183a65"/>
  <path id="Path_780" data-name="Path 780" d="M82.724,115.47h.455l1.954,4.327h-.522l-.5-1.134H81.777l-.515,1.134H80.77Zm1.194,2.753-.97-2.186-.985,2.186Z" transform="translate(-57.675 -50.875)" fill="#183a65"/>
  <path id="Path_781" data-name="Path 781" d="M89.963,119.856a2.462,2.462,0,0,1-.947-.172,2.633,2.633,0,0,1-.806-.515l.3-.358a2.5,2.5,0,0,0,.679.462,2.022,2.022,0,0,0,.791.149,1.052,1.052,0,0,0,.694-.209.627.627,0,0,0,.261-.522h0a.746.746,0,0,0-.045-.261.6.6,0,0,0-.172-.224,1.492,1.492,0,0,0-.343-.172,3.8,3.8,0,0,0-.559-.157,3.894,3.894,0,0,1-.642-.186,1.589,1.589,0,0,1-.448-.246,1.052,1.052,0,0,1-.269-.343,1.246,1.246,0,0,1-.082-.463h0a.977.977,0,0,1,.1-.462,1.082,1.082,0,0,1,.291-.373,1.44,1.44,0,0,1,.448-.246,1.708,1.708,0,0,1,.567-.09,2.283,2.283,0,0,1,.821.134,2.477,2.477,0,0,1,.686.4l-.283.373a1.947,1.947,0,0,0-.6-.351,1.8,1.8,0,0,0-.634-.112,1.037,1.037,0,0,0-.664.194.619.619,0,0,0-.246.5h0a.791.791,0,0,0,.045.276.672.672,0,0,0,.179.216,1.224,1.224,0,0,0,.358.187,5.145,5.145,0,0,0,.582.157,2.566,2.566,0,0,1,1.059.44.955.955,0,0,1,.336.746h0a1.194,1.194,0,0,1-.1.5,1.283,1.283,0,0,1-.306.388,1.4,1.4,0,0,1-.455.246A2.163,2.163,0,0,1,89.963,119.856Z" transform="translate(-59.565 -50.875)" fill="#183a65"/>
  <path id="Path_782" data-name="Path 782" d="M94.71,115.52h.485v4.289H94.71Z" transform="translate(-61.216 -50.888)" fill="#183a65"/>
  <path id="Path_783" data-name="Path 783" d="M97.87,115.52h.485v3.842h2.417v.448h-2.9Z" transform="translate(-62.019 -50.888)" fill="#183a65"/>
  <path id="Path_784" data-name="Path 784" d="M104.973,118.118l-1.783-2.588h.6l1.44,2.141,1.492-2.141h.567l-1.835,2.588v1.708h-.485Z" transform="translate(-63.371 -50.891)" fill="#183a65"/>
  <path id="Path_785" data-name="Path 785" d="M115.7,119.851a2.119,2.119,0,0,1-.888-.179,2.194,2.194,0,0,1-.694-.485,1.962,1.962,0,0,1-.44-.7,2.312,2.312,0,0,1-.157-.843h0a2.313,2.313,0,0,1,.157-.843,2.119,2.119,0,0,1,.448-.746,2.252,2.252,0,0,1,2.477-.485,2.059,2.059,0,0,1,.694.477,2.1,2.1,0,0,1,.44.746,2.238,2.238,0,0,1,.157.843h0a2.357,2.357,0,0,1-.157.85,2.238,2.238,0,0,1-.448.746,2.171,2.171,0,0,1-.694.477A2.066,2.066,0,0,1,115.7,119.851Zm0-.448a1.581,1.581,0,0,0,.679-.142,1.664,1.664,0,0,0,.53-.373,1.947,1.947,0,0,0,.343-.559,1.9,1.9,0,0,0,.127-.686h0a1.9,1.9,0,0,0-.127-.686,1.656,1.656,0,0,0-.351-.559,1.529,1.529,0,0,0-.537-.38,1.683,1.683,0,0,0-1.887.373,1.641,1.641,0,0,0-.343.559,1.873,1.873,0,0,0-.127.686h0a1.939,1.939,0,0,0,.127.694,1.82,1.82,0,0,0,.351.559,1.753,1.753,0,0,0,.537.38,1.7,1.7,0,0,0,.694.134Z" transform="translate(-65.995 -50.855)" fill="#183a65"/>
  <path id="Path_786" data-name="Path 786" d="M121.58,115.52h.448l2.708,3.439V115.52h.47v4.289h-.388l-2.768-3.521v3.521h-.47Z" transform="translate(-68.042 -50.888)" fill="#183a65"/>
  <path id="Path_787" data-name="Path 787" d="M128.89,115.52h.485v3.842h2.417v.448h-2.9Z" transform="translate(-69.899 -50.888)" fill="#183a65"/>
  <path id="Path_788" data-name="Path 788" d="M134.86,115.52h.485v4.289h-.485Z" transform="translate(-71.416 -50.888)" fill="#183a65"/>
  <path id="Path_789" data-name="Path 789" d="M138,115.52h.455l2.7,3.439V115.52h.477v4.289h-.388l-2.775-3.521v3.521H138Z" transform="translate(-72.214 -50.888)" fill="#183a65"/>
  <path id="Path_790" data-name="Path 790" d="M145.33,115.52h3.1v.433h-2.6v1.492h2.342v.433H145.83v1.492h2.648v.44h-3.126Z" transform="translate(-74.076 -50.888)" fill="#183a65"/>
  <path id="Path_791" data-name="Path 791" d="M156.323,119.856a2.394,2.394,0,0,1-.94-.172,2.663,2.663,0,0,1-.813-.515l.3-.358a2.618,2.618,0,0,0,.679.462,2.022,2.022,0,0,0,.791.149,1.089,1.089,0,0,0,.7-.209.642.642,0,0,0,.261-.522h0a.746.746,0,0,0-.052-.261.53.53,0,0,0-.172-.224,1.328,1.328,0,0,0-.343-.172,3.679,3.679,0,0,0-.552-.157,3.73,3.73,0,0,1-.642-.186,1.537,1.537,0,0,1-.455-.246.94.94,0,0,1-.261-.343,1.112,1.112,0,0,1-.09-.462h0a1.074,1.074,0,0,1,.1-.463,1.1,1.1,0,0,1,.3-.373,1.439,1.439,0,0,1,.448-.246,1.693,1.693,0,0,1,.559-.09,2.35,2.35,0,0,1,.828.134,2.439,2.439,0,0,1,.679.4l-.283.373a1.843,1.843,0,0,0-.6-.351,1.872,1.872,0,0,0-.642-.112,1.067,1.067,0,0,0-.664.194.619.619,0,0,0-.246.5h0a.649.649,0,0,0,.052.276.566.566,0,0,0,.172.216,1.328,1.328,0,0,0,.358.186,5.147,5.147,0,0,0,.582.157,2.521,2.521,0,0,1,1.059.44.962.962,0,0,1,.343.746h0a1.1,1.1,0,0,1-.112.5,1.253,1.253,0,0,1-.3.388,1.44,1.44,0,0,1-.463.246A2.126,2.126,0,0,1,156.323,119.856Z" transform="translate(-76.423 -50.875)" fill="#183a65"/>
  <path id="Path_792" data-name="Path 792" d="M161,115.52h.485v1.9h2.5v-1.9h.485v4.289h-.485v-1.932h-2.477v1.932H161Z" transform="translate(-78.057 -50.888)" fill="#183a65"/>
  <path id="Path_793" data-name="Path 793" d="M170.016,119.851a2.111,2.111,0,0,1-1.581-.664,2.089,2.089,0,0,1-.448-.7,2.312,2.312,0,0,1-.157-.843h0a2.178,2.178,0,0,1,.164-.843,2.119,2.119,0,0,1,.448-.746,2.081,2.081,0,0,1,.686-.485,2.238,2.238,0,0,1,.9-.179,2.179,2.179,0,0,1,.9.179,1.954,1.954,0,0,1,.686.477,2.119,2.119,0,0,1,.448.746,2.238,2.238,0,0,1,.157.843h0a2.358,2.358,0,0,1-.157.85,2.485,2.485,0,0,1-.448.746,2.171,2.171,0,0,1-.694.477A2.067,2.067,0,0,1,170.016,119.851Zm0-.448a1.559,1.559,0,0,0,.679-.142,1.492,1.492,0,0,0,.53-.373,1.82,1.82,0,0,0,.351-.559,1.9,1.9,0,0,0,.127-.686h0a1.9,1.9,0,0,0-.127-.686,1.656,1.656,0,0,0-.351-.559,1.678,1.678,0,0,0-.537-.38,1.581,1.581,0,0,0-.679-.142,1.693,1.693,0,0,0-.679.134,1.6,1.6,0,0,0-.53.38,1.641,1.641,0,0,0-.343.559,1.731,1.731,0,0,0-.127.686h0a1.79,1.79,0,0,0,.127.694,1.686,1.686,0,0,0,.351.559,1.753,1.753,0,0,0,.537.38,1.664,1.664,0,0,0,.679.134Z" transform="translate(-79.792 -50.855)" fill="#183a65"/>
  <path id="Path_794" data-name="Path 794" d="M175.89,115.52H177.5a2.29,2.29,0,0,1,.656.09,1.634,1.634,0,0,1,.507.269,1.171,1.171,0,0,1,.328.433,1.372,1.372,0,0,1,.112.567h0a1.29,1.29,0,0,1-.134.6,1.231,1.231,0,0,1-.366.44,1.582,1.582,0,0,1-.537.269,2.238,2.238,0,0,1-.649.09h-1.044v1.492h-.485Zm1.552,2.342a1.693,1.693,0,0,0,.485-.075,1.044,1.044,0,0,0,.373-.194.746.746,0,0,0,.239-.3.888.888,0,0,0,.082-.38h0a.828.828,0,0,0-.313-.7,1.4,1.4,0,0,0-.843-.231h-1.089v1.895Z" transform="translate(-81.839 -50.888)" fill="#183a65"/>
  <path id="Path_795" data-name="Path 795" d="M182.2,115.52h1.611a2.238,2.238,0,0,1,.656.09,1.634,1.634,0,0,1,.507.269,1.171,1.171,0,0,1,.328.433,1.373,1.373,0,0,1,.112.567h0a1.291,1.291,0,0,1-.134.6,1.231,1.231,0,0,1-.366.44,1.492,1.492,0,0,1-.537.269,2.238,2.238,0,0,1-.649.09h-1.044v1.492H182.2Zm1.552,2.342a1.649,1.649,0,0,0,.485-.075,1.044,1.044,0,0,0,.373-.194.746.746,0,0,0,.239-.3.888.888,0,0,0,.082-.38h0a.828.828,0,0,0-.313-.7,1.4,1.4,0,0,0-.843-.231h-1.089v1.895Z" transform="translate(-83.442 -50.888)" fill="#183a65"/>
  <path id="Path_796" data-name="Path 796" d="M188.57,115.52h.485v4.289h-.485Z" transform="translate(-85.061 -50.888)" fill="#183a65"/>
  <path id="Path_797" data-name="Path 797" d="M191.73,115.52h.455l2.7,3.439V115.52h.47v4.289h-.38l-2.775-3.521v3.521h-.47Z" transform="translate(-85.863 -50.888)" fill="#183a65"/>
  <path id="Path_798" data-name="Path 798" d="M200.968,119.847a2.357,2.357,0,0,1-.91-.172,2.141,2.141,0,0,1-.686-.477,1.985,1.985,0,0,1-.433-.7,2.335,2.335,0,0,1-.149-.858h0a2.528,2.528,0,0,1,.589-1.589,2.238,2.238,0,0,1,.679-.485,2.133,2.133,0,0,1,.88-.179,2.543,2.543,0,0,1,.492,0,2.283,2.283,0,0,1,.418.1,2.1,2.1,0,0,1,.366.187,3.037,3.037,0,0,1,.328.239l-.313.366-.261-.194a1.8,1.8,0,0,0-.291-.157,1.538,1.538,0,0,0-.343-.1,1.783,1.783,0,0,0-.41,0,1.492,1.492,0,0,0-.656.142,1.447,1.447,0,0,0-.515.38,1.746,1.746,0,0,0-.336.559,1.887,1.887,0,0,0-.127.679h0a2.006,2.006,0,0,0,.119.746,1.641,1.641,0,0,0,.343.559,1.581,1.581,0,0,0,.53.373,1.79,1.79,0,0,0,.746.134,1.94,1.94,0,0,0,.694-.119,2.237,2.237,0,0,0,.545-.306v-1.067h-1.305v-.44h1.716v1.716a2.767,2.767,0,0,1-.746.462,2.439,2.439,0,0,1-.962.194Z" transform="translate(-87.657 -50.851)" fill="#183a65"/>
</svg>
