<svg id="Clients-06" xmlns="http://www.w3.org/2000/svg" width="156.233" height="69.532" viewBox="0 0 156.233 69.532">
  <path id="Path_659" data-name="Path 659" d="M46.887,103.867l-.519-6.682h-.225L43.887,103.8H42.53l-2.256-6.612H40.05l-.354,4.045h0c-.043,3-1.331,2.662-2.515,2.593l.994-11.064H40.7L43.2,99.441,45.72,92.76h2.541l.994,11.064Z" transform="translate(-37.18 -42.748)" fill="#292d36"/>
  <path id="Path_660" data-name="Path 660" d="M52.77,103.865,57.152,92.81H59.33l4.391,11.064H61.215l-.812-2.256H56.08v.061A4.14,4.14,0,0,1,52.77,103.865Zm6.854-4.322-1.3-3.457h-.173L56.85,99.543Z" transform="translate(-39.295 -42.755)" fill="#292d36"/>
  <path id="Path_661" data-name="Path 661" d="M67.2,92.81h3.846c1.971,0,3.457,1.1,3.457,3.25a3.1,3.1,0,0,1-2.161,3.164H72.2l3.76,4.607H73l-3.457-4.65v1.729a2.9,2.9,0,0,1-2.334,2.922Zm2.334,5h.389c.925,0,2.152-.078,2.152-1.582s-1.227-1.53-2.152-1.53h-.389Z" transform="translate(-41.252 -42.755)" fill="#292d36"/>
  <path id="Path_662" data-name="Path 662" d="M79.05,92.81h2.8L84.193,96.5l2.334-3.691h2.809l-3.993,6.051v4.979H83.035V98.9Z" transform="translate(-42.859 -42.755)" fill="#292d36"/>
  <path id="Path_663" data-name="Path 663" d="M92.55,103.865,96.932,92.81h2.187l4.391,11.064h-2.515l-.812-2.256H95.86v.061a4.123,4.123,0,0,1-3.31,2.187ZM99.4,99.543l-1.3-3.457h-.164l-1.3,3.457Z" transform="translate(-44.69 -42.755)" fill="#292d36"/>
  <path id="Path_664" data-name="Path 664" d="M116.667,103.867l-.519-6.682h-.233l-2.256,6.612H112.31l-2.256-6.612h-.233l-.354,4.045h0c0,3-1.322,2.662-2.507,2.593l.994-11.064h2.5l2.507,6.681,2.507-6.681h2.524l.994,11.064Z" transform="translate(-46.645 -42.748)" fill="#292d36"/>
  <path id="Path_665" data-name="Path 665" d="M125.23,103.865l4.382-11.055h2.178l4.391,11.064h-2.507l-.812-2.256H128.54v.061A4.14,4.14,0,0,1,125.23,103.865Zm6.854-4.322-1.3-3.457h-.164l-1.305,3.457Z" transform="translate(-49.123 -42.755)" fill="#292d36"/>
  <path id="Path_666" data-name="Path 666" d="M143.505,101.825h2.308v2.049H141.88c-1.176,0-2.074-.484-2.1-2.2V92.81h2.308v7.425C142.122,101.1,142.468,101.782,143.505,101.825Z" transform="translate(-51.097 -42.755)" fill="#292d36"/>
  <path id="Path_667" data-name="Path 667" d="M155.718,92.46a6.258,6.258,0,0,1,3.276.994l-.951,1.867a4.434,4.434,0,0,0-2.161-.735c-.864,0-1.383.441-1.383,1.141s1.115,1.21,2.316,1.729,2.533,1.608,2.533,3.043c0,2.671-1.953,3.6-4.037,3.6a6.491,6.491,0,0,1-4-1.4l1.176-1.988a5.1,5.1,0,0,0,2.636,1.219c.527,0,1.66-.052,1.66-1.236,0-.942-1.245-1.322-2.489-1.988a3.345,3.345,0,0,1-2.031-2.861A3.457,3.457,0,0,1,155.718,92.46Z" transform="translate(-52.661 -42.707)" fill="#292d36"/>
  <path id="Path_668" data-name="Path 668" d="M170.966,92.93V100.1c0,2.731-1.469,4.1-4.192,4.1s-4.184-1.366-4.184-4.1V92.93h2.334v6.414c0,1.91.588,2.533,1.85,2.533s1.858-.622,1.858-2.533V92.93Z" transform="translate(-54.191 -42.771)" fill="#292d36"/>
  <path id="Path_669" data-name="Path 669" d="M183.991,103.867l-.519-6.682h-.233l-2.291,6.612H179.6l-2.256-6.612h-.233l-.354,4.045h0c-.043,3-1.322,2.662-2.507,2.593l.994-11.064h2.524l2.507,6.681,2.507-6.681h2.524l.994,11.064Z" transform="translate(-55.772 -42.748)" fill="#292d36"/>
  <path id="Path_670" data-name="Path 670" d="M189.87,103.865,194.3,92.81h2.178l4.391,11.064h-2.515l-.856-2.256H193.18v.061a4.123,4.123,0,0,1-3.311,2.187Zm6.863-4.322-1.305-3.457h-.164l-1.3,3.457Z" transform="translate(-57.891 -42.755)" fill="#292d36"/>
  <path id="Path_671" data-name="Path 671" d="M206.909,92.8v11.064a2.308,2.308,0,0,1-2.36-2.463V92.76Z" transform="translate(-59.881 -42.748)" fill="#292d36"/>
  <path id="Path_672" data-name="Path 672" d="M209.25,94.859V92.81h7.5v2.049H214.16v4.391c0,2.386-.735,4.521-2.247,4.616V94.859Z" transform="translate(-60.52 -42.755)" fill="#292d36"/>
  <path id="Path_673" data-name="Path 673" d="M43.234,112.629c-.415.061-.441.1-.441.5v.579a2.9,2.9,0,0,0,.052.64,6.578,6.578,0,0,1-1.539.251,2.291,2.291,0,0,1-2.507-2.291,2.377,2.377,0,0,1,2.593-2.351,5.454,5.454,0,0,1,1.314.2c0,.233.061.614.112,1.063h-.19a1.193,1.193,0,0,0-1.34-1.063,1.824,1.824,0,0,0-1.807,2.031,1.962,1.962,0,0,0,1.9,2.135,1.486,1.486,0,0,0,.6-.121c.13-.078.216-.164.216-.449v-.579c0-.493-.052-.536-.717-.588V112.4h1.729Z" transform="translate(-37.4 -45.08)" fill="#292d36"/>
  <path id="Path_674" data-name="Path 674" d="M48.185,113.468a6.692,6.692,0,0,1-.233,1.08h-3.3v-.216c.622,0,.683-.1.683-.657v-2.714c0-.614-.061-.64-.588-.683v-.2h3.043a6.416,6.416,0,0,0,.061.985h-.2a1.668,1.668,0,0,0-.225-.588c-.1-.138-.277-.19-.769-.19h-.519c-.216,0-.225,0-.225.216v1.556h.64c.614,0,.648-.052.743-.51h.2v1.314h-.2c-.1-.493-.138-.536-.735-.536h-.648v1.288c0,.32,0,.467.164.553a1.469,1.469,0,0,0,.709.1c.519,0,.709-.061.864-.233a2.23,2.23,0,0,0,.337-.648Z" transform="translate(-38.193 -45.097)" fill="#292d36"/>
  <path id="Path_675" data-name="Path 675" d="M54.163,110.266c-.38,0-.545.1-.579.406a10.441,10.441,0,0,0,0,1.15v2.757h-.216l-2.913-3.587h0v2.878c0,.354.2.432.657.458v.2H49.487v-.2c.4,0,.562-.1.6-.441a10.243,10.243,0,0,0,0-1.167v-1.5c0-.5,0-.527-.138-.691a.751.751,0,0,0-.605-.251v-.2h1.011l2.852,3.457h0V111.8a6.544,6.544,0,0,0-.043-1.132c-.043-.19-.2-.4-.674-.424v-.2H54.1Z" transform="translate(-38.829 -45.093)" fill="#292d36"/>
  <path id="Path_676" data-name="Path 676" d="M59.185,113.468c-.043.225-.173.864-.242,1.08H55.65v-.216c.622,0,.683-.1.683-.657v-2.714c0-.614-.061-.64-.588-.683v-.2h3.043a6.417,6.417,0,0,0,.061.985h-.2a1.669,1.669,0,0,0-.225-.588c-.1-.138-.277-.19-.769-.19h-.519c-.216,0-.225,0-.225.216v1.556h.64c.614,0,.648-.052.743-.51h.19v1.314h-.19c-.1-.493-.138-.536-.735-.536h-.648v1.288c0,.32,0,.467.164.553a1.444,1.444,0,0,0,.709.1c.519,0,.709-.06.864-.233a2.049,2.049,0,0,0,.328-.648Z" transform="translate(-39.685 -45.097)" fill="#292d36"/>
  <path id="Path_677" data-name="Path 677" d="M64.557,114.574h-.242a1.236,1.236,0,0,1-1.106-.622c-.242-.337-.484-.761-.691-1.089s-.233-.277-.588-.277h-.216v1.089c0,.579.061.622.605.657v.2h-1.8v-.2c.562,0,.622-.078.622-.657v-2.749c0-.579-.052-.605-.588-.648v-.2h1.729a2,2,0,0,1,1.1.233,1.029,1.029,0,0,1,.449.864,1.245,1.245,0,0,1-.864,1.167c.112.225.4.683.605.994a6.05,6.05,0,0,0,.553.709.916.916,0,0,0,.493.32Zm-2.515-2.221a1.124,1.124,0,0,0,.743-.19.994.994,0,0,0,.38-.864.925.925,0,0,0-1.011-1.011.614.614,0,0,0-.363.069c-.052,0-.078.112-.078.294v1.685Z" transform="translate(-40.346 -45.097)" fill="#292d36"/>
  <path id="Path_678" data-name="Path 678" d="M68.433,114.5v-.19c.432-.052.493-.1.406-.372s-.225-.64-.372-1.055H67.007c-.112.311-.207.6-.3.864-.147.432-.086.5.424.545v.2H65.65v-.182c.432-.061.527-.1.761-.7l1.418-3.622.216-.061c.424,1.176.864,2.472,1.314,3.665.216.588.311.648.752.683v.2Zm-.666-3.648h0l-.64,1.729h1.245Z" transform="translate(-41.042 -45.077)" fill="#292d36"/>
  <path id="Path_679" data-name="Path 679" d="M74.9,113.468a6.932,6.932,0,0,1-.242,1.08h-3.1v-.216c.579,0,.631-.086.631-.666v-2.731c0-.588,0-.622-.6-.657v-.2h1.781v.2c-.536,0-.605.069-.605.657v2.7c0,.372,0,.5.164.57a1.418,1.418,0,0,0,.648.1c.38,0,.614,0,.769-.216a1.807,1.807,0,0,0,.346-.666Z" transform="translate(-41.842 -45.097)" fill="#292d36"/>
  <path id="Path_680" data-name="Path 680" d="M82.357,113.373a7.617,7.617,0,0,1-.389,1.046,5.671,5.671,0,0,1-1.262.182,2.239,2.239,0,0,1-2.446-2.256,2.4,2.4,0,0,1,2.593-2.386,5.42,5.42,0,0,1,1.21.181c.061.389.1.666.138,1.029l-.207.052a1.184,1.184,0,0,0-1.322-1.02,1.815,1.815,0,0,0-1.729,2.005,1.91,1.91,0,0,0,1.789,2.152c.691,0,1.063-.38,1.409-1.063Z" transform="translate(-42.752 -45.08)" fill="#292d36"/>
  <path id="Path_681" data-name="Path 681" d="M88.433,112.23a2.239,2.239,0,0,1-2.282,2.377,2.2,2.2,0,0,1-2.221-2.273,2.273,2.273,0,0,1,2.3-2.334,2.2,2.2,0,0,1,2.2,2.23Zm-3.8-.086c0,1.288.7,2.221,1.66,2.221.761,0,1.443-.64,1.443-1.945,0-1.443-.752-2.213-1.642-2.213S84.63,110.864,84.63,112.144Z" transform="translate(-43.521 -45.087)" fill="#292d36"/>
  <path id="Path_682" data-name="Path 682" d="M94.662,110.266c-.38,0-.545.1-.579.406a10.438,10.438,0,0,0,0,1.15v2.757h-.216l-2.913-3.587h0v2.878c0,.354.2.432.657.458v.2H89.977v-.2c.4,0,.57-.1.6-.441a10.24,10.24,0,0,0,0-1.167v-1.5c0-.5,0-.527-.138-.691a.751.751,0,0,0-.605-.251v-.2h1.011l2.852,3.457h0v-2.861c0-.19-.2-.4-.674-.424v-.2h1.616Z" transform="translate(-44.322 -45.093)" fill="#292d36"/>
  <path id="Path_683" data-name="Path 683" d="M99.806,111.109a1.53,1.53,0,0,0-.225-.605c-.1-.164-.225-.216-.735-.216h-.484v3.362c0,.545.052.614.7.648v.2H97.1v-.19c.622,0,.674-.1.674-.648V110.3h-.424c-.562,0-.7.061-.787.216a2.022,2.022,0,0,0-.225.605h-.19c0-.406.061-.864.078-1.227h.138c.1.156.182.164.372.164h2.74a.363.363,0,0,0,.346-.164h.147a7.627,7.627,0,0,0,.069,1.21Z" transform="translate(-45.179 -45.072)" fill="#292d36"/>
  <path id="Path_684" data-name="Path 684" d="M105.447,114.574H105.2a1.236,1.236,0,0,1-1.106-.622c-.242-.337-.484-.761-.691-1.089s-.233-.277-.588-.277H102.6v1.089c0,.579.061.622.605.657v.2h-1.8v-.2c.562,0,.622-.078.622-.657v-2.749c0-.579-.052-.605-.588-.648v-.2h1.729a2,2,0,0,1,1.1.233,1.054,1.054,0,0,1,.449.864,1.245,1.245,0,0,1-.864,1.167c.112.225.4.683.605.994a5.187,5.187,0,0,0,.553.709.916.916,0,0,0,.493.32Zm-2.515-2.221a1.124,1.124,0,0,0,.743-.19.985.985,0,0,0,.372-.864.925.925,0,0,0-1-1.011.674.674,0,0,0-.372.069c-.043,0-.069.112-.069.294v1.685Z" transform="translate(-45.892 -45.097)" fill="#292d36"/>
  <path id="Path_685" data-name="Path 685" d="M109.323,114.508v-.19c.432-.052.493-.1.406-.372s-.225-.64-.38-1.055H107.9c-.112.311-.216.6-.3.864-.147.432-.086.5.424.545v.2H106.54v-.182c.424-.061.519-.1.761-.7l1.418-3.587.207-.061c.424,1.176.864,2.472,1.322,3.665.216.588.311.648.752.683v.2Zm-.657-3.648h0l-.64,1.729h1.253Z" transform="translate(-46.588 -45.083)" fill="#292d36"/>
  <path id="Path_686" data-name="Path 686" d="M116.357,113.373a7.612,7.612,0,0,1-.389,1.046,5.576,5.576,0,0,1-1.253.182,2.247,2.247,0,0,1-2.455-2.256,2.4,2.4,0,0,1,2.593-2.386,5.419,5.419,0,0,1,1.21.181c.052.389.1.666.138,1.029l-.207.052a1.193,1.193,0,0,0-1.322-1.02,1.815,1.815,0,0,0-1.729,2.005,1.91,1.91,0,0,0,1.789,2.152c.7,0,1.072-.38,1.409-1.063Z" transform="translate(-47.364 -45.08)" fill="#292d36"/>
  <path id="Path_687" data-name="Path 687" d="M121.426,111.109a1.565,1.565,0,0,0-.216-.605c-.112-.164-.225-.216-.735-.216h-.493v3.362c0,.545.061.614.709.648v.2h-1.962v-.19c.622,0,.674-.1.674-.648V110.3h-.424c-.562,0-.7.061-.8.216a2.369,2.369,0,0,0-.216.605h-.2c0-.406.069-.864.086-1.227h.112c.1.156.182.164.372.164h2.7a.363.363,0,0,0,.354-.164h.138a7.628,7.628,0,0,0,.069,1.21Z" transform="translate(-48.111 -45.072)" fill="#292d36"/>
  <path id="Path_688" data-name="Path 688" d="M123,114.523v-.19c.553,0,.614-.078.614-.657v-2.74c0-.579-.061-.622-.614-.657v-.2h1.807v.2c-.562,0-.614.078-.614.657v2.74c0,.588.052.622.614.657v.2Z" transform="translate(-48.821 -45.097)" fill="#292d36"/>
  <path id="Path_689" data-name="Path 689" d="M130.644,110.266c-.38,0-.545.1-.57.406a9.645,9.645,0,0,0-.043,1.15v2.757h-.207l-2.913-3.587h0v2.878c0,.354.19.432.657.458v.2h-1.59v-.2c.389,0,.562-.1.6-.441s0-.536,0-1.167v-1.5c0-.5,0-.527-.138-.691a.726.726,0,0,0-.605-.251v-.2h1.011l2.844,3.457h0V111.8a8.524,8.524,0,0,0-.052-1.132c0-.311-.2-.4-.666-.424v-.2h1.608Z" transform="translate(-49.205 -45.093)" fill="#292d36"/>
  <path id="Path_690" data-name="Path 690" d="M136.634,112.629c-.415.061-.441.1-.441.5v.579a2.905,2.905,0,0,0,.052.64,6.578,6.578,0,0,1-1.539.251,2.282,2.282,0,0,1-2.507-2.291,2.377,2.377,0,0,1,2.593-2.351,5.454,5.454,0,0,1,1.314.2,9.936,9.936,0,0,0,.112,1.063h-.19a1.193,1.193,0,0,0-1.34-1.063,1.815,1.815,0,0,0-1.807,2.031,1.962,1.962,0,0,0,1.9,2.135,1.486,1.486,0,0,0,.6-.121c.13-.078.216-.164.216-.449v-.579c0-.493-.052-.536-.717-.588V112.4h1.729Z" transform="translate(-50.069 -45.08)" fill="#292d36"/>
  <path id="Path_691" data-name="Path 691" d="M143.146,111.109a1.262,1.262,0,0,0-.2-.545c-.1-.19-.259-.251-.778-.251h-.519c-.2,0-.216,0-.216.216v1.625h.7c.622,0,.657-.061.743-.5h.19v1.314h-.19c-.086-.467-.121-.545-.743-.545h-.7v1.236c0,.588.052.631.674.666v.2H140.25v-.19c.545,0,.605-.078.605-.666v-2.723c0-.6-.061-.631-.588-.666v-.2h3.017a6.072,6.072,0,0,0,.061,1.011Z" transform="translate(-51.161 -45.097)" fill="#292d36"/>
  <path id="Path_692" data-name="Path 692" d="M149.293,112.225a2.239,2.239,0,0,1-2.282,2.377,2.2,2.2,0,0,1-2.221-2.273,2.282,2.282,0,0,1,2.3-2.368,2.2,2.2,0,0,1,2.2,2.265Zm-3.8-.086c0,1.288.7,2.221,1.668,2.221.761,0,1.443-.64,1.443-1.945,0-1.443-.752-2.213-1.651-2.213-.769,0-1.469.657-1.469,1.936Z" transform="translate(-51.776 -45.081)" fill="#292d36"/>
  <path id="Path_693" data-name="Path 693" d="M154.908,114.574h-.233a1.219,1.219,0,0,1-1.106-.622c-.242-.337-.484-.761-.691-1.089s-.233-.277-.588-.277h-.225v1.089c0,.579.069.622.614.657v.2h-1.8v-.2c.562,0,.622-.078.622-.657v-2.749c0-.579-.061-.605-.588-.648v-.2h1.729a1.962,1.962,0,0,1,1.089.233,1.037,1.037,0,0,1,.458.864,1.236,1.236,0,0,1-.864,1.167c.121.225.406.683.614.994a5.186,5.186,0,0,0,.553.709.864.864,0,0,0,.493.32Zm-2.515-2.221a1.132,1.132,0,0,0,.752-.19,1,1,0,0,0,.372-.864.925.925,0,0,0-1-1.011.674.674,0,0,0-.372.069c-.043,0-.078.112-.078.294v1.686Z" transform="translate(-52.602 -45.097)" fill="#292d36"/>
  <path id="Path_694" data-name="Path 694" d="M160.509,112.128c.674.1,1.21.4,1.21,1.08a1.176,1.176,0,0,1-.657,1.037,2.827,2.827,0,0,1-1.34.277H158.21v-.19c.588,0,.631-.078.631-.657v-2.749c0-.57,0-.614-.579-.648v-.2h1.729a1.729,1.729,0,0,1,1.029.233.925.925,0,0,1,.38.787,1.063,1.063,0,0,1-.916,1.011Zm-.778-.086c.752,0,1.072-.3,1.072-.864a.952.952,0,0,0-1.305-.8c-.061,0-.086.112-.086.337v1.34Zm-.32,1.625c0,.493.13.622.57.622a.959.959,0,0,0,1.055-1.011c0-.7-.475-1.011-1.314-1.011h-.311Z" transform="translate(-53.597 -45.096)" fill="#292d36"/>
  <path id="Path_695" data-name="Path 695" d="M167.693,110.263c-.415,0-.57.121-.605.4s0,.484,0,1.106v.57a2.472,2.472,0,0,1-.519,1.807,1.659,1.659,0,0,1-1.219.467,1.789,1.789,0,0,1-1.1-.328,1.884,1.884,0,0,1-.605-1.625v-1.729c0-.622-.052-.648-.588-.691v-.2h1.729v.2c-.536,0-.588.069-.588.691v1.556c0,1.1.432,1.729,1.279,1.729.985,0,1.3-.864,1.3-1.945v-.536a8.638,8.638,0,0,0-.052-1.124c0-.268-.182-.346-.666-.38v-.2h1.634Z" transform="translate(-54.255 -45.091)" fill="#292d36"/>
  <path id="Path_696" data-name="Path 696" d="M169.19,114.523v-.19c.562,0,.614-.078.614-.657v-2.74c0-.579-.052-.622-.614-.657v-.2h1.815v.2c-.562,0-.614.078-.614.657v2.74c0,.588.052.622.614.657v.2Z" transform="translate(-55.086 -45.097)" fill="#292d36"/>
  <path id="Path_697" data-name="Path 697" d="M175.535,113.468c-.043.216-.19.864-.251,1.08H172.19v-.216c.57,0,.631-.086.631-.666v-2.731c0-.588-.052-.622-.605-.657v-.2H174v.2c-.536,0-.6.069-.6.657v2.7c0,.372,0,.5.156.57a1.487,1.487,0,0,0,.657.1c.372,0,.605,0,.761-.216a1.945,1.945,0,0,0,.354-.666Z" transform="translate(-55.493 -45.097)" fill="#292d36"/>
  <path id="Path_698" data-name="Path 698" d="M178.684,110.068a2.705,2.705,0,0,1,1.936.588,2.031,2.031,0,0,1,.57,1.469,2.161,2.161,0,0,1-.864,1.824,3.233,3.233,0,0,1-2.031.57H176.67v-.19c.588,0,.648-.078.648-.666v-2.74c0-.588-.061-.614-.579-.657v-.2Zm-.752,3.553c0,.519.225.648.726.648a1.841,1.841,0,0,0,1.867-2.049,1.8,1.8,0,0,0-.812-1.634,2.092,2.092,0,0,0-1.158-.285,1.072,1.072,0,0,0-.536.086c-.069,0-.086.121-.086.389Z" transform="translate(-56.101 -45.094)" fill="#292d36"/>
  <path id="Path_699" data-name="Path 699" d="M182.83,114.523v-.19c.562,0,.614-.078.614-.657v-2.74c0-.579-.052-.622-.614-.657v-.2h1.815v.2c-.562,0-.614.078-.614.657v2.74c0,.588.052.622.614.657v.2Z" transform="translate(-56.936 -45.097)" fill="#292d36"/>
  <path id="Path_700" data-name="Path 700" d="M190.483,110.266c-.38,0-.545.1-.57.406a8.016,8.016,0,0,0,0,1.15v2.757H189.7l-2.913-3.587h0v1.729a9.648,9.648,0,0,0,.043,1.15c0,.354.19.432.648.458v.2h-1.616v-.2c.4,0,.57-.1.605-.441s0-.536,0-1.167v-1.5c0-.5,0-.527-.13-.691a.743.743,0,0,0-.614-.251v-.2h1.011l2.852,3.457h0V111.8a6.545,6.545,0,0,0-.043-1.132c-.043-.19-.2-.4-.674-.424v-.2h1.616Z" transform="translate(-57.328 -45.093)" fill="#292d36"/>
  <path id="Path_701" data-name="Path 701" d="M196.449,112.629c-.406.061-.432.1-.432.5v.579a2.938,2.938,0,0,0,0,.64,6.577,6.577,0,0,1-1.53.251,2.282,2.282,0,0,1-2.507-2.291,2.377,2.377,0,0,1,2.593-2.351,5.532,5.532,0,0,1,1.314.2c0,.233.052.614.1,1.063h-.19a1.184,1.184,0,0,0-1.331-1.063,1.824,1.824,0,0,0-1.815,2.031,1.971,1.971,0,0,0,1.9,2.135,1.461,1.461,0,0,0,.6-.121c.138-.078.216-.164.216-.449v-.579c0-.493-.043-.536-.717-.588V112.4h1.729Z" transform="translate(-58.177 -45.08)" fill="#292d36"/>
  <path id="Path_702" data-name="Path 702" d="M206.315,110.269c-.467.061-.536.112-.735.683-.164.432-.57,1.729-1.132,3.63h-.207c-.38-1.089-.864-2.412-1.2-3.4h0c-.389,1.2-.769,2.3-1.115,3.4h-.207c-.363-1.227-.743-2.429-1.115-3.648-.173-.562-.277-.614-.691-.666v-.2h1.66v.2c-.5.061-.51.112-.415.458.268.925.536,1.85.864,2.818h0c.354-1.158.752-2.291,1.106-3.406h.2c.38,1.124.778,2.23,1.193,3.406h0c.285-.864.657-2.247.769-2.731s.069-.484-.475-.545v-.2h1.513Z" transform="translate(-59.253 -45.096)" fill="#292d36"/>
  <path id="Path_703" data-name="Path 703" d="M211.38,113.468a6.967,6.967,0,0,1-.251,1.08H208v-.216c.57,0,.631-.086.631-.666v-2.731c0-.588-.052-.622-.605-.657v-.2h1.789v.2c-.545,0-.605.069-.605.657v2.7c0,.372,0,.5.156.57a1.487,1.487,0,0,0,.657.1c.372,0,.605,0,.769-.216a2.118,2.118,0,0,0,.346-.666Z" transform="translate(-60.35 -45.097)" fill="#292d36"/>
  <path id="Path_704" data-name="Path 704" d="M215.955,113.468a6.967,6.967,0,0,1-.251,1.08H212.61v-.216c.57,0,.631-.086.631-.666v-2.731c0-.588-.052-.622-.605-.657v-.2h1.789v.2c-.545,0-.605.069-.605.657v2.7c0,.372,0,.5.156.57a1.487,1.487,0,0,0,.657.1c.38,0,.605,0,.769-.216a2.118,2.118,0,0,0,.346-.666Z" transform="translate(-60.976 -45.097)" fill="#292d36"/>
  <path id="Path_705" data-name="Path 705" d="M124.442,34.9V76.968h-5.29V44.494l-2.213,1.521V76.968h-4.832v-27.6L109.9,50.9V76.968H104.83V48.531Z" transform="translate(-46.356 -34.9)" fill="#a61f23"/>
  <path id="Path_706" data-name="Path 706" d="M149.614,54.423V48.546L130.01,35.01V49.3l14.322,9.888V71.693H130.01v5.29h19.6V56.956L135.3,47.025V44.492Z" transform="translate(-49.772 -34.915)" fill="#292d36"/>
  <path id="Path_707" data-name="Path 707" d="M135.075,72.522v-14.9l-5.065-3.5v18.4Z" transform="translate(-49.772 -37.507)" fill="#292d36"/>
  <path id="Path_708" data-name="Path 708" d="M143.262,73.31V63.275L138.43,59.93V73.31Z" transform="translate(-50.914 -38.295)" fill="#292d36"/>
</svg>
