<svg id="Clients-13" xmlns="http://www.w3.org/2000/svg" width="148.494" height="72.031" viewBox="0 0 148.494 72.031">
  <path id="Path_883" data-name="Path 883" d="M158.52,68.493a7.256,7.256,0,0,0-.674-1.388,10.115,10.115,0,0,0-.95-1.38c-.365-.43-.706-.812-1.023-1.128l-.812-.057a7.873,7.873,0,0,0,.089.812c.041.333.073.593.106.885s.057.544.089.812a3.982,3.982,0,0,0,.073.5,11.364,11.364,0,0,1-.357,2.89c-.26,1.063-.609,2.208-1.031,3.41s-.917,2.435-1.453,3.783-1.072,2.655-1.624,4.01-1.031,2.711-1.5,4.059a35.264,35.264,0,0,0-1.12,3.921,21.327,21.327,0,0,0-.5,3.629,8.857,8.857,0,0,0,.406,3.174,10.163,10.163,0,0,0,.731,1.7,8.646,8.646,0,0,0,.869,1.291,2.988,2.988,0,0,0,.812.7.5.5,0,0,0,.584,0,10.44,10.44,0,0,1-.763-4.619,23.2,23.2,0,0,1,.861-5.033,43.023,43.023,0,0,1,1.875-5.252c.755-1.753,1.518-3.515,2.273-5.277s1.437-3.507,2.046-5.22a22.349,22.349,0,0,0,1.185-4.928A3.247,3.247,0,0,0,158.52,68.493Z" transform="translate(-57.131 -37.125)" fill="#d81b5c"/>
  <path id="Path_884" data-name="Path 884" d="M160.69,88.017c.1-.3.187-.56.268-.812a5.443,5.443,0,0,1,.244-.617,1.818,1.818,0,0,0,.041-.974c-.073-.39-.138-.909-.195-1.567a7.51,7.51,0,0,1,.106-2.232,11.706,11.706,0,0,1,.641-2.216,8.929,8.929,0,0,1,.942-1.762,2.654,2.654,0,0,1,1.007-.942,1.015,1.015,0,0,1,.812.179,7.151,7.151,0,0,1,1.08.763,5.228,5.228,0,0,1,.893.974,1.137,1.137,0,0,1,.3.812,5.269,5.269,0,0,0-2.168,2.338,11.171,11.171,0,0,0-1.12,3.767,1.348,1.348,0,0,0,.13.812,4.425,4.425,0,0,0,.544.812l.747.925a8.793,8.793,0,0,1,.812,1.234,4.059,4.059,0,0,1,.211,2.013,22.424,22.424,0,0,1-.5,2.939c-.244,1.088-.544,2.232-.893,3.45s-.666,2.435-.958,3.564-.511,2.249-.674,3.247a8.621,8.621,0,0,0-.089,2.533.982.982,0,0,0,.179.552,3.506,3.506,0,0,1,.479.763c0,.138,0,.235-.089.284a.544.544,0,0,1-.341.049.99.99,0,0,1-.5-.276,4.733,4.733,0,0,1-1.348-1.973,7.923,7.923,0,0,1-.536-2.6,16.935,16.935,0,0,1,.089-2.728,20.674,20.674,0,0,1,.43-2.525c.187-.812.365-1.453.528-1.989s.284-1.193.487-2.07.4-1.778.56-2.7.268-1.77.341-2.533a3.337,3.337,0,0,0-.073-1.494q-.187-.268-.365-.511a4.453,4.453,0,0,1-.325-.5q-.455,1.128-.812,2.314c-.268.812-.544,1.624-.812,2.5-.106.162-.211.244-.333.244a.576.576,0,0,1-.357-.154.933.933,0,0,1-.284-.43.706.706,0,0,1,0-.56Z" transform="translate(-59.373 -39.447)" fill="#d81b5c"/>
  <path id="Path_885" data-name="Path 885" d="M174.271,99.795a2.6,2.6,0,0,0,1.7-.812,8.929,8.929,0,0,0,1.388-1.908,25.892,25.892,0,0,0,1.169-2.435c.357-.861.674-1.624.958-2.362.057-.162.154-.227.292-.211a.909.909,0,0,1,.406.179,1.031,1.031,0,0,1,.3.39.536.536,0,0,1,0,.446c-.1.325-.252.747-.447,1.275s-.438,1.112-.723,1.753a20.631,20.631,0,0,1-.974,1.94,12.769,12.769,0,0,1-1.21,1.81,6.494,6.494,0,0,1-1.421,1.348,2.793,2.793,0,0,1-1.624.528,3.539,3.539,0,0,1-2.127-.568,4.108,4.108,0,0,1-1.348-1.624,7.485,7.485,0,0,1-.625-2.338,13.8,13.8,0,0,1,0-2.72,17.049,17.049,0,0,1,.487-2.809,14.19,14.19,0,0,1,.925-2.541h0a6.884,6.884,0,0,1,1.721-2.346,3.247,3.247,0,0,1,1.778-.812,2.2,2.2,0,0,1,1.624.52,3.97,3.97,0,0,1,1.137,1.624,4.14,4.14,0,0,1,.325,1.786,7.307,7.307,0,0,1-.3,1.883,7.558,7.558,0,0,1-.812,1.81,7.185,7.185,0,0,1-1.2,1.5,5.764,5.764,0,0,1-1.461,1.031,3.32,3.32,0,0,1-1.624.357,8.376,8.376,0,0,0,0,1.348,3.612,3.612,0,0,0,.227,1.08,1.437,1.437,0,0,0,.536.69A1.4,1.4,0,0,0,174.271,99.795Zm-1.283-4.936a2.687,2.687,0,0,0,1.9-.666,4.976,4.976,0,0,0,1.258-1.7,7.574,7.574,0,0,0,.625-2.078,5.219,5.219,0,0,0,0-1.81c-.1-.487-.292-.812-.568-.885s-.658.146-1.137.722a4.286,4.286,0,0,0-.706,1.258c-.211.536-.4,1.1-.568,1.689s-.325,1.185-.463,1.794-.244,1.169-.341,1.672Z" transform="translate(-61.289 -41.158)" fill="#d81b5c"/>
  <path id="Path_886" data-name="Path 886" d="M186.633,86.119a1.753,1.753,0,0,1,1.38,1.047,3.4,3.4,0,0,0-.089-.925c-.106-.219-.081-.349.057-.373a1.356,1.356,0,0,1,.617.057,3.248,3.248,0,0,1,.893.422,5.569,5.569,0,0,1,.917.714,3.247,3.247,0,0,1,.674.942,2.038,2.038,0,0,1,.187,1.08,7.2,7.2,0,0,1-.292,1.177c-.179.593-.39,1.275-.617,2.054s-.455,1.624-.69,2.435-.414,1.624-.568,2.37a10.481,10.481,0,0,0-.235,1.835c0,.5.106.812.341.812s.544-.138.917-.649a16.134,16.134,0,0,0,1.177-1.94c.422-.812.812-1.624,1.258-2.573s.812-1.778,1.1-2.557c.081-.219.179-.349.3-.39a.365.365,0,0,1,.349.057.909.909,0,0,1,.268.373,1.169,1.169,0,0,1,.041.617c-.26.861-.576,1.794-.958,2.809a19.373,19.373,0,0,1-1.315,2.874,11.87,11.87,0,0,1-1.583,2.273,2.638,2.638,0,0,1-1.737.99,1.851,1.851,0,0,1-1.047-.244,3.085,3.085,0,0,1-.812-.682,3.248,3.248,0,0,1-.568-.942,5.483,5.483,0,0,1-.3-.974,9.1,9.1,0,0,1-1.063,1.883,1.875,1.875,0,0,1-1.364.812,2.159,2.159,0,0,1-1.624-.674,4.587,4.587,0,0,1-1.145-2.005,9.928,9.928,0,0,1-.357-3.109,16.73,16.73,0,0,1,.674-4.059,19.852,19.852,0,0,1,.812-2.216,7.477,7.477,0,0,1,1.12-1.818,5.13,5.13,0,0,1,1.461-1.218A3.247,3.247,0,0,1,186.633,86.119Zm-2.963,13.76a1.145,1.145,0,0,0,.812-.552,7.078,7.078,0,0,0,.755-1.356c.235-.56.479-1.193.731-1.892s.5-1.437.763-2.208c.138-.682.284-1.364.43-2.054l.438-1.956a4.225,4.225,0,0,1,.057-.812,4.333,4.333,0,0,0,0-.812,1.38,1.38,0,0,0-.162-.593.463.463,0,0,0-.438-.244,1.136,1.136,0,0,0-.747.463,8.661,8.661,0,0,0-.877,1.226,16.3,16.3,0,0,0-.925,1.753,19,19,0,0,0-.812,1.965,14.686,14.686,0,0,0-.609,2.492,13.369,13.369,0,0,0-.179,2.306,6.446,6.446,0,0,0,.195,1.664c.146.43.284.633.536.609Z" transform="translate(-63.325 -41.137)" fill="#d81b5c"/>
  <path id="Path_887" data-name="Path 887" d="M195.6,93.019a19.051,19.051,0,0,1,.4-2.736q.382-1.875.885-4.221t1.08-4.92c.373-1.721.714-3.312,1.015-4.79-.52.138-1.039.26-1.559.357a12.365,12.365,0,0,0-1.526.39.658.658,0,0,1-.463.057c-.106,0-.138-.13-.089-.268a1.624,1.624,0,0,1,.438-.552,6.754,6.754,0,0,1,1.072-.812,13.187,13.187,0,0,1,1.226-.7c.422-.211.861-.414,1.323-.617.154-.917.268-1.672.341-2.273a2.67,2.67,0,0,0,0-1.169c-.122-.276,0-.414.26-.4a2.306,2.306,0,0,1,1.047.373,5.788,5.788,0,0,1,1.193.95,2.963,2.963,0,0,1,.812,1.453,12.372,12.372,0,0,1,1.94-.284l2.273-.162h1.185a7.988,7.988,0,0,1,1.453.244,8.93,8.93,0,0,1,1.461.52,4.108,4.108,0,0,1,1.258.9,5.919,5.919,0,0,1,.812,1.1,5.072,5.072,0,0,1,.39.942,1.364,1.364,0,0,1,.041.633c-.041.146-.138.162-.3,0a8.184,8.184,0,0,0-2.013-1.015,15.083,15.083,0,0,0-2.395-.625,18.843,18.843,0,0,0-2.289-.26,7.655,7.655,0,0,0-1.68.081,5.236,5.236,0,0,1-.909.162l-1.51.195c-.138.812-.333,1.737-.568,2.874s-.5,2.338-.763,3.621-.552,2.573-.812,3.889-.56,2.549-.812,3.694-.463,2.143-.641,2.979-.308,1.413-.39,1.737a3.11,3.11,0,0,0-.106,1.193,1.3,1.3,0,0,0,.284.674.893.893,0,0,0,.536.268,1.624,1.624,0,0,0,.658,0,2.5,2.5,0,0,0,.974-.812,13.156,13.156,0,0,0,1.21-1.81c.422-.723.812-1.51,1.258-2.346a19.468,19.468,0,0,0,1.112-2.435.584.584,0,0,1,.3-.373.325.325,0,0,1,.341,0,.909.909,0,0,1,.268.373.982.982,0,0,1,0,.617c-.26.86-.593,1.786-1.007,2.793a23.482,23.482,0,0,1-1.356,2.833,11.65,11.65,0,0,1-1.624,2.224,2.939,2.939,0,0,1-1.77,1.007,2.858,2.858,0,0,1-2.094-.528,4.643,4.643,0,0,1-1.331-1.624,6.77,6.77,0,0,1-.658-1.94,7.573,7.573,0,0,1-.179-1.469Z" transform="translate(-66.07 -38.222)" fill="#d81b5c"/>
  <path id="Path_888" data-name="Path 888" d="M216.491,91.366c-.244.658-.471,1.3-.69,1.916a16.108,16.108,0,0,1-.763,1.81,17.862,17.862,0,0,1-.958,1.721,8.727,8.727,0,0,1-1.242,1.559,7.306,7.306,0,0,1-1.883,1.437,5.309,5.309,0,0,1-1.827.593,3,3,0,0,1-1.762-.308,4.1,4.1,0,0,1-1.624-1.624c-.073-.162-.1-.252-.057-.284a.357.357,0,0,1,.211,0,2.565,2.565,0,0,0,2.346-.812,4.489,4.489,0,0,0,.885-2.435,13.063,13.063,0,0,0-.106-3.2c-.17-1.161-.341-2.224-.52-3.247-.244.625-.463,1.242-.666,1.875s-.39,1.218-.568,1.778c-.1.162-.2.244-.325.244a.544.544,0,0,1-.349-.154.958.958,0,0,1-.252-.43.812.812,0,0,1,0-.56c.3-.812.585-1.7.869-2.646s.576-1.851.893-2.7a17.717,17.717,0,0,1,.154-2.273,13.662,13.662,0,0,1,.479-2.322,8.174,8.174,0,0,1,.812-1.867,1.94,1.94,0,0,1,1.063-.958c.179-.065.446,0,.812.235a7.7,7.7,0,0,1,1.063.812,5.407,5.407,0,0,1,.877.974.967.967,0,0,1,.268.812,12.008,12.008,0,0,0-2.013,2.265,9.392,9.392,0,0,0-1.258,3.247,4.416,4.416,0,0,0,.146,1.778c.179.714.4,1.486.658,2.338s.528,1.713.812,2.6a13.046,13.046,0,0,1,.536,2.565,8.93,8.93,0,0,0,1.575-2.2,25.9,25.9,0,0,0,1.388-3.426.357.357,0,0,1,.333-.138.544.544,0,0,1,.357.179,1.892,1.892,0,0,1,.252.39A.576.576,0,0,1,216.491,91.366Z" transform="translate(-68.016 -39.743)" fill="#d81b5c"/>
  <path id="Path_889" data-name="Path 889" d="M81.91,107.948a.69.69,0,0,1,.7-.7h2a2.7,2.7,0,0,1,1.624.455,2.208,2.208,0,0,1,.812,2.435,2.094,2.094,0,0,1-.763,1.112,2.192,2.192,0,0,1,.877,1.145,2.338,2.338,0,0,1,0,1.4,2.184,2.184,0,0,1-.812,1.185,2.7,2.7,0,0,1-1.624.5H82.608a.674.674,0,0,1-.5-.211.658.658,0,0,1-.2-.5Zm3.775,1.624a.812.812,0,0,0-.252-.641,1.2,1.2,0,0,0-.812-.276h-1.3v1.94h1.3a1.21,1.21,0,0,0,.812-.284.812.812,0,0,0,.252-.633Zm.138,3.418a.9.9,0,0,0-.276-.7,1.275,1.275,0,0,0-.877-.3H83.306v2.1H84.67a1.242,1.242,0,0,0,.877-.308.885.885,0,0,0,.276-.69Z" transform="translate(-44.726 -45.163)" fill="#d81b5c"/>
  <path id="Path_890" data-name="Path 890" d="M92.952,115.008a1.948,1.948,0,0,1-.974.487,1.981,1.981,0,0,1-1.965-.861,2.346,2.346,0,0,1-.373-1.348V109.35h1.372v3.937a.812.812,0,0,0,.235.609,1.072,1.072,0,0,0,.731.268,1.039,1.039,0,0,0,.731-.268.812.812,0,0,0,.244-.609V109.35h1.364v5.991a2.086,2.086,0,0,1-.812,1.7,2.435,2.435,0,0,1-1.551.544H89.843v-1.372h2.111a1.08,1.08,0,0,0,.69-.235.812.812,0,0,0,.284-.641Z" transform="translate(-46.18 -45.559)" fill="#d81b5c"/>
  <path id="Path_891" data-name="Path 891" d="M105.09,114.085v1.4h-3.872a.706.706,0,0,1-.7-.706V107.25h1.4v6.835Z" transform="translate(-48.228 -45.163)" fill="#d81b5c"/>
  <path id="Path_892" data-name="Path 892" d="M107.5,110.682V109.31h2.021a2.054,2.054,0,0,1,2.054,2.062v4.465h-1.364v-.276a2.273,2.273,0,0,1-1.1.276h-.26a2.054,2.054,0,0,1-2.054-2.054v-.292a1.827,1.827,0,0,1,.544-1.331,1.851,1.851,0,0,1,1.331-.552h1.542v-.235a.682.682,0,0,0-.2-.487.666.666,0,0,0-.487-.2Zm2.711,2.3h-1.542a.471.471,0,0,0-.357.154.5.5,0,0,0-.154.357v.292a.69.69,0,0,0,.69.682h.268a1.08,1.08,0,0,0,.812-.3.974.974,0,0,0,.3-.723Z" transform="translate(-49.408 -45.551)" fill="#d81b5c"/>
  <path id="Path_893" data-name="Path 893" d="M118.576,115.482H117.2v-1.7a.747.747,0,0,0-.252-.6,1.112,1.112,0,0,0-.812-.268h-.747v2.573H114.03V107.25h1.364v4.286h.747a1.112,1.112,0,0,0,.812-.268.755.755,0,0,0,.252-.609v-1.7h1.372v1.534a2.086,2.086,0,0,1-.7,1.624l-.138.114.138.114a1.924,1.924,0,0,1,.7,1.445Z" transform="translate(-50.771 -45.163)" fill="#d81b5c"/>
  <path id="Path_894" data-name="Path 894" d="M124.69,109.349v1.339h-1.737a1.34,1.34,0,0,0-.812.211.455.455,0,0,0-.162.382.43.43,0,0,0,.325.422,2.476,2.476,0,0,0,.56.146,4.132,4.132,0,0,1,1.534.406,1.737,1.737,0,0,1,.706,1.624,1.835,1.835,0,0,1-.69,1.51,2.5,2.5,0,0,1-1.624.487h-2.135V114.5h2.135a1.283,1.283,0,0,0,.812-.2.544.544,0,0,0-.17-.9,3,3,0,0,0-.747-.154,3.653,3.653,0,0,1-1.348-.4,1.624,1.624,0,0,1-.69-1.534,1.77,1.77,0,0,1,.7-1.477,2.517,2.517,0,0,1,1.624-.487Z" transform="translate(-52.014 -45.558)" fill="#d81b5c"/>
  <path id="Path_895" data-name="Path 895" d="M131.946,115.482h-1.364v-4.449a.812.812,0,0,0-.252-.609,1.112,1.112,0,0,0-.812-.268,1.145,1.145,0,0,0-.812.268.812.812,0,0,0-.235.593v4.465H127.1V107.25h1.372v2.07a1.9,1.9,0,0,1,1.023-.5,2.021,2.021,0,0,1,1.12.122,1.932,1.932,0,0,1,.909.739,2.435,2.435,0,0,1,.365,1.348Z" transform="translate(-53.231 -45.163)" fill="#d81b5c"/>
  <path id="Path_896" data-name="Path 896" d="M139.1,115.843H137.74v-4.449a.812.812,0,0,0-.235-.617,1.137,1.137,0,0,0-1.445,0,.812.812,0,0,0-.235.6v4.465H134.46v-6.494h1.364v.341a1.94,1.94,0,0,1,2.947.414,1.794,1.794,0,0,1,.966-.812,1.965,1.965,0,0,1,1.2-.049,1.867,1.867,0,0,1,1.023.714,2.435,2.435,0,0,1,.43,1.453v4.449h-1.364v-4.449a.812.812,0,0,0-.244-.617,1.135,1.135,0,0,0-1.445,0,.812.812,0,0,0-.235.617Z" transform="translate(-54.616 -45.525)" fill="#d81b5c"/>
  <path id="Path_897" data-name="Path 897" d="M145.68,107.25h1.372v1.023H145.68Zm0,1.7h1.372v6.494H145.68Z" transform="translate(-56.727 -45.163)" fill="#d81b5c"/>
  <path id="Path_898" data-name="Path 898" d="M187.944,60.459a3.245,3.245,0,0,0-.171-.869c-.114-.349-.227-.649-.341-.909a1.063,1.063,0,0,0-.39-.52c-.146-.089-.26,0-.357.195a5.553,5.553,0,0,1-.536,2.435,4.952,4.952,0,0,1-1.323,1.624,6.283,6.283,0,0,1-1.835,1.031,14.3,14.3,0,0,1-2.046.593,17.729,17.729,0,0,1-5.082,0q-2.979-.382-6.348-1.007l-6.86-1.3a52.767,52.767,0,0,0-6.7-.812,26.789,26.789,0,0,0-3-.041,15.668,15.668,0,0,0-3.523.528,18.55,18.55,0,0,0-4.765,2,16.056,16.056,0,0,0-4.173,3.548,16.236,16.236,0,0,0-2.874,5.187,17.048,17.048,0,0,0-.747,6.876,8.118,8.118,0,0,0,.609,2.671,9.473,9.473,0,0,0,1.234,2.135,13.4,13.4,0,0,0,1.542,1.672c.544.479,1.047.909,1.518,1.275.211.195.357.292.43.292s.114,0,.122-.138a1,1,0,0,0-.065-.4,4.809,4.809,0,0,1-.122-.56,38.968,38.968,0,0,1-.812-7.225,24.2,24.2,0,0,1,.755-6.421,13.411,13.411,0,0,1,2.435-4.976,9,9,0,0,1,4.327-2.947,11.446,11.446,0,0,1,4.644-.585,40.446,40.446,0,0,1,5.139.747l1.007.154c1.7.414,3.418.893,5.147,1.421s3.426,1.031,5.114,1.494,3.32.812,4.871,1.169a22.373,22.373,0,0,0,4.579.471,15.424,15.424,0,0,0,3.491-.471,6.917,6.917,0,0,0,2.866-1.461,6.5,6.5,0,0,0,1.827-2.7A8.857,8.857,0,0,0,187.944,60.459Z" transform="translate(-55.057 -35.919)" fill="#d81b5c"/>
  <path id="Path_899" data-name="Path 899" d="M195.586,54.032s.341-1.128,1.266-.852-.812,3.028-1.258,3.564-2.184,3.06-2.184,3.06Z" transform="translate(-65.71 -34.979)" fill="#d81b5c"/>
  <path id="Path_900" data-name="Path 900" d="M191.469,54.233s.2-1.169,1.145-1.007-.414,3.1-.812,3.686-1.8,3.312-1.8,3.312Z" transform="translate(-65.068 -34.993)" fill="#d81b5c"/>
  <path id="Path_901" data-name="Path 901" d="M187.508,55.511s.187-1.169,1.137-1.015-.382,3.1-.763,3.694-1.762,3.328-1.762,3.328Z" transform="translate(-64.338 -35.233)" fill="#d81b5c"/>
  <path id="Path_902" data-name="Path 902" d="M183.655,56.165s0-1.185.95-1.185.138,3.117-.138,3.767-1.177,3.572-1.177,3.572Z" transform="translate(-63.805 -35.326)" fill="#d81b5c"/>
  <path id="Path_903" data-name="Path 903" d="M179.7,56.347s-.211-1.218.812-1.388.682,3.2.5,3.921-.6,3.889-.6,3.889Z" transform="translate(-63.126 -35.321)" fill="#d81b5c"/>
  <path id="Path_904" data-name="Path 904" d="M175.745,55.74s-.357-1.21.625-1.494,1.063,3.158.966,3.9-.154,4-.154,4Z" transform="translate(-62.374 -35.185)" fill="#d81b5c"/>
  <path id="Path_905" data-name="Path 905" d="M181.454,44.394s-5.886-2.955-7.566,2.784,8.735,5.569,10.107,5.033,9.287-3.247,11.2-.195c0,0-1.291-3.645-8.159-2.687s-10.691,1.2-10.943-1.624S178.669,44.426,181.454,44.394Z" transform="translate(-62.001 -33.191)" fill="#c29a6d"/>
  <path id="Path_906" data-name="Path 906" d="M190.771,36.8s-.755-3.247-1.624-2.979a10.179,10.179,0,0,1-4.27,2.362c-3.182,1.088-3.182,1.68-3.036,2.241s3.694.568,5.78.17,9.076-1.534,9.49,3.247-7.469,4-7.469,4a21.107,21.107,0,0,0-9.669-.536s.812-1.526,6.917-1.469,7.769.122,7.834-1.518-1.737-1.875-1.737-1.875-4.6.3-6.576.6-6.608.341-6.835-2.013,2.159-3.848,2.159-3.848,6.227-1.21,6.34-2.622a5.082,5.082,0,0,0,0-1.794A5.877,5.877,0,0,1,190.771,36.8Z" transform="translate(-63.104 -30.77)" fill="#d81b5c"/>
  <path id="Path_907" data-name="Path 907" d="M36.345,65.409a5.562,5.562,0,0,1-.162-.658,3.775,3.775,0,0,1-.073-.69.706.706,0,0,1,.073-.39c.049-.057.138,0,.252.187a8.183,8.183,0,0,0,2.273,3.061,7.071,7.071,0,0,0,2.784,1.275,11.666,11.666,0,0,0,3.6.244c1.315-.106,2.671-.276,4.059-.528l4.3-.763a27.6,27.6,0,0,1,4.327-.422A28.158,28.158,0,0,1,59.838,64.8a18.473,18.473,0,0,1,2.021-1.5,11.934,11.934,0,0,1,1.843-.966A4.059,4.059,0,0,1,65.245,62a5.747,5.747,0,0,1,1.989.3,7.167,7.167,0,0,1,1.81.917,6.145,6.145,0,0,1,1.437,1.388,4.6,4.6,0,0,1,.812,1.672,13.63,13.63,0,0,1,.373,3.58,19.175,19.175,0,0,1-.4,3.507,16.162,16.162,0,0,1-1.039,3.247,13.8,13.8,0,0,1-1.494,2.646A7.94,7.94,0,0,1,67,81.044a3.085,3.085,0,0,1-1.81.658A2.825,2.825,0,0,1,63.142,81,3.994,3.994,0,0,1,62.1,79.218a7.6,7.6,0,0,1-.252-2.435,14.84,14.84,0,0,1,.357-2.711,18.492,18.492,0,0,1,.731-2.484,8.158,8.158,0,0,1,.917-1.851,5.293,5.293,0,0,0-2.338-.869,32.113,32.113,0,0,0-2.322,2.874,23.129,23.129,0,0,0-1.924,3.3,15.619,15.619,0,0,0-1.185,3.369,6.957,6.957,0,0,0,0,3.166,2.435,2.435,0,0,0,1.047,1.437,10.553,10.553,0,0,0,1.965,1.08c.755.333,1.559.666,2.435,1.007A14,14,0,0,1,63.889,86.3a7.42,7.42,0,0,1,1.81,1.68,4.562,4.562,0,0,1,.9,2.435,8.248,8.248,0,0,1-.373,3.507A6.494,6.494,0,0,1,64.6,96.444a6.705,6.705,0,0,1-2.517,1.477,7.98,7.98,0,0,1-3.1.365,6.21,6.21,0,0,1-2.9-.812A4.684,4.684,0,0,1,54.464,95.8a4.92,4.92,0,0,1-.609-2.159,6.657,6.657,0,0,1,.252-2.241,5.406,5.406,0,0,1,.974-1.9,3.848,3.848,0,0,1,1.526-1.185c.56-.219.893-.284,1.015-.211s-.049.341-.5.812a6.405,6.405,0,0,0-1.713,2.306,4.522,4.522,0,0,0-.373,2.306,2.866,2.866,0,0,0,.925,1.753A3.418,3.418,0,0,0,58.1,96.1a4.229,4.229,0,0,0,2.111-.422,6.008,6.008,0,0,0,1.721-1.2,6.413,6.413,0,0,0,1.193-1.794,6.04,6.04,0,0,0,.5-1.965,3.629,3.629,0,0,0-.26-1.721,2.216,2.216,0,0,0-1.137-1.169c-.438-.219-.958-.446-1.551-.69a19.994,19.994,0,0,1-1.892-.869c-.658-.333-1.315-.714-1.989-1.137a12.647,12.647,0,0,1-1.835-1.388,9.482,9.482,0,0,1-1.469-1.7,5.95,5.95,0,0,1-.869-2.078,9.53,9.53,0,0,1-.195-2.711,13.71,13.71,0,0,1,.5-2.711,13.947,13.947,0,0,1,1.063-2.63,18.843,18.843,0,0,1,1.542-2.484c-.958.284-1.916.593-2.858.925s-1.9.649-2.858.934-1.908.511-2.849.7a9.742,9.742,0,0,1-2.72.195,8.28,8.28,0,0,1-2.435-.406A6.681,6.681,0,0,1,39.641,70.6a8.93,8.93,0,0,1-1.859-2.07A13.841,13.841,0,0,1,36.345,65.409ZM64.6,71.392a14.506,14.506,0,0,0-.6,1.624,15.424,15.424,0,0,0-.479,1.973c-.122.7-.211,1.38-.268,2.038a4.871,4.871,0,0,0,.089,1.689,1.762,1.762,0,0,0,.6,1.023,1.145,1.145,0,0,0,1.193-.049,3.32,3.32,0,0,0,1.193-.99,10.553,10.553,0,0,0,1.218-1.835,22.731,22.731,0,0,0,1.088-2.435,19.07,19.07,0,0,0,.812-2.663,18.575,18.575,0,0,0,.414-2.711,9.206,9.206,0,0,0-.106-2.484,2.362,2.362,0,0,0-1.1-1.745,3.02,3.02,0,0,0-2.216-.195,4.465,4.465,0,0,0-1.551.869,21.3,21.3,0,0,0-2.192,1.94,11.721,11.721,0,0,1,1.437.69l.674.536a4.693,4.693,0,0,1,.5.479,2.347,2.347,0,0,1,.349.649,1.08,1.08,0,0,1,0,.674c0,.073-.089.13-.211.162l-.3.073a.609.609,0,0,0-.341.252Z" transform="translate(-36.106 -36.647)" fill="#c39769"/>
  <path id="Path_908" data-name="Path 908" d="M77,96.648a15.585,15.585,0,0,1,.195-1.956q.154-1.1.414-2.265c.17-.812.349-1.559.528-2.346s.325-1.518.43-2.184.187-1.258.227-1.762a2.8,2.8,0,0,0-.089-1.153c-.106-.219-.081-.357.057-.406a1.007,1.007,0,0,1,.585,0,3.848,3.848,0,0,1,.812.422,5.569,5.569,0,0,1,.885.722,4.271,4.271,0,0,1,.706.942,2.346,2.346,0,0,1,.284,1.12,6.761,6.761,0,0,1-.195,1.21c-.13.593-.3,1.258-.5,2.005l-.633,2.346c-.219.812-.39,1.583-.52,2.281A9.976,9.976,0,0,0,80,97.4c0,.487.089.755.268.812s.56-.122.958-.584a11.138,11.138,0,0,0,1.258-1.948,23.833,23.833,0,0,0,1.283-2.931A26.856,26.856,0,0,0,84.809,89.2a5.5,5.5,0,0,0,.179-1.421c0-.487,0-1.031-.057-1.624,0-.235,0-.357.195-.357a1.518,1.518,0,0,1,.674.235,5.537,5.537,0,0,1,.885.649,7.248,7.248,0,0,1,.812.877,6.589,6.589,0,0,1,.625.917,1.185,1.185,0,0,1,.179.812c-.1.544-.219,1.137-.373,1.786s-.308,1.307-.479,1.989-.325,1.339-.463,1.973-.252,1.2-.325,1.689a5.836,5.836,0,0,0-.106,1.185c0,.3.081.446.219.446.422,0,.877-.414,1.364-1.177a16.433,16.433,0,0,0,1.4-2.923A31.8,31.8,0,0,0,90.8,90.348a30.661,30.661,0,0,0,.731-4.108,13.581,13.581,0,0,0-.049-3.564,3.515,3.515,0,0,0-1.055-2.249c-.244-.179-.365-.349-.373-.5a.5.5,0,0,1,.162-.422,1.055,1.055,0,0,1,.479-.268,1.624,1.624,0,0,1,.625-.057,2.979,2.979,0,0,1,1.68.877,4.059,4.059,0,0,1,1.047,1.81,7.428,7.428,0,0,1,.122,2.784,27.074,27.074,0,0,1-.706,3.832,41.6,41.6,0,0,1-1.3,4.173A32.764,32.764,0,0,1,90.476,96.5a14.386,14.386,0,0,1-1.867,2.825,2.143,2.143,0,0,1-3.726,0,4.66,4.66,0,0,1-1.015-2.508,11.618,11.618,0,0,1-.146-1.291,14.142,14.142,0,0,1-1.753,3.426,3.125,3.125,0,0,1-2.2,1.453,1.794,1.794,0,0,1-1.283-.357A3.345,3.345,0,0,1,77.6,99a5.049,5.049,0,0,1-.5-1.275A4.968,4.968,0,0,1,77,96.648Z" transform="translate(-43.802 -39.879)" fill="#c39769"/>
  <path id="Path_909" data-name="Path 909" d="M102.809,99.795a2.581,2.581,0,0,0,1.689-.812,8.378,8.378,0,0,0,1.388-1.908,24.021,24.021,0,0,0,1.169-2.435c.357-.86.682-1.624.958-2.362a.268.268,0,0,1,.3-.211.95.95,0,0,1,.406.179.934.934,0,0,1,.292.39.511.511,0,0,1,0,.446c-.1.325-.244.747-.446,1.275s-.438,1.112-.714,1.753a21.674,21.674,0,0,1-.974,1.94,13.542,13.542,0,0,1-1.218,1.81,6.494,6.494,0,0,1-1.421,1.348,2.768,2.768,0,0,1-1.624.528,3.515,3.515,0,0,1-2.119-.568,3.978,3.978,0,0,1-1.348-1.624,7.485,7.485,0,0,1-.633-2.338,13.8,13.8,0,0,1,0-2.72,15.487,15.487,0,0,1,.5-2.809,13.036,13.036,0,0,1,.925-2.541h0a6.99,6.99,0,0,1,1.721-2.346,3.2,3.2,0,0,1,1.786-.812,2.192,2.192,0,0,1,1.624.52,3.9,3.9,0,0,1,1.137,1.624,4.14,4.14,0,0,1,.333,1.786,8.053,8.053,0,0,1-.3,1.883,7.59,7.59,0,0,1-.812,1.81,7.42,7.42,0,0,1-1.193,1.51,5.951,5.951,0,0,1-1.469,1.031,3.32,3.32,0,0,1-1.624.357,9.433,9.433,0,0,0,0,1.348,3.612,3.612,0,0,0,.227,1.08,1.494,1.494,0,0,0,.536.69,1.421,1.421,0,0,0,.909.179Zm-1.291-4.936a2.687,2.687,0,0,0,1.9-.666,4.871,4.871,0,0,0,1.258-1.7,7.574,7.574,0,0,0,.625-2.078,5.22,5.22,0,0,0,0-1.81c-.1-.487-.284-.812-.568-.885s-.658.146-1.137.723a4.108,4.108,0,0,0-.7,1.258c-.211.536-.406,1.1-.576,1.689s-.325,1.185-.463,1.794-.244,1.169-.341,1.672Z" transform="translate(-47.838 -41.158)" fill="#c39769"/>
  <path id="Path_910" data-name="Path 910" d="M114.055,99.786a2.582,2.582,0,0,0,1.689-.812,8.378,8.378,0,0,0,1.388-1.908,24.024,24.024,0,0,0,1.169-2.435c.357-.861.682-1.624.958-2.362a.268.268,0,0,1,.3-.211.95.95,0,0,1,.406.179,1.031,1.031,0,0,1,.3.39.536.536,0,0,1,0,.446c-.1.325-.244.747-.447,1.275s-.438,1.112-.714,1.753a21.674,21.674,0,0,1-.974,1.94,13.513,13.513,0,0,1-1.2,1.745,6.69,6.69,0,0,1-1.421,1.348,2.817,2.817,0,0,1-1.624.528,3.515,3.515,0,0,1-2.119-.568,3.978,3.978,0,0,1-1.348-1.624,7.484,7.484,0,0,1-.633-2.338,13.8,13.8,0,0,1,0-2.72,16.236,16.236,0,0,1,.479-2.784,13.037,13.037,0,0,1,.925-2.541h0a6.884,6.884,0,0,1,1.721-2.346,3.182,3.182,0,0,1,1.778-.812,2.192,2.192,0,0,1,1.583.52,3.9,3.9,0,0,1,1.137,1.624,4.14,4.14,0,0,1,.333,1.786,8.053,8.053,0,0,1-.3,1.883,7.591,7.591,0,0,1-.812,1.81,7.421,7.421,0,0,1-1.193,1.51,5.8,5.8,0,0,1-1.429,1.063,3.32,3.32,0,0,1-1.624.357,8.329,8.329,0,0,0,0,1.348,3.385,3.385,0,0,0,.219,1.08,1.494,1.494,0,0,0,.536.69,1.421,1.421,0,0,0,.917.187Zm-1.291-4.936a2.687,2.687,0,0,0,1.9-.666,4.871,4.871,0,0,0,1.258-1.7,7.882,7.882,0,0,0,.633-2.078,5.2,5.2,0,0,0,0-1.81c-.1-.487-.284-.812-.568-.885s-.658.146-1.137.723a4.108,4.108,0,0,0-.7,1.258,16.464,16.464,0,0,0-.568,1.689c-.17.585-.325,1.185-.471,1.794s-.244,1.169-.349,1.672Z" transform="translate(-49.959 -41.15)" fill="#c39769"/>
  <path id="Path_911" data-name="Path 911" d="M120.635,93.019a19.054,19.054,0,0,1,.4-2.736q.382-1.875.885-4.221t1.08-4.92c.373-1.721.714-3.312,1.015-4.79-.52.138-1.039.26-1.559.357a12.748,12.748,0,0,0-1.526.39.658.658,0,0,1-.463.057c-.106,0-.138-.13-.089-.268a1.624,1.624,0,0,1,.438-.552,6.754,6.754,0,0,1,1.072-.812,13.307,13.307,0,0,1,1.234-.7c.414-.211.812-.414,1.315-.617.154-.917.268-1.672.341-2.273a2.671,2.671,0,0,0,0-1.169c-.114-.276,0-.414.26-.4a2.306,2.306,0,0,1,1.047.373,5.788,5.788,0,0,1,1.193.95,2.963,2.963,0,0,1,.812,1.453,12.371,12.371,0,0,1,1.94-.284L132.3,72.7h1.185a7.987,7.987,0,0,1,1.453.244,8.93,8.93,0,0,1,1.461.52,4.108,4.108,0,0,1,1.258.9,5.918,5.918,0,0,1,.812,1.1,5.072,5.072,0,0,1,.39.942,1.364,1.364,0,0,1,0,.633c0,.146-.138.162-.3,0a8.184,8.184,0,0,0-2.013-1.015,14.864,14.864,0,0,0-2.395-.625,18.843,18.843,0,0,0-2.289-.26,7.688,7.688,0,0,0-1.68.081,5.237,5.237,0,0,1-.909.162l-1.51.195c-.138.812-.333,1.737-.568,2.874s-.5,2.338-.763,3.621-.552,2.573-.812,3.889-.56,2.549-.812,3.694-.463,2.143-.641,2.979-.308,1.413-.39,1.737a3.109,3.109,0,0,0-.106,1.193,1.3,1.3,0,0,0,.284.674.893.893,0,0,0,.536.268,1.689,1.689,0,0,0,.666,0,2.549,2.549,0,0,0,.966-.812,13.91,13.91,0,0,0,1.218-1.81c.414-.723.812-1.51,1.25-2.346a20.708,20.708,0,0,0,1.112-2.435.609.609,0,0,1,.3-.373.325.325,0,0,1,.341,0,.812.812,0,0,1,.268.373.982.982,0,0,1,0,.617c-.26.861-.593,1.786-1,2.793a24.792,24.792,0,0,1-1.364,2.833,11.65,11.65,0,0,1-1.624,2.224,2.922,2.922,0,0,1-1.77,1.007,2.857,2.857,0,0,1-2.094-.528,4.733,4.733,0,0,1-1.331-1.624,6.77,6.77,0,0,1-.658-1.94A7.575,7.575,0,0,1,120.635,93.019Z" transform="translate(-51.961 -38.222)" fill="#c39769"/>
</svg>
