<svg id="_2587986831578982986" data-name="2587986831578982986" xmlns="http://www.w3.org/2000/svg" width="65.845" height="76.894" viewBox="0 0 65.845 76.894">
  <g id="Group_350" data-name="Group 350" transform="translate(0)">
    <g id="Group_349" data-name="Group 349">
      <path id="Path_78002" data-name="Path 78002" d="M101.314,7.415a5.564,5.564,0,0,0-4.245-1.963H91.7V3.772A3.776,3.776,0,0,0,87.924,0H51.491A3.776,3.776,0,0,0,47.72,3.771V5.452H42.347A5.564,5.564,0,0,0,38.1,7.415a5.5,5.5,0,0,0-1.245,4.449A28.794,28.794,0,0,0,51.484,32.42a37.97,37.97,0,0,0,2.4,4.82c2.854,4.8,6.4,8.121,10.307,9.726a8.128,8.128,0,0,1-6.277,8.7l-.023.007A1.779,1.779,0,0,0,56.53,57.4v8.164h-3.3A5.345,5.345,0,0,0,47.889,70.9v4.214a1.78,1.78,0,0,0,1.78,1.78H89.916a1.78,1.78,0,0,0,1.78-1.78V70.9a5.345,5.345,0,0,0-5.339-5.339h-3.3V57.4a1.779,1.779,0,0,0-1.369-1.73l-.022-.006a8.121,8.121,0,0,1-6.27-8.77c3.837-1.631,7.323-4.92,10.134-9.651a37.987,37.987,0,0,0,2.4-4.82,28.8,28.8,0,0,0,14.627-20.556A5.5,5.5,0,0,0,101.314,7.415ZM40.37,11.293a1.918,1.918,0,0,1,.443-1.572,2.011,2.011,0,0,1,1.534-.71H47.72v3.274a55.921,55.921,0,0,0,1.9,14.655A25.2,25.2,0,0,1,40.37,11.293ZM86.357,69.121a1.782,1.782,0,0,1,1.78,1.78v2.434H51.449V70.9a1.782,1.782,0,0,1,1.78-1.78ZM79.5,59.177v6.385H60.09V59.177ZM64.757,55.618a11.782,11.782,0,0,0,1.2-1.571A11.577,11.577,0,0,0,67.8,47.938a13.953,13.953,0,0,0,3.994-.023,11.715,11.715,0,0,0,3.056,7.7H64.757ZM88.136,12.285c0,8.768-2.013,16.984-5.669,23.136-3.483,5.862-8.014,9.09-12.759,9.09s-9.277-3.228-12.761-9.09c-3.656-6.152-5.669-14.368-5.669-23.136V3.771a.212.212,0,0,1,.212-.212H87.924a.213.213,0,0,1,.212.212Zm10.909-.993A25.2,25.2,0,0,1,89.8,26.94a55.925,55.925,0,0,0,1.9-14.655V9.011h5.373a2.011,2.011,0,0,1,1.534.71A1.918,1.918,0,0,1,99.046,11.293Z" transform="translate(-36.785)" fill="#cecece"/>
    </g>
  </g>
  <g id="Group_352" data-name="Group 352" transform="translate(22.031 10.421)">
    <g id="Group_351" data-name="Group 351">
      <path id="Path_78003" data-name="Path 78003" d="M205.175,77.241a1.781,1.781,0,0,0-1.437-1.211l-5.37-.78-2.4-4.866a1.78,1.78,0,0,0-3.192,0l-2.4,4.866-5.37.78a1.78,1.78,0,0,0-.986,3.036l3.886,3.788-.917,5.348a1.78,1.78,0,0,0,2.582,1.876l4.8-2.525,4.8,2.525a1.78,1.78,0,0,0,2.582-1.876l-.917-5.348,3.886-3.788A1.78,1.78,0,0,0,205.175,77.241Zm-7.491,3.717a1.779,1.779,0,0,0-.512,1.575l.466,2.717-2.44-1.283a1.781,1.781,0,0,0-1.656,0l-2.44,1.283.466-2.717a1.779,1.779,0,0,0-.512-1.575l-1.974-1.924,2.728-.4a1.78,1.78,0,0,0,1.34-.973l1.22-2.472,1.22,2.472a1.78,1.78,0,0,0,1.34.973l2.728.4Z" transform="translate(-183.479 -69.391)" fill="#cecece"/>
    </g>
  </g>
</svg>
