<svg xmlns="http://www.w3.org/2000/svg" width="84.78" height="76.894" viewBox="0 0 84.78 76.894">
  <path id="_5283742831536556750" data-name="5283742831536556750" d="M90.3,55.419H87.837C87.374,40.247,78.7,27.559,65.765,21.9H81.922v2.465a1.479,1.479,0,0,0,2.957,0V16.479a1.479,1.479,0,0,0-2.957,0v2.465H55.305V16.479A1.479,1.479,0,0,0,53.826,15H45.94a1.479,1.479,0,0,0-1.479,1.479v2.465H17.844V16.479a1.479,1.479,0,1,0-2.957,0v7.887a1.479,1.479,0,1,0,2.957,0V21.9H33.952A37.855,37.855,0,0,0,10.943,56.4H8.479A1.479,1.479,0,0,0,7,57.883V65.77a1.479,1.479,0,0,0,1.479,1.479h7.887a1.479,1.479,0,0,0,1.479-1.479V57.883A1.479,1.479,0,0,0,16.365,56.4H13.9a35.066,35.066,0,0,1,30.56-34.366v2.327a1.479,1.479,0,0,0,1.479,1.479h2.543L33.134,64.794a1.479,1.479,0,0,0,0,1.055l5.5,14.975-.089,9.582a1.479,1.479,0,0,0,1.479,1.489H58.755a1.479,1.479,0,0,0,1.479-1.479V80.872l6.713-14.935a1.479,1.479,0,0,0,0-1.153L51.283,25.844h2.543a1.479,1.479,0,0,0,1.479-1.479V22.039c16.759,2.3,28.973,16.069,29.575,33.38H82.415A1.479,1.479,0,0,0,80.936,56.9v7.887a1.479,1.479,0,0,0,1.479,1.479H90.3a1.479,1.479,0,0,0,1.479-1.479V56.9A1.479,1.479,0,0,0,90.3,55.419ZM14.887,64.291H9.957V59.362h4.929ZM41.5,88.936l.059-6.9H57.277v6.9Zm16.3-9.858H41.139L36.092,65.356,48.4,34.115V60.841a1.479,1.479,0,1,0,2.957,0V33.967L63.99,65.277ZM52.348,22.887H47.419V17.957h4.929ZM88.823,63.305H83.894V58.376h4.929Z" transform="translate(-7 -15)" fill="#cecece"/>
</svg>
