<svg xmlns="http://www.w3.org/2000/svg" width="59.975" height="79.894" viewBox="0 0 59.975 79.894">
  <g id="_7282804081595601825" data-name="7282804081595601825" transform="translate(1.5 1.5)">
    <ellipse id="Ellipse_4" data-name="Ellipse 4" cx="5.94" cy="5.445" rx="5.94" ry="5.445" transform="translate(22.86 23.431)" fill="none" stroke="#cecece" stroke-linecap="round" stroke-linejoin="round" stroke-miterlimit="10" stroke-width="3"/>
    <path id="Path_78010" data-name="Path 78010" d="M17.395,39.749A31.763,31.763,0,0,0,6,57.126h6.552a6.363,6.363,0,0,0,6.267-7.976A43.876,43.876,0,0,1,17.11,36.9C17.395,21.232,24.517,7.843,34.487,3,44.458,7.843,51.58,21.232,51.58,36.615a42.437,42.437,0,0,1-1.709,12.25,6.363,6.363,0,0,0,6.267,7.976h6.837A30.782,30.782,0,0,0,51.58,39.464" transform="translate(-6 -3)" fill="none" stroke="#cecece" stroke-linecap="round" stroke-linejoin="round" stroke-miterlimit="10" stroke-width="3"/>
    <line id="Line_17" data-name="Line 17" y2="22.771" transform="translate(27.81 54.123)" fill="none" stroke="#cecece" stroke-linecap="round" stroke-linejoin="round" stroke-miterlimit="10" stroke-width="3"/>
    <line id="Line_18" data-name="Line 18" y2="11.881" transform="translate(20.88 60.063)" fill="none" stroke="#cecece" stroke-linecap="round" stroke-linejoin="round" stroke-miterlimit="10" stroke-width="3"/>
    <line id="Line_19" data-name="Line 19" y2="11.881" transform="translate(36.721 60.063)" fill="none" stroke="#cecece" stroke-linecap="round" stroke-linejoin="round" stroke-miterlimit="10" stroke-width="3"/>
  </g>
</svg>
