<svg xmlns="http://www.w3.org/2000/svg" width="221.956" height="282.566" viewBox="0 0 221.956 282.566">
  <g id="Layer_1" data-name="Layer 1" transform="translate(2.116 17.007)">
    <g id="_Group_" data-name="&lt;Group&gt;" transform="translate(-2.116 -17.007)">
      <g id="_Group_2" data-name="&lt;Group&gt;" transform="translate(0 0)">
        <g id="_Group_3" data-name="&lt;Group&gt;" transform="translate(95.042 87.277)">
          <path id="_Compound_Path_" data-name="&lt;Compound Path&gt;" d="M569.07,562.576c-1.446.057-3,.094-4.561.113-3.769.051-7.537.017-9.72.017a54.5,54.5,0,0,1-13.546-1.908,37.733,37.733,0,0,1-11.544-5.127,52.7,52.7,0,0,1-10.437-9.294,113.384,113.384,0,0,1-10.293-13.972q-5.251-8.249-11.1-19.25t-12.8-25.12c-.792.794-3.99,3.53-5.074,4.818s-2.221,2.625-3.4,4.014-2.3,2.674-3.332,3.867-1.85,2.129-2.444,2.821L470.736,544l-24.356,1.124V429.211l24.271,2.478.16,49.867q4.443-5.2,10.808-12.858t13.026-15.534q6.672-7.876,12.811-14.938t10.137-11.372a84.766,84.766,0,0,1,9.694-8.994,39.771,39.771,0,0,1,8.589-5.127,31.723,31.723,0,0,1,8.808-2.3,92.711,92.711,0,0,1,10.365-.52c1.674,0,3.552.1,5.623.3a19.181,19.181,0,0,1,4.292.745v9.511H562.9a29.127,29.127,0,0,0-15.769,4.461,68.454,68.454,0,0,0-8.289,6.019q-4.375,3.644-9.7,8.994-5.778,5.8-12.136,12.784c-4.25,4.661-10.714,13.9-15.456,19.25,6.317,12.29,12.667,23.585,18.492,33.892a246.973,246.973,0,0,0,17.1,26.606q8.358,11.149,16.8,17.319a25.457,25.457,0,0,0,10.569,4.559,33.492,33.492,0,0,0,4.557.513" transform="translate(-446.38 -409.91)" fill="#0c0c0c"/>
        </g>
        <g id="_Group_4" data-name="&lt;Group&gt;" transform="translate(25.371 83.949)">
          <g id="_Group_5" data-name="&lt;Group&gt;">
            <path id="_Compound_Path_2" data-name="&lt;Compound Path&gt;" d="M184.6,552.9q-17.767,0-30.275-5.815a51.446,51.446,0,0,1-20.285-16.465,70.686,70.686,0,0,1-11.325-25.457,141.425,141.425,0,0,1-3.551-32.932,90,90,0,0,1,3.481-26.136,73.279,73.279,0,0,1,9.4-20.168,62.874,62.874,0,0,1,13.846-14.73,79.191,79.191,0,0,1,16.652-9.818,81.767,81.767,0,0,1,17.913-5.438,99.7,99.7,0,0,1,17.766-1.661q5.33,0,11.325.375c4,.256,7.867.558,11.621.909s7.256.781,10.514,1.28,5.917,1.011,7.993,1.514L233.9,420.414q-3.114-.907-8.813-2.116t-12.213-2.189q-6.515-.98-12.8-1.663a101.828,101.828,0,0,0-10.586-.679q-4.736,0-8.289.3a40.577,40.577,0,0,0-6.513,1.056,32.547,32.547,0,0,0-5.7,2.038,31.912,31.912,0,0,0-5.549,3.4q-7.109,4.832-9.549,18.5t-2.444,33.914q0,30.973,9.477,47.059T191.55,536.13q5.921,0,12.29-.451t12.658-1.361q6.292-.9,12.285-2.268a111.859,111.859,0,0,0,11.325-3.17v12.839a96.163,96.163,0,0,1-12.8,4.761q-6.886,2.034-14.14,3.473t-14.506,2.191A135.559,135.559,0,0,1,184.6,552.9Z" transform="translate(-119.16 -394.28)" fill="#0c0c0c"/>
          </g>
        </g>
        <path id="_Path_" data-name="&lt;Path&gt;" fill="#0c0c0c"/>
        <g id="crown_2_" data-name="crown 2 " transform="translate(179.1 50.762)">
          <path id="_Path_2" data-name="&lt;Path&gt;" d="M940.49,283.806h13.482l5.11-17.07q-5.171,5.148-5.208,5.187c-.971,1.037-4.88,2.568-4.143-3.75l.451-2.938.377-3.187q-2.756,4.906-2.8,4.976c-1.128,1.806-3.764,2.512-4.7-1.578L940.5,251.73v31.978Z" transform="translate(-919.343 -248.894)" fill="#0c0c0c"/>
          <path id="_Path_3" data-name="&lt;Path&gt;" d="M873.082,283.806H859.6l-5.114-17.07,5.21,5.187c.973,1.037,4.882,2.568,4.146-3.75l-.451-2.938-.377-3.187q2.75,4.906,2.8,4.976c1.126,1.806,3.764,2.512,4.7-1.578l2.563-13.716v31.978Z" transform="translate(-851.654 -248.894)" fill="#0c0c0c"/>
          <path id="_Path_4" data-name="&lt;Path&gt;" d="M1021.49,311.8a2.835,2.835,0,1,1-2.832-2.834A2.831,2.831,0,0,1,1021.49,311.8Z" transform="translate(-978.634 -293.947)" fill="#0c0c0c"/>
          <path id="_Path_5" data-name="&lt;Path&gt;" d="M981.568,291.046a2.834,2.834,0,1,1-2.836-2.836A2.836,2.836,0,0,1,981.568,291.046Z" transform="translate(-947.214 -277.607)" fill="#0c0c0c"/>
          <path id="_Path_6" data-name="&lt;Path&gt;" d="M887.706,291.046a2.833,2.833,0,1,1-2.834-2.836A2.834,2.834,0,0,1,887.706,291.046Z" transform="translate(-873.338 -277.607)" fill="#0c0c0c"/>
          <path id="_Path_7" data-name="&lt;Path&gt;" d="M934.178,241.246a2.834,2.834,0,1,1-2.836-2.836A2.833,2.833,0,0,1,934.178,241.246Z" transform="translate(-909.914 -238.41)" fill="#0c0c0c"/>
          <path id="_Path_8" data-name="&lt;Path&gt;" d="M846.842,311.8a2.836,2.836,0,1,1-2.836-2.834A2.835,2.835,0,0,1,846.842,311.8Z" transform="translate(-841.17 -293.947)" fill="#0c0c0c"/>
        </g>
      </g>
      <text id="CLEVERKINGS_" data-name="CLEVERKINGS " transform="translate(32.213 274.566)" fill="#0c0c0c" font-size="30" font-family="SegoeUI, Segoe UI"><tspan x="0" y="0">CLEVERKINGS</tspan></text>
    </g>
  </g>
</svg>
