<svg xmlns="http://www.w3.org/2000/svg" width="15.633" height="13.702" viewBox="0 0 15.633 13.702">
  <g id="chatting" transform="translate(0 -31.622)">
    <path id="Path_843" data-name="Path 843" d="M10.81,31.622H1.768A1.77,1.77,0,0,0,0,33.39v7.924a.458.458,0,0,0,.724.373l2.518-1.8a1.233,1.233,0,0,1,.719-.23H9.5a1.77,1.77,0,0,0,1.768-1.768V32.08a.458.458,0,0,0-.458-.458ZM8.585,37.17H3.293a.458.458,0,0,1,0-.916H8.585a.458.458,0,0,1,0,.916Zm0-2.137H3.293a.458.458,0,0,1,0-.916H8.585a.458.458,0,0,1,0,.916Z" fill="#fff"/>
    <path id="Path_844" data-name="Path 844" d="M154.238,149.73v7.923a.458.458,0,0,1-.724.373L151,156.23a1.233,1.233,0,0,0-.719-.23h-5.539a1.77,1.77,0,0,1-1.768-1.768v-.868H148.1a2.687,2.687,0,0,0,2.684-2.684v-2.717h1.681A1.77,1.77,0,0,1,154.238,149.73Z" transform="translate(-138.605 -112.788)" fill="#fff"/>
  </g>
</svg>
