<svg xmlns="http://www.w3.org/2000/svg" width="38.437" height="38.437" viewBox="0 0 38.437 38.437">
  <g id="chat" transform="translate(0)">
    <g id="Group_741" data-name="Group 741" transform="translate(0 0)">
      <g id="Group_740" data-name="Group 740" transform="translate(0 0)">
        <path id="Path_784" data-name="Path 784" d="M35.174,23.015a1.5,1.5,0,0,0-2.784,1.125l1.768,4.374L28.906,26.2a1.5,1.5,0,0,0-1.195-.007A14.477,14.477,0,0,1,22,27.347c-8.038,0-13.438-6.294-13.438-12.172C8.559,8.463,14.587,3,22,3s13.438,5.46,13.438,12.172A12.244,12.244,0,0,1,35.3,16.9a1.5,1.5,0,1,0,2.97.443,15.151,15.151,0,0,0,.167-2.163A14.512,14.512,0,0,0,33.574,4.4,17.064,17.064,0,0,0,22,0,17.064,17.064,0,0,0,10.419,4.4a14.593,14.593,0,0,0-4.8,9.484A12.138,12.138,0,0,0,0,23.988a11.649,11.649,0,0,0,2.3,6.961L.11,36.373a1.5,1.5,0,0,0,2,1.937l6.323-2.787a14.29,14.29,0,0,0,5.008.892c.038,0,.074,0,.111-.006a14.211,14.211,0,0,0,7.064-1.915,12.925,12.925,0,0,0,4.542-4.423,17.277,17.277,0,0,0,3.119-.867l8.055,3.551a1.5,1.5,0,0,0,2-1.937ZM13.438,33.407c-.02,0-.04,0-.061,0a11.261,11.261,0,0,1-4.387-.9A1.5,1.5,0,0,0,7.8,32.52L4.28,34.07l1.134-2.806a1.5,1.5,0,0,0-.249-1.537A8.764,8.764,0,0,1,3,23.988a8.933,8.933,0,0,1,2.775-6.4,15.157,15.157,0,0,0,4.441,8.117A16.783,16.783,0,0,0,21.144,30.33,11.035,11.035,0,0,1,13.438,33.407Z" transform="translate(0 0)" fill="#3696db"/>
        <circle id="Ellipse_31" data-name="Ellipse 31" cx="1.5" cy="1.5" r="1.5" transform="translate(21 13.436)" fill="#3696db"/>
        <circle id="Ellipse_32" data-name="Ellipse 32" cx="1.5" cy="1.5" r="1.5" transform="translate(26 13.436)" fill="#3696db"/>
        <ellipse id="Ellipse_33" data-name="Ellipse 33" cx="2" cy="1.5" rx="2" ry="1.5" transform="translate(14 13.436)" fill="#3696db"/>
      </g>
    </g>
  </g>
</svg>
