<svg id="tick" xmlns="http://www.w3.org/2000/svg" width="153.867" height="153.867" viewBox="0 0 153.867 153.867">
  <g id="Group_2866" data-name="Group 2866" transform="translate(36.534 19.332)">
    <g id="Group_2865" data-name="Group 2865">
      <path id="Path_829" data-name="Path 829" d="M234.5,66.031a5.8,5.8,0,0,0-8.2-.01l-69.568,69.385-25.1-27.261A5.8,5.8,0,0,0,123.1,116l29.188,31.7a5.792,5.792,0,0,0,4.142,1.869c.042,0,.083,0,.124,0a5.805,5.805,0,0,0,4.094-1.691L234.49,74.232A5.8,5.8,0,0,0,234.5,66.031Z" transform="translate(-121.568 -64.327)" fill="#3696db"/>
    </g>
  </g>
  <g id="Group_2868" data-name="Group 2868">
    <g id="Group_2867" data-name="Group 2867">
      <path id="Path_830" data-name="Path 830" d="M148.068,71.134a5.8,5.8,0,0,0-5.8,5.8A65.335,65.335,0,1,1,76.933,11.6a5.8,5.8,0,1,0,0-11.6,76.933,76.933,0,1,0,76.933,76.933A5.8,5.8,0,0,0,148.068,71.134Z" fill="#3696db"/>
    </g>
  </g>
</svg>
