<svg id="brands-and-logotypes" xmlns="http://www.w3.org/2000/svg" width="36" height="36" viewBox="0 0 36 36">
  <path id="Path_791" data-name="Path 791" d="M8.437,111.169a9.5,9.5,0,0,1,1.345-4.885v-6.069H3.714a18.009,18.009,0,0,0,0,21.907H9.783v-6.069A9.5,9.5,0,0,1,8.437,111.169Z" transform="translate(0 -93.169)" fill="#fbbd00"/>
  <path id="Path_792" data-name="Path 792" d="M200.219,374.3,196,378.518l4.219,4.219a17.864,17.864,0,0,0,10.954-3.714v-6.062H205.11A9.561,9.561,0,0,1,200.219,374.3Z" transform="translate(-182.219 -346.737)" fill="#0f9d58"/>
  <path id="Path_793" data-name="Path 793" d="M58.892,325.477l-6.069,6.069a18.285,18.285,0,0,0,1.558,1.774,17.882,17.882,0,0,0,12.728,5.272v-8.437A9.566,9.566,0,0,1,58.892,325.477Z" transform="translate(-49.109 -302.592)" fill="#31aa52"/>
  <path id="Path_794" data-name="Path 794" d="M274,201.45a18.16,18.16,0,0,0-.295-3.261l-.158-.865H256v8.438h8.54a9.519,9.519,0,0,1-3.648,3.912l6.062,6.062a18.29,18.29,0,0,0,1.774-1.558A17.882,17.882,0,0,0,274,201.45Z" transform="translate(-238 -183.45)" fill="#3c79e6"/>
  <path id="Path_795" data-name="Path 795" d="M206.98,11.238l.746.746,5.966-5.966-.746-.746A17.882,17.882,0,0,0,200.219,0L196,4.219l4.219,4.219A9.5,9.5,0,0,1,206.98,11.238Z" transform="translate(-182.219)" fill="#cf2d48"/>
  <path id="Path_796" data-name="Path 796" d="M67.108,8.437V0A17.883,17.883,0,0,0,54.38,5.272a18.27,18.27,0,0,0-1.558,1.774l6.069,6.069a9.567,9.567,0,0,1,8.217-4.677Z" transform="translate(-49.108 0)" fill="#eb4132"/>
</svg>
