<svg id="user" xmlns="http://www.w3.org/2000/svg" width="23.838" height="24.212" viewBox="0 0 23.838 24.212">
  <path id="Path_654" data-name="Path 654" d="M92.863,11.663a5.642,5.642,0,0,0,4.123-1.708,5.642,5.642,0,0,0,1.708-4.123,5.643,5.643,0,0,0-1.708-4.123,5.83,5.83,0,0,0-8.246,0,5.643,5.643,0,0,0-1.708,4.123A5.642,5.642,0,0,0,88.74,9.955,5.644,5.644,0,0,0,92.863,11.663Zm0,0" transform="translate(-81.097 0)" fill="#fff"/>
  <path id="Path_655" data-name="Path 655" d="M23.78,254.239a12.324,12.324,0,0,0-.232-1.53,10.56,10.56,0,0,0-.444-1.538,7.068,7.068,0,0,0-.746-1.435,5.629,5.629,0,0,0-1.125-1.243,5.158,5.158,0,0,0-1.616-.861,6.488,6.488,0,0,0-2.064-.316,2.318,2.318,0,0,0-1.119.4c-.335.185-.727.4-1.165.637a7.328,7.328,0,0,1-1.508.563,6.86,6.86,0,0,1-3.688,0,7.311,7.311,0,0,1-1.507-.563c-.434-.235-.826-.449-1.166-.637a2.315,2.315,0,0,0-1.118-.4,6.478,6.478,0,0,0-2.063.317,5.152,5.152,0,0,0-1.617.861,5.629,5.629,0,0,0-1.125,1.242,7.081,7.081,0,0,0-.746,1.435,10.583,10.583,0,0,0-.444,1.538,12.279,12.279,0,0,0-.232,1.53c-.038.463-.057.944-.057,1.43a3.724,3.724,0,0,0,1.409,3.042,5.631,5.631,0,0,0,3.631,1.122H18.8a5.63,5.63,0,0,0,3.631-1.122,3.722,3.722,0,0,0,1.409-3.042c0-.488-.02-.969-.058-1.43Zm0,0" transform="translate(0 -235.621)" fill="#fff"/>
</svg>
