<svg id="curriculum" xmlns="http://www.w3.org/2000/svg" width="79.584" height="68.697" viewBox="0 0 79.584 68.697">
  <g id="Group_830" data-name="Group 830" transform="translate(0)">
    <g id="Group_829" data-name="Group 829">
      <path id="Path_825" data-name="Path 825" d="M61.8,4.59,61.414,0,9.545,3.031l4.9,57.844L24.656,60.6V10.709H70.433V64.18l11.225.509L89.129,7.036Z" transform="translate(-9.545)" fill="#fff"/>
    </g>
  </g>
  <g id="Group_832" data-name="Group 832" transform="translate(17.968 14.737)">
    <g id="Group_831" data-name="Group 831">
      <path id="Path_826" data-name="Path 826" d="M98.884,109.838V163.8h39.182V109.838Zm12.908,9.184a6.854,6.854,0,0,1,5.691,2.537l-2.7,2.411a3.428,3.428,0,0,0-2.773-1.486,3.179,3.179,0,0,0,0,6.344,3.427,3.427,0,0,0,2.773-1.486l2.7,2.411a6.854,6.854,0,0,1-5.691,2.538c-4.078,0-7.069-2.737-7.069-6.634S107.714,119.022,111.792,119.022Zm19.818,36.265H105.34v-4.028H131.61Zm0-7.165H105.34v-4.028H131.61Zm0-7.165H105.34v-4.028H131.61Zm-4.7-8.958H122.7l-5.365-12.688h4.6l3.027,7.413,3.1-7.413h4.2Z" transform="translate(-98.884 -109.838)" fill="#fff"/>
    </g>
  </g>
</svg>
