<svg xmlns="http://www.w3.org/2000/svg" width="58.889" height="53.846" viewBox="0 0 58.889 53.846">
  <path id="_12389786231582000618" data-name="12389786231582000618" d="M118.052,86.752c-6.263-3.391-12.574-2.951-18.492.989a2.386,2.386,0,0,1-3.281-.016,17.74,17.74,0,0,0-23.986,25.618,6.5,6.5,0,0,1,1.538,3.2,4.6,4.6,0,0,0,4.034,4.034c1.209.22,1.57.628,1.774,1.758a4.746,4.746,0,0,0,4.019,4.081c1.334.235,1.648.848,1.884,1.994a4.732,4.732,0,0,0,3.956,3.862c1.287.235,1.617.769,1.9,1.931a5.244,5.244,0,0,0,8.838,2.59c1.146-1.036,2.213-2.166,3.3-3.265a3.1,3.1,0,0,1,2.056-1.13,4.993,4.993,0,0,0,4.819-4.4c.188-.973.5-1.319,1.476-1.491a4.953,4.953,0,0,0,4.348-4.348c.188-1.162.722-1.381,1.727-1.538,1.711-.267,3.328-1.272,3.642-2.888.534-2.684,2.26-4.584,3.532-6.781a16.429,16.429,0,0,0,2.213-8.43C127.2,95.543,124.221,90.1,118.052,86.752ZM78.981,118.289a2.706,2.706,0,0,1-2.543-1.6A2.5,2.5,0,0,1,76.7,113.7c1.428-1.554,2.935-3.045,4.49-4.49a2.475,2.475,0,0,1,2.967-.267,2.685,2.685,0,0,1,1.57,2.543C85.715,113.344,80.817,118.273,78.981,118.289ZM86.83,123.3a2.847,2.847,0,0,1-4.034-4.019c1.319-1.413,2.7-2.778,4.128-4.1a2.53,2.53,0,0,1,3.14-.345,2.919,2.919,0,0,1,.722,4.521C89.467,120.675,88.2,122.04,86.83,123.3Zm5.651,6a2.536,2.536,0,0,1-3.72-.078,2.605,2.605,0,0,1-.267-3.893c1.334-1.507,2.826-2.888,4.285-4.285a2.517,2.517,0,0,1,3.14-.345,2.724,2.724,0,0,1,1.523,2.574,2.517,2.517,0,0,1-.659,1.774C95.353,126.467,93.972,127.943,92.481,129.292Zm4.144,6.546a2.838,2.838,0,0,1-2.606-1.476,2.527,2.527,0,0,1,.267-3.155c1.413-1.554,2.935-3.014,4.474-4.442a2.429,2.429,0,0,1,2.951-.251,2.648,2.648,0,0,1,1.57,2.527C103.265,130.831,98.43,135.776,96.625,135.838Zm22.181-18.382c-1.428,1.381-2.967,1.02-4.317-.3-3.3-3.265-6.562-6.562-9.858-9.827-.706-.706-1.491-1.962-2.59-.91-1.115,1.052.063,1.884.785,2.606,3.155,3.171,6.342,6.326,9.5,9.513,1.868,1.884,2.1,3.579.6,4.835-1.774,1.476-3.249.722-4.678-.738-3.187-3.265-6.436-6.452-9.67-9.67-.691-.675-1.428-1.68-2.417-.659-.973.989,0,1.79.659,2.465q4.9,4.945,9.858,9.827c1.4,1.381,1.931,2.826.518,4.49a1.571,1.571,0,0,1-1.02.518c-.549-.016-.408-.581-.455-.958a5.062,5.062,0,0,0-4.442-4.8c-.958-.188-1.35-.5-1.491-1.491a4.968,4.968,0,0,0-4.317-4.364c-.91-.188-1.381-.392-1.523-1.428a4.908,4.908,0,0,0-4.285-4.4c-1.115-.2-1.366-.675-1.617-1.664-1.115-4.458-5.7-5.73-9.089-2.59a42.916,42.916,0,0,0-3.265,3.281c-.942,1.083-1.46.769-2.166-.267a16.5,16.5,0,0,1-2.606-9.748,14.612,14.612,0,0,1,7.912-12.166c5.023-2.794,10.109-2.559,15.132.188,1.727.942,2.37,1.774.471,3.249A28.885,28.885,0,0,0,91.3,95.527c-2.229,2.37-2.292,5.478-.188,7.66a5.444,5.444,0,0,0,7.692,0c1.319-1.209,2.59-2.48,3.8-3.8.785-.863,1.334-.91,2.166-.047,4.568,4.646,9.2,9.23,13.8,13.845C119.936,114.49,120.25,116.044,118.805,117.457Zm3.626-6.766c-.8,1.334-1.35,1.413-2.5.251-4.709-4.835-9.591-9.528-14.285-14.379-1.413-1.46-2.386-1.6-3.752-.016-1.428,1.664-3.061,3.155-4.646,4.678-1.366,1.3-2.92,1.6-4.3.173s-1.1-2.951.267-4.3c2.135-2.119,4.144-4.4,6.436-6.326,4.866-4.066,10.407-4.945,16.2-2.323,5.887,2.669,8.744,7.519,9.01,12.762A16.881,16.881,0,0,1,122.432,110.691Z" transform="translate(-68.457 -84.472)" fill="#cecece"/>
</svg>
