<svg id="Layer_1_1_" xmlns="http://www.w3.org/2000/svg" width="64.476" height="57.76" viewBox="0 0 64.476 57.76">
  <path id="Path_78021" data-name="Path 78021" d="M6.8,31.69l3.6,21.621v7.95H56.074V53.312l3.6-21.621a5.373,5.373,0,1,0-4.947-5.356,5.35,5.35,0,0,0,.956,3.051L44.63,36.424,35.544,13.709a5.373,5.373,0,1,0-4.61,0L21.848,36.424,10.791,29.388A5.37,5.37,0,1,0,6.8,31.69Zm6.291,26.884v-4.03H53.4l-.013,4.03ZM60.1,23.648a2.687,2.687,0,0,1,0,5.373,2.652,2.652,0,0,1-1.01-.2l-.271-.11-.253-.177A2.681,2.681,0,0,1,60.1,23.648ZM30.551,8.872a2.687,2.687,0,1,1,3.031,2.646l-.344.044-.344-.044A2.684,2.684,0,0,1,30.551,8.872ZM23.136,40.427l10.1-25.252,10.1,25.252,13.6-8.655L53.593,51.858H12.865L9.535,31.774ZM6.372,23.648a2.681,2.681,0,0,1,1.534,4.884l-.253.177-.271.11a2.657,2.657,0,0,1-1.01.2,2.687,2.687,0,1,1,0-5.373Z" transform="translate(-1.001 -3.501)" fill="#cecece"/>
  <rect id="Rectangle_149" data-name="Rectangle 149" width="2.687" height="2.687" transform="translate(30.894 41.64)" fill="#cecece"/>
</svg>
