<svg xmlns="http://www.w3.org/2000/svg" width="43.032" height="71.721" viewBox="0 0 43.032 71.721">
  <path id="_19538385031554892205" data-name="19538385031554892205" d="M44.516,57.6A4.781,4.781,0,1,0,49.3,62.376,4.8,4.8,0,0,0,44.516,57.6Zm0,6.375a1.594,1.594,0,1,1,1.594-1.594A1.6,1.6,0,0,1,44.516,63.97Zm19.922,9.563H60.295L57.266,49.467a1.63,1.63,0,0,0-1.594-1.434H46.11V35.68L54.079,39.9a1.184,1.184,0,0,0,.717.159,1.531,1.531,0,0,0,.956-.319,1.661,1.661,0,0,0,.638-1.594L54.557,27.472l7.73-7.57a1.6,1.6,0,0,0-.877-2.709L50.652,15.6,45.871,5.877A1.327,1.327,0,0,0,44.516,5a1.505,1.505,0,0,0-1.434.877L38.3,15.6,27.542,17.192a1.44,1.44,0,0,0-1.275,1.116,1.611,1.611,0,0,0,.4,1.594l7.73,7.57L32.563,38.151a1.733,1.733,0,0,0,.638,1.594,1.779,1.779,0,0,0,1.673.159l7.969-4.224V48.032H33.36a1.63,1.63,0,0,0-1.594,1.434L28.738,73.533H24.594a1.594,1.594,0,1,0,0,3.188H64.438a1.594,1.594,0,0,0,0-3.188ZM37.264,25.8l-6.056-5.9,8.367-1.2a1.532,1.532,0,0,0,1.2-.877l3.745-7.57,3.745,7.57a1.669,1.669,0,0,0,1.2.877l8.367,1.2-6.056,5.9a1.606,1.606,0,0,0-.478,1.434L52.724,35.6l-7.491-3.9a1.184,1.184,0,0,0-.717-.159,2.327,2.327,0,0,0-.717.159l-7.491,3.9,1.434-8.367A1.607,1.607,0,0,0,37.264,25.8ZM32,73.533,34.794,51.22H54.318l2.789,22.313Z" transform="translate(-23 -5)" fill="#cecece"/>
</svg>
