<svg xmlns="http://www.w3.org/2000/svg" width="47.584" height="69.112" viewBox="0 0 47.584 69.112">
  <g id="Page-1" transform="translate(0.899 0.5)">
    <g id="icon-34-award" transform="translate(0 0)">
      <path id="award" d="M28.85,43.1,18.79,69.306l-3.94-8.85L6,64.4,15.939,38.5a20.55,20.55,0,1,1,25.907,0L51.786,64.4l-8.85-3.94L39,69.306,28.936,43.1H28.85Zm-2.391-.143L18.622,63.372,16,57.472,10.1,60.1l7.759-20.212a20.421,20.421,0,0,0,8.6,3.071Zm13.472-3.071L47.69,60.1l-5.9-2.627-2.627,5.9L31.327,42.957a20.421,20.421,0,0,0,8.6-3.071Zm-11.038.93A18.267,18.267,0,1,0,10.626,22.55,18.267,18.267,0,0,0,28.893,40.817Zm0-12.119L20.9,33.967l3.425-9.133-6.85-4.567h7.992l3.425-9.133,3.425,9.133H40.31l-6.85,4.567,3.425,9.133L28.893,28.7Z" transform="translate(-6 -2)" fill="#cecece" stroke="#cecece" stroke-width="1" fill-rule="evenodd"/>
    </g>
  </g>
</svg>
